<?xml version="1.0" encoding="UTF-8" standalone="no"?>
<svg xmlns="http://www.w3.org/2000/svg" version="1.2" baseProfile="tiny" viewBox="0 0 567 183">
<path fill="#ffc001" d="
  M 95.06 0.00
  L 95.81 0.00
  L 121.50 9.96
  L 95.25 19.79
  L 70.65 10.32
  A 0.91 0.87 -1.2 0 1 70.16 9.87
  L 70.00 9.54
  L 95.06 0.00
  Z"
/>
<path fill="#cc130e" d="
  M 358.98 5.73
  Q 366.13 4.18 365.25 11.46
  Q 364.92 14.16 362.44 14.54
  C 350.66 16.31 352.70 0.46 363.09 0.66
  A 0.93 0.50 -2.3 0 1 363.94 1.08
  Q 364.16 2.16 363.73 3.25
  A 0.76 0.41 6.1 0 1 363.04 3.53
  Q 360.48 3.47 358.88 5.30
  Q 358.39 5.85 358.98 5.73
  Z
  M 360.1420 12.0235
  A 2.02 1.63 85.4 0 0 361.6047 9.8793
  A 2.02 1.63 85.4 0 0 359.8180 7.9965
  A 2.02 1.63 85.4 0 0 358.3553 10.1407
  A 2.02 1.63 85.4 0 0 360.1420 12.0235
  Z"
/>
<path fill="#cc130e" d="
  M 371.98 11.51
  L 368.17 11.55
  Q 365.28 11.58 366.76 8.97
  L 371.10 1.33
  A 1.18 0.94 -71.8 0 1 372.00 0.74
  L 375.50 0.75
  A 0.67 0.56 0.4 0 1 376.17 1.32
  L 376.03 8.00
  A 0.61 0.49 -85.7 0 0 376.45 8.61
  Q 378.53 8.92 377.49 11.00
  A 1.43 0.75 -12.5 0 1 376.84 11.55
  Q 375.60 12.12 376.00 13.82
  A 0.67 0.36 76.0 0 1 375.82 14.52
  Q 371.89 15.98 372.53 12.05
  A 0.54 0.47 3.5 0 0 371.98 11.51
  Z
  M 372.42 5.22
  Q 372.18 4.16 371.67 5.25
  L 370.41 7.92
  A 0.56 0.52 -70.4 0 0 370.74 8.68
  Q 373.37 9.27 372.42 5.22
  Z"
/>
<path fill="#1747ce" d="
  M 351.7395 15.7351
  A 7.84 7.84 0.0 0 1 343.8314 23.5064
  L 342.2915 23.4929
  A 7.84 7.84 0.0 0 1 334.5202 15.5848
  L 334.5405 13.2649
  A 7.84 7.84 0.0 0 1 342.4486 5.4936
  L 343.9885 5.5071
  A 7.84 7.84 0.0 0 1 351.7598 13.4152
  L 351.7395 15.7351
  Z
  M 343.1631 19.4000
  A 4.85 1.84 90.2 0 0 345.0200 14.5564
  A 4.85 1.84 90.2 0 0 343.1969 9.7000
  A 4.85 1.84 90.2 0 0 341.3400 14.5436
  A 4.85 1.84 90.2 0 0 343.1631 19.4000
  Z"
/>
<path fill="#1747ce" d="
  M 224.35 13.94
  L 224.52 6.50
  A 0.76 0.48 -89.5 0 1 225.00 5.75
  L 229.75 5.75
  A 0.75 0.50 90.0 0 1 230.25 6.50
  L 230.24 22.94
  A 0.54 0.45 0.6 0 1 229.69 23.39
  L 222.50 23.28
  A 0.78 0.75 79.4 0 1 221.81 22.79
  Q 220.26 18.95 219.09 15.04
  C 218.72 13.82 218.42 14.85 218.48 15.50
  Q 218.79 19.04 218.64 22.57
  A 0.73 0.65 -89.0 0 1 218.00 23.27
  L 213.44 23.35
  A 0.60 0.44 90.0 0 1 213.00 22.75
  L 213.00 6.50
  A 0.75 0.50 -90.0 0 1 213.50 5.75
  L 220.75 5.75
  A 0.85 0.65 77.9 0 1 221.42 6.32
  L 224.04 13.94
  Q 224.33 14.80 224.35 13.94
  Z"
/>
<rect fill="#1747ce" x="-3.50" y="-8.76" transform="translate(236.74,14.51) rotate(-0.1)" width="7.00" height="17.52" rx="0.43"/>
<path fill="#1747ce" d="
  M 248.91 15.75
  L 248.99 22.50
  A 0.74 0.49 89.5 0 1 248.50 23.25
  L 243.75 23.25
  A 0.52 0.50 -0.0 0 1 243.23 22.75
  L 243.17 6.31
  A 0.58 0.56 -0.5 0 1 243.75 5.74
  L 251.00 5.75
  A 0.96 0.76 76.9 0 1 251.77 6.36
  Q 253.20 9.99 254.24 13.68
  C 254.40 14.23 255.02 14.73 254.99 13.50
  Q 254.91 9.95 255.08 6.41
  A 0.69 0.41 -88.1 0 1 255.50 5.75
  L 260.25 5.75
  A 0.75 0.50 90.0 0 1 260.75 6.50
  L 260.75 22.75
  A 0.50 0.50 0.0 0 1 260.25 23.25
  L 253.00 23.25
  A 0.97 0.85 76.0 0 1 252.19 22.69
  C 251.77 21.76 249.72 15.51 249.51 15.39
  Q 248.90 15.04 248.91 15.75
  Z"
/>
<path fill="#1747ce" d="
  M 273.75 11.99
  L 273.75 22.50
  A 0.75 0.50 -90.0 0 1 273.25 23.25
  L 267.00 23.25
  A 0.75 0.50 90.0 0 1 266.50 22.50
  L 266.50 11.50
  A 0.76 0.51 -89.6 0 0 266.00 10.74
  L 262.83 10.70
  A 0.69 0.60 -89.6 0 1 262.24 10.01
  L 262.25 6.25
  A 0.75 0.50 -0.0 0 1 263.00 5.75
  L 277.25 5.75
  A 0.67 0.58 81.7 0 1 277.83 6.25
  C 278.40 8.48 278.84 11.25 275.32 10.63
  A 1.37 1.34 -85.2 0 0 273.75 11.99
  Z"
/>
<path fill="#1747ce" d="
  M 286.50 11.25
  Q 286.46 11.48 286.57 11.68
  A 0.83 0.57 -9.0 0 0 287.25 12.00
  L 291.50 12.00
  A 0.97 0.70 -9.1 0 1 292.31 12.41
  Q 293.19 14.20 292.70 16.20
  A 0.91 0.61 -80.8 0 1 292.05 16.90
  L 287.50 17.01
  A 1.17 0.63 7.5 0 0 286.63 17.34
  C 285.38 19.13 291.74 18.51 292.63 18.58
  A 0.70 0.69 1.4 0 1 293.27 19.25
  L 293.38 22.57
  A 0.65 0.63 88.7 0 1 292.75 23.25
  L 280.00 23.25
  A 0.50 0.50 0.0 0 1 279.50 22.75
  L 279.50 6.50
  A 0.75 0.50 -90.0 0 1 280.00 5.75
  L 292.25 5.75
  A 0.75 0.50 0.0 0 1 293.00 6.25
  L 293.00 10.26
  A 0.75 0.48 -0.0 0 1 292.25 10.74
  L 287.00 10.75
  A 0.62 0.48 -83.0 0 0 286.50 11.25
  Z"
/>
<path fill="#1747ce" d="
  M 307.15 13.07
  L 307.09 6.32
  A 0.66 0.58 0.0 0 1 307.75 5.74
  L 312.50 5.75
  A 0.75 0.50 90.0 0 1 313.00 6.50
  L 313.00 22.50
  A 0.75 0.50 -90.0 0 1 312.50 23.25
  L 305.25 23.25
  A 0.88 0.82 79.4 0 1 304.46 22.67
  L 301.69 15.07
  Q 301.23 13.81 301.23 15.25
  L 301.24 22.75
  A 0.49 0.49 89.4 0 1 300.75 23.25
  L 296.00 23.25
  A 0.75 0.50 90.0 0 1 295.50 22.50
  L 295.50 6.50
  A 0.75 0.50 -90.0 0 1 296.00 5.75
  L 303.50 5.75
  A 1.02 0.47 71.9 0 1 304.14 6.44
  L 306.71 13.00
  Q 307.15 14.12 307.15 13.07
  Z"
/>
<path fill="#1747ce" d="
  M 331.06 19.81
  C 328.34 24.07 320.80 23.49 316.35 23.14
  A 0.65 0.64 2.4 0 1 315.75 22.50
  L 315.75 6.50
  A 0.61 0.61 0.5 0 1 316.37 5.89
  C 320.01 5.96 325.90 5.40 328.77 6.97
  C 333.18 9.38 333.50 16.00 331.06 19.81
  Z
  M 322.89 19.13
  C 327.14 19.04 326.66 9.45 322.85 9.83
  A 0.67 0.67 87.2 0 0 322.25 10.50
  L 322.25 18.50
  A 0.63 0.62 89.1 0 0 322.89 19.13
  Z"
/>
<path fill="#069330" d="
  M 70.00 9.54
  L 70.16 9.87
  A 0.91 0.87 -1.2 0 0 70.65 10.32
  L 95.25 19.79
  L 74.22 56.93
  Q 72.08 58.40 69.08 59.10
  Q 66.52 59.69 68.74 60.50
  L 95.78 70.35
  L 95.91 182.57
  C 95.48 183.36 70.40 172.78 67.67 171.69
  A 1.58 0.80 10.5 0 1 66.88 171.09
  L 53.10 145.17
  A 0.80 0.49 71.3 0 0 52.60 144.75
  L 52.25 144.71
  C 52.26 144.23 52.32 143.92 52.09 143.48
  Q 40.44 121.59 28.77 99.69
  Q 27.82 97.91 27.83 99.92
  L 27.88 155.16
  L 1.54 144.71
  A 1.27 1.26 -78.9 0 1 0.75 143.52
  L 0.94 35.26
  L 27.50 45.04
  L 66.37 116.11
  Q 66.98 117.22 66.98 115.95
  Q 67.04 88.94 66.97 61.99
  Q 66.97 59.77 65.96 57.78
  Q 60.25 46.49 54.46 35.25
  C 56.07 32.33 68.40 9.54 70.00 9.54
  Z"
/>
<path fill="#1747ce" d="
  M 121.50 9.96
  L 121.78 50.84
  L 116.25 57.04
  L 95.72 49.67
  A 1.50 1.31 -41.8 0 0 94.78 49.68
  L 74.22 56.93
  L 95.25 19.79
  L 121.50 9.96
  Z"
/>
<path fill="#ffc001" d="
  M 53.79 35.25
  L 27.50 45.04
  L 0.94 35.26
  L 27.28 25.37
  A 1.42 1.25 42.0 0 1 28.22 25.38
  C 31.21 26.48 53.16 34.04 53.79 35.25
  Z"
/>
<path fill="#ffc001" d="
  M 189.80 35.19
  L 163.25 45.29
  L 137.10 35.15
  L 162.52 25.42
  A 1.40 1.35 -44.5 0 1 163.47 25.41
  L 189.80 35.19
  Z"
/>
<path fill="#686868" d="
  M 333.50 119.00
  L 296.75 119.00
  A 1.39 1.37 -79.5 0 0 295.46 119.90
  C 288.32 138.36 269.98 146.88 250.74 145.17
  C 225.63 142.94 212.28 126.69 210.02 103.06
  C 207.40 75.51 221.46 48.55 247.79 38.78
  Q 264.91 32.42 285.36 34.18
  A 0.69 0.56 2.7 0 1 286.00 34.75
  L 286.00 57.00
  A 0.66 0.65 -2.9 0 1 285.41 57.65
  Q 281.11 58.07 275.26 57.97
  C 263.14 57.75 249.08 62.45 243.06 73.81
  C 242.50 74.87 243.65 75.23 244.47 74.78
  C 261.18 65.50 282.80 69.94 293.04 85.75
  A 0.53 0.52 44.1 0 0 293.93 85.74
  L 323.94 34.94
  A 1.93 1.74 -73.1 0 1 325.50 34.00
  L 362.50 34.00
  A 0.50 0.50 0.0 0 1 363.00 34.50
  L 363.00 95.50
  A 0.50 0.50 0.0 0 0 363.50 96.00
  L 373.50 96.00
  A 0.50 0.50 0.0 0 0 374.00 95.50
  L 374.00 33.50
  A 0.47 0.45 -90.0 0 1 374.45 33.03
  Q 397.15 32.93 420.00 33.07
  C 436.51 33.17 453.08 36.79 464.00 49.51
  Q 465.00 50.67 465.00 49.26
  L 465.00 33.75
  A 0.74 0.72 -90.0 0 1 465.72 33.01
  Q 487.78 32.99 510.00 33.08
  C 536.87 33.18 559.57 41.39 565.16 70.68
  Q 569.04 91.04 564.09 110.82
  C 557.78 135.99 537.06 144.83 513.14 144.95
  Q 489.34 145.07 465.64 144.97
  A 0.72 0.64 -90.0 0 1 465.00 144.25
  L 465.00 128.00
  Q 465.00 127.28 464.49 127.83
  C 453.98 139.11 440.51 145.30 425.43 145.17
  Q 400.00 144.94 374.54 144.99
  A 0.54 0.49 0.0 0 1 374.00 144.50
  L 374.00 119.50
  A 0.50 0.50 0.0 0 0 373.50 119.00
  L 363.50 119.00
  A 0.75 0.50 -90.0 0 0 363.00 119.75
  L 363.00 142.25
  A 0.75 0.75 0.0 0 1 362.25 143.00
  L 334.50 143.00
  A 0.50 0.50 0.0 0 1 334.00 142.50
  L 334.00 119.50
  A 0.50 0.50 0.0 0 0 333.50 119.00
  Z
  M 333.41 59.43
  Q 325.20 77.67 315.24 95.02
  A 0.66 0.61 -74.1 0 0 315.74 96.00
  L 333.50 96.00
  A 0.50 0.50 0.0 0 0 334.00 95.50
  L 334.00 59.50
  Q 334.00 58.13 333.41 59.43
  Z
  M 414.01 59.56
  L 414.01 118.44
  A 0.77 0.73 -4.1 0 0 414.88 119.16
  C 419.29 118.56 426.34 116.77 428.74 112.71
  C 434.38 103.15 433.67 89.20 432.98 78.18
  Q 432.55 71.40 429.18 65.58
  C 426.16 60.39 420.58 59.45 415.04 58.93
  A 0.95 0.66 3.4 0 0 414.01 59.56
  Z
  M 505.93 119.07
  C 518.31 118.63 523.20 111.49 524.68 100.02
  Q 526.45 86.30 523.69 72.75
  Q 520.74 58.21 505.57 59.14
  A 0.61 0.60 88.5 0 0 505.00 59.75
  L 505.01 118.19
  A 0.88 0.88 -1.2 0 0 505.93 119.07
  Z
  M 259.36 93.54
  C 253.74 90.63 246.89 92.10 243.17 97.22
  C 234.41 109.27 251.46 132.81 262.74 118.94
  C 268.44 111.93 268.02 98.02 259.36 93.54
  Z"
/>
<path fill="#069330" d="
  M 137.10 35.15
  L 163.25 45.29
  L 163.25 113.30
  Q 163.25 114.64 162.45 113.55
  L 124.06 60.44
  A 0.71 0.68 -26.6 0 0 123.28 60.20
  L 122.50 60.46
  C 123.82 59.38 117.14 57.45 116.25 57.04
  L 121.78 50.84
  C 123.43 49.14 136.26 34.94 137.10 35.15
  Z"
/>
<path fill="#cc130e" d="
  M 53.79 35.25
  L 54.46 35.25
  Q 60.25 46.49 65.96 57.78
  Q 66.97 59.77 66.97 61.99
  Q 67.04 88.94 66.98 115.95
  Q 66.98 117.22 66.37 116.11
  L 27.50 45.04
  L 53.79 35.25
  Z"
/>
<path fill="#1747ce" d="
  M 189.80 35.19
  L 189.96 143.85
  A 0.78 0.76 78.5 0 1 189.50 144.56
  Q 176.32 150.39 162.85 155.03
  L 124.31 106.20
  Q 123.50 105.18 123.50 106.50
  L 123.50 131.75
  Q 123.50 132.07 123.79 132.60
  L 124.25 133.46
  L 124.00 133.50
  A 0.30 0.25 -5.4 0 0 123.75 133.75
  L 123.75 171.00
  A 0.52 0.48 80.0 0 1 123.45 171.47
  L 95.91 182.57
  L 95.78 70.35
  L 122.50 60.46
  L 123.28 60.20
  A 0.71 0.68 -26.6 0 1 124.06 60.44
  L 162.45 113.55
  Q 163.25 114.64 163.25 113.30
  L 163.25 45.29
  L 189.80 35.19
  Z"
/>
<path fill="#ffc001" d="
  M 116.25 57.04
  C 117.14 57.45 123.82 59.38 122.50 60.46
  L 95.78 70.35
  L 68.74 60.50
  Q 66.52 59.69 69.08 59.10
  Q 72.08 58.40 74.22 56.93
  L 94.78 49.68
  A 1.50 1.31 -41.8 0 1 95.72 49.67
  L 116.25 57.04
  Z"
/>
<path fill="#1747ce" d="
  M 52.25 144.71
  L 27.88 155.16
  L 27.83 99.92
  Q 27.82 97.91 28.77 99.69
  Q 40.44 121.59 52.09 143.48
  C 52.32 143.92 52.26 144.23 52.25 144.71
  Z"
/>
<path fill="#cc130e" d="
  M 162.85 155.03
  L 132.40 143.74
  A 1.68 1.67 81.5 0 1 131.63 143.17
  L 124.25 133.46
  L 123.79 132.60
  Q 123.50 132.07 123.50 131.75
  L 123.50 106.50
  Q 123.50 105.18 124.31 106.20
  L 162.85 155.03
  Z"
/>
</svg>
