<?xml version="1.0" encoding="UTF-8" standalone="no"?>
<svg xmlns="http://www.w3.org/2000/svg" version="1.2" baseProfile="tiny" viewBox="0 0 600 300">
<path fill="#ffffff" d="
  M 111.52 220.83
  L 111.54 157.98
  A 0.93 0.91 -73.7 0 0 111.13 157.21
  Q 102.98 151.68 97.50 150.46
  Q 80.58 146.71 65.77 153.71
  Q 64.50 154.31 63.67 155.38
  L 13.02 220.79
  Q 6.78 221.39 0.00 220.69
  L 0.00 219.94
  L 109.70 79.40
  A 1.04 0.99 -70.4 0 1 110.50 79.00
  L 121.50 79.00
  A 0.75 0.50 90.0 0 1 122.00 79.75
  L 122.00 220.25
  A 0.58 0.51 -3.8 0 1 121.49 220.76
  Q 116.43 221.33 111.52 220.83
  Z
  M 77.06 139.64
  C 88.65 137.89 99.52 139.46 110.93 144.89
  A 0.42 0.40 -77.9 0 0 111.50 144.50
  L 111.50 95.00
  Q 111.50 94.18 110.92 94.93
  L 76.63 138.89
  Q 75.91 139.81 77.06 139.64
  Z"
/>
<path fill="#ff3f3f" d="
  M 110.93 144.89
  C 99.52 139.46 88.65 137.89 77.06 139.64
  Q 75.91 139.81 76.63 138.89
  L 110.92 94.93
  Q 111.50 94.18 111.50 95.00
  L 111.50 144.50
  A 0.42 0.40 -77.9 0 1 110.93 144.89
  Z"
/>
<path fill="#ffffff" d="
  M 240.68 154.83
  Q 240.56 155.70 241.19 155.19
  Q 243.80 153.07 246.43 150.95
  C 256.55 142.80 270.56 142.92 272.95 158.38
  Q 273.29 160.57 272.97 163.13
  Q 270.42 183.09 267.27 202.96
  A 0.70 0.47 -82.8 0 1 266.75 203.56
  L 256.75 203.22
  A 0.67 0.57 -83.7 0 1 256.22 202.44
  Q 259.40 183.92 261.58 165.20
  C 262.16 160.25 260.55 154.20 254.22 155.58
  C 248.18 156.90 242.92 162.46 239.34 166.89
  A 1.85 1.46 74.4 0 0 238.98 167.75
  L 234.00 202.75
  A 1.04 0.86 3.4 0 1 232.99 203.49
  L 224.49 203.50
  A 1.56 1.54 3.8 0 1 222.93 201.74
  L 234.84 116.76
  A 0.70 0.61 2.3 0 1 235.50 116.23
  L 245.75 115.96
  A 0.47 0.43 -87.1 0 1 246.19 116.49
  L 240.68 154.83
  Z"
/>
<path fill="#ffffff" d="
  M 474.66 146.12
  A 0.55 0.53 -74.4 0 0 475.41 145.68
  L 479.49 116.44
  A 0.51 0.45 4.5 0 1 480.00 116.06
  L 490.49 116.21
  A 0.49 0.47 -85.2 0 1 490.94 116.77
  Q 485.45 155.34 480.19 192.69
  Q 479.16 200.03 478.58 202.98
  A 0.61 0.61 -84.2 0 1 477.98 203.47
  C 470.91 203.42 463.66 204.68 456.53 203.29
  C 434.67 199.03 429.45 177.82 440.18 160.18
  C 447.26 148.54 459.44 145.58 472.01 145.59
  Q 473.47 145.59 474.66 146.12
  Z
  M 460.93 157.62
  C 449.91 160.60 444.73 171.90 447.33 182.41
  C 449.78 192.35 458.79 193.56 467.48 193.75
  A 1.26 1.17 4.7 0 0 468.75 192.75
  L 473.89 156.24
  A 0.42 0.39 2.2 0 0 473.45 155.80
  Q 467.06 155.97 460.93 157.62
  Z"
/>
<circle fill="#ffffff" cx="291.69" cy="133.33" r="7.11"/>
<path fill="#ffffff" d="
  M 155.29 154.83
  C 159.98 148.07 167.75 143.02 176.01 147.04
  A 1.17 1.07 7.1 0 1 176.61 147.74
  C 177.13 149.52 176.27 151.00 176.29 152.51
  Q 176.32 156.26 176.00 160.02
  Q 175.88 161.45 174.79 160.52
  C 166.17 153.19 159.31 159.20 154.12 166.22
  Q 152.76 168.08 152.37 170.69
  Q 150.05 186.46 147.95 202.37
  A 1.27 1.20 -86.2 0 1 146.75 203.48
  L 136.75 203.50
  A 0.66 0.54 -85.0 0 1 136.24 202.75
  L 144.22 147.25
  A 0.58 0.53 -85.6 0 1 144.75 146.75
  L 155.25 146.75
  A 0.49 0.39 -86.2 0 1 155.63 147.29
  C 155.52 148.30 154.31 154.53 154.60 154.96
  A 0.48 0.36 -47.2 0 0 155.29 154.83
  Z"
/>
<path fill="#ffffff" d="
  M 199.56 193.69
  C 205.12 194.77 212.07 190.97 217.09 187.44
  Q 217.50 187.15 217.49 187.66
  Q 217.45 190.36 216.92 192.87
  C 216.49 194.90 216.61 197.64 215.56 199.90
  A 1.55 1.44 -2.9 0 1 214.89 200.59
  Q 210.24 202.98 201.36 204.92
  A 1.18 1.15 48.7 0 1 200.71 204.87
  C 198.35 203.99 195.74 204.10 193.79 203.55
  C 176.64 198.74 172.30 178.36 179.64 163.81
  C 188.02 147.19 202.84 143.75 219.89 146.03
  A 0.69 0.40 7.0 0 1 220.51 146.50
  L 219.58 156.01
  A 0.84 0.81 6.4 0 1 218.64 156.73
  C 215.79 156.39 212.88 155.60 210.13 155.83
  C 196.12 156.99 185.53 168.79 188.75 183.23
  Q 190.70 191.95 199.56 193.69
  Z"
/>
<path fill="#ffffff" d="
  M 313.89 154.51
  L 314.05 154.51
  A 0.44 0.34 -62.5 0 0 314.36 154.37
  C 322.03 146.19 338.69 138.92 343.30 155.27
  Q 343.78 156.99 344.97 155.66
  C 350.08 149.93 358.41 144.26 366.12 145.63
  C 376.49 147.48 377.19 159.00 375.83 168.48
  Q 373.38 185.48 371.00 202.82
  A 0.77 0.77 -86.1 0 1 370.24 203.49
  L 361.49 203.50
  A 1.55 1.48 3.5 0 1 359.93 201.82
  Q 362.12 185.40 364.33 169.56
  C 364.92 165.30 366.09 153.35 356.98 155.71
  C 352.15 156.95 347.88 162.49 344.41 165.96
  A 1.48 0.84 -31.3 0 0 344.00 166.69
  L 338.93 202.99
  A 0.64 0.38 -83.8 0 1 338.50 203.56
  L 328.07 203.20
  A 0.53 0.38 -85.0 0 1 327.72 202.61
  Q 329.91 185.74 332.20 168.99
  C 332.87 164.12 333.76 153.29 324.93 155.76
  C 319.98 157.14 315.84 162.49 312.30 166.09
  A 1.77 1.25 79.1 0 0 311.88 167.02
  L 306.84 202.76
  A 0.88 0.80 -84.6 0 1 306.00 203.52
  L 296.01 203.18
  A 0.47 0.45 -87.6 0 1 295.57 202.68
  Q 295.66 201.19 296.24 197.00
  Q 299.47 173.62 303.08 147.91
  A 1.43 1.34 3.7 0 1 304.49 146.75
  L 313.75 146.75
  A 0.52 0.45 2.9 0 1 314.28 147.25
  L 313.51 154.01
  A 0.46 0.41 -85.5 0 0 313.89 154.51
  Z"
/>
<path fill="#ffffff" d="
  M 396.48 175.49
  Q 393.45 175.49 393.97 178.22
  C 395.12 184.29 394.81 189.43 401.34 192.26
  C 408.19 195.22 418.03 190.80 423.90 187.34
  A 1.35 0.24 -28.3 0 0 424.72 186.69
  Q 425.04 185.85 426.00 185.74
  A 0.68 0.59 -88.4 0 1 426.64 186.52
  L 425.11 197.73
  A 1.20 0.78 -18.3 0 1 424.53 198.45
  Q 418.93 201.68 412.79 203.56
  C 411.10 204.07 408.93 203.85 406.95 204.67
  A 1.22 1.20 43.9 0 1 406.04 204.68
  C 403.78 203.82 401.39 204.17 399.41 203.47
  C 369.88 193.07 381.41 142.77 410.67 145.50
  C 426.75 147.01 430.07 161.61 429.13 174.91
  A 0.64 0.63 1.9 0 1 428.49 175.50
  L 396.48 175.49
  Z
  M 417.28 165.67
  C 416.05 151.11 400.69 154.79 397.39 165.71
  A 0.42 0.39 -81.1 0 0 397.75 166.25
  L 416.75 166.25
  A 0.53 0.53 87.5 0 0 417.28 165.67
  Z"
/>
<path fill="#ffffff" d="
  M 508.25 204.01
  C 475.96 195.00 488.70 140.43 519.70 145.78
  C 534.17 148.27 536.90 161.85 536.79 174.10
  A 1.36 1.35 -89.8 0 1 535.44 175.45
  L 502.25 175.37
  A 0.57 0.55 4.8 0 0 501.69 175.83
  Q 500.45 183.31 504.16 188.83
  C 510.33 198.02 527.21 190.70 533.61 185.46
  Q 534.02 185.12 533.96 185.63
  L 532.51 196.74
  A 3.11 2.71 -14.3 0 1 531.06 198.84
  Q 522.76 203.82 513.06 204.65
  Q 511.12 204.81 508.25 204.01
  Z
  M 524.85 165.75
  C 521.51 151.16 508.45 154.53 504.43 165.89
  A 0.34 0.34 9.7 0 0 504.75 166.34
  L 524.50 166.27
  A 0.43 0.37 82.7 0 0 524.85 165.75
  Z"
/>
<path fill="#ffffff" d="
  M 548.69 151.69
  Q 551.00 148.26 555.33 146.61
  C 563.57 143.49 573.51 146.34 580.38 151.52
  A 0.92 0.60 28.7 0 1 580.78 152.26
  L 579.25 160.50
  Q 579.14 161.12 579.23 161.50
  Q 579.43 162.31 579.04 163.02
  A 0.92 0.40 31.3 0 1 578.03 162.88
  C 574.27 160.59 570.74 157.54 566.26 156.50
  Q 562.77 155.69 560.81 156.29
  C 556.89 157.49 557.86 161.95 559.82 164.58
  C 565.46 172.12 576.90 176.88 577.43 187.31
  C 577.80 194.47 574.10 201.08 567.24 203.55
  C 558.87 206.57 548.39 202.30 541.11 197.27
  A 1.00 0.64 26.8 0 1 540.65 196.49
  L 542.13 185.01
  Q 542.28 183.82 543.20 184.80
  C 547.14 188.98 555.04 194.48 560.97 193.66
  C 568.86 192.57 564.73 184.27 561.19 181.31
  C 551.90 173.52 540.18 164.32 548.69 151.69
  Z"
/>
<path fill="#ffffff" d="
  M 283.53 150.16
  Q 283.73 148.76 283.78 147.27
  A 0.54 0.47 -88.7 0 1 284.25 146.75
  L 295.00 146.75
  A 0.49 0.44 3.6 0 1 295.49 147.25
  L 287.53 203.00
  A 0.61 0.52 -84.5 0 1 286.99 203.52
  L 277.73 203.20
  A 1.60 1.43 -84.9 0 1 276.39 201.39
  Q 280.04 174.57 283.53 150.16
  Z"
/>
<path fill="#fcb500" d="
  M 111.52 220.83
  L 13.02 220.79
  L 63.67 155.38
  Q 64.50 154.31 65.77 153.71
  Q 80.58 146.71 97.50 150.46
  Q 102.98 151.68 111.13 157.21
  A 0.93 0.91 -73.7 0 1 111.54 157.98
  L 111.52 220.83
  Z"
/>
</svg>
