<?xml version="1.0" encoding="UTF-8" standalone="no"?>
<svg
   version="1.1"
   viewBox="0 0 420 116"
   id="svg298"
   sodipodi:docname="Dynasty Wars.svg"
   inkscape:version="1.1.2 (0a00cf5339, 2022-02-04)"
   xmlns:inkscape="http://www.inkscape.org/namespaces/inkscape"
   xmlns:sodipodi="http://sodipodi.sourceforge.net/DTD/sodipodi-0.dtd"
   xmlns:xlink="http://www.w3.org/1999/xlink"
   xmlns="http://www.w3.org/2000/svg"
   xmlns:svg="http://www.w3.org/2000/svg">
  <defs
     id="defs302">
    <linearGradient
       inkscape:collect="always"
       id="linearGradient3399">
      <stop
         style="stop-color:#ff0000;stop-opacity:1;"
         offset="0"
         id="stop3395" />
      <stop
         style="stop-color:#ffd300;stop-opacity:0.99979609"
         offset="1"
         id="stop3397" />
    </linearGradient>
    <linearGradient
       inkscape:collect="always"
       xlink:href="#linearGradient3399"
       id="linearGradient3401"
       x1="225.97084"
       y1="56.212254"
       x2="225.97086"
       y2="72.462814"
       gradientUnits="userSpaceOnUse"
       gradientTransform="translate(-0.14289104,-0.55487824)" />
  </defs>
  <sodipodi:namedview
     id="namedview300"
     pagecolor="#ffffff"
     bordercolor="#666666"
     borderopacity="1.0"
     inkscape:pageshadow="2"
     inkscape:pageopacity="0.0"
     inkscape:pagecheckerboard="0"
     showgrid="false"
     inkscape:zoom="1.6060529"
     inkscape:cx="196.13301"
     inkscape:cy="97.755183"
     inkscape:window-width="1920"
     inkscape:window-height="1011"
     inkscape:window-x="1920"
     inkscape:window-y="32"
     inkscape:window-maximized="1"
     inkscape:current-layer="svg298" />
  <g
     fill="#d92b21"
     id="g226" />
  <path
     id="path236"
     d="m 39.657109,68.545122 -0.08,6.96 q -4.64,-1.96 -9.47,-0.82 -0.19,0.05 -0.39,0.01 l -4.95,-0.79 a 0.99,0.99 0 0 0 -1.14,0.83 l -0.23,1.46 -0.02,-6.82 q 2.63,0.87 5.24,0.79 1.91,-0.07 4.46,0.13 3.55,0.28 6.58,-1.75 z m 52.93,1.01 q -7.16,1.31 -14.44,0.89 l -7.16,-36.05 a 1.01,1 83.4 0 1 0.95,-1.2 l 10.31,-0.31 a 1.01,1 83.6 0 1 1.02,0.82 q 1.48,8.2 2.38,16.73 0.02,0.2 0.09,0.34 0.57,1.29 0.77,-0.11 l 2.44,-16.86 a 1,1 0 0 1 0.99,-0.85 l 9.04,-0.04 a 1,1.01 5.9 0 1 0.98,1.21 z m 67.480001,2.14 q -0.53,0.86 -1.19,0.37 a 1.02,1.03 54.5 0 0 -0.92,-0.15 c -2.63,0.9 -7.03,-0.52 -10.06,0.03 l -0.07,-3.77 a 0.18,0.23 2.8 0 0 -0.16,-0.22 l -0.27,-0.03 a 0.2,0.2 0 0 0 -0.23,0.19 l -0.35,4.33 -10.17,-1.25 3.5,-38.09 a 1,1.01 2.8 0 1 1,-0.91 h 14.01 a 1,1.01 87.2 0 1 1,0.9 z m -28.45,-4.07 q -9.03,-1.72 -18.07,-0.76 -1.3,0.14 -5.39,0.05 -3.25,-0.06 -6.27,1.28 l -0.2,-34.41 a 1,1 0 0 1 0.99,-1 l 11.52,-0.12 a 1,0.99 83.1 0 1 0.98,0.78 q 2.09,9.23 4.43,18.38 c 0.62,2.42 0.8,0.24 0.79,-0.15 q -0.19,-9.22 0.13,-18.24 a 1,1 0 0 1 1,-0.96 l 9.21,-0.06 a 1,1 0 0 1 1.01,1 z m 61.45,8.07 q -6.9,0.66 -12.95,-1.72 -3.74,-4.42 -11.34,-8.46 c -6.77,-3.59 -5.15,-15.5 -5.06,-22.78 0.15,-13.02 9.88,-10.33 18.47,-10.64 5.91,-0.21 10.23,0.22 10.89,6.85 q 0.26,2.62 -0.05,15.52 a 1,1 0 0 1 -1,0.98 h -10.83 a 1,1 0 0 1 -1,-0.96 q -0.19,-4.82 -0.08,-9.54 c 0.03,-1.25 -0.66,-4.83 -2.53,-2 -1.08,1.65 -0.48,10.95 -0.46,13.34 a 0.98,1 15.9 0 0 0.46,0.84 c 7.14,4.49 17.16,8.03 15.48,18.57 z m 205.25,-3.5 q -0.1,1.76 -1.43,1.5 -3.43,-0.65 -6.22,-0.51 a 1.05,1.06 57.6 0 1 -0.51,-0.11 q -2.47,-1.29 -5.3,-1.34 -3.07,-2.24 -10.19,-6.6 c -5.33,-3.27 -4.62,-8.56 -4.27,-14.19 q 0.12,-2.04 -0.24,-12 c -0.15,-4.24 1.65,-7.15 6.01,-7.36 5.76,-0.27 17.55,-1.64 20.86,3.03 2.47,3.5 1.33,14.94 1.33,19.39 a 1,1 0 0 1 -1.03,1 l -10.98,-0.32 a 1,1 0 0 1 -0.97,-1 l -0.03,-10.56 a 1.01,1.02 21.5 0 0 -0.32,-0.74 c -3.83,-3.53 -2.24,10.47 -2.17,11.33 q 0.23,2.75 2.44,4.39 c 4.57,3.39 13.4,7.33 13.02,14.09 z m -29.67,-2.07 -14.79,0.03 -0.25,0.08 q -4.75,-0.35 -9.35,0.68 c -2.03,0.46 -3.2,-0.41 -3.36,-2.47 l 0.06,-35.86 a 1,1 0 0 1 0.97,-1 q 11.56,-0.34 18.9,-0.11 c 5.48,0.17 8.05,3.54 7.91,8.9 -0.11,4.26 0.9,17.59 -0.84,20.69 q -0.9,1.62 -2.68,2.4 -1.28,0.56 -0.16,1.38 2.75,2.02 3.59,5.28 z m -12.2782,-26.3576 a 0.98,0.98 0 0 0 -0.9783,-0.9817 l -0.8,-0.0014 a 0.98,0.98 0 0 0 -0.9817,0.9783 l -0.0236,13.56 a 0.98,0.98 0 0 0 0.9783,0.9817 l 0.8,0.0014 a 0.98,0.98 0 0 0 0.9817,-0.9783 z m -20.4418,25.9776 q -6.08,0.89 -11.83,-1.46 c -0.66,-5.54 -0.83,2.84 -0.85,3.03 -4.27,-1.8 -6.62,-0.64 -10.85,-1.37 l 3.37,-37.6 a 1,1 0 0 1 1,-0.91 l 14.3,0.03 a 1,0.99 87.1 0 1 0.99,0.9 z m -121.36,1.2 q -4.9,0.45 -9.79,-0.4 a 1,1 0 0 0 -1.17,0.91 l -0.04,0.54 a 0.8,0.79 5.1 0 1 -0.89,0.74 q -0.15,-0.02 -0.32,-0.08 l 0.01,-29.71 a 1,1 0 0 0 -1,-1 l -5.74,-0.01 a 1,1 0 0 1 -1,-0.99 l -0.09,-7.9 a 0.99,0.99 0 0 1 0.89,-1 c 3.55,-0.4 7.82,-0.05 10.83,-0.12 q 7.56,-0.18 15.11,-0.41 a 1,1 0 0 1 1.03,1.02 l -0.16,8.65 a 1,1 0 0 1 -0.98,0.98 l -5.32,0.11 a 0.99,1 89.7 0 0 -0.98,0.98 z m 31.25,-5 c -4.64,-0.73 -10.92,0.61 -15.38,1.54 l -6.67,-34.85 a 1,1 0 0 1 0.98,-1.19 h 10.12 a 0.99,1 86.8 0 1 0.99,0.88 c 0.26,2.15 1.97,18.35 2.92,17.78 a 0.3,0.33 77.5 0 0 0.16,-0.23 l 2.72,-17.55 a 1,1 0 0 1 0.98,-0.85 l 9.56,-0.09 a 1,1 0 0 1 0.98,1.22 z m -177.690001,6.08 q -4,1.6 -9.51,1.68 -4.71,0.07 -7.72,-0.76 -0.07,-18.97 -0.04,-38.02 c 0.01,-5.96 -5.44,-8.4 -10.76,-6.96 a 0.99,1 82.1 0 0 -0.74,0.97 l 0.3,39.61 q -3.03,2.03 -6.58,1.75 -2.55,-0.2 -4.46,-0.13 -2.61,0.08 -5.24,-0.79 l 0.03,-54.68 a 0.99,0.99 0 0 1 0.96,-0.99 q 12.24,-0.49 24.47,-0.53 c 2.64,-0.01 7.9,1.19 9.97,2.94 5.49,4.64 9.49,11.84 9.22,19.21 -0.45,12.13 0.09,24.46 0.1,36.7 z m 242.690001,-3.08 q -1.68,2.94 -4.93,1.32 a 0.95,0.99 54.5 0 0 -0.62,-0.09 q -7.78,1.36 -15.67,0.52 c -0.84,-0.09 -2.43,0.55 -3.69,0.45 q -5.53,-0.43 -11.07,0.12 c -2.29,0.23 -4.52,-0.45 -6.97,-0.08 q -0.77,0.12 -1.96,-0.37 a 1,1 0 0 0 -1.37,0.76 l -0.14,0.87 -5.97,-59.95 a 1,1 0 0 1 0.98,-1.1 l 14.44,-0.25 a 1,0.99 86.9 0 1 1.01,0.91 q 1.12,13.8 2.3,27.04 c 0.04,0.38 -0.4,1.67 0.49,1.26 a 0.63,0.64 79.1 0 0 0.37,-0.54 l 1.89,-27.76 a 1,0.99 1.5 0 1 0.99,-0.93 l 12.74,-0.17 a 0.99,0.99 0 0 1 1.01,0.88 q 1.64,14.23 2.92,27.87 c 0.06,0.61 0.7,0.84 0.75,0.05 q 0.76,-13.81 1.84,-27.6 a 1.01,1 1.3 0 1 0.97,-0.92 l 12.9,-0.33 a 1,1 0 0 1 1.03,1.07 z m -130.7,5.03 q 6.05,2.38 12.95,1.72 0.07,9.54 0.04,19.07 c -0.03,10.689998 -11.69,8.649998 -19,8.639998 -13.3,-0.02 -9.88,-19.119998 -10.27,-27.369998 a 1,1 0 0 1 0.97,-1.05 l 11.38,-0.33 a 1,1 0 0 1 1.03,1.07 q -0.51,6.94 -0.16,13.57 c 0.21,3.78 2.85,3.26 2.78,-0.29 q -0.15,-7.26 0.28,-15.03 z m -111.990001,-1.95 c -0.06,5.74 0.74,12.53 -1.15,17.68 q -3.32,9.09 -11.74,12.799998 c -7.84,3.45 -21.31,2.54 -30.62,2.26 a 1,1 0 0 1 -0.97,-0.99 l -0.25,-27.579998 0.23,-1.46 a 0.99,0.99 0 0 1 1.14,-0.83 l 4.95,0.79 q 0.2,0.04 0.39,-0.01 4.83,-1.14 9.47,0.82 l 0.44,13.47 a 1,0.99 0 0 0 0.97,0.96 q 5.48,0.19 9.19,-3.85 a 1.03,1.02 68.2 0 0 0.27,-0.64 l 0.45,-12.5 q 3.01,0.83 7.72,0.76 5.51,-0.08 9.51,-1.68 z m 316.730001,-0.29 q 2.83,0.05 5.3,1.34 a 1.05,1.06 57.6 0 0 0.51,0.11 q 2.79,-0.14 6.22,0.51 1.33,0.26 1.43,-1.5 -0.3,10.81 0.01,21.62 c 0.36,12.809998 -13.31,7.579998 -18.99,8.409998 -5.76,0.84 -8.91,-2.479998 -8.95,-8.039998 q -0.07,-9.36 -0.01,-18.75 a 1,0.99 0 0 1 1,-0.99 h 10.23 a 1,1 0 0 1 1,1 v 15.04 a 1.02,1.01 22.1 0 0 0.31,0.73 q 2.16,2.05 2.29,-1.45 0.39,-10.95 -0.35,-18.03 z m -248.21,-0.54 10.17,1.25 0.01,6.55 a 0.41,0.41 0 0 0 0.38,0.4 l 0.29,0.03 a 0.8,0.8 0 0 0 0.86,-0.86 l -0.46,-6.62 c 3.03,-0.55 7.43,0.87 10.06,-0.03 a 1.02,1.03 54.5 0 1 0.92,0.15 q 0.66,0.49 1.19,-0.37 l 3.25,30.609998 a 1,1 0 0 1 -0.98,1.11 l -11.4,0.11 a 0.99,0.99 0 0 1 -1,-0.92 l -0.97,-12.209998 a 1,1 0 0 0 -1.04,-0.92 l -1.17,0.05 a 1,1 0 0 0 -0.95,0.93 l -0.85,12.309998 a 1,0.99 1.8 0 1 -1,0.93 l -9.14,0.01 a 1,1 0 0 1 -1,-1.09 z m 77.92,-0.25 c 0.06,9.46 -0.53,19.44 0.24,28.83 q 0.12,1.419998 -0.25,2.899998 a 1,0.99 7.3 0 1 -0.98,0.75 l -10.58,-0.09 a 1,0.99 0.9 0 1 -0.99,-1.01 l 0.35,-29.669998 q 0.17,0.06 0.32,0.08 a 0.8,0.79 5.1 0 0 0.89,-0.74 l 0.04,-0.54 a 1,1 0 0 1 1.17,-0.91 q 4.89,0.85 9.79,0.4 z m 154.08,-0.82 -0.22,31.199998 a 1,0.99 88.5 0 1 -0.93,0.99 q -5.72,0.42 -11.14,-0.16 -0.44,-10.149998 0.24,-18.959998 0.48,-6.09 -0.19,-11.45 a 1.05,0.98 21.2 0 0 -0.28,-0.58 q -0.91,-0.94 -2.27,-1.01 z m -276.060001,-0.57 q -1.36,16.63 -0.15,33.579998 a 1,0.99 88.4 0 1 -1.01,1.07 l -11.75,-0.16 a 1,1 0 0 1 -0.99,-1.04 c 0.12,-2.88 -0.39,-5.639998 -0.02,-8.479998 q 0.46,-3.54 0.15,-7.08 c -0.54,-6.21 -0.35,-11.29 -0.67,-17 q 7.28,0.42 14.44,-0.89 z m 218.230001,-0.61 -3.04,32.859998 a 0.99,1 2.5 0 1 -0.99,0.91 l -15.77,0.08 a 1.01,1.01 0 0 1 -1.01,-0.93 l -1.22,-16.539998 a 0.85,0.83 19 0 0 -0.27,-0.54 q -0.77,-0.68 -0.94,0.97 -0.85,8.17 -1.26,16.399998 a 0.99,1 1.5 0 1 -0.99,0.95 l -17.23,0.11 a 1,1 0 0 1 -1,-0.91 l -2.7,-29.859998 0.14,-0.87 a 1,1 0 0 1 1.37,-0.76 q 1.19,0.49 1.96,0.37 c 2.45,-0.37 4.68,0.31 6.97,0.08 q 5.54,-0.55 11.07,-0.12 c 1.26,0.1 2.85,-0.54 3.69,-0.45 q 7.89,0.84 15.67,-0.52 a 0.95,0.99 54.5 0 1 0.62,0.09 q 3.25,1.62 4.93,-1.32 z m 30.08,-0.5 c 0.16,2.06 1.33,2.93 3.36,2.47 q 4.6,-1.03 9.35,-0.68 l 0.09,32.029998 -11.47,0.05 a 1,0.99 89.4 0 1 -1,-0.99 z m -16.8,-0.16 q 5.75,2.35 11.83,1.46 l 2.94,31.609998 a 1,1 0 0 1 -1,1.09 h -10.65 a 1,0.99 88.8 0 1 -0.99,-0.96 l -0.54,-11.799998 a 0.94,0.95 23.7 0 0 -0.22,-0.58 c -4.08,-5.02 -4.15,7.15 -4.16,7.84 q -0.06,2.95 -0.81,5.309998 a 1.01,1.01 0 0 1 -0.99,0.7 l -8.55,-0.3 a 1,1 0 0 1 -0.96,-1.03 q 0.47,-15.939998 2.4,-31.679998 c 4.23,0.73 6.58,-0.43 10.85,1.37 -0.15,1.29 -0.61,6.4 1.07,5.2 a 0.82,0.8 70.5 0 0 0.33,-0.71 z m -192.48,-0.66 -0.13,35.099998 a 1,1 0 0 1 -0.98,0.99 l -11,0.31 a 1,1 0 0 1 -1.01,-0.84 l -3.88,-23.279998 a 0.99,1.02 12.2 0 0 -0.41,-0.66 q -0.93,-0.65 -0.88,0.95 0.35,10.84 0.59,22.789998 a 1,1 0 0 1 -1,1.02 l -10.04,0.01 a 1.01,1 0 0 1 -1.01,-1 l 0.02,-34.819998 q 3.02,-1.34 6.27,-1.28 4.09,0.09 5.39,-0.05 9.04,-0.96 18.07,0.76 z m 114.2,-1.68 c -2.83,11.61 -1.71,24.38 -1.61,36.239998 a 1,1 0 0 1 -1,1.01 h -10.29 a 1,1 0 0 1 -1,-1.01 q 0.17,-17.399998 -1.48,-34.699998 c 4.46,-0.93 10.74,-2.27 15.38,-1.54 z"
     style="mix-blend-mode:multiply;fill:url(#linearGradient3401);fill-opacity:1;stroke:#ffffff;stroke-opacity:1;stroke-width:1.1;stroke-miterlimit:4;stroke-dasharray:none" />
</svg>
