<?xml version="1.0" encoding="UTF-8" standalone="no"?>
<svg xmlns="http://www.w3.org/2000/svg" version="1.2" baseProfile="tiny" viewBox="0 0 500 130">
<g stroke-width="5.00" fill="none" stroke-linecap="butt">
<path stroke="#c5c3c5" stroke-opacity="0.663" vector-effect="non-scaling-stroke" d="
  M 410.96 29.50
  Q 412.56 24.32 410.54 29.00"
/>
<path stroke="#c5c3c5" stroke-opacity="0.663" vector-effect="non-scaling-stroke" d="
  M 410.79 118.25
  L 410.31 120.64
  A 0.62 0.40 -73.2 0 0 410.48 121.24
  C 410.85 121.44 411.47 118.86 411.50 118.79"
/>
</g>
<path fill="#ffffff" d="
  M 318.18 43.05
  L 309.41 43.02
  A 1.22 1.20 5.1 0 1 308.21 41.60
  L 310.09 31.56
  A 0.69 0.67 4.6 0 1 310.75 31.01
  L 331.01 30.72
  A 1.62 1.59 2.6 0 1 332.65 32.49
  C 331.39 43.88 328.12 55.17 317.71 61.65
  C 304.75 69.73 289.06 62.43 285.98 47.75
  Q 283.99 38.21 286.24 28.24
  C 290.10 11.13 306.99 -3.52 324.56 7.24
  C 331.50 11.49 334.15 18.61 333.72 26.48
  A 0.53 0.53 -88.3 0 1 333.19 26.98
  L 321.01 26.98
  A 0.61 0.56 -3.2 0 1 320.41 26.49
  L 319.81 21.66
  Q 319.52 19.29 317.68 18.37
  C 301.68 10.37 293.10 39.84 301.50 49.18
  C 307.21 55.53 316.40 50.88 318.55 43.54
  A 0.38 0.38 8.4 0 0 318.18 43.05
  Z"
/>
<path fill="#ffffff" d="
  M 410.96 29.50
  Q 412.56 24.32 410.54 29.00
  L 397.04 62.88
  A 0.97 0.96 4.6 0 1 396.35 63.46
  Q 391.93 64.41 387.72 63.90
  A 0.95 0.94 -88.2 0 1 386.90 63.02
  Q 385.78 45.22 383.65 27.54
  Q 383.59 27.03 383.52 27.54
  L 378.58 63.25
  A 0.89 0.88 3.7 0 1 377.70 64.02
  L 356.09 63.94
  Q 354.18 63.93 354.15 62.13
  L 354.04 54.41
  A 1.40 1.30 89.4 0 0 352.73 53.03
  L 340.89 53.08
  A 0.77 0.75 10.7 0 0 340.18 53.55
  L 336.39 63.28
  A 0.82 0.70 -78.1 0 1 335.72 63.80
  L 324.62 63.88
  A 0.82 0.78 -79.5 0 1 323.90 62.78
  Q 326.80 54.78 330.41 47.17
  C 330.97 45.98 331.00 44.70 331.53 43.48
  Q 339.24 25.55 346.03 7.25
  Q 346.70 5.42 348.40 5.35
  L 358.72 4.92
  A 1.82 1.62 85.4 0 1 360.42 6.54
  Q 363.10 30.42 365.80 53.63
  C 365.96 55.03 365.68 59.87 366.18 60.72
  C 366.62 61.46 366.97 60.61 367.05 60.22
  Q 371.87 33.51 376.06 6.68
  A 0.62 0.60 -86.0 0 1 376.64 6.16
  L 390.88 6.07
  A 1.47 1.38 87.3 0 1 392.27 7.42
  L 394.99 41.12
  Q 395.16 43.26 395.98 41.26
  L 410.49 5.82
  A 1.52 1.39 12.9 0 1 411.98 4.97
  L 424.63 5.97
  A 1.60 1.53 7.0 0 1 426.09 7.76
  L 416.74 63.23
  A 0.65 0.58 -84.7 0 1 416.16 63.77
  L 405.55 63.88
  A 0.64 0.60 -84.5 0 1 404.96 63.12
  Q 407.84 47.62 410.72 31.99
  Q 411.07 30.05 410.96 29.50
  Z
  M 350.28 25.97
  Q 347.61 32.62 345.09 39.40
  A 1.18 1.16 -79.8 0 0 346.18 40.99
  L 351.95 40.97
  A 0.49 0.48 88.9 0 0 352.43 40.46
  Q 352.24 33.73 351.78 27.13
  C 351.74 26.59 351.19 23.69 350.28 25.97
  Z"
/>
<path fill="#ffffff" d="
  M 433.82 49.94
  L 451.22 50.15
  A 0.49 0.48 -88.9 0 1 451.70 50.66
  Q 451.43 57.12 449.97 63.23
  A 1.01 1.01 -83.0 0 1 448.99 64.00
  L 419.91 64.00
  A 0.97 0.97 4.5 0 1 418.95 62.88
  Q 423.22 36.72 427.90 10.78
  Q 428.26 8.81 428.15 8.04
  Q 427.85 5.76 430.21 5.76
  L 458.21 5.70
  A 0.51 0.50 -0.6 0 1 458.72 6.19
  Q 458.84 12.43 457.21 18.00
  A 1.34 1.33 7.3 0 1 455.95 18.96
  L 439.05 19.34
  A 0.93 0.89 -87.1 0 0 438.17 20.17
  L 437.35 27.47
  A 0.45 0.43 -87.0 0 0 437.78 27.97
  L 452.14 27.99
  A 1.41 1.40 -86.0 0 1 453.52 29.59
  L 452.29 38.71
  A 1.48 1.46 -86.2 0 1 450.84 40.00
  L 435.73 40.00
  A 0.86 0.79 -84.9 0 0 434.94 40.72
  L 433.43 49.45
  A 0.42 0.41 -84.5 0 0 433.82 49.94
  Z"
/>
<ellipse fill="#ff0000" cx="0.00" cy="0.00" transform="translate(52.14,64.91) rotate(131.7)" rx="62.31" ry="25.37"/>
<ellipse fill="#00cc99" cx="0.00" cy="0.00" transform="translate(142.84,64.90) rotate(133.0)" rx="62.85" ry="25.67"/>
<ellipse fill="#0099ff" cx="0.00" cy="0.00" transform="translate(230.38,64.91) rotate(133.0)" rx="62.89" ry="25.67"/>
<path fill="#140c12" fill-opacity="0.325" d="
  M 410.96 29.50
  L 410.54 29.00
  Q 412.56 24.32 410.96 29.50
  Z"
/>
<path fill="#ffffff" d="
  M 367.99 104.79
  A 0.58 0.57 -80.8 0 0 367.45 104.03
  L 359.15 104.01
  A 0.96 0.90 4.1 0 1 358.19 102.97
  L 359.79 92.87
  A 1.06 0.99 4.1 0 1 360.83 92.03
  L 381.96 92.01
  A 0.64 0.64 -83.2 0 1 382.58 92.80
  Q 381.59 96.97 380.70 101.68
  Q 377.35 119.42 361.50 125.46
  Q 355.27 127.83 348.22 124.24
  C 340.70 120.41 337.37 116.12 335.67 107.61
  C 332.13 89.87 341.20 63.38 363.45 64.95
  C 375.65 65.81 384.12 73.36 382.89 86.31
  A 0.59 0.56 -86.6 0 1 382.33 86.83
  L 370.75 86.84
  A 0.52 0.48 -90.0 0 1 370.26 86.31
  C 370.31 82.96 369.44 79.66 365.79 78.67
  Q 355.14 75.78 350.62 86.43
  C 347.88 92.88 345.65 108.12 353.52 111.83
  C 359.61 114.69 365.91 111.00 367.99 104.79
  Z"
/>
<path fill="#ffffff" d="
  M 410.79 118.25
  L 410.31 120.64
  A 0.62 0.40 -73.2 0 0 410.48 121.24
  C 410.85 121.44 411.47 118.86 411.50 118.79
  L 432.33 67.05
  A 1.63 1.62 -79.1 0 1 433.84 66.02
  L 445.27 66.00
  A 0.79 0.78 86.7 0 1 446.05 66.70
  L 452.11 121.19
  A 0.79 0.49 85.6 0 0 452.62 121.89
  C 453.18 121.90 453.01 116.72 453.17 116.02
  C 456.71 100.39 458.78 83.65 461.51 67.17
  A 1.35 1.33 -85.5 0 1 462.80 66.05
  C 476.29 65.69 497.79 63.00 496.43 83.10
  C 496.00 89.38 490.77 95.74 486.00 99.40
  A 1.98 1.90 60.8 0 0 485.41 101.64
  L 494.15 123.94
  A 0.33 0.31 -9.5 0 1 493.83 124.36
  L 481.40 124.06
  A 2.07 1.92 -8.9 0 1 479.54 122.81
  L 472.45 104.00
  A 1.20 1.19 -88.9 0 0 471.80 103.32
  C 467.78 101.53 467.85 104.45 467.33 107.14
  Q 465.76 115.29 464.79 123.51
  A 0.56 0.55 -86.5 0 1 464.24 124.00
  L 440.92 124.00
  A 1.00 0.93 87.7 0 1 439.99 123.08
  L 439.32 113.59
  A 0.62 0.59 -2.0 0 0 438.70 113.04
  L 426.83 113.06
  A 0.76 0.75 -79.1 0 0 426.13 113.54
  L 422.32 123.42
  A 0.77 0.76 9.4 0 1 421.64 123.90
  C 407.84 124.47 393.90 123.90 380.12 124.03
  A 1.06 1.05 -86.0 0 1 379.07 122.82
  Q 380.87 110.61 383.23 98.49
  C 383.93 94.94 384.11 91.33 384.64 88.45
  Q 386.65 77.66 388.20 66.80
  A 0.66 0.64 0.5 0 1 388.77 66.25
  C 398.01 65.25 408.00 66.07 417.51 65.98
  A 1.49 1.45 4.5 0 1 418.99 67.67
  L 417.09 78.77
  A 1.67 1.53 4.3 0 1 415.48 80.04
  L 399.68 80.17
  A 1.52 1.52 -86.0 0 0 398.19 81.47
  L 397.33 87.47
  A 0.45 0.44 3.9 0 0 397.78 87.97
  L 412.76 87.99
  A 0.90 0.90 4.8 0 1 413.65 89.04
  L 411.84 99.89
  A 1.38 1.35 4.7 0 1 410.48 101.02
  L 395.62 101.08
  A 0.61 0.61 5.1 0 0 395.02 101.58
  L 393.42 110.48
  A 0.43 0.41 5.0 0 0 393.85 110.97
  L 410.74 111.01
  A 1.32 1.32 6.3 0 1 412.03 112.62
  L 410.79 118.25
  Z
  M 472.03 79.61
  C 471.15 82.93 470.58 86.84 469.98 90.27
  A 0.81 0.81 -82.8 0 0 470.71 91.21
  C 477.53 91.70 485.36 90.69 482.77 81.23
  A 2.58 2.56 87.4 0 0 480.76 79.38
  Q 476.99 78.67 472.67 79.08
  A 0.74 0.72 4.5 0 0 472.03 79.61
  Z
  M 436.32 85.33
  L 430.40 101.29
  A 0.42 0.41 -75.1 0 0 430.72 101.85
  Q 434.08 102.42 437.56 101.65
  A 0.62 0.61 83.2 0 0 438.04 101.03
  Q 437.89 93.18 436.72 85.37
  Q 436.60 84.57 436.32 85.33
  Z"
/>
<path fill="#140c12" fill-opacity="0.325" d="
  M 410.79 118.25
  L 411.50 118.79
  C 411.47 118.86 410.85 121.44 410.48 121.24
  A 0.62 0.40 -73.2 0 1 410.31 120.64
  L 410.79 118.25
  Z"
/>
</svg>
