<?xml version="1.0" encoding="UTF-8" standalone="no"?>
<svg
   version="1.2"
   width="566.92603"
   height="149.81396"
   xml:space="preserve"
   id="svg14"
   sodipodi:docname="gb-msu.svg"
   inkscape:version="1.4-beta (62f545ba5e, 2024-04-22)"
   inkscape:export-filename="gb.png"
   inkscape:export-xdpi="96.416061"
   inkscape:export-ydpi="96.416061"
   xmlns:inkscape="http://www.inkscape.org/namespaces/inkscape"
   xmlns:sodipodi="http://sodipodi.sourceforge.net/DTD/sodipodi-0.dtd"
   xmlns="http://www.w3.org/2000/svg"
   xmlns:svg="http://www.w3.org/2000/svg"><defs
   id="defs14" /><sodipodi:namedview
   id="namedview14"
   pagecolor="#ffffff"
   bordercolor="#666666"
   borderopacity="1.0"
   inkscape:showpageshadow="2"
   inkscape:pageopacity="0.0"
   inkscape:pagecheckerboard="0"
   inkscape:deskcolor="#d1d1d1"
   inkscape:zoom="1.49"
   inkscape:cx="289.26174"
   inkscape:cy="135.2349"
   inkscape:window-width="1920"
   inkscape:window-height="1009"
   inkscape:window-x="-8"
   inkscape:window-y="-8"
   inkscape:window-maximized="1"
   inkscape:current-layer="svg14" />
    <linearGradient
   id="a"
   gradientUnits="userSpaceOnUse"
   x1="527.771"
   y1="-0.713"
   x2="527.771"
   y2="98.787003"
   gradientTransform="translate(-9.5978415e-4,-6.4087561e-4)">
        <stop
   offset="0.005"
   style="stop-color:#b34e7a;stop-opacity:1;"
   id="stop1" />
        <stop
   offset="1"
   style="stop-color:#950d19;stop-opacity:1;"
   id="stop2" />
    </linearGradient>
    <path
   fill="url(#a)"
   d="m 488.61404,0.91635912 h 24.029 l 11.869,27.29800388 17.799,-27.29800388 h 24.615 l -34.707,53.99600388 -5.635,42.128 h -22.248 l 6.526,-48.068 z"
   id="path2"
   inkscape:label="path2"
   style="fill:#960d18;fill-opacity:1" />
    <linearGradient
   id="b"
   gradientUnits="userSpaceOnUse"
   x1="290.73801"
   y1="-0.713"
   x2="290.73801"
   y2="98.787003"
   gradientTransform="translate(-9.5978415e-4,-6.4087561e-4)">
        <stop
   offset="0.005"
   style="stop-color:#b34c78;stop-opacity:1;"
   id="stop3" />
        <stop
   offset="1"
   style="stop-color:#960d18;stop-opacity:1;"
   id="stop4" />
    </linearGradient>
    <path
   fill="url(#b)"
   d="m 311.79704,97.040363 2.967,-21.37 h -33.814 l 2.076,-16.605 h 29.365 l 2.971,-21.36 h -29.072 l 2.078,-15.43 h 33.812 l 3.266,-21.35900388 h -56.068 l -13.35,96.12400388 z"
   id="path4"
   style="fill:#960d18;fill-opacity:1" />
    <linearGradient
   id="c"
   gradientUnits="userSpaceOnUse"
   x1="127.571"
   y1="-0.713"
   x2="127.571"
   y2="98.787003"
   gradientTransform="translate(-9.5978415e-4,-6.4087561e-4)">
        <stop
   offset="0.005"
   style="stop-color:#b34c78;stop-opacity:1;"
   id="stop5" />
        <stop
   offset="1"
   style="stop-color:#960d18;stop-opacity:1;"
   id="stop6" />
    </linearGradient>
    <path
   fill="url(#c)"
   d="m 112.14504,49.564363 7.416,-19.874 2.375,19.874 z m -8.009,18.987 h 20.172 l 3.563,28.48 h 36.488 l 16.91,-52.213 8.309,52.213 h 19.283 l 21.359,-55.179 3.561,55.179 h 21.359 l -5.934,-96.11900388 h -25.514 l -19.875,50.72800388 -7.715,-50.72800388 h -22.842 l -26.105,78.91200388 -9.791,-78.91200388 h -28.48 l -31.744,79.80000388 4.154,-31.149 h -38.566 l -2.672,18.987 h 16.912 l -1.188,6.526 c -2.967,1.778 -9.789,2.075 -12.459,2.075 -2.67,0 -22.545,-1.778 -21.656,-23.139 0.889,-21.359 29.369,-41.235 63.188,-30.259 l 3.266,-20.4700039 c -22.548,-7.711 -81.7659998,-3.39499998 -87.81499978,49.5440039 -3.55900002,31.148 24.92099978,45.982 43.90599978,45.688 10.977,0.594 23.438,-3.561 27.887,-5.935 l -1.482,4.451 h 22.547 z"
   id="path6"
   style="fill:#960d18;fill-opacity:1" />
    <linearGradient
   id="d"
   gradientUnits="userSpaceOnUse"
   x1="458.99399"
   y1="-0.713"
   x2="458.99399"
   y2="98.787003"
   gradientTransform="translate(-9.5978415e-4,-6.4087561e-4)">
        <stop
   offset="0.005"
   style="stop-color:#b34c78;stop-opacity:1;"
   id="stop7" />
        <stop
   offset="1"
   style="stop-color:#960d18;stop-opacity:1;"
   id="stop8" />
    </linearGradient>
    <path
   fill="url(#d)"
   d="m 464.58104,0.02735912 c -15.428,-0.594 -37.678,8.30600398 -45.094,44.20400388 -7.416,35.894 12.459,50.431 30.852,52.804 18.396,2.373 44.205,-9.196 48.951,-43.609 4.748,-34.414 -12.166,-52.50800388 -34.709,-53.39900388 z m -2.374,20.47000388 c 6.229,0 19.578,4.154 16.314,29.071 -3.264,24.92 -18.689,27.887 -24.326,27.292 -5.639,-0.594 -17.207,-4.447 -13.943,-27.292 3.262,-22.841 15.424,-29.368 21.955,-29.071 z"
   id="path8"
   style="fill:#960d18;fill-opacity:1" />
    <linearGradient
   id="e"
   gradientUnits="userSpaceOnUse"
   x1="378.92099"
   y1="-0.713"
   x2="378.92099"
   y2="98.787003"
   gradientTransform="translate(-9.5978415e-4,-6.4087561e-4)">
        <stop
   offset="0.005"
   style="stop-color:#b34c78;stop-opacity:1;"
   id="stop9" />
        <stop
   offset="1"
   style="stop-color:#960d18;stop-opacity:1;"
   id="stop10" />
    </linearGradient>
    <path
   fill="url(#e)"
   d="m 370.83204,37.705363 h 12.461 c 9.197,0 10.977,-5.934 11.271,-8.305 0.297,-2.375 -2.371,-7.122 -7.117,-7.122 h -14.537 z m -5.339,37.971 h 16.912 c 9.193,0 11.27,-7.118 11.564,-9.493 0.299,-2.373 -2.371,-7.117 -7.117,-7.117 h -18.984 z m -24.918,21.361 13.35,-96.11800388 h 40.938 c 9.793,0 24.031,11.27400388 22.252,26.40300388 -1.779,15.13 -6.527,16.02 -9.791,18.393 5.045,4.447 10.088,11.568 8.012,24.918 -2.078,13.353 -13.055,26.403 -32.338,26.403 z"
   id="path10"
   style="fill:#960d18;fill-opacity:1" />
    <linearGradient
   id="f"
   gradientUnits="userSpaceOnUse"
   x1="538.59802"
   y1="-0.713"
   x2="538.59802"
   y2="98.787003"
   gradientTransform="translate(-9.5978415e-4,-6.4087561e-4)">
        <stop
   offset="0.005"
   style="stop-color:#b34c78;stop-opacity:1;"
   id="stop11" />
        <stop
   offset="1"
   style="stop-color:#960d18;stop-opacity:1;"
   id="stop12" />
    </linearGradient>
    <path
   fill="url(#f)"
   d="m 538.61804,82.497363 c -3.66,0 -6.615,2.951 -6.615,6.593 a 6.608,6.608 0 0 0 6.615,6.634 c 3.641,0 6.592,-2.953 6.592,-6.634 a 6.596,6.596 0 0 0 -6.592,-6.593 v -0.907 a 7.5,7.5 0 0 1 7.498,7.5 c 0,4.173 -3.35,7.538 -7.498,7.538 a 7.526,7.526 0 0 1 -7.539,-7.538 c 0,-4.135 3.365,-7.499 7.539,-7.499 z"
   id="path12"
   style="fill:#960d18;fill-opacity:1" />
    <linearGradient
   id="g"
   gradientUnits="userSpaceOnUse"
   x1="539.14398"
   y1="-0.713"
   x2="539.14398"
   y2="98.787003"
   gradientTransform="translate(-9.5978415e-4,-6.4087561e-4)">
        <stop
   offset="0.005"
   style="stop-color:#b34c78;stop-opacity:1;"
   id="stop13" />
        <stop
   offset="1"
   style="stop-color:#960d18;stop-opacity:1;"
   id="stop14" />
    </linearGradient>
    <path
   fill="url(#g)"
   d="m 536.83804,85.638363 h 2.402 c 1.045,0 2.182,0.156 2.182,1.457 0,1.711 -1.828,1.516 -3.01,1.516 l -1.574,-0.002 v 0.809 h 1.893 l 2.4,3.878 h 1.219 l -2.539,-3.878 c 1.496,-0.038 2.656,-0.648 2.656,-2.302 0,-0.71 -0.313,-1.457 -0.943,-1.813 -0.629,-0.373 -1.34,-0.412 -2.049,-0.412 h -3.656 v 8.403 h 1.02 v -7.656 z"
   id="path14"
   style="fill:#960d19;fill-opacity:1" />
<g
   stroke-width="1.624"
   id="g8"
   style="fill:#666666;fill-opacity:1"
   transform="matrix(1.1027994,0,0,1.1027994,-759.54007,38.513802)"><path
     style="fill:#666666;fill-opacity:1;stroke-width:0.531334"
     d="m 1201.6389,75.484254 v 5.560094 h -4.2547 v 19.296802 h -7.8548 V 81.044348 h -4.2548 v -5.560094 z"
     id="path34" /><path
     style="fill:#666666;fill-opacity:1;stroke-width:0.531334"
     d="m 1172.1831,75.484254 4.2548,12.428447 V 75.484254 h 7.2002 v 24.856896 h -7.2002 l -4.9093,-13.409643 v 13.409643 h -7.2004 V 75.484254 Z"
     id="path33" /><path
     style="fill:#666666;fill-opacity:1;stroke-width:0.531334"
     d="m 1162.6918,75.484254 v 5.560094 h -6.8729 v 3.924773 h 5.8911 v 5.560094 h -5.8911 v 4.251838 h 6.8729 v 5.560097 h -14.7279 V 75.484254 Z"
     id="path32" /><path
     style="fill:#666666;fill-opacity:1;stroke-width:0.531334"
     d="m 1129.3086,75.484254 3.4463,12.755511 3.4268,-12.755511 h 9.4913 v 24.856896 h -7.2004 V 85.296185 l -4.2548,15.044965 h -2.9455 l -4.2546,-14.7179 v 14.7179 h -7.2004 V 75.484254 Z"
     id="path31" /><path
     style="fill:#666666;fill-opacity:1;stroke-width:0.531334"
     d="m 1111.3078,90.529215 v 4.251838 h 6.873 v 5.560097 H 1103.453 V 75.484254 h 14.7278 v 5.560094 h -6.873 v 3.924773 h 5.8913 v 5.560094 z"
     id="path30" /><path
     style="fill:#666666;fill-opacity:1;stroke-width:0.531334"
     d="m 1069.4151,86.931507 v 13.409643 h -7.2004 V 75.484254 h 7.855 l 4.2548,12.428447 V 75.484254 h 7.2004 v 24.856896 h -7.2004 z"
     id="path29" /><path
     style="fill:#666666;fill-opacity:1;stroke-width:0.531334"
     d="m 1045.196,75.484254 h 10.8003 l 4.9094,24.856896 h -7.8549 l -0.6547,-4.578904 h -3.5999 l -0.6546,4.578904 h -7.855 z m 4.2546,14.717897 h 2.2912 l -1.1423,-9.484867 z"
     id="path28" /><path
     style="fill:#666666;fill-opacity:1;stroke-width:0.531334"
     d="m 1027.5224,100.34115 h -7.8548 V 75.484254 h 7.8548 v 9.484867 h 3.2729 v -9.484867 h 7.855 v 24.856896 h -7.855 v -9.811935 h -3.2729 z"
     id="path27" /><path
     style="fill:#666666;fill-opacity:1;stroke-width:0.531334"
     d="m 1005.9216,75.484254 4.2546,12.428447 V 75.484254 h 7.2003 v 24.856896 h -7.2003 l -4.9092,-13.409643 v 13.409643 h -7.20036 V 75.484254 Z"
     id="path26" /><path
     style="fill:#666666;fill-opacity:1;stroke-width:0.531334"
     d="m 989.55727,90.529215 v 4.251838 h 6.87305 v 5.560097 H 981.7023 V 75.484254 h 14.72802 v 5.560094 h -6.87305 v 3.924773 h 5.89112 v 5.560094 z"
     id="path25" /><path
     style="fill:#666666;fill-opacity:1;stroke-width:0.531334"
     d="m 957.15592,75.484254 h 10.80036 l 4.90937,24.856896 h -7.85494 l -0.65459,-4.578904 h -3.60017 l -0.65446,4.578904 h -7.85493 z m 4.25463,14.717897 h 2.29111 l -1.15535,-9.484867 z"
     id="path24" /><path
     style="fill:#666666;fill-opacity:1;stroke-width:0.531334"
     d="m 950.61019,75.484254 v 24.856896 h -7.85494 V 75.484254 Z"
     id="path23" /><path
     style="fill:#666666;fill-opacity:1;stroke-width:0.531334"
     d="M 922.46346,100.34115 V 75.484254 h 9.4913 c 8.50953,0 8.50953,5.887158 8.50953,5.887158 v 13.082576 c 0,0 0,5.887162 -6.54572,5.887162 z m 10.8005,-15.372029 c 0.0139,-3.277184 -0.6546,-3.924773 -3.27287,-3.924773 v 13.736705 c 2.61827,0 3.27287,-0.654129 3.27287,-3.924773 z"
     id="path22" /><path
     style="fill:#666666;fill-opacity:1;stroke-width:0.531334"
     d="m 920.49977,75.484254 v 5.560094 h -6.87301 v 3.924773 h 5.89115 v 5.560094 h -5.89115 v 4.251838 h 6.87301 v 5.560097 H 905.77188 V 75.484254 Z"
     id="path21" /><path
     style="fill:#666666;fill-opacity:1;stroke-width:0.531334"
     d="m 887.44383,75.484254 3.10267,12.755511 3.11577,-12.755511 h 9.8186 v 24.856896 h -7.20031 V 85.296185 l -4.25473,15.044965 h -2.94557 l -4.25472,-15.044965 v 15.044965 h -7.20031 V 75.484254 Z"
     id="path20" /><path
     style="fill:#666666;fill-opacity:1;stroke-width:0.531334"
     d="m 1101.4892,94.453988 c 0,3.270645 -2.6183,6.214222 -5.8912,6.214222 h -6.2184 c -3.2729,0 -5.8911,-2.943577 -5.8911,-6.214222 V 81.698477 c 0,-3.270644 2.6182,-6.214223 5.8911,-6.214223 h 6.2184 c 3.2729,0 5.8912,2.943579 5.8912,6.214223 0,0 -0.056,2.577272 0,3.270644 h -7.2002 c 0,-3.270644 0,-4.251837 -1.4728,-4.251837 -1.4727,0 -1.4727,0.981193 -1.4727,4.251837 v 5.887159 c 0,3.270644 0,4.251837 1.4824,4.251837 1.4631,0 1.4631,-0.981193 1.4631,-4.251837 h 7.2002 z"
     id="path19" /><path
     style="fill:#666666;fill-opacity:1;stroke-width:0.531334"
     d="m 1201.9662,60.112226 v 9.157803 H 876.64337 v -9.157803 z"
     id="path18" /><path
     style="fill:#666666;fill-opacity:1;stroke-width:0.300242"
     d="m 822.90654,87.433628 c 0,4.620372 2.77415,6.098892 5.54822,6.098892 h 9.61692 c 2.77415,0 5.54822,-1.47852 5.54822,-6.098892 V 58.787295 h 8.13742 v 31.788189 c 0,5.544447 -2.40425,10.349636 -8.87713,10.349636 h -19.23386 c -6.47296,0 -8.87713,-4.805189 -8.87713,-10.349636 V 58.787295 h 8.13734 z"
     id="path17" /><path
     style="fill:#666666;fill-opacity:1;stroke-width:0.300242"
     d="M 811.07039,58.787295 H 783.6992 c -4.62356,0 -8.13742,5.729267 -8.13742,10.349643 v 4.435561 c 0,4.620376 3.51386,10.349643 8.13742,10.349643 h 15.53496 c 3.69881,0 4.4386,2.58741 4.4386,4.435561 0,1.84815 -0.73979,4.435557 -4.4386,4.435557 h -23.67238 v 8.13186 h 27.37119 c 4.62355,0 8.13742,-5.729264 8.13742,-10.349636 v -4.435562 c 0,-4.620376 -3.51387,-10.349642 -8.13742,-10.349642 h -15.53496 c -3.69881,0 -4.43861,-2.587411 -4.43861,-4.435562 0,-1.84815 0.7398,-4.435561 4.43861,-4.435561 h 23.67238 z"
     id="path16" /><path
     style="fill:#666666;fill-opacity:1;stroke-width:0.300242"
     d="m 871.73089,58.787295 h -4.43861 l -11.83615,11.828163 v 4.435561 h 8.87713 v 25.874101 h 7.39763 z"
     id="path15" /><path
     style="fill:#666666;fill-opacity:1;stroke-width:0.300242"
     d="m 689.74934,100.92512 42.16649,-42.137825 h 5.17832 v 28.831148 l 28.8507,-28.831148 h 5.17832 v 42.137825 h -7.39762 V 71.354718 l -29.5905,29.570402 h -5.17832 V 71.354718 l -29.59048,29.570402 z"
     id="path4-0" /><path
     d="m 876.64337,64.691128 v -4.578902 h 325.32283 v 9.157803 H 876.64337 Z"
     fill="#e4000f"
     stroke="#ff0000"
     stroke-width="0.8572"
     id="path6-9"
     style="fill:#960d19;fill-opacity:1;stroke:#ffffff;stroke-opacity:1" /></g></svg>
