<?xml version="1.0" encoding="UTF-8" standalone="no"?>
<svg xmlns="http://www.w3.org/2000/svg" version="1.2" baseProfile="tiny" viewBox="0 0 1421 492">
<path fill="#ff0000" d="
  M 184.03 253.69
  Q 226.52 253.67 269.00 252.87
  Q 278.40 252.69 287.97 251.73
  A 0.50 0.49 3.3 0 1 288.51 252.33
  L 273.45 321.91
  A 0.64 0.62 -83.6 0 1 272.84 322.41
  L 20.31 323.05
  A 0.85 0.84 -84.9 0 1 19.48 322.05
  L 77.19 4.77
  A 0.61 0.61 4.6 0 1 77.78 4.27
  Q 100.88 3.61 123.93 2.95
  C 141.98 2.42 161.31 1.39 180.01 1.65
  Q 183.34 1.70 182.72 4.97
  Q 162.44 112.11 142.28 219.26
  C 140.59 228.23 136.97 242.17 142.22 249.56
  C 144.95 253.41 151.11 253.56 155.51 253.66
  C 165.99 253.89 175.34 253.69 184.03 253.69
  Z"
/>
<path fill="#ff0000" d="
  M 569.07 263.44
  C 623.86 263.95 672.50 264.67 721.95 262.50
  A 0.94 0.90 -75.1 0 0 722.70 262.04
  C 726.79 254.96 732.64 247.28 724.26 242.98
  Q 671.72 216.05 619.11 189.24
  Q 614.81 187.06 611.95 184.34
  C 604.62 177.38 599.38 169.17 598.17 159.39
  C 596.69 147.50 596.28 134.93 596.20 122.93
  Q 596.19 120.96 596.74 119.06
  Q 599.89 108.16 605.39 98.57
  C 607.64 94.65 609.59 90.41 613.07 86.07
  Q 622.41 74.43 634.44 64.49
  Q 636.25 63.01 638.58 62.96
  C 641.37 62.91 644.68 62.45 647.48 62.43
  Q 745.45 61.69 843.20 62.09
  A 0.38 0.37 5.1 0 1 843.57 62.53
  L 833.59 122.34
  A 0.86 0.85 5.1 0 1 832.73 123.05
  C 795.81 122.79 758.97 123.63 722.06 124.19
  Q 708.28 124.40 694.51 125.27
  C 690.60 125.52 687.94 126.91 686.80 130.94
  C 685.41 135.80 685.38 140.37 690.25 143.14
  Q 697.82 147.45 705.55 151.47
  Q 753.04 176.17 801.09 199.78
  Q 801.25 199.85 802.04 199.95
  L 803.25 200.09
  A 1.06 0.67 75.5 0 1 803.92 200.72
  Q 804.92 203.05 805.27 203.47
  Q 810.11 209.29 812.74 215.01
  Q 814.39 218.61 815.71 220.75
  C 822.00 230.86 824.73 250.14 820.57 262.17
  Q 819.40 265.56 819.10 268.00
  Q 818.01 276.81 815.80 285.39
  C 813.52 294.26 809.09 302.13 804.36 309.98
  C 801.15 315.30 794.96 319.32 789.92 322.77
  A 1.65 1.59 -61.5 0 1 789.00 323.06
  L 494.55 322.45
  A 0.74 0.72 79.5 0 1 493.87 321.97
  Q 490.08 311.62 487.03 300.12
  A 1.83 1.83 -8.0 0 0 485.24 298.77
  Q 444.75 299.55 403.50 300.45
  Q 397.67 300.57 391.90 301.33
  A 1.08 1.05 11.4 0 0 391.14 301.82
  L 378.13 322.53
  A 0.94 0.91 16.0 0 1 377.35 322.95
  Q 356.77 323.03 336.27 323.00
  C 328.79 323.00 318.51 322.37 309.25 322.53
  Q 304.48 322.60 298.57 321.77
  A 0.35 0.35 18.2 0 1 298.31 321.26
  L 437.17 62.59
  A 0.85 0.81 -75.4 0 1 437.90 62.14
  L 528.48 62.26
  A 0.61 0.60 84.8 0 1 529.07 62.76
  L 568.47 262.95
  A 0.61 0.60 -5.1 0 0 569.07 263.44
  Z
  M 463.46 174.90
  Q 447.43 204.86 433.13 235.68
  A 0.40 0.39 -71.3 0 0 433.40 236.24
  Q 437.28 237.01 441.25 237.01
  Q 459.52 237.03 477.77 236.11
  A 0.63 0.63 83.0 0 0 478.36 235.35
  Q 472.23 204.80 464.64 175.04
  Q 464.23 173.45 463.46 174.90
  Z"
/>
<path fill="#ff0000" d="
  M 1421.00 157.31
  L 1421.00 157.56
  C 1409.80 186.99 1381.22 209.05 1354.30 224.08
  Q 1352.52 225.08 1353.20 227.01
  Q 1355.87 234.61 1359.42 242.89
  Q 1376.43 282.53 1393.74 322.29
  A 0.51 0.50 78.1 0 1 1393.28 323.00
  L 1308.78 323.00
  A 0.64 0.63 -9.7 0 1 1308.18 322.58
  L 1253.99 178.75
  A 0.54 0.54 -10.9 0 1 1254.49 178.02
  Q 1281.94 177.78 1309.38 177.49
  Q 1311.58 177.47 1313.24 176.38
  C 1325.29 168.48 1326.74 155.21 1325.65 141.81
  C 1325.13 135.38 1309.51 119.14 1300.11 119.05
  Q 1272.53 118.81 1244.94 119.19
  A 0.63 0.63 -84.9 0 0 1244.34 119.69
  L 1202.47 322.08
  A 0.47 0.46 -83.8 0 1 1202.02 322.45
  L 1103.24 323.05
  A 0.44 0.44 -84.1 0 1 1102.81 322.52
  L 1158.53 62.79
  A 0.33 0.32 -83.1 0 1 1158.84 62.54
  L 1388.68 61.99
  A 1.16 1.15 67.2 0 1 1389.53 62.34
  C 1400.40 73.32 1411.60 86.27 1416.24 101.21
  Q 1418.13 107.32 1418.89 118.55
  Q 1420.21 137.90 1421.00 157.31
  Z"
/>
<path fill="#ff0000" d="
  M 936.81 251.71
  Q 943.15 251.99 949.52 252.06
  Q 1017.17 252.84 1084.99 253.28
  A 0.44 0.43 -86.0 0 1 1085.42 253.78
  L 1076.09 320.66
  A 1.82 1.81 -86.5 0 1 1074.33 322.22
  C 995.47 323.67 916.48 323.13 837.62 322.94
  A 0.36 0.36 -84.6 0 1 837.27 322.51
  L 887.48 63.23
  A 0.81 0.80 4.8 0 1 888.26 62.58
  Q 994.53 62.09 1101.25 62.40
  Q 1114.26 62.44 1126.53 62.92
  A 1.40 1.38 7.0 0 1 1127.84 64.58
  L 1115.97 122.86
  A 0.64 0.64 4.1 0 1 1115.38 123.37
  Q 1112.13 123.57 1109.00 123.60
  Q 1035.15 124.22 961.30 124.56
  A 0.65 0.63 6.1 0 0 960.67 125.05
  L 954.28 151.99
  A 1.26 1.25 7.0 0 0 955.49 153.53
  Q 1008.50 154.22 1062.25 154.21
  Q 1070.76 154.20 1079.22 154.68
  A 1.28 1.27 -82.9 0 1 1080.40 156.20
  L 1067.93 220.35
  A 1.02 1.01 -83.3 0 1 1066.90 221.17
  C 1024.69 219.76 982.35 219.63 940.19 218.74
  A 1.19 1.19 -85.0 0 0 938.99 219.75
  Q 936.49 236.11 936.32 251.18
  A 0.52 0.51 -88.3 0 0 936.81 251.71
  Z"
/>
<path fill="#ff0000" d="
  M 1323.68 487.31
  C 1312.10 485.77 1300.91 478.71 1295.94 467.85
  C 1292.12 459.51 1292.51 447.47 1294.77 438.51
  Q 1304.81 398.60 1313.52 369.24
  Q 1320.73 344.92 1345.77 338.77
  Q 1348.69 338.06 1352.50 338.04
  Q 1369.69 337.97 1382.53 340.69
  C 1394.28 343.18 1407.68 356.33 1408.67 368.58
  C 1409.56 379.76 1406.30 391.61 1402.64 404.04
  Q 1394.43 431.94 1386.03 459.79
  Q 1385.28 462.27 1383.60 464.24
  C 1377.80 471.06 1374.27 476.23 1367.66 479.28
  Q 1356.47 484.44 1349.99 486.23
  C 1342.47 488.31 1330.94 488.28 1323.68 487.31
  Z
  M 1317.53 461.22
  C 1333.76 474.59 1350.71 468.37 1362.90 453.75
  Q 1364.37 451.99 1365.02 449.77
  Q 1372.88 422.89 1379.98 395.81
  Q 1383.73 381.50 1383.99 377.01
  C 1384.95 360.15 1372.42 356.34 1358.51 356.98
  C 1350.25 357.36 1341.21 365.22 1335.87 370.89
  C 1332.15 374.85 1330.61 381.46 1329.09 386.57
  Q 1319.89 417.44 1311.36 448.51
  A 1.68 1.09 -58.1 0 0 1311.38 449.48
  L 1315.03 458.23
  Q 1315.63 459.66 1317.53 461.22
  Z"
/>
<path fill="#ff0000" d="
  M 1140.53 413.51
  Q 1148.22 429.72 1148.99 444.77
  Q 1149.65 457.48 1139.35 466.87
  Q 1122.05 482.63 1118.19 485.46
  Q 1112.35 489.76 1103.25 489.75
  Q 1083.81 489.72 1066.73 484.78
  C 1062.18 483.46 1058.61 480.28 1054.35 476.98
  C 1045.11 469.81 1047.72 452.10 1063.57 460.73
  C 1069.78 464.11 1078.36 469.47 1085.40 470.16
  C 1091.76 470.78 1098.26 471.10 1104.22 469.17
  C 1111.26 466.89 1118.82 463.99 1122.56 457.03
  C 1126.05 450.54 1128.66 445.72 1127.47 438.07
  C 1126.52 431.96 1122.79 427.78 1117.00 426.02
  C 1113.10 424.84 1106.00 422.66 1104.04 419.09
  C 1101.66 414.75 1104.71 407.98 1109.49 406.52
  C 1115.40 404.72 1121.13 405.14 1127.40 403.02
  C 1138.86 399.14 1146.11 391.06 1145.86 378.63
  C 1145.67 369.29 1139.74 361.00 1129.97 360.54
  C 1123.30 360.22 1116.19 359.99 1109.96 362.77
  C 1103.75 365.55 1097.65 369.94 1091.95 371.94
  C 1087.44 373.51 1077.41 377.91 1076.18 370.05
  C 1075.23 364.06 1074.20 356.31 1080.34 353.10
  Q 1105.34 340.00 1132.26 342.23
  C 1136.84 342.61 1143.12 345.64 1146.89 347.50
  C 1160.41 354.17 1166.10 373.20 1166.00 386.76
  C 1165.89 399.59 1151.84 409.73 1140.80 412.93
  A 0.42 0.41 -21.1 0 0 1140.53 413.51
  Z"
/>
<path fill="#ff0000" d="
  M 1236.26 382.85
  Q 1236.66 381.64 1235.53 382.23
  Q 1226.46 386.90 1217.16 391.15
  C 1210.47 394.21 1208.20 383.23 1208.22 379.24
  Q 1208.24 376.60 1210.92 374.41
  Q 1228.07 360.36 1246.27 347.70
  Q 1250.67 344.64 1254.17 343.39
  C 1259.22 341.59 1266.35 344.75 1265.02 351.24
  Q 1263.86 356.88 1256.83 380.27
  Q 1241.84 430.12 1226.00 479.70
  C 1223.59 487.27 1218.86 491.08 1210.78 490.80
  C 1198.44 490.39 1207.52 467.80 1209.46 462.11
  Q 1223.03 422.24 1236.26 382.85
  Z"
/>
<path fill="#f9f9f9" d="
  M 91.40 367.19
  Q 91.42 366.73 91.67 366.34
  A 1.10 0.79 10.2 0 1 92.49 365.95
  C 106.35 365.64 122.81 364.92 135.20 369.34
  C 143.33 372.24 144.00 381.22 145.26 389.49
  Q 145.86 393.37 149.68 399.21
  A 0.50 0.50 -33.9 0 1 149.54 399.90
  Q 145.42 402.74 143.05 407.08
  C 138.07 416.19 134.53 418.16 123.44 418.42
  Q 106.71 418.81 89.99 418.18
  C 69.67 417.42 71.75 391.02 74.48 378.00
  Q 75.72 372.08 80.52 369.42
  A 1.44 1.33 -52.4 0 1 81.45 369.26
  L 83.20 369.61
  A 0.41 0.41 -81.9 0 0 83.69 369.24
  C 83.88 366.80 89.40 367.30 90.96 367.59
  A 0.42 0.37 -83.9 0 0 91.40 367.19
  Z
  M 94.40 404.87
  Q 95.80 405.79 97.46 405.92
  C 103.23 406.39 121.42 407.23 126.05 403.98
  C 129.99 401.21 129.19 388.77 128.94 383.58
  A 0.97 0.95 -76.1 0 0 128.49 382.82
  C 123.71 379.91 119.59 378.17 113.71 378.24
  Q 104.82 378.35 96.01 379.53
  C 85.74 380.90 88.39 400.90 94.40 404.87
  Z"
/>
<path fill="#f9f9f9" d="
  M 284.75 396.58
  Q 283.30 396.61 282.21 398.11
  C 280.59 400.35 282.47 402.56 281.39 404.97
  Q 279.39 409.41 277.56 413.90
  A 1.78 1.63 86.2 0 1 276.95 414.66
  C 273.40 417.03 269.84 418.76 265.38 419.10
  Q 243.16 420.80 223.56 418.97
  C 215.31 418.20 210.74 412.80 209.69 404.73
  C 208.48 395.44 206.97 375.91 216.54 370.11
  C 219.18 368.51 227.01 367.31 230.29 367.06
  Q 249.65 365.58 261.51 367.00
  Q 271.16 368.16 278.08 374.95
  C 279.86 376.71 280.14 379.10 281.26 380.72
  Q 282.78 382.91 285.02 384.36
  A 0.65 0.65 39.8 0 0 285.82 384.29
  C 290.50 379.78 281.22 368.68 294.69 368.13
  Q 305.14 367.70 323.25 367.79
  C 336.81 367.86 354.79 367.33 355.08 385.73
  Q 355.11 387.66 352.59 396.57
  C 350.33 404.53 356.05 411.27 351.37 418.47
  A 1.54 1.52 5.6 0 1 350.63 419.07
  Q 339.16 423.59 334.43 413.51
  Q 333.20 410.88 331.95 409.95
  C 327.96 407.01 315.82 408.17 309.16 408.58
  A 0.89 0.86 -77.7 0 0 308.44 409.06
  C 304.41 417.18 301.66 423.06 290.99 418.43
  Q 288.31 417.27 288.08 414.47
  L 286.77 398.45
  Q 286.62 396.54 284.75 396.58
  Z
  M 266.75 390.51
  C 265.03 375.11 248.57 377.79 236.32 378.17
  Q 230.22 378.35 224.78 381.10
  A 1.77 1.76 -10.2 0 0 223.82 382.47
  C 223.19 387.77 221.66 398.64 224.18 403.23
  C 227.20 408.71 237.69 408.73 245.38 409.43
  C 251.06 409.95 255.61 409.40 260.71 407.74
  C 268.41 405.23 267.52 397.36 266.75 390.51
  Z
  M 307.03 393.97
  Q 308.63 395.31 310.71 395.47
  C 316.54 395.92 333.63 396.19 337.35 391.81
  C 341.62 386.79 335.48 381.42 330.93 380.59
  C 322.97 379.13 311.84 378.05 304.34 382.83
  Q 302.89 383.75 303.00 385.47
  Q 303.36 390.91 307.03 393.97
  Z"
/>
<path fill="#f9f9f9" d="
  M 15.13 394.90
  C 12.84 407.83 38.21 406.72 45.00 405.02
  C 47.34 404.43 50.01 401.77 52.19 400.92
  C 57.29 398.95 67.07 399.56 64.45 408.08
  C 62.54 414.31 58.30 416.20 51.81 416.73
  Q 33.82 418.17 15.93 416.08
  C 8.68 415.23 3.18 410.86 2.28 403.51
  Q 0.96 392.82 1.24 383.00
  C 1.54 372.56 8.11 369.22 17.80 368.35
  Q 35.08 366.81 51.76 368.71
  C 59.50 369.59 62.77 374.00 64.90 381.00
  A 0.84 0.83 -31.4 0 1 64.69 381.84
  C 57.95 388.52 52.14 382.60 45.38 380.77
  Q 32.99 377.41 20.47 381.43
  C 17.65 382.34 17.24 383.98 17.39 386.93
  C 17.55 390.19 15.54 392.56 15.13 394.90
  Z"
/>
<path fill="#f9f9f9" d="
  M 936.95 418.64
  C 931.43 423.82 919.46 423.52 919.18 413.94
  C 918.81 401.36 918.37 388.84 918.86 376.25
  C 919.18 368.11 924.78 368.04 931.07 367.89
  Q 951.16 367.41 971.24 368.50
  C 976.16 368.77 981.62 368.83 984.45 373.72
  C 989.20 381.92 988.42 390.21 986.16 399.06
  C 985.04 403.45 987.65 411.03 988.75 415.46
  Q 989.20 417.29 987.68 418.40
  C 979.50 424.40 971.71 422.84 968.04 412.96
  Q 967.24 410.82 964.96 410.54
  Q 955.22 409.39 945.19 409.87
  C 939.61 410.15 938.61 413.08 937.43 417.80
  A 1.85 1.57 79.5 0 1 936.95 418.64
  Z
  M 939.13 393.70
  Q 940.88 394.88 942.97 395.14
  C 948.27 395.79 964.44 397.29 969.03 394.39
  C 973.97 391.27 971.13 382.60 965.75 381.50
  C 960.93 380.52 945.88 379.25 941.01 381.51
  Q 938.64 382.61 937.63 385.02
  Q 935.13 390.98 939.13 393.70
  Z"
/>
<path fill="#f9f9f9" d="
  M 155.06 416.08
  C 150.88 410.19 150.16 373.21 154.20 369.52
  C 156.60 367.35 162.70 367.79 165.42 368.56
  Q 167.88 369.26 168.48 371.75
  C 170.26 379.09 169.74 386.99 169.89 394.50
  Q 169.98 398.99 171.46 401.86
  Q 172.65 404.18 175.22 404.60
  Q 184.84 406.18 194.19 405.51
  C 203.08 404.88 209.69 412.24 200.17 418.72
  A 1.73 1.52 24.8 0 1 199.25 418.99
  Q 182.37 419.12 165.51 418.67
  C 161.90 418.57 157.22 419.13 155.06 416.08
  Z"
/>
<path fill="#f9f9f9" d="
  M 408.51 418.98
  C 399.82 418.44 393.52 414.90 391.90 405.78
  Q 389.53 392.51 391.95 380.98
  C 394.98 366.53 424.54 369.10 434.31 369.65
  C 442.65 370.11 447.93 370.47 452.16 377.37
  C 457.17 385.54 449.31 387.23 443.30 385.48
  C 440.22 384.58 435.85 381.48 433.51 381.22
  Q 424.62 380.22 415.74 381.18
  C 405.69 382.27 405.72 387.81 405.10 396.45
  C 404.77 401.15 407.35 404.54 410.84 407.22
  A 1.61 1.49 -24.2 0 0 411.74 407.52
  Q 419.54 407.70 427.31 407.96
  C 433.63 408.17 436.34 407.08 441.30 403.81
  Q 444.39 401.78 449.07 402.41
  C 458.13 403.63 453.09 413.95 448.62 416.79
  Q 446.14 418.37 440.44 418.79
  Q 424.48 419.98 408.51 418.98
  Z"
/>
<path fill="#f9f9f9" d="
  M 526.82 377.24
  C 528.80 377.65 530.01 382.54 530.28 384.25
  C 532.15 396.27 532.75 420.08 514.29 418.58
  A 1.07 0.98 -64.0 0 0 513.47 418.90
  L 513.24 419.14
  A 0.84 0.76 19.1 0 1 512.68 419.38
  Q 501.18 420.01 479.53 419.69
  Q 469.10 419.53 465.05 412.20
  C 461.56 405.87 462.80 393.08 463.57 385.37
  C 464.42 376.95 468.41 371.73 477.28 371.52
  Q 478.16 371.50 478.98 370.62
  A 1.26 1.07 -65.9 0 1 479.81 370.22
  Q 498.09 369.65 516.30 371.12
  Q 522.72 371.64 526.05 376.76
  A 1.25 0.97 -6.0 0 0 526.82 377.24
  Z
  M 518.44 401.76
  C 518.74 392.21 519.53 382.64 508.08 380.61
  C 498.77 378.96 477.75 376.29 475.24 389.04
  Q 472.88 401.01 481.02 410.80
  A 1.08 1.06 -19.4 0 0 481.85 411.19
  Q 495.14 411.06 508.41 410.19
  C 512.86 409.90 518.27 406.80 518.44 401.76
  Z
  M 470.06 416.43
  Q 470.87 417.01 471.81 417.37
  Q 472.98 417.82 473.44 417.66
  Q 474.05 417.44 473.26 417.07
  C 472.41 416.67 469.73 414.81 469.05 414.85
  Q 467.90 414.90 470.06 416.43
  Z"
/>
<path fill="#f9f9f9" d="
  M 855.23 417.59
  C 854.06 416.71 853.51 415.44 853.43 413.89
  Q 852.34 393.69 853.55 373.47
  A 1.89 1.89 -3.3 0 1 855.11 371.72
  Q 857.87 371.22 860.75 371.07
  Q 880.12 370.06 899.50 370.99
  Q 902.78 371.15 905.32 371.62
  Q 907.58 372.04 907.25 373.99
  L 906.40 379.04
  A 0.71 0.55 4.2 0 1 905.71 379.50
  Q 890.76 379.35 878.51 380.02
  C 874.40 380.25 865.60 380.55 869.94 387.82
  Q 871.28 390.06 873.90 390.06
  Q 887.41 390.06 901.38 391.32
  Q 903.60 391.53 903.77 393.74
  Q 904.10 397.87 899.95 398.17
  Q 889.75 398.92 879.50 398.98
  C 875.98 399.01 870.25 399.54 868.57 403.14
  C 865.40 409.95 880.47 410.17 883.94 410.31
  Q 894.33 410.73 904.79 411.31
  Q 906.89 411.42 906.95 413.52
  C 907.03 416.32 906.15 418.08 903.06 418.23
  C 888.11 418.96 872.18 419.85 857.29 418.40
  A 4.16 4.06 -22.9 0 1 855.23 417.59
  Z"
/>
<path fill="#f9f9f9" d="
  M 716.80 417.68
  C 711.97 414.20 710.15 411.28 709.58 405.04
  Q 708.30 391.15 709.32 377.25
  C 710.08 366.98 722.72 369.67 722.83 378.32
  C 722.99 390.22 721.55 402.92 726.80 406.95
  C 731.04 410.23 749.62 408.88 755.26 408.49
  A 1.25 1.23 18.2 0 0 756.09 408.08
  Q 760.11 403.45 759.98 397.69
  Q 759.70 384.98 760.47 376.51
  C 761.06 369.96 768.60 370.56 772.86 372.41
  Q 776.02 373.78 775.66 377.21
  C 774.76 385.94 774.96 395.44 773.72 404.32
  C 771.86 417.72 764.35 419.05 752.44 419.34
  Q 736.34 419.73 721.58 419.30
  Q 718.94 419.23 716.80 417.68
  Z"
/>
<path fill="#f9f9f9" d="
  M 559.17 390.13
  Q 556.76 388.21 555.92 391.18
  C 553.38 400.18 553.27 408.04 552.46 416.88
  A 0.74 0.72 85.5 0 1 551.93 417.52
  C 547.67 418.65 542.21 419.49 541.52 413.47
  C 540.36 403.36 541.08 392.69 540.95 382.50
  Q 540.90 378.49 541.17 375.25
  Q 541.39 372.60 543.99 372.03
  C 551.09 370.47 562.64 369.01 567.09 376.54
  C 570.98 383.12 575.96 393.93 582.39 398.09
  Q 583.97 399.12 585.51 398.03
  C 592.34 393.20 596.10 383.91 600.51 376.55
  C 604.55 369.82 610.76 370.77 618.17 371.75
  C 623.46 372.45 625.72 372.58 626.24 378.20
  Q 628.10 398.37 626.33 415.25
  C 625.90 419.31 619.63 419.75 617.07 418.71
  Q 614.54 417.69 614.33 414.96
  C 613.76 407.40 614.90 399.38 612.04 392.30
  Q 610.80 389.23 608.23 391.69
  C 601.63 398.01 596.87 406.53 591.31 413.80
  C 588.30 417.73 584.90 418.91 580.24 417.72
  C 570.92 415.33 566.49 395.92 559.17 390.13
  Z"
/>
<path fill="#f9f9f9" d="
  M 784.74 381.25
  Q 782.12 380.37 782.07 377.61
  C 781.99 372.65 783.59 371.56 788.43 371.36
  Q 811.86 370.39 835.25 371.95
  Q 838.02 372.14 840.73 372.69
  A 1.58 1.40 -12.7 0 1 841.55 373.14
  C 845.02 376.98 840.87 381.32 836.74 381.90
  Q 829.44 382.91 822.41 384.40
  A 1.25 1.24 87.1 0 0 821.44 385.48
  Q 820.07 397.09 819.33 408.74
  Q 819.02 413.66 818.46 415.98
  C 817.46 420.07 810.47 421.33 807.87 418.34
  Q 806.67 416.97 806.44 413.89
  Q 805.46 400.80 804.78 387.76
  C 804.36 379.66 790.10 383.06 784.74 381.25
  Z"
/>
<path fill="#f9f9f9" d="
  M 642.07 417.31
  Q 640.36 416.64 640.25 414.81
  Q 639.08 394.89 640.41 376.75
  Q 640.49 375.69 641.97 372.29
  A 0.77 0.76 -78.2 0 1 642.67 371.82
  Q 665.67 371.82 688.58 373.21
  C 695.96 373.66 698.37 382.46 697.69 388.49
  C 696.60 398.13 693.00 404.82 682.32 405.10
  Q 664.79 405.57 655.55 405.51
  A 1.31 1.27 24.4 0 0 654.68 405.82
  Q 651.66 408.40 650.30 411.96
  C 648.76 415.95 646.65 419.12 642.07 417.31
  Z
  M 664.56 398.81
  A 1.10 1.03 12.2 0 1 665.77 398.08
  C 670.12 398.76 682.31 399.02 685.53 395.49
  C 688.22 392.53 686.93 386.59 684.61 384.10
  C 681.13 380.39 671.44 380.03 666.49 379.77
  Q 657.89 379.33 652.04 385.37
  Q 650.19 387.29 651.19 389.75
  Q 654.50 397.92 663.31 399.60
  Q 664.29 399.79 664.56 398.81
  Z"
/>
</svg>
