<?xml version="1.0" encoding="UTF-8" standalone="no"?>
<svg xmlns="http://www.w3.org/2000/svg" version="1.2" baseProfile="tiny" viewBox="0 0 400 120">
<path fill="#000000" d="
  M 134.81 69.10
  L 142.75 66.93
  A 1.62 0.76 -66.2 0 0 143.52 66.26
  L 160.66 40.92
  A 1.55 1.53 60.5 0 0 160.92 39.97
  Q 160.19 23.25 172.00 14.18
  C 196.57 -4.68 229.52 23.22 214.66 50.53
  Q 207.30 64.06 190.50 65.48
  A 1.62 0.42 0.6 0 0 189.50 65.73
  L 161.61 86.62
  A 1.79 1.24 88.3 0 0 161.07 87.45
  C 160.39 89.65 159.79 92.04 158.59 93.93
  C 150.54 106.48 132.60 105.09 126.95 91.22
  A 1.39 1.15 86.1 0 0 126.26 90.49
  L 39.66 55.13
  A 2.00 1.65 43.1 0 0 38.40 55.05
  C 11.07 63.67 4.02 26.46 26.77 21.81
  C 35.77 19.97 43.97 24.70 47.34 33.30
  A 1.29 1.16 3.1 0 0 48.01 33.97
  L 133.81 68.95
  A 1.67 0.69 31.0 0 0 134.81 69.10
  Z
  M 211.50 36.77
  A 21.93 21.93 0.0 0 0 189.57 14.84
  A 21.93 21.93 0.0 0 0 167.64 36.77
  A 21.93 21.93 0.0 0 0 189.57 58.70
  A 21.93 21.93 0.0 0 0 211.50 36.77
  Z
  M 39.58 29.70
  C 30.52 21.67 15.69 28.58 17.86 41.22
  Q 19.40 50.23 30.07 51.85
  C 30.17 51.86 31.32 51.63 30.47 51.33
  Q 26.33 49.89 23.71 46.76
  C 14.12 35.29 28.37 24.72 39.11 30.38
  Q 42.15 31.98 39.58 29.70
  Z
  M 141.91 72.41
  C 160.71 77.81 154.37 101.73 133.69 93.64
  Q 133.21 93.46 133.56 93.82
  C 144.66 105.52 161.76 92.82 155.06 78.92
  Q 151.45 71.45 141.76 71.44
  A 0.56 0.19 3.8 0 0 141.31 71.56
  Q 141.19 71.75 141.31 71.94
  A 1.16 1.00 78.7 0 0 141.91 72.41
  Z"
/>
<path fill="#f8f8f8" d="
  M 211.50 36.77
  A 21.93 21.93 0.0 0 1 189.57 58.70
  A 21.93 21.93 0.0 0 1 167.64 36.77
  A 21.93 21.93 0.0 0 1 189.57 14.84
  A 21.93 21.93 0.0 0 1 211.50 36.77
  Z
  M 207.03 36.66
  A 17.46 17.46 0.0 0 0 189.57 19.20
  A 17.46 17.46 0.0 0 0 172.11 36.66
  A 17.46 17.46 0.0 0 0 189.57 54.12
  A 17.46 17.46 0.0 0 0 207.03 36.66
  Z"
/>
<circle fill="#000000" cx="189.57" cy="36.66" r="17.46"/>
<path fill="#000000" d="
  M 237.23 32.36
  C 232.59 41.06 255.63 34.61 252.25 50.84
  C 250.17 60.85 237.42 59.43 230.51 56.39
  A 0.86 0.61 16.0 0 1 230.00 55.75
  L 230.00 50.00
  A 0.44 0.40 15.9 0 1 230.65 49.68
  C 233.38 51.23 249.34 56.15 244.56 46.89
  A 1.34 1.22 -1.4 0 0 243.86 46.28
  C 237.03 43.67 228.58 43.76 229.77 33.52
  C 230.93 23.53 242.59 24.31 250.03 26.58
  A 0.97 0.59 11.9 0 1 250.75 27.25
  L 250.75 33.00
  A 0.52 0.40 17.6 0 1 250.00 33.27
  Q 244.33 30.27 238.04 31.71
  A 1.36 1.15 -79.0 0 0 237.23 32.36
  Z"
/>
<path fill="#000000" d="
  M 267.50 32.00
  L 259.25 32.00
  A 0.75 0.50 0.0 0 1 258.50 31.50
  L 258.50 26.25
  A 0.50 0.50 0.0 0 1 259.00 25.75
  L 284.75 25.75
  A 0.51 0.50 0.0 0 1 285.26 26.25
  L 285.33 30.94
  A 1.09 1.05 -0.3 0 1 284.24 32.00
  L 276.25 32.00
  A 0.75 0.50 -90.0 0 0 275.75 32.75
  L 275.75 57.25
  A 0.75 0.50 -90.0 0 1 275.25 58.00
  L 268.75 58.00
  A 0.81 0.55 90.0 0 1 268.20 57.19
  L 268.20 32.44
  A 0.70 0.44 0.0 0 0 267.50 32.00
  Z"
/>
<path fill="#000000" d="
  M 299.33 44.69
  L 299.30 51.19
  A 0.70 0.56 0.0 0 0 300.00 51.75
  L 312.00 51.75
  A 0.59 0.43 0.5 0 1 312.59 52.19
  L 312.52 57.50
  A 0.77 0.51 0.3 0 1 311.75 58.00
  L 292.31 57.99
  A 0.55 0.55 0.3 0 1 291.76 57.44
  L 291.75 26.25
  A 0.50 0.50 0.0 0 1 292.25 25.75
  L 311.50 25.75
  A 0.73 0.49 0.4 0 1 312.23 26.25
  L 312.15 31.57
  A 0.65 0.44 0.4 0 1 311.50 32.00
  L 300.00 32.00
  A 0.70 0.45 0.4 0 0 299.30 32.44
  L 299.23 37.49
  A 0.77 0.50 0.3 0 0 300.00 38.00
  L 310.75 38.00
  A 0.75 0.50 0.0 0 1 311.50 38.50
  L 311.50 43.75
  A 0.75 0.50 -0.0 0 1 310.75 44.25
  L 300.00 44.25
  A 0.67 0.44 0.0 0 0 299.33 44.69
  Z"
/>
<path fill="#000000" d="
  M 329.12 26.08
  A 0.71 0.46 5.6 0 1 329.75 25.75
  L 337.75 25.75
  A 0.83 0.54 77.5 0 1 338.35 26.34
  L 348.80 57.48
  A 0.32 0.27 79.1 0 1 348.57 57.90
  L 341.68 57.90
  A 0.78 0.46 77.9 0 1 341.15 57.32
  L 339.75 52.55
  A 0.79 0.78 -8.5 0 0 339.00 52.00
  L 328.50 52.00
  A 0.93 0.58 4.7 0 0 327.66 52.43
  L 326.19 57.23
  A 1.04 0.58 -77.4 0 1 325.50 58.00
  L 319.00 58.00
  A 0.64 0.45 -77.9 0 1 318.65 57.18
  L 329.12 26.08
  Z
  M 329.82 45.53
  A 0.64 0.37 4.5 0 0 330.50 46.00
  L 337.00 46.00
  A 0.57 0.48 80.2 0 0 337.43 45.27
  L 333.93 34.06
  Q 333.62 33.09 333.32 34.07
  L 329.82 45.53
  Z"
/>
<path fill="#000000" d="
  M 362.73 36.25
  L 362.59 57.07
  A 0.94 0.60 -89.6 0 1 361.99 58.00
  L 356.00 58.00
  A 0.75 0.50 90.0 0 1 355.50 57.25
  L 355.50 26.25
  A 0.50 0.50 0.0 0 1 356.00 25.75
  L 364.50 25.75
  A 0.80 0.77 -10.1 0 1 365.24 26.25
  L 371.31 42.19
  Q 371.66 43.09 372.00 42.21
  L 378.11 26.33
  A 0.90 0.57 -74.7 0 1 378.75 25.75
  L 387.50 25.75
  A 0.75 0.50 90.0 0 1 388.00 26.50
  L 388.00 57.25
  A 0.73 0.49 -89.6 0 1 387.50 57.98
  L 381.18 57.91
  A 0.66 0.40 -89.0 0 1 380.79 57.25
  L 380.90 36.00
  A 0.52 0.29 -89.6 0 0 380.61 35.47
  C 380.16 35.50 374.89 49.62 374.30 51.14
  A 0.88 0.40 -72.3 0 1 373.75 51.75
  L 369.75 51.75
  A 1.13 0.61 73.2 0 1 369.00 51.00
  L 363.53 36.74
  A 1.00 0.47 78.2 0 0 363.11 36.18
  L 362.96 36.12
  A 0.17 0.15 12.8 0 0 362.73 36.25
  Z"
/>
<path fill="#f8f8f8" d="
  M 39.58 29.70
  Q 42.15 31.98 39.11 30.38
  C 28.37 24.72 14.12 35.29 23.71 46.76
  Q 26.33 49.89 30.47 51.33
  C 31.32 51.63 30.17 51.86 30.07 51.85
  Q 19.40 50.23 17.86 41.22
  C 15.69 28.58 30.52 21.67 39.58 29.70
  Z"
/>
<path fill="#f8f8f8" d="
  M 133.69 93.64
  C 154.37 101.73 160.71 77.81 141.91 72.41
  A 1.16 1.00 78.7 0 1 141.31 71.94
  Q 141.19 71.75 141.31 71.56
  A 0.56 0.19 3.8 0 1 141.76 71.44
  Q 151.45 71.45 155.06 78.92
  C 161.76 92.82 144.66 105.52 133.56 93.82
  Q 133.21 93.46 133.69 93.64
  Z"
/>
</svg>
