<?xml version="1.0" encoding="UTF-8" standalone="no"?>
<!DOCTYPE svg PUBLIC "-//W3C//DTD SVG 1.1//EN" "http://www.w3.org/Graphics/SVG/1.1/DTD/svg11.dtd">
<svg xmlns="http://www.w3.org/2000/svg" version="1.1" viewBox="0.00 0.00 986.00 132.00">
<g stroke-width="2.00" fill="none" stroke-linecap="butt">
<path stroke="#808080" vector-effect="non-scaling-stroke" d="
  M 957.00 75.63
  L 957.00 57.67
  A 0.46 0.46 0.0 0 1 957.61 57.24
  L 967.29 60.61
  Q 967.77 60.78 967.77 60.26
  L 967.74 39.52
  Q 967.74 38.99 967.24 38.80
  Q 941.03 28.87 914.71 19.24
  C 913.24 18.70 911.21 18.30 909.69 18.87
  Q 883.73 28.55 857.78 38.51
  Q 857.25 38.71 857.25 39.28
  L 857.25 60.18
  Q 857.25 60.69 857.73 60.53
  L 867.09 57.33
  Q 867.71 57.12 867.71 57.77
  L 867.76 75.37
  A 0.74 0.74 0.0 0 1 866.79 76.08
  L 857.80 73.13
  A 0.61 0.60 9.1 0 0 857.00 73.70
  L 857.00 94.23
  Q 857.00 94.73 857.46 94.91
  Q 880.52 103.96 903.42 113.44
  C 907.41 115.09 913.24 116.14 916.72 114.77
  Q 941.98 104.84 967.27 94.94
  Q 967.75 94.75 967.75 94.24
  L 967.75 73.60
  A 0.53 0.52 -8.6 0 0 967.07 73.10
  L 957.67 76.12
  Q 957.00 76.33 957.00 75.63"
/>
<path stroke="#808080" vector-effect="non-scaling-stroke" d="
  M 83.75 46.83
  A 0.33 0.33 0.0 0 1 84.08 46.50
  L 115.67 46.50
  A 0.33 0.33 0.0 0 0 116.00 46.17
  L 116.00 20.58
  A 0.33 0.33 0.0 0 0 115.67 20.25
  L 19.57 20.25
  A 0.33 0.33 0.0 0 0 19.24 20.58
  L 19.25 46.67
  A 0.33 0.33 0.0 0 0 19.58 47.00
  L 53.17 47.00
  A 0.33 0.33 0.0 0 1 53.50 47.33
  L 53.50 112.42
  A 0.33 0.33 0.0 0 0 53.83 112.75
  L 83.42 112.75
  A 0.33 0.33 0.0 0 0 83.75 112.42
  L 83.75 46.83"
/>
<path stroke="#808080" vector-effect="non-scaling-stroke" d="
  M 151.25 80.50
  L 199.75 80.50
  Q 200.25 80.50 200.25 81.00
  L 200.25 112.50
  Q 200.25 113.00 200.75 113.00
  L 229.38 113.00
  Q 230.00 113.00 230.00 112.38
  L 230.00 21.04
  Q 230.00 20.26 229.22 20.26
  L 200.75 20.23
  Q 200.23 20.23 200.23 20.75
  L 200.26 49.00
  Q 200.26 49.51 199.75 49.51
  L 150.96 49.50
  A 0.61 0.61 0.0 0 1 150.36 48.90
  L 150.25 20.75
  Q 150.25 20.25 149.75 20.25
  L 120.78 20.25
  Q 119.56 20.25 119.68 21.46
  C 120.16 26.66 119.76 32.32 119.75 36.38
  Q 119.71 60.29 120.07 84.18
  Q 120.28 98.30 119.69 112.19
  Q 119.66 113.00 120.47 113.00
  L 150.25 113.00
  Q 150.75 113.00 150.75 112.50
  L 150.75 81.00
  Q 150.75 80.50 151.25 80.50"
/>
<path stroke="#808080" vector-effect="non-scaling-stroke" d="
  M 612.80 22.84
  C 594.43 25.23 591.75 37.98 590.23 54.00
  Q 588.19 75.45 592.32 94.58
  C 595.14 107.64 604.49 111.15 616.51 112.19
  Q 644.92 114.65 670.77 112.35
  C 684.11 111.17 694.16 108.48 697.53 95.00
  Q 703.63 70.55 698.66 44.40
  C 695.97 30.29 689.72 24.40 675.24 22.61
  Q 644.02 18.77 612.80 22.84"
/>
<path stroke="#808080" vector-effect="non-scaling-stroke" d="
  M 236.36 95.53
  C 238.55 105.11 246.01 110.57 255.51 111.76
  Q 263.94 112.82 283.32 113.68
  C 293.18 114.11 303.07 113.27 313.06 112.78
  C 332.04 111.85 339.18 105.90 341.95 86.88
  Q 345.29 63.94 340.80 41.01
  Q 337.66 24.98 321.52 22.95
  Q 291.65 19.18 261.78 22.27
  C 249.23 23.57 239.64 26.37 236.47 38.99
  Q 229.64 66.10 236.36 95.53"
/>
<path stroke="#808080" vector-effect="non-scaling-stroke" d="
  M 456.25 56.28
  L 456.25 111.12
  Q 456.25 111.75 456.87 111.75
  L 480.50 111.75
  Q 481.00 111.75 481.00 111.25
  L 481.00 21.50
  A 0.50 0.50 0.0 0 0 480.50 21.00
  L 441.99 21.00
  Q 441.46 21.00 441.23 21.47
  L 415.09 73.60
  A 0.72 0.72 0.0 0 1 413.81 73.61
  L 386.70 21.73
  Q 386.45 21.25 385.90 21.25
  L 347.00 21.25
  Q 346.50 21.25 346.50 21.75
  L 346.50 111.25
  Q 346.50 111.75 347.00 111.75
  L 371.12 111.75
  Q 371.75 111.75 371.75 111.12
  L 371.75 56.27
  Q 371.75 55.79 372.23 55.76
  L 373.28 55.71
  Q 373.76 55.69 373.98 56.11
  L 402.29 111.53
  Q 402.53 112.00 403.05 112.00
  L 425.81 112.00
  Q 426.36 112.00 426.60 111.51
  L 453.89 56.23
  Q 453.95 56.11 453.88 55.99
  L 453.73 55.73
  Q 453.30 55.02 454.11 55.21
  L 455.71 55.59
  Q 456.25 55.72 456.25 56.28"
/>
<path stroke="#808080" vector-effect="non-scaling-stroke" d="
  M 488.69 36.44
  C 486.12 47.99 484.13 70.28 499.93 73.58
  Q 507.70 75.21 517.50 75.52
  Q 533.34 76.03 549.18 76.45
  C 554.25 76.58 560.15 76.74 561.93 81.31
  C 564.37 87.60 558.05 90.97 552.75 91.25
  Q 539.86 91.94 521.51 91.17
  Q 512.97 90.82 510.72 83.03
  Q 510.57 82.50 510.01 82.50
  L 487.76 82.50
  Q 487.25 82.50 487.22 83.00
  C 486.50 93.48 487.52 106.48 500.17 109.90
  C 510.63 112.73 523.12 112.31 533.64 112.25
  C 547.43 112.18 559.02 112.16 571.31 110.59
  C 581.54 109.29 584.57 101.80 585.72 92.74
  C 587.34 79.92 589.05 58.80 570.92 57.11
  Q 550.28 55.18 524.78 55.31
  Q 518.48 55.34 516.35 54.28
  C 511.91 52.07 510.35 42.31 517.48 41.58
  Q 536.97 39.61 550.68 40.33
  Q 558.02 40.72 559.31 48.32
  Q 559.41 48.93 560.03 48.96
  L 582.56 50.20
  Q 583.20 50.23 583.20 49.59
  C 583.33 36.49 582.16 24.53 566.34 22.59
  Q 535.97 18.87 505.82 23.31
  C 497.08 24.60 490.62 27.75 488.69 36.44"
/>
<path stroke="#808080" vector-effect="non-scaling-stroke" d="
  M 730.36 51.37
  C 731.52 51.29 769.03 105.98 772.88 111.54
  A 1.09 1.07 -17.1 0 0 773.77 112.00
  L 814.75 112.00
  Q 815.25 112.00 815.25 111.50
  L 815.25 21.76
  Q 815.25 21.26 814.76 21.26
  L 791.70 21.23
  Q 791.38 21.23 791.38 21.55
  L 791.55 80.73
  A 1.22 1.22 0.0 0 1 789.34 81.44
  L 746.85 21.94
  Q 746.54 21.50 746.01 21.50
  L 704.75 21.50
  Q 704.25 21.50 704.25 22.00
  L 704.25 111.09
  Q 704.25 111.75 704.91 111.75
  L 728.97 111.75
  Q 729.50 111.75 729.50 111.22
  L 729.50 52.25
  A 0.91 0.88 -1.7 0 1 730.36 51.37"
/>
<path stroke="#808080" vector-effect="non-scaling-stroke" d="
  M 964.75 41.73
  A 0.34 0.34 0.0 0 0 964.53 41.42
  L 918.90 24.02
  A 0.34 0.34 0.0 0 0 918.44 24.34
  L 918.53 38.49
  A 0.34 0.34 0.0 0 0 918.75 38.80
  L 964.29 56.24
  A 0.34 0.34 0.0 0 0 964.75 55.93
  L 964.75 41.73"
/>
<path stroke="#808080" vector-effect="non-scaling-stroke" d="
  M 931.63 86.66
  A 0.59 0.59 0.0 0 0 932.01 86.10
  L 931.69 48.32
  A 0.59 0.59 0.0 0 0 931.32 47.77
  L 911.88 40.03
  A 0.59 0.59 0.0 0 0 911.43 40.03
  L 892.93 47.90
  A 0.59 0.59 0.0 0 0 892.57 48.44
  L 892.58 86.12
  A 0.59 0.59 0.0 0 0 892.94 86.66
  L 911.44 94.29
  A 0.59 0.59 0.0 0 0 911.88 94.29
  L 931.63 86.66"
/>
<path stroke="#808080" vector-effect="non-scaling-stroke" d="
  M 907.00 95.95
  A 0.33 0.33 0.0 0 0 906.79 95.64
  L 861.20 78.42
  A 0.33 0.33 0.0 0 0 860.75 78.73
  L 860.75 92.78
  A 0.33 0.33 0.0 0 0 860.96 93.09
  L 906.55 110.50
  A 0.33 0.33 0.0 0 0 907.00 110.19
  L 907.00 95.95"
/>
<path stroke="#808080" vector-effect="non-scaling-stroke" d="
  M 625.69 89.07
  L 664.07 89.07
  A 9.75 9.75 0.0 0 0 673.82 79.32
  L 673.82 54.93
  A 11.31 11.22 0.0 0 0 662.51 43.71
  L 627.25 43.71
  A 11.31 11.22 0.0 0 0 615.94 54.93
  L 615.94 79.32
  A 9.75 9.75 0.0 0 0 625.69 89.07"
/>
<path stroke="#808080" vector-effect="non-scaling-stroke" d="
  M 268.82 45.22
  C 265.04 45.32 260.52 47.58 260.15 51.85
  Q 258.95 65.94 259.93 80.04
  C 260.36 86.19 263.73 88.42 269.81 88.66
  Q 288.40 89.40 307.00 88.69
  C 311.96 88.50 316.44 86.61 316.94 81.43
  Q 317.92 71.28 317.00 54.30
  C 316.50 45.18 310.86 45.11 303.50 45.06
  Q 280.60 44.93 268.82 45.22"
/>
</g>
<g fill="#000000">
<path d="
  M 957.67 76.12
  L 967.07 73.10
  A 0.53 0.52 -8.6 0 1 967.75 73.60
  L 967.75 94.24
  Q 967.75 94.75 967.27 94.94
  Q 941.98 104.84 916.72 114.77
  C 913.24 116.14 907.41 115.09 903.42 113.44
  Q 880.52 103.96 857.46 94.91
  Q 857.00 94.73 857.00 94.23
  L 857.00 73.70
  A 0.61 0.60 9.1 0 1 857.80 73.13
  L 866.79 76.08
  A 0.74 0.74 0.0 0 0 867.76 75.37
  L 867.71 57.77
  Q 867.71 57.12 867.09 57.33
  L 857.73 60.53
  Q 857.25 60.69 857.25 60.18
  L 857.25 39.28
  Q 857.25 38.71 857.78 38.51
  Q 883.73 28.55 909.69 18.87
  C 911.21 18.30 913.24 18.70 914.71 19.24
  Q 941.03 28.87 967.24 38.80
  Q 967.74 38.99 967.74 39.52
  L 967.77 60.26
  Q 967.77 60.78 967.29 60.61
  L 957.61 57.24
  A 0.46 0.46 0.0 0 0 957.00 57.67
  L 957.00 75.63
  Q 957.00 76.33 957.67 76.12
  Z
  M 964.75 41.73
  A 0.34 0.34 0.0 0 0 964.53 41.42
  L 918.90 24.02
  A 0.34 0.34 0.0 0 0 918.44 24.34
  L 918.53 38.49
  A 0.34 0.34 0.0 0 0 918.75 38.80
  L 964.29 56.24
  A 0.34 0.34 0.0 0 0 964.75 55.93
  L 964.75 41.73
  Z
  M 931.63 86.66
  A 0.59 0.59 0.0 0 0 932.01 86.10
  L 931.69 48.32
  A 0.59 0.59 0.0 0 0 931.32 47.77
  L 911.88 40.03
  A 0.59 0.59 0.0 0 0 911.43 40.03
  L 892.93 47.90
  A 0.59 0.59 0.0 0 0 892.57 48.44
  L 892.58 86.12
  A 0.59 0.59 0.0 0 0 892.94 86.66
  L 911.44 94.29
  A 0.59 0.59 0.0 0 0 911.88 94.29
  L 931.63 86.66
  Z
  M 907.00 95.95
  A 0.33 0.33 0.0 0 0 906.79 95.64
  L 861.20 78.42
  A 0.33 0.33 0.0 0 0 860.75 78.73
  L 860.75 92.78
  A 0.33 0.33 0.0 0 0 860.96 93.09
  L 906.55 110.50
  A 0.33 0.33 0.0 0 0 907.00 110.19
  L 907.00 95.95
  Z"
/>
<path d="
  M 83.75 46.83
  L 83.75 112.42
  A 0.33 0.33 0.0 0 1 83.42 112.75
  L 53.83 112.75
  A 0.33 0.33 0.0 0 1 53.50 112.42
  L 53.50 47.33
  A 0.33 0.33 0.0 0 0 53.17 47.00
  L 19.58 47.00
  A 0.33 0.33 0.0 0 1 19.25 46.67
  L 19.24 20.58
  A 0.33 0.33 0.0 0 1 19.57 20.25
  L 115.67 20.25
  A 0.33 0.33 0.0 0 1 116.00 20.58
  L 116.00 46.17
  A 0.33 0.33 0.0 0 1 115.67 46.50
  L 84.08 46.50
  A 0.33 0.33 0.0 0 0 83.75 46.83
  Z"
/>
<path d="
  M 150.75 81.00
  L 150.75 112.50
  Q 150.75 113.00 150.25 113.00
  L 120.47 113.00
  Q 119.66 113.00 119.69 112.19
  Q 120.28 98.30 120.07 84.18
  Q 119.71 60.29 119.75 36.38
  C 119.76 32.32 120.16 26.66 119.68 21.46
  Q 119.56 20.25 120.78 20.25
  L 149.75 20.25
  Q 150.25 20.25 150.25 20.75
  L 150.36 48.90
  A 0.61 0.61 0.0 0 0 150.96 49.50
  L 199.75 49.51
  Q 200.26 49.51 200.26 49.00
  L 200.23 20.75
  Q 200.23 20.23 200.75 20.23
  L 229.22 20.26
  Q 230.00 20.26 230.00 21.04
  L 230.00 112.38
  Q 230.00 113.00 229.38 113.00
  L 200.75 113.00
  Q 200.25 113.00 200.25 112.50
  L 200.25 81.00
  Q 200.25 80.50 199.75 80.50
  L 151.25 80.50
  Q 150.75 80.50 150.75 81.00
  Z"
/>
<path d="
  M 590.23 54.00
  C 591.75 37.98 594.43 25.23 612.80 22.84
  Q 644.02 18.77 675.24 22.61
  C 689.72 24.40 695.97 30.29 698.66 44.40
  Q 703.63 70.55 697.53 95.00
  C 694.16 108.48 684.11 111.17 670.77 112.35
  Q 644.92 114.65 616.51 112.19
  C 604.49 111.15 595.14 107.64 592.32 94.58
  Q 588.19 75.45 590.23 54.00
  Z
  M 625.69 89.07
  L 664.07 89.07
  A 9.75 9.75 0.0 0 0 673.82 79.32
  L 673.82 54.93
  A 11.31 11.22 0.0 0 0 662.51 43.71
  L 627.25 43.71
  A 11.31 11.22 0.0 0 0 615.94 54.93
  L 615.94 79.32
  A 9.75 9.75 0.0 0 0 625.69 89.07
  Z"
/>
<path d="
  M 255.51 111.76
  C 246.01 110.57 238.55 105.11 236.36 95.53
  Q 229.64 66.10 236.47 38.99
  C 239.64 26.37 249.23 23.57 261.78 22.27
  Q 291.65 19.18 321.52 22.95
  Q 337.66 24.98 340.80 41.01
  Q 345.29 63.94 341.95 86.88
  C 339.18 105.90 332.04 111.85 313.06 112.78
  C 303.07 113.27 293.18 114.11 283.32 113.68
  Q 263.94 112.82 255.51 111.76
  Z
  M 268.82 45.22
  C 265.04 45.32 260.52 47.58 260.15 51.85
  Q 258.95 65.94 259.93 80.04
  C 260.36 86.19 263.73 88.42 269.81 88.66
  Q 288.40 89.40 307.00 88.69
  C 311.96 88.50 316.44 86.61 316.94 81.43
  Q 317.92 71.28 317.00 54.30
  C 316.50 45.18 310.86 45.11 303.50 45.06
  Q 280.60 44.93 268.82 45.22
  Z"
/>
<path d="
  M 455.71 55.59
  L 454.11 55.21
  Q 453.30 55.02 453.73 55.73
  L 453.88 55.99
  Q 453.95 56.11 453.89 56.23
  L 426.60 111.51
  Q 426.36 112.00 425.81 112.00
  L 403.05 112.00
  Q 402.53 112.00 402.29 111.53
  L 373.98 56.11
  Q 373.76 55.69 373.28 55.71
  L 372.23 55.76
  Q 371.75 55.79 371.75 56.27
  L 371.75 111.12
  Q 371.75 111.75 371.12 111.75
  L 347.00 111.75
  Q 346.50 111.75 346.50 111.25
  L 346.50 21.75
  Q 346.50 21.25 347.00 21.25
  L 385.90 21.25
  Q 386.45 21.25 386.70 21.73
  L 413.81 73.61
  A 0.72 0.72 0.0 0 0 415.09 73.60
  L 441.23 21.47
  Q 441.46 21.00 441.99 21.00
  L 480.50 21.00
  A 0.50 0.50 0.0 0 1 481.00 21.50
  L 481.00 111.25
  Q 481.00 111.75 480.50 111.75
  L 456.87 111.75
  Q 456.25 111.75 456.25 111.12
  L 456.25 56.28
  Q 456.25 55.72 455.71 55.59
  Z"
/>
<path d="
  M 488.69 36.44
  C 490.62 27.75 497.08 24.60 505.82 23.31
  Q 535.97 18.87 566.34 22.59
  C 582.16 24.53 583.33 36.49 583.20 49.59
  Q 583.20 50.23 582.56 50.20
  L 560.03 48.96
  Q 559.41 48.93 559.31 48.32
  Q 558.02 40.72 550.68 40.33
  Q 536.97 39.61 517.48 41.58
  C 510.35 42.31 511.91 52.07 516.35 54.28
  Q 518.48 55.34 524.78 55.31
  Q 550.28 55.18 570.92 57.11
  C 589.05 58.80 587.34 79.92 585.72 92.74
  C 584.57 101.80 581.54 109.29 571.31 110.59
  C 559.02 112.16 547.43 112.18 533.64 112.25
  C 523.12 112.31 510.63 112.73 500.17 109.90
  C 487.52 106.48 486.50 93.48 487.22 83.00
  Q 487.25 82.50 487.76 82.50
  L 510.01 82.50
  Q 510.57 82.50 510.72 83.03
  Q 512.97 90.82 521.51 91.17
  Q 539.86 91.94 552.75 91.25
  C 558.05 90.97 564.37 87.60 561.93 81.31
  C 560.15 76.74 554.25 76.58 549.18 76.45
  Q 533.34 76.03 517.50 75.52
  Q 507.70 75.21 499.93 73.58
  C 484.13 70.28 486.12 47.99 488.69 36.44
  Z"
/>
<path d="
  M 730.36 51.37
  A 0.91 0.88 -1.7 0 0 729.50 52.25
  L 729.50 111.22
  Q 729.50 111.75 728.97 111.75
  L 704.91 111.75
  Q 704.25 111.75 704.25 111.09
  L 704.25 22.00
  Q 704.25 21.50 704.75 21.50
  L 746.01 21.50
  Q 746.54 21.50 746.85 21.94
  L 789.34 81.44
  A 1.22 1.22 0.0 0 0 791.55 80.73
  L 791.38 21.55
  Q 791.38 21.23 791.70 21.23
  L 814.76 21.26
  Q 815.25 21.26 815.25 21.76
  L 815.25 111.50
  Q 815.25 112.00 814.75 112.00
  L 773.77 112.00
  A 1.09 1.07 -17.1 0 1 772.88 111.54
  C 769.03 105.98 731.52 51.29 730.36 51.37
  Z"
/>
</g>
<g fill="#ffffff">
<path d="
  M 842.29 59.10
  C 842.15 47.31 838.95 29.80 853.08 24.31
  Q 878.08 14.60 903.27 5.24
  Q 911.77 2.08 920.38 5.25
  Q 944.73 14.19 968.96 23.42
  Q 975.69 25.99 978.18 28.50
  C 984.50 34.87 982.85 47.51 982.78 58.58
  C 982.76 63.09 980.74 65.96 981.96 70.88
  Q 982.75 74.07 982.76 75.80
  C 982.85 86.97 984.51 98.90 977.78 105.51
  Q 975.25 108.01 967.39 111.05
  Q 946.66 119.07 926.02 127.29
  C 916.22 131.20 907.27 131.24 897.69 127.28
  Q 877.38 118.87 856.91 110.83
  Q 849.50 107.91 847.07 105.71
  C 840.05 99.34 841.86 86.10 842.02 74.66
  C 842.05 72.40 842.70 70.34 843.25 68.18
  C 844.12 64.70 842.33 62.45 842.29 59.10
  Z
  M 957.00 75.63
  L 957.00 57.67
  A 0.46 0.46 0.0 0 1 957.61 57.24
  L 967.29 60.61
  Q 967.77 60.78 967.77 60.26
  L 967.74 39.52
  Q 967.74 38.99 967.24 38.80
  Q 941.03 28.87 914.71 19.24
  C 913.24 18.70 911.21 18.30 909.69 18.87
  Q 883.73 28.55 857.78 38.51
  Q 857.25 38.71 857.25 39.28
  L 857.25 60.18
  Q 857.25 60.69 857.73 60.53
  L 867.09 57.33
  Q 867.71 57.12 867.71 57.77
  L 867.76 75.37
  A 0.74 0.74 0.0 0 1 866.79 76.08
  L 857.80 73.13
  A 0.61 0.60 9.1 0 0 857.00 73.70
  L 857.00 94.23
  Q 857.00 94.73 857.46 94.91
  Q 880.52 103.96 903.42 113.44
  C 907.41 115.09 913.24 116.14 916.72 114.77
  Q 941.98 104.84 967.27 94.94
  Q 967.75 94.75 967.75 94.24
  L 967.75 73.60
  A 0.53 0.52 -8.6 0 0 967.07 73.10
  L 957.67 76.12
  Q 957.00 76.33 957.00 75.63
  Z"
/>
<path d="
  M 776.33 37.19
  C 776.13 25.61 773.79 7.36 790.95 6.41
  C 798.96 5.97 814.95 5.09 821.76 8.11
  Q 830.41 11.95 830.44 23.57
  Q 830.56 66.25 830.48 108.95
  C 830.46 118.84 825.15 126.97 814.38 126.99
  Q 794.44 127.02 774.49 126.99
  C 767.59 126.98 763.26 123.95 759.16 118.12
  Q 751.78 107.63 744.59 97.00
  Q 744.35 96.65 744.37 97.07
  C 744.91 109.84 746.16 125.56 729.16 126.61
  Q 724.15 126.92 706.69 126.76
  C 703.69 126.73 701.18 125.96 698.25 125.39
  Q 697.70 125.29 697.25 124.95
  L 694.36 122.74
  Q 693.90 122.39 693.35 122.60
  Q 684.55 126.10 676.49 126.97
  Q 645.66 130.30 612.94 127.05
  C 605.85 126.35 596.44 123.66 589.99 118.73
  Q 589.59 118.42 589.20 118.74
  C 582.07 124.45 571.99 126.03 563.16 126.54
  Q 537.29 128.01 511.40 126.80
  C 504.44 126.47 497.87 124.59 491.13 122.94
  Q 490.64 122.82 490.25 123.12
  C 483.27 128.54 470.39 126.85 458.72 126.76
  C 450.64 126.69 444.05 123.58 441.95 115.20
  Q 441.79 114.55 441.55 115.17
  C 436.87 127.26 428.73 126.93 416.34 127.06
  C 402.89 127.21 391.98 128.55 386.75 113.86
  Q 386.41 112.90 386.22 113.90
  Q 383.97 125.83 372.32 126.60
  Q 367.26 126.94 349.71 126.75
  C 345.67 126.71 340.35 125.68 337.16 123.08
  Q 336.78 122.78 336.32 122.95
  Q 324.75 127.46 312.31 128.00
  C 302.68 128.42 293.07 129.14 283.56 128.75
  C 267.41 128.07 254.77 128.06 241.14 123.16
  Q 240.64 122.98 240.25 123.34
  C 232.78 130.20 219.11 128.14 205.70 128.00
  Q 197.65 127.91 194.15 126.36
  C 183.29 121.55 185.12 107.61 185.29 96.04
  Q 185.30 95.50 184.75 95.50
  L 166.26 95.50
  Q 165.74 95.50 165.74 96.02
  C 165.79 106.50 168.29 121.62 156.37 126.54
  Q 152.84 128.00 144.46 128.00
  C 135.69 128.00 121.33 129.41 114.28 126.42
  C 105.92 122.89 104.76 115.83 104.76 106.87
  Q 104.75 84.54 104.75 62.19
  Q 104.75 61.50 104.06 61.50
  L 99.25 61.50
  Q 98.68 61.50 98.68 62.07
  Q 98.92 100.60 98.69 111.49
  C 98.42 124.88 89.34 127.63 77.65 127.72
  Q 67.23 127.80 56.80 127.76
  C 42.91 127.70 38.35 120.56 38.29 107.10
  Q 38.18 84.84 38.28 62.57
  Q 38.29 62.03 37.74 62.02
  C 30.49 61.95 20.29 62.90 14.51 60.92
  C 5.54 57.83 4.39 50.37 4.26 41.18
  C 4.07 27.96 1.51 11.80 13.36 6.75
  Q 16.83 5.27 24.85 5.27
  Q 86.32 5.24 147.79 5.27
  C 165.82 5.28 166.78 20.42 165.28 33.97
  Q 165.22 34.50 165.75 34.50
  L 184.75 34.50
  Q 185.27 34.50 185.26 33.98
  C 185.20 28.30 184.76 21.16 186.06 16.39
  C 188.75 6.50 196.60 5.35 206.31 5.28
  C 215.38 5.21 225.84 4.24 234.63 6.41
  C 237.58 7.14 239.38 9.04 241.68 10.85
  Q 242.05 11.15 242.51 11.00
  Q 249.79 8.66 254.75 8.00
  Q 286.13 3.79 319.75 7.76
  Q 328.78 8.83 335.36 11.23
  Q 335.84 11.40 336.16 11.01
  C 339.01 7.60 344.89 6.31 349.01 6.28
  Q 371.93 6.13 385.74 6.32
  C 394.17 6.44 397.92 10.59 401.86 18.10
  Q 407.94 29.70 413.95 41.30
  Q 414.22 41.83 414.48 41.30
  Q 421.11 28.05 427.67 14.94
  C 431.46 7.36 437.69 6.12 446.26 6.05
  Q 466.70 5.87 479.76 6.04
  Q 486.56 6.12 491.55 10.90
  Q 491.91 11.24 492.38 11.10
  C 512.87 5.28 537.56 4.81 558.52 6.67
  C 571.67 7.84 580.00 8.60 588.80 16.71
  Q 589.21 17.09 589.64 16.73
  C 598.38 9.37 609.68 7.43 621.67 6.51
  Q 643.43 4.83 668.75 6.75
  Q 682.05 7.76 692.70 11.55
  Q 693.17 11.72 693.53 11.37
  Q 698.37 6.67 703.69 6.61
  Q 724.71 6.35 745.74 6.64
  Q 753.93 6.75 758.87 13.09
  Q 763.56 19.09 776.02 37.28
  Q 776.33 37.73 776.33 37.19
  Z
  M 83.75 46.83
  A 0.33 0.33 0.0 0 1 84.08 46.50
  L 115.67 46.50
  A 0.33 0.33 0.0 0 0 116.00 46.17
  L 116.00 20.58
  A 0.33 0.33 0.0 0 0 115.67 20.25
  L 19.57 20.25
  A 0.33 0.33 0.0 0 0 19.24 20.58
  L 19.25 46.67
  A 0.33 0.33 0.0 0 0 19.58 47.00
  L 53.17 47.00
  A 0.33 0.33 0.0 0 1 53.50 47.33
  L 53.50 112.42
  A 0.33 0.33 0.0 0 0 53.83 112.75
  L 83.42 112.75
  A 0.33 0.33 0.0 0 0 83.75 112.42
  L 83.75 46.83
  Z
  M 151.25 80.50
  L 199.75 80.50
  Q 200.25 80.50 200.25 81.00
  L 200.25 112.50
  Q 200.25 113.00 200.75 113.00
  L 229.38 113.00
  Q 230.00 113.00 230.00 112.38
  L 230.00 21.04
  Q 230.00 20.26 229.22 20.26
  L 200.75 20.23
  Q 200.23 20.23 200.23 20.75
  L 200.26 49.00
  Q 200.26 49.51 199.75 49.51
  L 150.96 49.50
  A 0.61 0.61 0.0 0 1 150.36 48.90
  L 150.25 20.75
  Q 150.25 20.25 149.75 20.25
  L 120.78 20.25
  Q 119.56 20.25 119.68 21.46
  C 120.16 26.66 119.76 32.32 119.75 36.38
  Q 119.71 60.29 120.07 84.18
  Q 120.28 98.30 119.69 112.19
  Q 119.66 113.00 120.47 113.00
  L 150.25 113.00
  Q 150.75 113.00 150.75 112.50
  L 150.75 81.00
  Q 150.75 80.50 151.25 80.50
  Z
  M 612.80 22.84
  C 594.43 25.23 591.75 37.98 590.23 54.00
  Q 588.19 75.45 592.32 94.58
  C 595.14 107.64 604.49 111.15 616.51 112.19
  Q 644.92 114.65 670.77 112.35
  C 684.11 111.17 694.16 108.48 697.53 95.00
  Q 703.63 70.55 698.66 44.40
  C 695.97 30.29 689.72 24.40 675.24 22.61
  Q 644.02 18.77 612.80 22.84
  Z
  M 236.36 95.53
  C 238.55 105.11 246.01 110.57 255.51 111.76
  Q 263.94 112.82 283.32 113.68
  C 293.18 114.11 303.07 113.27 313.06 112.78
  C 332.04 111.85 339.18 105.90 341.95 86.88
  Q 345.29 63.94 340.80 41.01
  Q 337.66 24.98 321.52 22.95
  Q 291.65 19.18 261.78 22.27
  C 249.23 23.57 239.64 26.37 236.47 38.99
  Q 229.64 66.10 236.36 95.53
  Z
  M 456.25 56.28
  L 456.25 111.12
  Q 456.25 111.75 456.87 111.75
  L 480.50 111.75
  Q 481.00 111.75 481.00 111.25
  L 481.00 21.50
  A 0.50 0.50 0.0 0 0 480.50 21.00
  L 441.99 21.00
  Q 441.46 21.00 441.23 21.47
  L 415.09 73.60
  A 0.72 0.72 0.0 0 1 413.81 73.61
  L 386.70 21.73
  Q 386.45 21.25 385.90 21.25
  L 347.00 21.25
  Q 346.50 21.25 346.50 21.75
  L 346.50 111.25
  Q 346.50 111.75 347.00 111.75
  L 371.12 111.75
  Q 371.75 111.75 371.75 111.12
  L 371.75 56.27
  Q 371.75 55.79 372.23 55.76
  L 373.28 55.71
  Q 373.76 55.69 373.98 56.11
  L 402.29 111.53
  Q 402.53 112.00 403.05 112.00
  L 425.81 112.00
  Q 426.36 112.00 426.60 111.51
  L 453.89 56.23
  Q 453.95 56.11 453.88 55.99
  L 453.73 55.73
  Q 453.30 55.02 454.11 55.21
  L 455.71 55.59
  Q 456.25 55.72 456.25 56.28
  Z
  M 488.69 36.44
  C 486.12 47.99 484.13 70.28 499.93 73.58
  Q 507.70 75.21 517.50 75.52
  Q 533.34 76.03 549.18 76.45
  C 554.25 76.58 560.15 76.74 561.93 81.31
  C 564.37 87.60 558.05 90.97 552.75 91.25
  Q 539.86 91.94 521.51 91.17
  Q 512.97 90.82 510.72 83.03
  Q 510.57 82.50 510.01 82.50
  L 487.76 82.50
  Q 487.25 82.50 487.22 83.00
  C 486.50 93.48 487.52 106.48 500.17 109.90
  C 510.63 112.73 523.12 112.31 533.64 112.25
  C 547.43 112.18 559.02 112.16 571.31 110.59
  C 581.54 109.29 584.57 101.80 585.72 92.74
  C 587.34 79.92 589.05 58.80 570.92 57.11
  Q 550.28 55.18 524.78 55.31
  Q 518.48 55.34 516.35 54.28
  C 511.91 52.07 510.35 42.31 517.48 41.58
  Q 536.97 39.61 550.68 40.33
  Q 558.02 40.72 559.31 48.32
  Q 559.41 48.93 560.03 48.96
  L 582.56 50.20
  Q 583.20 50.23 583.20 49.59
  C 583.33 36.49 582.16 24.53 566.34 22.59
  Q 535.97 18.87 505.82 23.31
  C 497.08 24.60 490.62 27.75 488.69 36.44
  Z
  M 730.36 51.37
  C 731.52 51.29 769.03 105.98 772.88 111.54
  A 1.09 1.07 -17.1 0 0 773.77 112.00
  L 814.75 112.00
  Q 815.25 112.00 815.25 111.50
  L 815.25 21.76
  Q 815.25 21.26 814.76 21.26
  L 791.70 21.23
  Q 791.38 21.23 791.38 21.55
  L 791.55 80.73
  A 1.22 1.22 0.0 0 1 789.34 81.44
  L 746.85 21.94
  Q 746.54 21.50 746.01 21.50
  L 704.75 21.50
  Q 704.25 21.50 704.25 22.00
  L 704.25 111.09
  Q 704.25 111.75 704.91 111.75
  L 728.97 111.75
  Q 729.50 111.75 729.50 111.22
  L 729.50 52.25
  A 0.91 0.88 -1.7 0 1 730.36 51.37
  Z"
/>
<path d="
  M 964.75 41.73
  L 964.75 55.93
  A 0.34 0.34 0.0 0 1 964.29 56.24
  L 918.75 38.80
  A 0.34 0.34 0.0 0 1 918.53 38.49
  L 918.44 24.34
  A 0.34 0.34 0.0 0 1 918.90 24.02
  L 964.53 41.42
  A 0.34 0.34 0.0 0 1 964.75 41.73
  Z"
/>
<path d="
  M 931.63 86.66
  L 911.88 94.29
  A 0.59 0.59 0.0 0 1 911.44 94.29
  L 892.94 86.66
  A 0.59 0.59 0.0 0 1 892.58 86.12
  L 892.57 48.44
  A 0.59 0.59 0.0 0 1 892.93 47.90
  L 911.43 40.03
  A 0.59 0.59 0.0 0 1 911.88 40.03
  L 931.32 47.77
  A 0.59 0.59 0.0 0 1 931.69 48.32
  L 932.01 86.10
  A 0.59 0.59 0.0 0 1 931.63 86.66
  Z
  M 908.11 76.55
  C 910.61 78.74 913.34 77.93 916.31 76.47
  Q 916.75 76.25 916.75 75.75
  L 916.75 59.02
  Q 916.75 58.53 916.36 58.23
  Q 912.34 55.06 908.24 57.80
  Q 907.75 58.13 907.75 58.72
  L 907.75 75.75
  Q 907.75 76.23 908.11 76.55
  Z"
/>
<path d="
  M 625.69 89.07
  A 9.75 9.75 0.0 0 1 615.94 79.32
  L 615.94 54.93
  A 11.31 11.22 -0.0 0 1 627.25 43.71
  L 662.51 43.71
  A 11.31 11.22 0.0 0 1 673.82 54.93
  L 673.82 79.32
  A 9.75 9.75 0.0 0 1 664.07 89.07
  L 625.69 89.07
  Z
  M 658.8196 59.6520
  A 0.78 0.78 0.0 0 0 658.0464 58.8652
  L 631.7074 58.6354
  A 0.78 0.78 0.0 0 0 630.9207 59.4085
  L 630.8004 73.1880
  A 0.78 0.78 0.0 0 0 631.5736 73.9748
  L 657.9126 74.2046
  A 0.78 0.78 0.0 0 0 658.6993 73.4315
  L 658.8196 59.6520
  Z"
/>
<path d="
  M 260.15 51.85
  C 260.52 47.58 265.04 45.32 268.82 45.22
  Q 280.60 44.93 303.50 45.06
  C 310.86 45.11 316.50 45.18 317.00 54.30
  Q 317.92 71.28 316.94 81.43
  C 316.44 86.61 311.96 88.50 307.00 88.69
  Q 288.40 89.40 269.81 88.66
  C 263.73 88.42 260.36 86.19 259.93 80.04
  Q 258.95 65.94 260.15 51.85
  Z
  M 302.2164 60.5380
  A 0.44 0.44 0.0 0 0 301.7741 60.1004
  L 275.1345 60.2398
  A 0.44 0.44 0.0 0 0 274.6968 60.6821
  L 274.7636 73.4420
  A 0.44 0.44 0.0 0 0 275.2059 73.8796
  L 301.8455 73.7402
  A 0.44 0.44 0.0 0 0 302.2832 73.2979
  L 302.2164 60.5380
  Z"
/>
<path d="
  M 907.00 95.95
  L 907.00 110.19
  A 0.33 0.33 0.0 0 1 906.55 110.50
  L 860.96 93.09
  A 0.33 0.33 0.0 0 1 860.75 92.78
  L 860.75 78.73
  A 0.33 0.33 0.0 0 1 861.20 78.42
  L 906.79 95.64
  A 0.33 0.33 0.0 0 1 907.00 95.95
  Z"
/>
</g>
</svg>
