<?xml version="1.0" encoding="UTF-8" standalone="no"?>
<svg xmlns="http://www.w3.org/2000/svg" version="1.2" baseProfile="tiny" viewBox="0 0 494 280">
<path fill="none" stroke-width="1.00" stroke="#f4f4f4" vector-effect="non-scaling-stroke" d="
  M 128.29 14.00
  Q 128.19 14.33 128.23 14.59
  A 0.97 0.61 8.2 0 0 128.91 15.17
  L 188.91 31.81
  L 193.25 35.79
  C 194.01 36.51 195.98 39.38 197.04 38.75
  L 197.50 38.79
  L 198.50 39.54
  Q 198.98 41.49 201.00 42.04
  L 201.25 43.71
  Q 200.41 43.82 199.06 43.44
  Q 189.91 40.85 167.98 35.05
  L 86.13 12.51
  Q 99.28 6.11 113.10 0.66
  A 2.10 2.05 56.2 0 1 115.33 1.13
  L 128.29 14.00
  Z"
/>
<path fill="none" stroke-width="1.00" stroke="#f4f4f4" vector-effect="non-scaling-stroke" d="
  M 86.13 12.51
  L 167.98 35.05
  Q 172.96 37.24 169.47 38.09
  A 1.80 1.41 42.2 0 1 168.52 38.02
  Q 164.77 36.66 160.81 36.07
  C 160.05 35.95 159.66 35.23 158.84 35.08
  C 155.04 34.37 151.01 32.90 147.22 32.55
  C 145.19 32.37 142.84 30.95 141.60 30.60
  Q 130.88 27.57 120.14 24.81
  C 116.63 23.91 114.21 25.35 113.00 28.54
  Q 111.55 24.98 107.96 25.04
  L 104.25 24.04
  Q 101.42 24.65 100.03 27.13
  C 99.80 27.54 99.14 31.87 101.00 28.46
  Q 102.31 28.40 103.00 29.46
  Q 100.57 30.77 100.95 33.80
  L 72.03 25.80
  Q 70.06 25.26 70.62 23.36
  L 73.93 11.95
  A 0.55 0.52 -72.5 0 0 73.61 11.28
  Q 72.23 10.81 70.79 11.25
  L 70.96 10.25
  L 71.25 9.99
  A 0.89 0.61 23.9 0 1 71.94 9.86
  L 86.13 12.51
  Z"
/>
<path fill="none" stroke-width="1.00" stroke="#f4f4f4" vector-effect="non-scaling-stroke" d="
  M 70.96 10.25
  L 70.79 11.25
  L 66.96 23.75
  C 66.11 26.30 64.17 25.70 62.57 26.40
  Q 57.28 28.71 51.70 30.60
  A 0.39 0.39 -26.0 0 0 51.50 31.18
  C 52.60 32.85 53.96 34.04 54.57 36.01
  Q 58.53 48.84 63.07 61.71
  L 53.40 65.46
  L 43.02 35.97
  A 1.11 1.04 -40.5 0 1 43.12 35.07
  L 51.74 20.49
  Q 52.10 19.89 52.63 19.45
  Q 61.19 12.46 70.96 10.25
  Z"
/>
<path fill="none" stroke-width="1.00" stroke="#f4f4f4" vector-effect="non-scaling-stroke" d="
  M 100.95 33.80
  Q 102.45 35.74 104.21 35.87
  Q 108.18 38.89 110.74 36.30
  C 114.26 32.74 111.32 27.53 107.96 25.04
  Q 111.55 24.98 113.00 28.54
  Q 114.94 31.94 113.33 34.63
  Q 112.08 36.72 114.41 37.36
  L 158.03 49.30
  L 155.64 56.04
  Q 154.97 53.91 153.42 54.73
  A 1.34 1.15 87.6 0 0 152.84 55.47
  Q 151.95 58.36 154.75 57.96
  L 156.42 57.82
  A 1.31 0.61 48.9 0 1 157.24 58.18
  L 159.29 59.84
  A 1.44 0.67 -12.9 0 0 160.23 60.04
  Q 165.21 59.75 164.88 65.07
  Q 163.74 64.58 162.46 65.75
  L 161.54 65.75
  Q 156.79 62.90 156.52 68.00
  A 1.15 0.93 -71.3 0 0 156.84 68.86
  Q 157.69 69.62 158.96 69.50
  Q 159.03 69.97 159.48 70.09
  Q 159.87 70.19 159.58 70.43
  C 157.28 72.28 160.79 75.55 161.59 77.32
  A 0.49 0.48 -21.2 0 1 161.30 77.97
  Q 159.86 78.46 158.67 77.78
  A 1.72 0.82 42.3 0 0 157.75 77.50
  Q 156.94 77.57 156.25 78.04
  L 152.54 77.25
  L 140.29 74.00
  L 137.50 73.21
  L 126.04 70.25
  L 93.04 61.75
  Q 91.34 60.19 89.00 59.96
  L 78.50 56.96
  L 77.25 56.04
  C 79.77 56.55 70.99 28.99 70.32 26.19
  C 69.90 24.44 68.40 23.12 67.04 25.25
  L 66.96 23.75
  L 70.79 11.25
  Q 72.23 10.81 73.61 11.28
  A 0.55 0.52 -72.5 0 1 73.93 11.95
  L 70.62 23.36
  Q 70.06 25.26 72.03 25.80
  L 100.95 33.80
  Z
  M 81.7030 43.3024
  A 2.29 2.05 82.9 0 0 83.4543 40.7766
  A 2.29 2.05 82.9 0 0 81.1370 38.7576
  A 2.29 2.05 82.9 0 0 79.3857 41.2834
  A 2.29 2.05 82.9 0 0 81.7030 43.3024
  Z
  M 90.25 44.71
  L 91.25 44.79
  Q 92.42 46.41 94.50 46.21
  L 98.47 47.52
  A 1.11 1.10 13.3 0 0 99.91 46.64
  Q 100.53 42.62 96.25 43.54
  L 95.50 43.29
  Q 93.98 42.06 92.00 42.54
  Q 89.64 40.79 86.75 40.79
  Q 86.02 40.25 85.22 40.38
  A 0.59 0.45 83.3 0 0 84.85 41.01
  L 85.08 43.13
  A 1.02 0.72 -84.7 0 0 85.51 43.87
  Q 87.78 45.02 90.25 44.71
  Z
  M 106.28 45.26
  L 106.50 45.24
  A 0.77 0.52 70.6 0 1 107.12 45.70
  C 107.57 46.66 108.65 50.51 109.84 50.25
  A 0.84 0.78 -2.0 0 0 110.48 49.61
  L 111.47 43.82
  A 0.86 0.81 22.5 0 0 111.10 42.99
  Q 110.58 42.64 110.16 42.95
  A 1.27 0.65 86.3 0 0 109.79 43.81
  L 109.54 46.34
  Q 109.31 48.68 108.52 46.50
  L 107.14 42.72
  A 1.44 0.51 76.8 0 0 106.63 41.92
  Q 106.06 41.58 105.36 41.79
  A 0.90 0.67 -89.3 0 0 104.85 42.46
  L 103.85 48.01
  A 1.07 0.73 -69.4 0 0 104.06 48.88
  Q 104.75 49.53 105.57 48.99
  A 1.06 0.81 79.1 0 0 105.97 48.19
  L 106.05 45.54
  A 0.30 0.25 89.1 0 1 106.28 45.26
  Z
  M 114.09 43.75
  Q 113.25 43.51 113.10 44.19
  A 0.98 0.76 30.8 0 0 113.43 45.04
  Q 114.90 46.35 114.65 44.43
  A 0.83 0.77 -86.5 0 0 114.09 43.75
  Z
  M 114.4326 47.0919
  A 0.79 0.79 0.0 0 0 113.8307 46.1507
  L 113.7330 46.1292
  A 0.79 0.79 0.0 0 0 112.7918 46.7311
  L 112.0274 50.2081
  A 0.79 0.79 0.0 0 0 112.6293 51.1493
  L 112.7270 51.1708
  A 0.79 0.79 0.0 0 0 113.6682 50.5689
  L 114.4326 47.0919
  Z
  M 118.06 48.40
  C 121.46 49.17 117.32 53.33 119.99 52.98
  A 0.80 0.74 -85.1 0 0 120.63 52.40
  Q 122.11 47.00 116.38 47.21
  A 0.60 0.57 -86.5 0 0 115.82 47.73
  L 115.34 51.20
  A 0.87 0.67 -73.8 0 0 115.65 51.99
  C 117.26 52.96 117.26 49.54 117.44 48.79
  A 0.52 0.51 -76.6 0 1 118.06 48.40
  Z
  M 124.83 48.03
  Q 121.85 47.01 122.79 49.30
  A 1.77 1.35 46.7 0 1 122.89 50.25
  C 122.69 51.16 121.82 55.49 123.77 53.62
  A 1.21 0.94 72.1 0 0 124.08 52.76
  Q 124.01 50.51 125.15 49.28
  A 0.77 0.77 30.7 0 0 124.83 48.03
  Z
  M 129.50 50.46
  L 128.75 50.21
  Q 125.47 49.79 125.69 53.06
  A 1.29 1.20 21.1 0 0 126.10 53.90
  Q 130.02 57.50 130.93 51.98
  Q 131.14 50.72 129.50 50.46
  Z
  M 134.81 52.72
  Q 135.26 52.70 135.62 52.96
  A 1.05 0.81 -74.7 0 1 135.97 53.81
  L 135.80 56.67
  A 0.79 0.61 -80.4 0 0 136.19 57.41
  C 138.07 58.13 137.52 54.18 137.43 53.36
  A 0.87 0.70 -86.7 0 0 136.92 52.65
  L 133.36 51.48
  A 0.50 0.47 -75.3 0 0 132.74 51.86
  L 132.04 55.24
  A 1.18 1.08 -59.7 0 0 132.24 56.17
  Q 132.68 56.73 133.18 56.38
  A 1.32 0.42 -82.2 0 0 133.59 55.52
  L 134.13 53.28
  A 0.73 0.73 -84.2 0 1 134.81 52.72
  Z
  M 142.46 54.50
  L 141.25 54.46
  L 141.66 54.25
  Q 142.14 54.01 141.62 53.77
  C 139.29 52.69 138.28 56.21 139.48 57.84
  A 1.73 1.15 -1.5 0 0 140.29 58.35
  L 142.89 59.09
  A 0.98 0.86 -77.7 0 0 144.00 58.27
  L 144.85 53.22
  A 1.28 0.33 -76.3 0 0 144.84 52.29
  Q 144.38 51.43 143.47 51.81
  A 0.89 0.68 83.4 0 0 143.03 52.54
  Q 142.99 53.60 142.46 54.50
  Z
  M 150.5817 57.5469
  A 1.86 1.86 0.0 0 0 148.9514 55.4826
  L 147.6603 55.3309
  A 1.86 1.86 0.0 0 0 145.5960 56.9612
  L 145.4583 58.1331
  A 1.86 1.86 0.0 0 0 147.0886 60.1974
  L 148.3797 60.3491
  A 1.86 1.86 0.0 0 0 150.4440 58.7188
  L 150.5817 57.5469
  Z
  M 135.21 67.56
  Q 137.81 68.95 137.37 67.23
  A 1.24 0.95 59.6 0 1 137.48 66.34
  L 139.69 63.06
  A 0.37 0.37 -66.3 0 0 139.47 62.49
  Q 136.50 61.80 137.08 63.07
  A 0.97 0.82 51.7 0 1 137.05 63.92
  L 135.06 67.04
  A 0.38 0.36 30.1 0 0 135.21 67.56
  Z
  M 139.75 68.01
  Q 144.72 69.39 144.36 64.67
  A 0.75 0.73 -84.5 0 0 143.83 64.01
  Q 139.98 62.90 139.33 67.36
  A 0.59 0.59 -78.2 0 0 139.75 68.01
  Z
  M 146.25 68.46
  L 147.50 68.46
  Q 150.08 68.15 150.16 65.33
  A 0.86 0.84 16.8 0 0 149.74 64.57
  Q 147.73 63.41 145.87 64.65
  A 1.00 0.82 76.5 0 0 145.49 65.44
  Q 145.49 67.02 144.52 68.15
  A 0.70 0.60 -43.2 0 0 144.43 68.94
  Q 145.29 70.18 146.25 68.46
  Z
  M 151.79 69.00
  L 153.00 68.96
  Q 155.81 68.89 155.87 65.93
  A 0.88 0.85 -73.9 0 0 155.46 65.15
  Q 153.96 64.22 152.13 64.80
  A 1.23 0.95 -82.4 0 0 151.48 65.44
  L 150.20 68.34
  A 1.30 0.80 -54.8 0 0 150.14 69.28
  Q 150.65 70.35 151.79 69.00
  Z"
/>
<path fill="none" stroke-width="1.00" stroke="#f4f4f4" vector-effect="non-scaling-stroke" d="
  M 128.29 14.00
  L 189.12 30.99
  L 188.91 31.81
  L 128.91 15.17
  A 0.97 0.61 8.2 0 1 128.23 14.59
  Q 128.19 14.33 128.29 14.00
  Z"
/>
<path fill="none" stroke-width="1.00" stroke="#f4f4f4" vector-effect="non-scaling-stroke" d="
  M 66.96 23.75
  L 67.04 25.25
  C 66.49 25.76 66.95 26.01 67.09 26.50
  Q 73.09 48.20 75.15 54.82
  Q 75.55 56.14 77.25 56.04
  L 78.50 56.96
  C 73.52 57.03 69.02 59.17 63.07 61.71
  Q 58.53 48.84 54.57 36.01
  C 53.96 34.04 52.60 32.85 51.50 31.18
  A 0.39 0.39 -26.0 0 1 51.70 30.60
  Q 57.28 28.71 62.57 26.40
  C 64.17 25.70 66.11 26.30 66.96 23.75
  Z"
/>
<path fill="none" stroke-width="1.00" stroke="#f4f4f4" vector-effect="non-scaling-stroke" d="
  M 104.25 24.04
  L 102.43 25.99
  A 1.26 1.21 -23.5 0 0 102.09 26.81
  Q 102.05 27.94 101.00 28.46
  C 99.14 31.87 99.80 27.54 100.03 27.13
  Q 101.42 24.65 104.25 24.04
  Z"
/>
<path fill="none" stroke-width="1.00" stroke="#f4f4f4" vector-effect="non-scaling-stroke" d="
  M 104.25 24.04
  L 107.96 25.04
  C 111.32 27.53 114.26 32.74 110.74 36.30
  Q 108.18 38.89 104.21 35.87
  Q 105.75 31.74 103.00 29.46
  Q 102.31 28.40 101.00 28.46
  Q 102.05 27.94 102.09 26.81
  A 1.26 1.21 -23.5 0 1 102.43 25.99
  L 104.25 24.04
  Z"
/>
<path fill="none" stroke-width="1.00" stroke="#f4f4f4" vector-effect="non-scaling-stroke" d="
  M 77.25 56.04
  Q 75.55 56.14 75.15 54.82
  Q 73.09 48.20 67.09 26.50
  C 66.95 26.01 66.49 25.76 67.04 25.25
  C 68.40 23.12 69.90 24.44 70.32 26.19
  C 70.99 28.99 79.77 56.55 77.25 56.04
  Z"
/>
<path fill="none" stroke-width="1.00" stroke="#f4f4f4" vector-effect="non-scaling-stroke" d="
  M 167.98 35.05
  Q 189.91 40.85 199.06 43.44
  Q 200.41 43.82 201.25 43.71
  L 203.64 44.83
  L 207.00 46.04
  C 210.81 51.52 213.55 58.12 216.25 64.21
  L 215.24 64.26
  A 0.74 0.68 77.6 0 1 214.56 63.79
  C 213.29 60.53 211.43 58.95 208.87 56.77
  Q 207.01 55.18 206.21 57.75
  Q 202.37 57.47 201.25 61.04
  Q 194.61 59.61 188.13 57.65
  C 177.70 54.50 167.99 52.34 158.03 49.30
  L 114.41 37.36
  Q 112.08 36.72 113.33 34.63
  Q 114.94 31.94 113.00 28.54
  C 114.21 25.35 116.63 23.91 120.14 24.81
  Q 130.88 27.57 141.60 30.60
  C 142.84 30.95 145.19 32.37 147.22 32.55
  C 151.01 32.90 155.04 34.37 158.84 35.08
  C 159.66 35.23 160.05 35.95 160.81 36.07
  Q 164.77 36.66 168.52 38.02
  A 1.80 1.41 42.2 0 0 169.47 38.09
  Q 172.96 37.24 167.98 35.05
  Z"
/>
<path fill="none" stroke-width="1.00" stroke="#f4f4f4" vector-effect="non-scaling-stroke" d="
  M 103.00 29.46
  Q 105.75 31.74 104.21 35.87
  Q 102.45 35.74 100.95 33.80
  Q 100.57 30.77 103.00 29.46
  Z"
/>
<path fill="none" stroke-width="1.00" stroke="#f4f4f4" vector-effect="non-scaling-stroke" d="
  M 189.12 30.99
  Q 191.97 32.83 193.79 35.50
  L 193.25 35.79
  L 188.91 31.81
  L 189.12 30.99
  Z"
/>
<path fill="none" stroke-width="1.00" stroke="#f4f4f4" vector-effect="non-scaling-stroke" d="
  M 193.79 35.50
  L 197.04 38.75
  C 195.98 39.38 194.01 36.51 193.25 35.79
  L 193.79 35.50
  Z"
/>
<path fill="none" stroke-width="1.00" stroke="#f4f4f4" vector-effect="non-scaling-stroke" d="
  M 211.05 38.68
  Q 217.61 53.80 225.30 68.47
  C 222.43 68.12 222.24 66.33 221.20 64.12
  Q 215.45 51.94 209.65 39.75
  A 0.40 0.34 52.5 0 0 209.03 39.61
  C 208.74 40.00 219.54 62.98 220.73 65.24
  C 223.19 69.90 219.13 66.11 218.84 65.52
  C 215.20 58.01 211.86 49.01 207.29 45.50
  L 203.00 37.54
  Q 204.76 37.47 206.25 36.48
  Q 208.06 35.28 209.28 37.96
  Q 209.66 38.79 211.05 38.68
  Z"
/>
<path fill="none" stroke-width="1.00" stroke="#f4f4f4" vector-effect="non-scaling-stroke" d="
  M 203.00 37.54
  L 207.29 45.50
  L 207.00 46.04
  L 203.64 44.83
  Q 203.44 42.79 201.46 42.00
  Q 200.63 39.95 198.50 39.54
  L 197.50 38.79
  L 203.00 37.54
  Z"
/>
<path fill="none" stroke-width="1.00" stroke="#f4f4f4" vector-effect="non-scaling-stroke" d="
  M 220.50 42.04
  Q 220.32 42.80 220.83 43.06
  A 1.38 0.44 21.3 0 1 221.54 43.63
  L 234.01 70.31
  Q 229.51 69.97 225.30 68.47
  Q 217.61 53.80 211.05 38.68
  Q 213.72 36.81 215.03 39.47
  A 0.77 0.77 75.8 0 0 215.73 39.89
  L 218.61 39.82
  A 0.66 0.59 81.5 0 1 219.21 40.32
  Q 219.52 41.52 220.50 42.04
  Z"
/>
<path fill="none" stroke-width="1.00" stroke="#f4f4f4" vector-effect="non-scaling-stroke" d="
  M 81.7030 43.3024
  A 2.29 2.05 82.9 0 1 79.3857 41.2834
  A 2.29 2.05 82.9 0 1 81.1370 38.7576
  A 2.29 2.05 82.9 0 1 83.4543 40.7766
  A 2.29 2.05 82.9 0 1 81.7030 43.3024
  Z
  M 80.79 41.17
  Q 80.77 41.48 81.00 41.69
  A 0.58 0.47 -48.8 0 0 81.77 41.56
  Q 82.72 40.41 81.42 40.59
  A 0.74 0.62 -2.6 0 0 80.79 41.17
  Z"
/>
<path fill="none" stroke-width="1.00" stroke="#f4f4f4" vector-effect="non-scaling-stroke" d="
  M 225.30 68.47
  Q 229.51 69.97 234.01 70.31
  Q 234.77 71.44 236.44 71.39
  L 241.69 72.52
  A 1.74 1.21 -7.6 0 1 242.51 72.94
  Q 243.68 74.13 245.21 73.25
  Q 246.07 74.44 247.50 74.46
  C 249.20 74.95 252.71 75.23 254.00 76.12
  C 258.19 78.97 252.57 73.19 255.00 72.96
  C 255.87 74.61 256.70 77.98 259.15 77.65
  L 266.23 79.84
  A 1.08 0.95 1.2 0 1 266.92 80.47
  Q 267.02 80.75 266.98 81.00
  A 0.58 0.46 13.2 0 1 266.29 81.33
  Q 244.29 75.44 222.31 69.46
  C 219.05 68.58 217.60 67.10 216.25 64.21
  C 213.55 58.12 210.81 51.52 207.00 46.04
  L 207.29 45.50
  C 211.86 49.01 215.20 58.01 218.84 65.52
  C 219.13 66.11 223.19 69.90 220.73 65.24
  C 219.54 62.98 208.74 40.00 209.03 39.61
  A 0.40 0.34 52.5 0 1 209.65 39.75
  Q 215.45 51.94 221.20 64.12
  C 222.24 66.33 222.43 68.12 225.30 68.47
  Z"
/>
<path fill="none" stroke-width="1.00" stroke="#f4f4f4" vector-effect="non-scaling-stroke" d="
  M 198.50 39.54
  Q 200.63 39.95 201.46 42.00
  L 201.00 42.04
  Q 198.98 41.49 198.50 39.54
  Z"
/>
<path fill="none" stroke-width="1.00" stroke="#f4f4f4" vector-effect="non-scaling-stroke" d="
  M 81.42 40.59
  Q 82.72 40.41 81.77 41.56
  A 0.58 0.47 -48.8 0 1 81.00 41.69
  Q 80.77 41.48 80.79 41.17
  A 0.74 0.62 -2.6 0 1 81.42 40.59
  Z"
/>
<path fill="none" stroke-width="1.00" stroke="#f4f4f4" vector-effect="non-scaling-stroke" d="
  M 86.75 40.79
  L 86.29 42.00
  Q 85.38 44.45 87.79 43.25
  Q 89.92 42.96 90.25 44.71
  Q 87.78 45.02 85.51 43.87
  A 1.02 0.72 -84.7 0 1 85.08 43.13
  L 84.85 41.01
  A 0.59 0.45 83.3 0 1 85.22 40.38
  Q 86.02 40.25 86.75 40.79
  Z"
/>
<path fill="none" stroke-width="1.00" stroke="#f4f4f4" vector-effect="non-scaling-stroke" d="
  M 86.75 40.79
  Q 89.64 40.79 92.00 42.54
  L 91.25 44.79
  L 90.25 44.71
  Q 89.92 42.96 87.79 43.25
  Q 87.49 42.04 86.29 42.00
  L 86.75 40.79
  Z"
/>
<path fill="none" stroke-width="1.00" stroke="#f4f4f4" vector-effect="non-scaling-stroke" d="
  M 232.75 45.29
  Q 232.13 46.51 233.16 47.39
  Q 233.60 47.77 233.76 48.14
  L 245.21 73.25
  Q 243.68 74.13 242.51 72.94
  A 1.74 1.21 -7.6 0 0 241.69 72.52
  L 236.44 71.39
  L 223.21 43.70
  A 1.12 0.70 -52.8 0 1 223.29 42.84
  Q 223.58 42.24 223.21 41.50
  Q 225.70 39.85 226.60 42.94
  A 0.37 0.36 66.7 0 0 227.14 43.16
  Q 230.91 40.79 231.57 44.68
  A 0.86 0.63 89.0 0 0 232.09 45.36
  Q 232.48 45.46 232.75 45.29
  Z"
/>
<path fill="none" stroke-width="1.00" stroke="#f4f4f4" vector-effect="non-scaling-stroke" d="
  M 223.21 41.50
  Q 223.58 42.24 223.29 42.84
  A 1.12 0.70 -52.8 0 0 223.21 43.70
  L 236.44 71.39
  Q 234.77 71.44 234.01 70.31
  L 221.54 43.63
  A 1.38 0.44 21.3 0 0 220.83 43.06
  Q 220.32 42.80 220.50 42.04
  L 223.21 41.50
  Z"
/>
<path fill="none" stroke-width="1.00" stroke="#f4f4f4" vector-effect="non-scaling-stroke" d="
  M 106.05 45.54
  L 105.97 48.19
  A 1.06 0.81 79.1 0 1 105.57 48.99
  Q 104.75 49.53 104.06 48.88
  A 1.07 0.73 -69.4 0 1 103.85 48.01
  L 104.85 42.46
  A 0.90 0.67 -89.3 0 1 105.36 41.79
  Q 106.06 41.58 106.63 41.92
  A 1.44 0.51 76.8 0 1 107.14 42.72
  L 108.52 46.50
  Q 109.31 48.68 109.54 46.34
  L 109.79 43.81
  A 1.27 0.65 86.3 0 1 110.16 42.95
  Q 110.58 42.64 111.10 42.99
  A 0.86 0.81 22.5 0 1 111.47 43.82
  L 110.48 49.61
  A 0.84 0.78 -2.0 0 1 109.84 50.25
  C 108.65 50.51 107.57 46.66 107.12 45.70
  A 0.77 0.52 70.6 0 0 106.50 45.24
  L 106.28 45.26
  A 0.30 0.25 89.1 0 0 106.05 45.54
  Z"
/>
<path fill="none" stroke-width="1.00" stroke="#f4f4f4" vector-effect="non-scaling-stroke" d="
  M 86.29 42.00
  Q 87.49 42.04 87.79 43.25
  Q 85.38 44.45 86.29 42.00
  Z"
/>
<path fill="none" stroke-width="1.00" stroke="#f4f4f4" vector-effect="non-scaling-stroke" d="
  M 201.00 42.04
  L 201.46 42.00
  Q 203.44 42.79 203.64 44.83
  L 201.25 43.71
  L 201.00 42.04
  Z"
/>
<path fill="none" stroke-width="1.00" stroke="#f4f4f4" vector-effect="non-scaling-stroke" d="
  M 92.00 42.54
  Q 93.98 42.06 95.50 43.29
  Q 94.70 44.17 95.04 45.25
  L 94.50 46.21
  Q 92.42 46.41 91.25 44.79
  L 92.00 42.54
  Z
  M 92.96 44.18
  Q 92.47 44.81 93.26 44.96
  A 0.80 0.73 19.5 0 0 94.07 44.62
  Q 94.37 44.15 93.80 43.93
  A 0.76 0.71 -59.6 0 0 92.96 44.18
  Z"
/>
<path fill="none" stroke-width="1.00" stroke="#f4f4f4" vector-effect="non-scaling-stroke" d="
  M 95.50 43.29
  L 96.25 43.54
  Q 96.31 45.18 98.08 45.22
  A 0.68 0.46 0.8 0 1 98.74 45.68
  C 98.74 46.89 95.95 45.77 95.04 45.25
  Q 94.70 44.17 95.50 43.29
  Z"
/>
<path fill="none" stroke-width="1.00" stroke="#f4f4f4" vector-effect="non-scaling-stroke" d="
  M 96.25 43.54
  Q 100.53 42.62 99.91 46.64
  A 1.11 1.10 13.3 0 1 98.47 47.52
  L 94.50 46.21
  L 95.04 45.25
  C 95.95 45.77 98.74 46.89 98.74 45.68
  A 0.68 0.46 0.8 0 0 98.08 45.22
  Q 96.31 45.18 96.25 43.54
  Z"
/>
<path fill="none" stroke-width="1.00" stroke="#f4f4f4" vector-effect="non-scaling-stroke" d="
  M 93.80 43.93
  Q 94.37 44.15 94.07 44.62
  A 0.80 0.73 19.5 0 1 93.26 44.96
  Q 92.47 44.81 92.96 44.18
  A 0.76 0.71 -59.6 0 1 93.80 43.93
  Z"
/>
<path fill="none" stroke-width="1.00" stroke="#f4f4f4" vector-effect="non-scaling-stroke" d="
  M 114.65 44.43
  Q 114.90 46.35 113.43 45.04
  A 0.98 0.76 30.8 0 1 113.10 44.19
  Q 113.25 43.51 114.09 43.75
  A 0.83 0.77 -86.5 0 1 114.65 44.43
  Z"
/>
<path fill="none" stroke-width="1.00" stroke="#f4f4f4" vector-effect="non-scaling-stroke" d="
  M 243.37 48.62
  L 255.00 72.96
  C 252.57 73.19 258.19 78.97 254.00 76.12
  C 252.71 75.23 249.20 74.95 247.50 74.46
  Q 241.51 60.97 235.28 47.59
  Q 234.66 46.24 234.25 44.79
  L 236.74 44.28
  A 0.63 0.47 75.7 0 1 237.33 44.76
  C 237.74 46.31 238.58 46.32 240.06 46.07
  Q 242.44 45.67 243.37 48.62
  Z"
/>
<path fill="none" stroke-width="1.00" stroke="#f4f4f4" vector-effect="non-scaling-stroke" d="
  M 234.25 44.79
  Q 234.66 46.24 235.28 47.59
  Q 241.51 60.97 247.50 74.46
  Q 246.07 74.44 245.21 73.25
  L 233.76 48.14
  Q 233.60 47.77 233.16 47.39
  Q 232.13 46.51 232.75 45.29
  L 234.25 44.79
  Z"
/>
<rect fill="none" stroke-width="1.00" stroke="#f4f4f4" vector-effect="non-scaling-stroke" x="-0.84" y="-2.57" transform="translate(113.23,48.65) rotate(12.4)" width="1.68" height="5.14" rx="0.79"/>
<path fill="none" stroke-width="1.00" stroke="#f4f4f4" vector-effect="non-scaling-stroke" d="
  M 117.44 48.79
  C 117.26 49.54 117.26 52.96 115.65 51.99
  A 0.87 0.67 -73.8 0 1 115.34 51.20
  L 115.82 47.73
  A 0.60 0.57 -86.5 0 1 116.38 47.21
  Q 122.11 47.00 120.63 52.40
  A 0.80 0.74 -85.1 0 1 119.99 52.98
  C 117.32 53.33 121.46 49.17 118.06 48.40
  A 0.52 0.51 -76.6 0 0 117.44 48.79
  Z"
/>
<path fill="none" stroke-width="1.00" stroke="#f4f4f4" vector-effect="non-scaling-stroke" d="
  M 258.79 59.50
  L 258.62 60.00
  A 1.44 0.92 50.9 0 0 258.73 60.95
  L 267.95 80.34
  A 1.14 1.07 -3.7 0 0 268.65 80.92
  Q 343.57 101.67 365.51 107.41
  Q 370.81 108.79 368.88 113.03
  L 365.23 118.05
  Q 365.60 117.14 364.84 116.95
  C 363.37 115.24 366.32 113.42 366.62 111.13
  A 0.48 0.48 -84.3 0 0 366.18 110.59
  C 363.37 110.34 360.92 108.92 358.51 108.45
  C 356.00 107.96 346.76 104.35 348.97 111.20
  Q 350.61 116.30 345.84 117.82
  Q 347.61 113.55 346.04 110.00
  C 343.44 104.22 337.63 106.45 335.96 111.50
  C 332.07 112.07 336.53 106.31 337.03 104.90
  A 1.43 1.20 -51.1 0 0 337.01 103.95
  Q 335.97 101.54 333.02 102.31
  Q 332.81 102.37 332.59 102.32
  Q 320.98 99.84 314.03 96.24
  Q 313.31 95.88 312.74 96.19
  A 0.68 0.59 -36.2 0 1 312.00 96.13
  Q 310.63 94.81 309.11 95.97
  A 1.37 0.97 -53.2 0 1 308.24 96.25
  C 306.15 96.01 304.93 94.64 303.20 94.07
  Q 295.63 91.57 287.85 89.86
  A 0.66 0.34 -45.8 0 0 287.40 90.01
  L 287.16 90.18
  A 0.91 0.58 39.0 0 1 286.28 90.08
  Q 283.06 87.99 279.23 88.78
  A 1.73 1.59 47.4 0 1 278.29 88.70
  Q 276.34 87.95 274.21 88.11
  Q 273.92 88.13 273.33 88.48
  L 268.95 91.05
  Q 268.37 91.39 268.17 91.64
  Q 265.90 94.41 261.25 95.72
  Q 258.95 96.36 259.44 99.02
  A 0.99 0.83 65.6 0 1 259.20 99.87
  Q 257.09 101.90 254.09 101.78
  A 1.35 0.77 50.1 0 1 253.45 101.54
  Q 252.75 101.08 253.09 102.05
  A 0.44 0.32 76.5 0 1 252.86 102.62
  Q 252.53 102.64 252.29 102.18
  Q 250.24 98.29 248.45 100.40
  L 246.34 102.87
  A 1.04 0.67 -40.3 0 0 246.08 103.72
  L 246.97 106.31
  A 0.86 0.54 63.5 0 1 246.89 107.11
  L 245.20 108.75
  A 1.10 0.95 -26.6 0 0 244.87 109.55
  Q 245.05 112.27 242.26 112.67
  A 0.82 0.75 -18.8 0 1 241.46 112.32
  Q 241.04 111.64 241.11 110.77
  Q 241.14 110.45 241.02 110.74
  C 238.93 115.46 235.98 104.08 232.48 108.21
  A 0.59 0.56 -54.3 0 1 231.76 108.35
  Q 227.84 106.10 224.52 109.25
  Q 222.63 111.04 225.44 111.11
  Q 228.96 111.20 232.27 112.37
  A 1.60 1.26 -38.9 0 0 233.20 112.36
  Q 235.08 111.72 235.59 113.80
  A 0.54 0.53 -14.6 0 1 235.21 114.44
  Q 233.47 114.92 231.45 114.52
  L 209.50 109.96
  Q 211.27 109.18 210.30 108.10
  Q 209.91 107.67 209.81 107.28
  L 205.09 89.72
  A 1.10 0.99 -86.9 0 0 204.52 89.01
  Q 202.13 87.91 201.96 91.25
  Q 202.09 88.40 199.50 89.54
  L 187.00 86.29
  L 185.00 85.71
  L 172.00 82.29
  L 170.50 81.96
  L 167.50 81.04
  L 166.79 81.00
  L 164.00 80.21
  L 156.25 78.04
  Q 156.94 77.57 157.75 77.50
  A 1.72 0.82 42.3 0 1 158.67 77.78
  Q 159.86 78.46 161.30 77.97
  A 0.49 0.48 -21.2 0 0 161.59 77.32
  C 160.79 75.55 157.28 72.28 159.58 70.43
  Q 159.87 70.19 159.48 70.09
  Q 159.03 69.97 158.96 69.50
  Q 159.86 69.06 159.00 68.71
  L 159.25 67.96
  Q 161.04 67.56 161.54 65.75
  L 162.46 65.75
  L 161.64 68.33
  A 0.71 0.58 -66.7 0 0 161.86 69.10
  C 164.32 70.58 162.08 63.56 165.61 66.55
  A 0.50 0.46 38.4 0 0 166.31 66.50
  Q 167.16 65.33 164.88 65.07
  Q 165.21 59.75 160.23 60.04
  A 1.44 0.67 -12.9 0 1 159.29 59.84
  L 157.24 58.18
  A 1.31 0.61 48.9 0 0 156.42 57.82
  L 154.75 57.96
  L 155.64 56.04
  L 158.03 49.30
  C 167.99 52.34 177.70 54.50 188.13 57.65
  Q 194.61 59.61 201.25 61.04
  L 201.21 62.25
  Q 199.85 64.20 201.71 65.25
  Q 200.83 68.61 203.83 69.74
  Q 205.07 70.85 206.84 71.01
  C 211.32 71.42 213.40 66.58 211.98 62.78
  Q 210.21 58.84 206.21 57.75
  Q 207.01 55.18 208.87 56.77
  C 211.43 58.95 213.29 60.53 214.56 63.79
  A 0.74 0.68 77.6 0 0 215.24 64.26
  L 216.25 64.21
  C 217.60 67.10 219.05 68.58 222.31 69.46
  Q 244.29 75.44 266.29 81.33
  A 0.58 0.46 13.2 0 0 266.98 81.00
  Q 267.02 80.75 266.92 80.47
  A 1.08 0.95 1.2 0 0 266.23 79.84
  L 259.15 77.65
  C 253.82 68.28 249.59 57.94 245.38 48.02
  Q 248.42 46.15 248.89 49.23
  A 0.56 0.53 84.7 0 0 249.44 49.71
  L 252.19 49.56
  A 0.82 0.78 -15.8 0 1 252.94 49.96
  C 254.14 52.09 256.96 58.44 258.79 59.50
  Z
  M 169.69 64.21
  C 164.30 63.20 171.13 67.55 170.35 64.78
  A 0.87 0.78 -1.0 0 0 169.69 64.21
  Z"
/>
<path fill="none" stroke-width="1.00" stroke="#f4f4f4" vector-effect="non-scaling-stroke" d="
  M 124.83 48.03
  A 0.77 0.77 30.7 0 1 125.15 49.28
  Q 124.01 50.51 124.08 52.76
  A 1.21 0.94 72.1 0 1 123.77 53.62
  C 121.82 55.49 122.69 51.16 122.89 50.25
  A 1.77 1.35 46.7 0 0 122.79 49.30
  Q 121.85 47.01 124.83 48.03
  Z"
/>
<path fill="none" stroke-width="1.00" stroke="#f4f4f4" vector-effect="non-scaling-stroke" d="
  M 245.38 48.02
  C 249.59 57.94 253.82 68.28 259.15 77.65
  C 256.70 77.98 255.87 74.61 255.00 72.96
  L 243.37 48.62
  L 245.38 48.02
  Z"
/>
<path fill="none" stroke-width="1.00" stroke="#f4f4f4" vector-effect="non-scaling-stroke" d="
  M 128.75 50.21
  Q 127.11 50.73 127.54 52.50
  C 125.89 56.23 131.40 54.38 129.21 52.50
  L 129.50 50.46
  Q 131.14 50.72 130.93 51.98
  Q 130.02 57.50 126.10 53.90
  A 1.29 1.20 21.1 0 1 125.69 53.06
  Q 125.47 49.79 128.75 50.21
  Z"
/>
<path fill="none" stroke-width="1.00" stroke="#f4f4f4" vector-effect="non-scaling-stroke" d="
  M 128.75 50.21
  L 129.50 50.46
  L 129.21 52.50
  L 127.54 52.50
  Q 127.11 50.73 128.75 50.21
  Z"
/>
<path fill="none" stroke-width="1.00" stroke="#f4f4f4" vector-effect="non-scaling-stroke" d="
  M 134.13 53.28
  L 133.59 55.52
  A 1.32 0.42 -82.2 0 1 133.18 56.38
  Q 132.68 56.73 132.24 56.17
  A 1.18 1.08 -59.7 0 1 132.04 55.24
  L 132.74 51.86
  A 0.50 0.47 -75.3 0 1 133.36 51.48
  L 136.92 52.65
  A 0.87 0.70 -86.7 0 1 137.43 53.36
  C 137.52 54.18 138.07 58.13 136.19 57.41
  A 0.79 0.61 -80.4 0 1 135.80 56.67
  L 135.97 53.81
  A 1.05 0.81 -74.7 0 0 135.62 52.96
  Q 135.26 52.70 134.81 52.72
  A 0.73 0.73 -84.2 0 0 134.13 53.28
  Z"
/>
<path fill="none" stroke-width="1.00" stroke="#f4f4f4" vector-effect="non-scaling-stroke" d="
  M 141.25 54.46
  Q 140.22 55.65 140.52 57.24
  Q 140.90 59.30 142.05 57.58
  Q 143.04 56.11 142.46 54.50
  Q 142.99 53.60 143.03 52.54
  A 0.89 0.68 83.4 0 1 143.47 51.81
  Q 144.38 51.43 144.84 52.29
  A 1.28 0.33 -76.3 0 1 144.85 53.22
  L 144.00 58.27
  A 0.98 0.86 -77.7 0 1 142.89 59.09
  L 140.29 58.35
  A 1.73 1.15 -1.5 0 1 139.48 57.84
  C 138.28 56.21 139.29 52.69 141.62 53.77
  Q 142.14 54.01 141.66 54.25
  L 141.25 54.46
  Z"
/>
<path fill="none" stroke-width="1.00" stroke="#f4f4f4" vector-effect="non-scaling-stroke" d="
  M 127.54 52.50
  L 129.21 52.50
  C 131.40 54.38 125.89 56.23 127.54 52.50
  Z"
/>
<path fill="none" stroke-width="1.00" stroke="#f4f4f4" vector-effect="non-scaling-stroke" d="
  M 141.25 54.46
  L 142.46 54.50
  Q 143.04 56.11 142.05 57.58
  Q 140.90 59.30 140.52 57.24
  Q 140.22 55.65 141.25 54.46
  Z"
/>
<path fill="none" stroke-width="1.00" stroke="#f4f4f4" vector-effect="non-scaling-stroke" d="
  M 155.64 56.04
  L 154.75 57.96
  Q 151.95 58.36 152.84 55.47
  A 1.34 1.15 87.6 0 1 153.42 54.73
  Q 154.97 53.91 155.64 56.04
  Z
  M 154.12 56.05
  C 150.68 55.10 155.45 58.52 154.76 56.61
  A 1.00 0.85 0.9 0 0 154.12 56.05
  Z"
/>
<path fill="none" stroke-width="1.00" stroke="#f4f4f4" vector-effect="non-scaling-stroke" d="
  M 150.4440 58.7188
  A 1.86 1.86 0.0 0 1 148.3797 60.3491
  L 147.0886 60.1974
  A 1.86 1.86 0.0 0 1 145.4583 58.1331
  L 145.5960 56.9612
  A 1.86 1.86 0.0 0 1 147.6603 55.3309
  L 148.9514 55.4826
  A 1.86 1.86 0.0 0 1 150.5817 57.5469
  L 150.4440 58.7188
  Z
  M 147.7052 59.8163
  A 1.97 1.09 98.9 0 0 149.0869 58.0386
  A 1.97 1.09 98.9 0 0 148.3148 55.9237
  A 1.97 1.09 98.9 0 0 146.9331 57.7014
  A 1.97 1.09 98.9 0 0 147.7052 59.8163
  Z"
/>
<path fill="none" stroke-width="1.00" stroke="#f4f4f4" vector-effect="non-scaling-stroke" d="
  M 154.76 56.61
  C 155.45 58.52 150.68 55.10 154.12 56.05
  A 1.00 0.85 0.9 0 1 154.76 56.61
  Z"
/>
<ellipse fill="none" stroke-width="1.00" stroke="#f4f4f4" vector-effect="non-scaling-stroke" cx="0.00" cy="0.00" transform="translate(148.01,57.87) rotate(98.9)" rx="1.97" ry="1.09"/>
<path fill="none" stroke-width="1.00" stroke="#f4f4f4" vector-effect="non-scaling-stroke" d="
  M 78.50 56.96
  L 89.00 59.96
  C 82.75 61.49 76.28 59.67 72.61 66.34
  A 0.59 0.51 -60.9 0 0 72.77 67.10
  L 73.46 67.50
  L 75.29 71.00
  L 74.96 72.00
  L 72.61 70.09
  Q 72.17 69.73 71.77 69.64
  L 53.40 65.46
  L 63.07 61.71
  C 69.02 59.17 73.52 57.03 78.50 56.96
  Z"
/>
<path fill="none" stroke-width="1.00" stroke="#f4f4f4" vector-effect="non-scaling-stroke" d="
  M 206.21 57.75
  Q 210.21 58.84 211.98 62.78
  L 206.93 58.76
  A 1.35 0.94 -22.6 0 0 206.00 58.56
  Q 204.73 58.73 203.58 59.42
  A 0.97 0.82 77.4 0 0 203.18 60.19
  Q 203.14 61.77 202.00 62.71
  L 201.75 62.79
  L 201.21 62.25
  L 201.25 61.04
  Q 202.37 57.47 206.21 57.75
  Z"
/>
<path fill="none" stroke-width="1.00" stroke="#f4f4f4" vector-effect="non-scaling-stroke" d="
  M 211.98 62.78
  C 213.40 66.58 211.32 71.42 206.84 71.01
  Q 205.07 70.85 203.83 69.74
  Q 206.32 64.76 202.00 62.71
  Q 203.14 61.77 203.18 60.19
  A 0.97 0.82 77.4 0 1 203.58 59.42
  Q 204.73 58.73 206.00 58.56
  A 1.35 0.94 -22.6 0 1 206.93 58.76
  L 211.98 62.78
  Z"
/>
<path fill="none" stroke-width="1.00" stroke="#f4f4f4" vector-effect="non-scaling-stroke" d="
  M 258.79 59.50
  L 260.25 59.79
  Q 259.78 60.58 260.49 60.79
  Q 299.44 72.13 349.39 85.99
  C 370.62 91.88 394.05 97.87 419.43 105.07
  C 428.10 107.53 435.94 109.36 443.57 112.36
  C 457.74 117.93 466.99 120.59 482.18 122.33
  Q 496.12 135.34 493.20 153.76
  C 491.68 163.32 481.50 159.84 475.48 157.28
  A 0.60 0.57 -62.3 0 0 474.76 157.52
  Q 472.77 160.69 470.04 161.20
  Q 450.08 155.32 419.75 147.97
  C 410.32 145.69 402.86 144.32 395.37 142.18
  C 382.87 138.62 370.11 135.66 357.50 132.46
  L 362.00 125.71
  L 364.80 124.84
  A 1.97 1.56 -40.8 0 1 365.75 124.80
  Q 387.99 130.59 410.24 136.35
  C 417.17 138.14 428.95 141.70 438.50 143.73
  Q 441.81 144.43 459.79 149.58
  C 460.83 149.87 461.35 149.70 461.09 148.47
  A 0.94 0.80 4.6 0 0 460.46 147.84
  Q 449.40 144.33 432.76 140.47
  Q 409.35 135.05 364.29 122.20
  Q 367.34 117.34 368.88 113.03
  Q 370.81 108.79 365.51 107.41
  Q 343.57 101.67 268.65 80.92
  A 1.14 1.07 -3.7 0 1 267.95 80.34
  L 258.73 60.95
  A 1.44 0.92 50.9 0 1 258.62 60.00
  L 258.79 59.50
  Z
  M 269.81 78.94
  Q 267.78 76.58 266.92 73.52
  A 1.16 0.93 -83.7 0 0 266.57 72.97
  C 265.18 71.90 268.56 78.67 268.76 79.06
  A 1.12 0.97 79.9 0 0 269.46 79.63
  Q 270.64 79.90 269.81 78.94
  Z
  M 467.3418 154.0300
  A 1.03 0.64 89.9 0 0 467.9800 152.9989
  A 1.03 0.64 89.9 0 0 467.3382 151.9700
  A 1.03 0.64 89.9 0 0 466.7000 153.0011
  A 1.03 0.64 89.9 0 0 467.3418 154.0300
  Z"
/>
<path fill="none" stroke-width="1.00" stroke="#f4f4f4" vector-effect="non-scaling-stroke" d="
  M 260.25 59.79
  Q 348.42 84.24 436.60 108.68
  C 438.40 109.18 439.61 108.63 441.35 108.79
  Q 450.97 113.30 460.95 116.78
  C 467.21 118.97 470.06 118.25 475.20 119.09
  A 1.14 0.65 19.1 0 0 476.10 118.92
  Q 476.43 118.60 476.15 118.13
  Q 478.06 121.56 482.18 122.33
  C 466.99 120.59 457.74 117.93 443.57 112.36
  C 435.94 109.36 428.10 107.53 419.43 105.07
  C 394.05 97.87 370.62 91.88 349.39 85.99
  Q 299.44 72.13 260.49 60.79
  Q 259.78 60.58 260.25 59.79
  Z"
/>
<path fill="none" stroke-width="1.00" stroke="#f4f4f4" vector-effect="non-scaling-stroke" d="
  M 89.00 59.96
  Q 91.34 60.19 93.04 61.75
  L 91.50 62.79
  Q 86.54 63.43 81.52 63.26
  C 79.82 63.20 78.23 63.88 76.45 63.99
  A 1.04 0.79 -71.9 0 0 75.74 64.48
  Q 75.28 65.24 74.31 65.25
  A 0.57 0.55 -85.5 0 0 73.78 65.72
  L 73.46 67.50
  L 72.77 67.10
  A 0.59 0.51 -60.9 0 1 72.61 66.34
  C 76.28 59.67 82.75 61.49 89.00 59.96
  Z"
/>
<path fill="none" stroke-width="1.00" stroke="#f4f4f4" vector-effect="non-scaling-stroke" d="
  M 93.04 61.75
  L 126.04 70.25
  L 125.90 70.75
  Q 112.56 66.77 98.76 65.05
  L 92.25 64.46
  Q 91.22 63.99 91.50 62.79
  L 93.04 61.75
  Z"
/>
<path fill="none" stroke-width="1.00" stroke="#f4f4f4" vector-effect="non-scaling-stroke" d="
  M 135.21 67.56
  A 0.38 0.36 30.1 0 1 135.06 67.04
  L 137.05 63.92
  A 0.97 0.82 51.7 0 0 137.08 63.07
  Q 136.50 61.80 139.47 62.49
  A 0.37 0.37 -66.3 0 1 139.69 63.06
  L 137.48 66.34
  A 1.24 0.95 59.6 0 0 137.37 67.23
  Q 137.81 68.95 135.21 67.56
  Z"
/>
<path fill="none" stroke-width="1.00" stroke="#f4f4f4" vector-effect="non-scaling-stroke" d="
  M 201.21 62.25
  L 201.75 62.79
  L 201.71 65.25
  Q 199.85 64.20 201.21 62.25
  Z"
/>
<path fill="none" stroke-width="1.00" stroke="#f4f4f4" vector-effect="non-scaling-stroke" d="
  M 91.50 62.79
  Q 91.22 63.99 92.25 64.46
  Q 91.01 64.66 91.40 65.84
  Q 91.78 66.97 94.74 67.29
  C 95.69 67.39 103.15 68.60 103.33 68.29
  A 0.42 0.33 15.5 0 0 102.95 67.78
  Q 100.51 67.50 98.76 65.05
  Q 112.56 66.77 125.90 70.75
  L 135.75 73.29
  L 140.00 74.46
  Q 146.15 76.43 152.54 77.25
  L 156.25 78.04
  L 164.00 80.21
  L 163.31 80.25
  Q 162.73 80.29 163.24 80.56
  Q 164.92 81.44 166.79 81.00
  L 167.50 81.04
  Q 168.40 82.67 170.50 81.96
  L 172.00 82.29
  C 171.92 83.29 182.71 85.68 184.25 86.04
  L 187.00 86.71
  L 200.29 91.00
  L 201.80 111.21
  Q 199.87 112.25 200.05 114.57
  A 1.36 1.17 65.1 0 1 199.80 115.46
  Q 187.11 131.74 174.84 148.33
  Q 174.27 149.11 173.96 150.00
  L 172.25 150.71
  L 173.87 146.03
  A 0.77 0.68 28.0 0 0 173.57 145.22
  Q 172.41 144.38 170.90 144.35
  A 1.22 0.96 16.9 0 0 170.03 144.69
  L 167.75 147.32
  A 1.34 0.26 -85.3 0 0 167.49 148.24
  Q 167.41 148.78 166.89 149.02
  Q 166.33 149.28 166.13 149.57
  Q 159.92 158.33 153.23 166.72
  Q 152.38 167.78 151.39 169.77
  C 150.17 172.24 148.25 173.95 147.10 176.50
  Q 146.16 178.57 144.89 180.47
  A 1.83 1.49 0.1 0 1 144.15 181.07
  C 141.32 182.30 140.50 184.18 138.75 186.47
  Q 129.77 198.24 120.71 209.95
  Q 120.42 210.32 119.99 211.87
  A 1.65 1.58 -13.7 0 1 119.47 212.68
  C 116.23 215.40 113.91 219.28 111.45 222.08
  C 105.31 229.05 102.03 236.48 102.00 245.82
  C 101.99 248.05 103.21 249.48 105.23 250.08
  Q 105.30 250.10 106.15 249.95
  Q 106.68 249.85 106.88 251.23
  C 110.31 258.54 104.44 258.07 99.46 258.53
  Q 78.28 260.52 57.36 261.78
  Q 48.44 258.61 37.76 256.76
  Q 35.95 256.45 34.70 257.35
  Q 27.87 255.67 20.75 255.21
  Q 17.12 253.03 12.75 253.71
  Q 11.54 253.81 11.13 252.95
  A 1.07 0.74 -48.0 0 1 11.25 252.05
  Q 13.07 249.06 9.74 248.18
  A 0.70 0.61 8.6 0 1 9.22 247.57
  Q 9.21 246.02 11.06 246.24
  A 1.28 1.28 87.7 0 0 12.46 244.72
  C 9.77 231.41 16.05 216.04 22.75 204.79
  Q 31.24 190.20 42.41 177.62
  C 45.24 174.43 47.98 170.16 51.31 166.82
  Q 61.75 156.38 73.54 147.50
  C 80.20 143.02 86.79 138.38 93.64 134.19
  Q 95.79 132.87 97.80 131.34
  C 105.20 125.69 106.79 115.20 104.72 106.55
  A 1.41 1.09 15.3 0 0 104.16 105.81
  L 102.36 104.60
  A 0.76 0.63 41.6 0 0 101.55 104.57
  Q 100.79 105.13 100.54 106.00
  Q 99.49 99.57 97.29 93.59
  Q 98.26 91.35 96.50 88.75
  C 92.50 82.83 87.72 76.63 81.22 74.10
  Q 78.09 72.88 75.29 71.00
  L 73.46 67.50
  L 73.78 65.72
  A 0.57 0.55 -85.5 0 1 74.31 65.25
  Q 75.28 65.24 75.74 64.48
  A 1.04 0.79 -71.9 0 1 76.45 63.99
  C 78.23 63.88 79.82 63.20 81.52 63.26
  Q 86.54 63.43 91.50 62.79
  Z
  M 103.15 77.85
  C 99.96 72.22 92.78 69.20 86.51 70.38
  Q 85.51 70.57 85.76 71.63
  A 0.88 0.73 3.0 0 0 86.39 72.21
  C 91.46 73.42 97.23 76.95 102.21 78.93
  Q 104.21 79.73 103.15 77.85
  Z
  M 118.96 87.25
  L 120.21 90.25
  Q 121.86 94.08 121.50 98.25
  Q 121.37 99.79 123.04 106.50
  Q 124.67 117.92 123.71 106.50
  C 124.11 103.45 125.07 100.50 124.23 97.54
  Q 123.05 93.34 120.46 89.75
  L 119.21 86.75
  C 118.96 86.11 118.06 83.52 117.64 83.15
  C 116.66 82.28 118.84 87.04 118.96 87.25
  Z
  M 76.17 163.66
  Q 76.21 163.95 76.46 164.08
  A 0.64 0.49 -61.2 0 0 77.20 163.75
  Q 77.90 162.45 76.61 162.99
  A 0.71 0.57 -17.9 0 0 76.17 163.66
  Z
  M 70.21 168.64
  C 74.12 169.79 69.93 166.36 69.73 168.02
  A 0.67 0.55 12.5 0 0 70.21 168.64
  Z
  M 68.50 175.03
  C 68.31 174.75 64.55 174.21 63.96 174.05
  A 0.87 0.77 26.8 0 0 63.12 174.27
  Q 62.37 175.10 62.49 176.29
  A 0.35 0.33 -18.2 0 0 63.00 176.53
  Q 65.44 175.20 68.20 175.43
  Q 68.80 175.48 68.50 175.03
  Z
  M 60.28 181.83
  C 61.11 180.72 58.07 179.43 57.39 180.94
  A 0.58 0.54 26.6 0 0 57.66 181.66
  Q 58.54 182.13 59.44 182.18
  A 1.01 0.84 17.2 0 0 60.28 181.83
  Z
  M 55.38 187.47
  Q 54.04 186.86 52.53 187.01
  A 0.73 0.68 1.4 0 0 51.90 187.57
  C 51.51 189.70 55.89 188.66 57.55 188.36
  Q 58.10 188.26 57.64 187.98
  Q 57.03 187.60 56.31 187.63
  Q 55.77 187.64 55.38 187.47
  Z
  M 52.06 194.78
  C 44.60 192.26 48.51 196.73 52.07 195.44
  Q 53.02 195.10 52.06 194.78
  Z
  M 48.14 202.12
  C 48.33 201.70 42.99 199.79 43.79 201.56
  A 1.33 1.10 1.6 0 0 44.51 202.19
  Q 46.00 202.73 47.57 202.48
  A 0.82 0.57 2.5 0 0 48.14 202.12
  Z
  M 30.94 207.44
  Q 23.85 220.44 20.07 232.95
  A 0.58 0.49 -73.6 0 0 20.38 233.64
  Q 21.28 233.90 21.70 232.43
  Q 25.26 219.71 31.85 208.23
  A 1.02 0.81 -46.8 0 0 31.92 207.34
  Q 31.49 206.43 30.94 207.44
  Z
  M 45.72 209.24
  C 46.06 208.47 37.09 206.88 40.24 208.78
  Q 41.78 209.71 45.19 209.51
  A 0.64 0.39 3.9 0 0 45.72 209.24
  Z
  M 40.5821 216.1720
  A 2.53 0.76 13.3 0 0 38.2948 214.8504
  A 2.53 0.76 13.3 0 0 35.6579 215.0080
  A 2.53 0.76 13.3 0 0 37.9452 216.3296
  A 2.53 0.76 13.3 0 0 40.5821 216.1720
  Z
  M 33.37 222.65
  Q 34.34 224.86 36.61 223.29
  A 0.42 0.41 49.2 0 0 36.65 222.64
  Q 35.31 221.39 33.64 221.99
  A 0.49 0.48 67.6 0 0 33.37 222.65
  Z
  M 34.3740 230.1248
  A 2.25 0.89 4.2 0 0 32.1952 229.0724
  A 2.25 0.89 4.2 0 0 29.8860 229.7952
  A 2.25 0.89 4.2 0 0 32.0648 230.8476
  A 2.25 0.89 4.2 0 0 34.3740 230.1248
  Z
  M 29.50 235.96
  Q 26.56 237.46 30.01 238.20
  Q 32.83 238.81 32.21 236.50
  C 34.78 233.21 27.98 232.28 29.50 235.96
  Z
  M 27.25 246.04
  Q 27.76 248.53 26.67 250.80
  A 0.73 0.60 -57.3 0 0 26.77 251.61
  Q 27.36 252.14 28.12 251.98
  A 0.86 0.62 -86.9 0 0 28.64 251.33
  L 29.71 246.00
  L 30.39 243.05
  A 0.68 0.67 -68.6 0 0 30.07 242.30
  Q 26.87 240.45 27.38 243.70
  A 0.82 0.80 -22.4 0 1 27.05 244.47
  Q 25.52 245.55 27.25 246.04
  Z"
/>
<path fill="none" stroke-width="1.00" stroke="#f4f4f4" vector-effect="non-scaling-stroke" d="
  M 201.75 62.79
  L 202.00 62.71
  Q 206.32 64.76 203.83 69.74
  Q 200.83 68.61 201.71 65.25
  L 201.75 62.79
  Z"
/>
<path fill="none" stroke-width="1.00" stroke="#f4f4f4" vector-effect="non-scaling-stroke" d="
  M 139.75 68.01
  A 0.59 0.59 -78.2 0 1 139.33 67.36
  Q 139.98 62.90 143.83 64.01
  A 0.75 0.73 -84.5 0 1 144.36 64.67
  Q 144.72 69.39 139.75 68.01
  Z
  M 141.2168 68.0195
  A 1.91 0.77 112.9 0 0 142.6693 66.5596
  A 1.91 0.77 112.9 0 0 142.7032 64.5005
  A 1.91 0.77 112.9 0 0 141.2507 65.9604
  A 1.91 0.77 112.9 0 0 141.2168 68.0195
  Z"
/>
<path fill="none" stroke-width="1.00" stroke="#f4f4f4" vector-effect="non-scaling-stroke" d="
  M 147.50 68.46
  C 147.73 67.40 150.18 64.62 147.83 64.53
  A 0.75 0.61 6.7 0 0 147.10 64.99
  L 146.25 68.46
  Q 145.29 70.18 144.43 68.94
  A 0.70 0.60 -43.2 0 1 144.52 68.15
  Q 145.49 67.02 145.49 65.44
  A 1.00 0.82 76.5 0 1 145.87 64.65
  Q 147.73 63.41 149.74 64.57
  A 0.86 0.84 16.8 0 1 150.16 65.33
  Q 150.08 68.15 147.50 68.46
  Z"
/>
<path fill="none" stroke-width="1.00" stroke="#f4f4f4" vector-effect="non-scaling-stroke" d="
  M 170.35 64.78
  C 171.13 67.55 164.30 63.20 169.69 64.21
  A 0.87 0.78 -1.0 0 1 170.35 64.78
  Z"
/>
<path fill="none" stroke-width="1.00" stroke="#f4f4f4" vector-effect="non-scaling-stroke" d="
  M 92.25 64.46
  L 98.76 65.05
  Q 100.51 67.50 102.95 67.78
  A 0.42 0.33 15.5 0 1 103.33 68.29
  C 103.15 68.60 95.69 67.39 94.74 67.29
  Q 91.78 66.97 91.40 65.84
  Q 91.01 64.66 92.25 64.46
  Z"
/>
<ellipse fill="none" stroke-width="1.00" stroke="#f4f4f4" vector-effect="non-scaling-stroke" cx="0.00" cy="0.00" transform="translate(141.96,66.26) rotate(112.9)" rx="1.91" ry="0.77"/>
<path fill="none" stroke-width="1.00" stroke="#f4f4f4" vector-effect="non-scaling-stroke" d="
  M 147.50 68.46
  L 146.25 68.46
  L 147.10 64.99
  A 0.75 0.61 6.7 0 1 147.83 64.53
  C 150.18 64.62 147.73 67.40 147.50 68.46
  Z"
/>
<path fill="none" stroke-width="1.00" stroke="#f4f4f4" vector-effect="non-scaling-stroke" d="
  M 153.00 68.96
  C 153.18 68.62 156.24 64.20 153.23 65.33
  A 1.02 1.01 -2.4 0 0 152.61 66.00
  L 151.79 69.00
  Q 150.65 70.35 150.14 69.28
  A 1.30 0.80 -54.8 0 1 150.20 68.34
  L 151.48 65.44
  A 1.23 0.95 -82.4 0 1 152.13 64.80
  Q 153.96 64.22 155.46 65.15
  A 0.88 0.85 -73.9 0 1 155.87 65.93
  Q 155.81 68.89 153.00 68.96
  Z"
/>
<path fill="none" stroke-width="1.00" stroke="#f4f4f4" vector-effect="non-scaling-stroke" d="
  M 161.54 65.75
  Q 161.04 67.56 159.25 67.96
  L 159.89 66.00
  A 0.37 0.33 3.4 0 0 159.47 65.57
  C 157.28 65.94 157.53 69.81 159.00 68.71
  Q 159.86 69.06 158.96 69.50
  Q 157.69 69.62 156.84 68.86
  A 1.15 0.93 -71.3 0 1 156.52 68.00
  Q 156.79 62.90 161.54 65.75
  Z"
/>
<path fill="none" stroke-width="1.00" stroke="#f4f4f4" vector-effect="non-scaling-stroke" d="
  M 164.88 65.07
  Q 167.16 65.33 166.31 66.50
  A 0.50 0.46 38.4 0 1 165.61 66.55
  C 162.08 63.56 164.32 70.58 161.86 69.10
  A 0.71 0.58 -66.7 0 1 161.64 68.33
  L 162.46 65.75
  Q 163.74 64.58 164.88 65.07
  Z"
/>
<path fill="none" stroke-width="1.00" stroke="#f4f4f4" vector-effect="non-scaling-stroke" d="
  M 153.00 68.96
  L 151.79 69.00
  L 152.61 66.00
  A 1.02 1.01 -2.4 0 1 153.23 65.33
  C 156.24 64.20 153.18 68.62 153.00 68.96
  Z"
/>
<path fill="none" stroke-width="1.00" stroke="#f4f4f4" vector-effect="non-scaling-stroke" d="
  M 159.25 67.96
  L 159.00 68.71
  C 157.53 69.81 157.28 65.94 159.47 65.57
  A 0.37 0.33 3.4 0 1 159.89 66.00
  L 159.25 67.96
  Z"
/>
<path fill="none" stroke-width="1.00" stroke="#f4f4f4" vector-effect="non-scaling-stroke" d="
  M 86.51 70.38
  C 92.78 69.20 99.96 72.22 103.15 77.85
  Q 104.21 79.73 102.21 78.93
  C 97.23 76.95 91.46 73.42 86.39 72.21
  A 0.88 0.73 3.0 0 1 85.76 71.63
  Q 85.51 70.57 86.51 70.38
  Z"
/>
<path fill="none" stroke-width="1.00" stroke="#f4f4f4" vector-effect="non-scaling-stroke" d="
  M 126.04 70.25
  L 137.50 73.21
  L 135.75 73.29
  L 125.90 70.75
  L 126.04 70.25
  Z"
/>
<path fill="none" stroke-width="1.00" stroke="#f4f4f4" vector-effect="non-scaling-stroke" d="
  M 75.29 71.00
  Q 78.09 72.88 81.22 74.10
  C 87.72 76.63 92.50 82.83 96.50 88.75
  Q 98.26 91.35 97.29 93.59
  Q 93.28 85.88 87.16 80.00
  C 83.76 76.74 79.14 74.66 74.96 72.00
  L 75.29 71.00
  Z"
/>
<path fill="none" stroke-width="1.00" stroke="#f4f4f4" vector-effect="non-scaling-stroke" d="
  M 269.81 78.94
  Q 270.64 79.90 269.46 79.63
  A 1.12 0.97 79.9 0 1 268.76 79.06
  C 268.56 78.67 265.18 71.90 266.57 72.97
  A 1.16 0.93 -83.7 0 1 266.92 73.52
  Q 267.78 76.58 269.81 78.94
  Z"
/>
<path fill="none" stroke-width="1.00" stroke="#f4f4f4" vector-effect="non-scaling-stroke" d="
  M 135.75 73.29
  L 137.50 73.21
  L 140.29 74.00
  L 140.00 74.46
  L 135.75 73.29
  Z"
/>
<path fill="none" stroke-width="1.00" stroke="#f4f4f4" vector-effect="non-scaling-stroke" d="
  M 140.29 74.00
  L 152.54 77.25
  Q 146.15 76.43 140.00 74.46
  L 140.29 74.00
  Z"
/>
<path fill="none" stroke-width="1.00" stroke="#f4f4f4" vector-effect="non-scaling-stroke" d="
  M 164.00 80.21
  L 166.79 81.00
  Q 164.92 81.44 163.24 80.56
  Q 162.73 80.29 163.31 80.25
  L 164.00 80.21
  Z"
/>
<path fill="none" stroke-width="1.00" stroke="#f4f4f4" vector-effect="non-scaling-stroke" d="
  M 167.50 81.04
  L 170.50 81.96
  Q 168.40 82.67 167.50 81.04
  Z"
/>
<path fill="none" stroke-width="1.00" stroke="#f4f4f4" vector-effect="non-scaling-stroke" d="
  M 172.00 82.29
  L 185.00 85.71
  L 184.25 86.04
  C 182.71 85.68 171.92 83.29 172.00 82.29
  Z"
/>
<path fill="none" stroke-width="1.00" stroke="#f4f4f4" vector-effect="non-scaling-stroke" d="
  M 119.21 86.75
  L 118.96 87.25
  C 118.84 87.04 116.66 82.28 117.64 83.15
  C 118.06 83.52 118.96 86.11 119.21 86.75
  Z"
/>
<path fill="none" stroke-width="1.00" stroke="#f4f4f4" vector-effect="non-scaling-stroke" d="
  M 185.00 85.71
  L 187.00 86.29
  L 187.00 86.71
  L 184.25 86.04
  L 185.00 85.71
  Z"
/>
<path fill="none" stroke-width="1.00" stroke="#f4f4f4" vector-effect="non-scaling-stroke" d="
  M 187.00 86.29
  L 199.50 89.54
  Q 200.93 89.84 200.29 91.00
  L 187.00 86.71
  L 187.00 86.29
  Z"
/>
<path fill="none" stroke-width="1.00" stroke="#f4f4f4" vector-effect="non-scaling-stroke" d="
  M 119.21 86.75
  L 120.46 89.75
  L 120.21 90.25
  L 118.96 87.25
  L 119.21 86.75
  Z"
/>
<path fill="none" stroke-width="1.00" stroke="#f4f4f4" vector-effect="non-scaling-stroke" d="
  M 335.96 111.50
  Q 335.67 114.14 336.96 112.00
  Q 336.81 112.92 337.35 113.46
  A 0.60 0.52 39.1 0 1 337.47 114.16
  Q 335.68 116.92 339.21 117.25
  Q 337.91 119.16 340.50 119.50
  Q 343.43 119.88 345.84 117.82
  Q 350.61 116.30 348.97 111.20
  C 346.76 104.35 356.00 107.96 358.51 108.45
  C 360.92 108.92 363.37 110.34 366.18 110.59
  A 0.48 0.48 -84.3 0 1 366.62 111.13
  C 366.32 113.42 363.37 115.24 364.84 116.95
  Q 365.60 117.14 365.23 118.05
  L 355.50 132.46
  Q 354.26 133.41 354.28 134.51
  Q 352.58 137.56 350.32 138.57
  C 327.17 134.16 304.13 129.28 281.03 124.67
  L 231.45 114.52
  Q 233.47 114.92 235.21 114.44
  A 0.54 0.53 -14.6 0 0 235.59 113.80
  Q 235.08 111.72 233.20 112.36
  A 1.60 1.26 -38.9 0 1 232.27 112.37
  Q 228.96 111.20 225.44 111.11
  Q 222.63 111.04 224.52 109.25
  Q 227.84 106.10 231.76 108.35
  A 0.59 0.56 -54.3 0 0 232.48 108.21
  C 235.98 104.08 238.93 115.46 241.02 110.74
  Q 241.14 110.45 241.11 110.77
  Q 241.04 111.64 241.46 112.32
  A 0.82 0.75 -18.8 0 0 242.26 112.67
  Q 245.05 112.27 244.87 109.55
  A 1.10 0.95 -26.6 0 1 245.20 108.75
  L 246.89 107.11
  A 0.86 0.54 63.5 0 0 246.97 106.31
  L 246.08 103.72
  A 1.04 0.67 -40.3 0 1 246.34 102.87
  L 248.45 100.40
  Q 250.24 98.29 252.29 102.18
  Q 252.53 102.64 252.86 102.62
  A 0.44 0.32 76.5 0 0 253.09 102.05
  Q 252.75 101.08 253.45 101.54
  A 1.35 0.77 50.1 0 0 254.09 101.78
  Q 257.09 101.90 259.20 99.87
  A 0.99 0.83 65.6 0 0 259.44 99.02
  Q 258.95 96.36 261.25 95.72
  Q 265.90 94.41 268.17 91.64
  Q 268.37 91.39 268.95 91.05
  L 273.33 88.48
  Q 273.92 88.13 274.21 88.11
  Q 276.34 87.95 278.29 88.70
  A 1.73 1.59 47.4 0 0 279.23 88.78
  Q 283.06 87.99 286.28 90.08
  A 0.91 0.58 39.0 0 0 287.16 90.18
  L 287.40 90.01
  A 0.66 0.34 -45.8 0 1 287.85 89.86
  Q 295.63 91.57 303.20 94.07
  C 304.93 94.64 306.15 96.01 308.24 96.25
  A 1.37 0.97 -53.2 0 0 309.11 95.97
  Q 310.63 94.81 312.00 96.13
  A 0.68 0.59 -36.2 0 0 312.74 96.19
  Q 313.31 95.88 314.03 96.24
  Q 320.98 99.84 332.59 102.32
  Q 332.81 102.37 333.02 102.31
  Q 335.97 101.54 337.01 103.95
  A 1.43 1.20 -51.1 0 1 337.03 104.90
  C 336.53 106.31 332.07 112.07 335.96 111.50
  Z"
/>
<path fill="none" stroke-width="1.00" stroke="#f4f4f4" vector-effect="non-scaling-stroke" d="
  M 209.50 109.96
  Q 208.11 110.05 207.25 108.96
  L 201.96 91.25
  Q 202.13 87.91 204.52 89.01
  A 1.10 0.99 -86.9 0 1 205.09 89.72
  L 209.81 107.28
  Q 209.91 107.67 210.30 108.10
  Q 211.27 109.18 209.50 109.96
  Z"
/>
<path fill="none" stroke-width="1.00" stroke="#f4f4f4" vector-effect="non-scaling-stroke" d="
  M 201.96 91.25
  L 207.25 108.96
  Q 204.77 113.30 207.29 116.74
  L 204.00 117.48
  Q 200.47 118.27 200.99 115.51
  L 201.80 111.21
  L 200.29 91.00
  Q 200.93 89.84 199.50 89.54
  Q 202.09 88.40 201.96 91.25
  Z"
/>
<path fill="none" stroke-width="1.00" stroke="#f4f4f4" vector-effect="non-scaling-stroke" d="
  M 120.46 89.75
  Q 123.05 93.34 124.23 97.54
  C 125.07 100.50 124.11 103.45 123.71 106.50
  L 123.04 106.50
  Q 121.37 99.79 121.50 98.25
  Q 121.86 94.08 120.21 90.25
  L 120.46 89.75
  Z"
/>
<path fill="none" stroke-width="1.00" stroke="#f4f4f4" vector-effect="non-scaling-stroke" d="
  M 476.15 118.13
  Q 476.43 118.60 476.10 118.92
  A 1.14 0.65 19.1 0 1 475.20 119.09
  C 470.06 118.25 467.21 118.97 460.95 116.78
  Q 450.97 113.30 441.35 108.79
  L 465.25 103.74
  A 1.71 1.54 48.0 0 1 466.21 103.84
  C 472.00 106.29 475.00 112.03 476.15 118.13
  Z
  M 464.0242 112.0653
  A 1.15 0.89 84.8 0 0 464.8063 110.8393
  A 1.15 0.89 84.8 0 0 463.8158 109.7747
  A 1.15 0.89 84.8 0 0 463.0337 111.0007
  A 1.15 0.89 84.8 0 0 464.0242 112.0653
  Z
  M 468.85 110.57
  Q 468.78 110.12 468.25 110.02
  A 0.57 0.52 -79.9 0 0 467.64 110.49
  Q 467.37 112.02 468.41 111.36
  A 0.93 0.73 -22.9 0 0 468.85 110.57
  Z"
/>
<path fill="none" stroke-width="1.00" stroke="#f4f4f4" vector-effect="non-scaling-stroke" d="
  M 73.54 147.50
  L 75.28 144.73
  Q 75.59 144.23 75.93 144.02
  Q 77.75 142.92 78.96 141.16
  A 1.11 1.01 12.7 0 1 79.74 140.72
  Q 80.24 140.67 80.48 140.49
  Q 86.41 136.23 92.53 132.22
  A 0.95 0.63 -25.5 0 0 92.99 131.46
  L 92.71 129.50
  Q 101.17 119.37 100.54 106.00
  Q 100.79 105.13 101.55 104.57
  A 0.76 0.63 41.6 0 1 102.36 104.60
  L 104.16 105.81
  A 1.41 1.09 15.3 0 1 104.72 106.55
  C 106.79 115.20 105.20 125.69 97.80 131.34
  Q 95.79 132.87 93.64 134.19
  C 86.79 138.38 80.20 143.02 73.54 147.50
  Z"
/>
<path fill="none" stroke-width="1.00" stroke="#f4f4f4" vector-effect="non-scaling-stroke" d="
  M 123.04 106.50
  L 123.71 106.50
  Q 124.67 117.92 123.04 106.50
  Z"
/>
<path fill="none" stroke-width="1.00" stroke="#f4f4f4" vector-effect="non-scaling-stroke" d="
  M 346.04 110.00
  Q 346.01 110.49 345.71 110.53
  A 0.55 0.36 85.0 0 1 345.29 110.00
  Q 345.24 109.25 344.78 108.96
  Q 339.85 105.87 337.54 111.00
  L 336.96 112.00
  Q 335.67 114.14 335.96 111.50
  C 337.63 106.45 343.44 104.22 346.04 110.00
  Z"
/>
<path fill="none" stroke-width="1.00" stroke="#f4f4f4" vector-effect="non-scaling-stroke" d="
  M 346.04 110.00
  Q 347.61 113.55 345.84 117.82
  Q 343.43 119.88 340.50 119.50
  Q 337.91 119.16 339.21 117.25
  Q 340.72 113.40 337.54 111.00
  Q 339.85 105.87 344.78 108.96
  Q 345.24 109.25 345.29 110.00
  A 0.55 0.36 85.0 0 0 345.71 110.53
  Q 346.01 110.49 346.04 110.00
  Z"
/>
<path fill="none" stroke-width="1.00" stroke="#f4f4f4" vector-effect="non-scaling-stroke" d="
  M 207.25 108.96
  Q 208.11 110.05 209.50 109.96
  L 231.45 114.52
  L 281.03 124.67
  Q 274.95 126.59 268.79 125.37
  C 259.32 123.50 249.70 122.34 240.14 120.96
  C 237.77 120.62 234.98 120.65 232.21 119.54
  A 0.86 0.72 31.8 0 0 231.35 119.66
  C 227.88 123.04 238.83 122.77 239.34 122.85
  Q 244.29 123.60 249.27 124.20
  Q 251.26 124.44 252.63 124.57
  C 254.16 124.71 255.34 125.52 256.78 125.58
  C 264.64 125.91 271.95 128.21 279.46 128.91
  Q 288.52 129.76 297.48 131.32
  C 299.79 131.72 301.85 132.50 304.13 132.68
  C 307.36 132.93 345.26 137.01 344.50 140.21
  Q 339.07 142.39 334.02 142.01
  Q 328.56 140.75 323.33 139.48
  C 320.68 138.83 317.70 138.81 314.87 138.25
  Q 310.66 137.42 308.56 137.18
  C 303.22 136.55 297.09 135.21 291.30 134.83
  C 286.76 134.54 282.51 133.25 277.98 132.69
  C 272.24 131.97 266.91 130.01 261.03 129.41
  C 259.13 129.22 257.10 128.41 255.04 128.15
  C 250.98 127.64 246.92 126.66 244.50 126.53
  Q 235.56 126.03 229.03 124.63
  C 223.97 123.54 219.50 123.01 214.77 121.93
  C 213.53 121.65 212.67 121.96 213.50 123.46
  Q 211.27 122.79 209.50 124.04
  Q 209.41 122.18 210.80 120.99
  A 1.05 0.84 -26.3 0 0 211.17 120.19
  Q 210.93 117.08 207.29 116.74
  Q 204.77 113.30 207.25 108.96
  Z"
/>
<ellipse fill="none" stroke-width="1.00" stroke="#f4f4f4" vector-effect="non-scaling-stroke" cx="0.00" cy="0.00" transform="translate(463.92,110.92) rotate(84.8)" rx="1.15" ry="0.89"/>
<path fill="none" stroke-width="1.00" stroke="#f4f4f4" vector-effect="non-scaling-stroke" d="
  M 468.41 111.36
  Q 467.37 112.02 467.64 110.49
  A 0.57 0.52 -79.9 0 1 468.25 110.02
  Q 468.78 110.12 468.85 110.57
  A 0.93 0.73 -22.9 0 1 468.41 111.36
  Z"
/>
<path fill="none" stroke-width="1.00" stroke="#f4f4f4" vector-effect="non-scaling-stroke" d="
  M 337.54 111.00
  Q 340.72 113.40 339.21 117.25
  Q 335.68 116.92 337.47 114.16
  A 0.60 0.52 39.1 0 0 337.35 113.46
  Q 336.81 112.92 336.96 112.00
  L 337.54 111.00
  Z"
/>
<path fill="none" stroke-width="1.00" stroke="#f4f4f4" vector-effect="non-scaling-stroke" d="
  M 201.80 111.21
  L 200.99 115.51
  Q 200.47 118.27 204.00 117.48
  L 207.29 116.74
  Q 210.93 117.08 211.17 120.19
  A 1.05 0.84 -26.3 0 1 210.80 120.99
  Q 209.41 122.18 209.50 124.04
  C 206.69 134.09 206.67 145.67 208.46 153.77
  Q 209.51 158.52 205.32 158.53
  Q 186.12 153.63 175.99 151.28
  Q 174.70 150.97 174.00 150.46
  L 173.96 150.00
  Q 174.27 149.11 174.84 148.33
  Q 187.11 131.74 199.80 115.46
  A 1.36 1.17 65.1 0 0 200.05 114.57
  Q 199.87 112.25 201.80 111.21
  Z"
/>
<path fill="none" stroke-width="1.00" stroke="#f4f4f4" vector-effect="non-scaling-stroke" d="
  M 368.88 113.03
  Q 367.34 117.34 364.29 122.20
  L 362.00 125.71
  L 357.50 132.46
  L 355.50 132.46
  L 365.23 118.05
  L 368.88 113.03
  Z"
/>
<path fill="none" stroke-width="1.00" stroke="#f4f4f4" vector-effect="non-scaling-stroke" d="
  M 281.03 124.67
  C 304.13 129.28 327.17 134.16 350.32 138.57
  L 344.50 140.21
  C 345.26 137.01 307.36 132.93 304.13 132.68
  C 301.85 132.50 299.79 131.72 297.48 131.32
  Q 288.52 129.76 279.46 128.91
  C 271.95 128.21 264.64 125.91 256.78 125.58
  C 255.34 125.52 254.16 124.71 252.63 124.57
  Q 251.26 124.44 249.27 124.20
  Q 244.29 123.60 239.34 122.85
  C 238.83 122.77 227.88 123.04 231.35 119.66
  A 0.86 0.72 31.8 0 1 232.21 119.54
  C 234.98 120.65 237.77 120.62 240.14 120.96
  C 249.70 122.34 259.32 123.50 268.79 125.37
  Q 274.95 126.59 281.03 124.67
  Z"
/>
<path fill="none" stroke-width="1.00" stroke="#f4f4f4" vector-effect="non-scaling-stroke" d="
  M 334.02 142.01
  Q 326.48 143.41 322.50 142.75
  Q 305.28 139.90 213.50 123.46
  C 212.67 121.96 213.53 121.65 214.77 121.93
  C 219.50 123.01 223.97 123.54 229.03 124.63
  Q 235.56 126.03 244.50 126.53
  C 246.92 126.66 250.98 127.64 255.04 128.15
  C 257.10 128.41 259.13 129.22 261.03 129.41
  C 266.91 130.01 272.24 131.97 277.98 132.69
  C 282.51 133.25 286.76 134.54 291.30 134.83
  C 297.09 135.21 303.22 136.55 308.56 137.18
  Q 310.66 137.42 314.87 138.25
  C 317.70 138.81 320.68 138.83 323.33 139.48
  Q 328.56 140.75 334.02 142.01
  Z"
/>
<path fill="none" stroke-width="1.00" stroke="#f4f4f4" vector-effect="non-scaling-stroke" d="
  M 364.29 122.20
  Q 409.35 135.05 432.76 140.47
  Q 449.40 144.33 460.46 147.84
  A 0.94 0.80 4.6 0 1 461.09 148.47
  C 461.35 149.70 460.83 149.87 459.79 149.58
  Q 441.81 144.43 438.50 143.73
  C 428.95 141.70 417.17 138.14 410.24 136.35
  Q 387.99 130.59 365.75 124.80
  A 1.97 1.56 -40.8 0 0 364.80 124.84
  L 362.00 125.71
  L 364.29 122.20
  Z"
/>
<path fill="none" stroke-width="1.00" stroke="#f4f4f4" vector-effect="non-scaling-stroke" d="
  M 92.71 129.50
  L 92.99 131.46
  A 0.95 0.63 -25.5 0 1 92.53 132.22
  Q 86.41 136.23 80.48 140.49
  Q 80.24 140.67 79.74 140.72
  A 1.11 1.01 12.7 0 0 78.96 141.16
  Q 77.75 142.92 75.93 144.02
  Q 75.59 144.23 75.28 144.73
  L 73.54 147.50
  Q 61.75 156.38 51.31 166.82
  C 47.98 170.16 45.24 174.43 42.41 177.62
  Q 31.24 190.20 22.75 204.79
  C 20.79 205.49 21.68 202.55 22.03 202.04
  Q 26.24 195.86 30.28 189.51
  C 31.02 188.36 30.64 187.24 29.04 188.50
  Q 52.43 156.43 84.69 135.69
  Q 89.93 132.32 92.71 129.50
  Z"
/>
<path fill="none" stroke-width="1.00" stroke="#f4f4f4" vector-effect="non-scaling-stroke" d="
  M 357.50 132.46
  C 370.11 135.66 382.87 138.62 395.37 142.18
  C 402.86 144.32 410.32 145.69 419.75 147.97
  Q 450.08 155.32 470.04 161.20
  Q 466.63 162.56 464.49 162.03
  Q 409.41 148.27 354.28 134.51
  Q 354.26 133.41 355.50 132.46
  L 357.50 132.46
  Z"
/>
<path fill="none" stroke-width="1.00" stroke="#f4f4f4" vector-effect="non-scaling-stroke" d="
  M 172.25 150.71
  Q 166.93 153.35 165.13 159.00
  A 0.79 0.70 4.2 0 1 164.49 159.49
  Q 163.33 159.63 163.26 160.77
  A 1.20 0.96 76.3 0 1 162.89 161.57
  Q 160.94 163.16 159.92 165.56
  A 1.23 1.02 -2.2 0 1 159.26 166.15
  Q 157.91 166.65 157.89 168.13
  A 1.24 1.02 73.2 0 1 157.54 168.97
  C 154.04 172.11 151.85 176.70 149.50 179.70
  Q 145.87 184.32 139.00 193.50
  Q 138.35 194.38 138.14 195.04
  Q 137.95 195.65 137.72 195.92
  Q 128.62 206.97 121.22 219.21
  Q 115.59 226.65 110.37 234.37
  C 107.74 238.25 107.55 246.53 106.88 251.23
  Q 106.68 249.85 106.15 249.95
  Q 105.30 250.10 105.23 250.08
  C 103.21 249.48 101.99 248.05 102.00 245.82
  C 102.03 236.48 105.31 229.05 111.45 222.08
  C 113.91 219.28 116.23 215.40 119.47 212.68
  A 1.65 1.58 -13.7 0 0 119.99 211.87
  Q 120.42 210.32 120.71 209.95
  Q 129.77 198.24 138.75 186.47
  C 140.50 184.18 141.32 182.30 144.15 181.07
  A 1.83 1.49 0.1 0 0 144.89 180.47
  Q 146.16 178.57 147.10 176.50
  C 148.25 173.95 150.17 172.24 151.39 169.77
  Q 152.38 167.78 153.23 166.72
  Q 159.92 158.33 166.13 149.57
  Q 166.33 149.28 166.89 149.02
  Q 167.41 148.78 167.49 148.24
  A 1.34 0.26 -85.3 0 1 167.75 147.32
  L 170.03 144.69
  A 1.22 0.96 16.9 0 1 170.90 144.35
  Q 172.41 144.38 173.57 145.22
  A 0.77 0.68 28.0 0 1 173.87 146.03
  L 172.25 150.71
  Z"
/>
<path fill="none" stroke-width="1.00" stroke="#f4f4f4" vector-effect="non-scaling-stroke" d="
  M 173.96 150.00
  L 174.00 150.46
  Q 172.19 150.70 172.04 152.25
  L 121.22 219.21
  Q 128.62 206.97 137.72 195.92
  Q 137.95 195.65 138.14 195.04
  Q 138.35 194.38 139.00 193.50
  Q 145.87 184.32 149.50 179.70
  C 151.85 176.70 154.04 172.11 157.54 168.97
  A 1.24 1.02 73.2 0 0 157.89 168.13
  Q 157.91 166.65 159.26 166.15
  A 1.23 1.02 -2.2 0 0 159.92 165.56
  Q 160.94 163.16 162.89 161.57
  A 1.20 0.96 76.3 0 0 163.26 160.77
  Q 163.33 159.63 164.49 159.49
  A 0.79 0.70 4.2 0 0 165.13 159.00
  Q 166.93 153.35 172.25 150.71
  L 173.96 150.00
  Z"
/>
<path fill="none" stroke-width="1.00" stroke="#f4f4f4" vector-effect="non-scaling-stroke" d="
  M 174.00 150.46
  Q 174.70 150.97 175.99 151.28
  Q 186.12 153.63 205.32 158.53
  Q 202.68 159.80 200.50 159.25
  Q 186.29 155.69 172.04 152.25
  Q 172.19 150.70 174.00 150.46
  Z"
/>
<ellipse fill="none" stroke-width="1.00" stroke="#f4f4f4" vector-effect="non-scaling-stroke" cx="0.00" cy="0.00" transform="translate(467.34,153.00) rotate(89.9)" rx="1.03" ry="0.64"/>
<path fill="none" stroke-width="1.00" stroke="#f4f4f4" vector-effect="non-scaling-stroke" d="
  M 76.61 162.99
  Q 77.90 162.45 77.20 163.75
  A 0.64 0.49 -61.2 0 1 76.46 164.08
  Q 76.21 163.95 76.17 163.66
  A 0.71 0.57 -17.9 0 1 76.61 162.99
  Z"
/>
<path fill="none" stroke-width="1.00" stroke="#f4f4f4" vector-effect="non-scaling-stroke" d="
  M 69.73 168.02
  C 69.93 166.36 74.12 169.79 70.21 168.64
  A 0.67 0.55 12.5 0 1 69.73 168.02
  Z"
/>
<path fill="none" stroke-width="1.00" stroke="#f4f4f4" vector-effect="non-scaling-stroke" d="
  M 63.96 174.05
  C 64.55 174.21 68.31 174.75 68.50 175.03
  Q 68.80 175.48 68.20 175.43
  Q 65.44 175.20 63.00 176.53
  A 0.35 0.33 -18.2 0 1 62.49 176.29
  Q 62.37 175.10 63.12 174.27
  A 0.87 0.77 26.8 0 1 63.96 174.05
  Z"
/>
<path fill="none" stroke-width="1.00" stroke="#f4f4f4" vector-effect="non-scaling-stroke" d="
  M 57.39 180.94
  C 58.07 179.43 61.11 180.72 60.28 181.83
  A 1.01 0.84 17.2 0 1 59.44 182.18
  Q 58.54 182.13 57.66 181.66
  A 0.58 0.54 26.6 0 1 57.39 180.94
  Z"
/>
<path fill="none" stroke-width="1.00" stroke="#f4f4f4" vector-effect="non-scaling-stroke" d="
  M 56.31 187.63
  Q 57.03 187.60 57.64 187.98
  Q 58.10 188.26 57.55 188.36
  C 55.89 188.66 51.51 189.70 51.90 187.57
  A 0.73 0.68 1.4 0 1 52.53 187.01
  Q 54.04 186.86 55.38 187.47
  Q 55.77 187.64 56.31 187.63
  Z"
/>
<path fill="none" stroke-width="1.00" stroke="#f4f4f4" vector-effect="non-scaling-stroke" d="
  M 22.75 204.79
  C 16.05 216.04 9.77 231.41 12.46 244.72
  A 1.28 1.28 87.7 0 1 11.06 246.24
  Q 9.21 246.02 9.22 247.57
  A 0.70 0.61 8.6 0 0 9.74 248.18
  Q 13.07 249.06 11.25 252.05
  A 1.07 0.74 -48.0 0 0 11.13 252.95
  Q 11.54 253.81 12.75 253.71
  L 4.75 254.26
  Q 2.59 254.40 2.62 252.12
  C 2.68 247.72 4.30 242.92 5.09 239.56
  Q 10.27 217.64 22.67 198.87
  A 1.32 0.51 76.2 0 0 22.78 197.99
  L 22.71 197.25
  L 29.04 188.50
  C 30.64 187.24 31.02 188.36 30.28 189.51
  Q 26.24 195.86 22.03 202.04
  C 21.68 202.55 20.79 205.49 22.75 204.79
  Z"
/>
<path fill="none" stroke-width="1.00" stroke="#f4f4f4" vector-effect="non-scaling-stroke" d="
  M 52.06 194.78
  Q 53.02 195.10 52.07 195.44
  C 48.51 196.73 44.60 192.26 52.06 194.78
  Z"
/>
<path fill="none" stroke-width="1.00" stroke="#f4f4f4" vector-effect="non-scaling-stroke" d="
  M 22.71 197.25
  L 22.78 197.99
  A 1.32 0.51 76.2 0 1 22.67 198.87
  Q 10.27 217.64 5.09 239.56
  C 4.30 242.92 2.68 247.72 2.62 252.12
  Q 2.59 254.40 4.75 254.26
  L 12.75 253.71
  Q 17.12 253.03 20.75 255.21
  L 15.88 256.07
  Q 13.84 254.89 11.68 256.01
  A 1.20 1.17 -48.8 0 1 10.78 256.08
  Q 8.15 255.19 5.50 255.79
  C 1.14 256.00 0.43 253.43 1.11 249.69
  Q 6.27 221.16 22.71 197.25
  Z"
/>
<path fill="none" stroke-width="1.00" stroke="#f4f4f4" vector-effect="non-scaling-stroke" d="
  M 43.79 201.56
  C 42.99 199.79 48.33 201.70 48.14 202.12
  A 0.82 0.57 2.5 0 1 47.57 202.48
  Q 46.00 202.73 44.51 202.19
  A 1.33 1.10 1.6 0 1 43.79 201.56
  Z"
/>
<path fill="none" stroke-width="1.00" stroke="#f4f4f4" vector-effect="non-scaling-stroke" d="
  M 30.94 207.44
  Q 31.49 206.43 31.92 207.34
  A 1.02 0.81 -46.8 0 1 31.85 208.23
  Q 25.26 219.71 21.70 232.43
  Q 21.28 233.90 20.38 233.64
  A 0.58 0.49 -73.6 0 1 20.07 232.95
  Q 23.85 220.44 30.94 207.44
  Z"
/>
<path fill="none" stroke-width="1.00" stroke="#f4f4f4" vector-effect="non-scaling-stroke" d="
  M 40.24 208.78
  C 37.09 206.88 46.06 208.47 45.72 209.24
  A 0.64 0.39 3.9 0 1 45.19 209.51
  Q 41.78 209.71 40.24 208.78
  Z"
/>
<ellipse fill="none" stroke-width="1.00" stroke="#f4f4f4" vector-effect="non-scaling-stroke" cx="0.00" cy="0.00" transform="translate(38.12,215.59) rotate(13.3)" rx="2.53" ry="0.76"/>
<path fill="none" stroke-width="1.00" stroke="#f4f4f4" vector-effect="non-scaling-stroke" d="
  M 33.64 221.99
  Q 35.31 221.39 36.65 222.64
  A 0.42 0.41 49.2 0 1 36.61 223.29
  Q 34.34 224.86 33.37 222.65
  A 0.49 0.48 67.6 0 1 33.64 221.99
  Z"
/>
<ellipse fill="none" stroke-width="1.00" stroke="#f4f4f4" vector-effect="non-scaling-stroke" cx="0.00" cy="0.00" transform="translate(32.13,229.96) rotate(4.2)" rx="2.25" ry="0.89"/>
<path fill="none" stroke-width="1.00" stroke="#f4f4f4" vector-effect="non-scaling-stroke" d="
  M 32.21 236.50
  Q 31.14 235.14 29.50 235.96
  C 27.98 232.28 34.78 233.21 32.21 236.50
  Z"
/>
<path fill="none" stroke-width="1.00" stroke="#f4f4f4" vector-effect="non-scaling-stroke" d="
  M 32.21 236.50
  Q 32.83 238.81 30.01 238.20
  Q 26.56 237.46 29.50 235.96
  Q 31.14 235.14 32.21 236.50
  Z"
/>
<path fill="none" stroke-width="1.00" stroke="#f4f4f4" vector-effect="non-scaling-stroke" d="
  M 29.71 246.00
  Q 28.45 245.42 27.25 246.04
  Q 25.52 245.55 27.05 244.47
  A 0.82 0.80 -22.4 0 0 27.38 243.70
  Q 26.87 240.45 30.07 242.30
  A 0.68 0.67 -68.6 0 1 30.39 243.05
  L 29.71 246.00
  Z"
/>
<path fill="none" stroke-width="1.00" stroke="#f4f4f4" vector-effect="non-scaling-stroke" d="
  M 29.71 246.00
  L 28.64 251.33
  A 0.86 0.62 -86.9 0 1 28.12 251.98
  Q 27.36 252.14 26.77 251.61
  A 0.73 0.60 -57.3 0 1 26.67 250.80
  Q 27.76 248.53 27.25 246.04
  Q 28.45 245.42 29.71 246.00
  Z"
/>
<path fill="none" stroke-width="1.00" stroke="#f4f4f4" vector-effect="non-scaling-stroke" d="
  M 15.88 256.07
  Q 19.96 256.56 18.85 259.96
  L 5.50 255.79
  Q 8.15 255.19 10.78 256.08
  A 1.20 1.17 -48.8 0 0 11.68 256.01
  Q 13.84 254.89 15.88 256.07
  Z"
/>
<path fill="none" stroke-width="1.00" stroke="#f4f4f4" vector-effect="non-scaling-stroke" d="
  M 20.75 255.21
  Q 27.87 255.67 34.70 257.35
  L 41.87 259.77
  Q 38.85 260.85 35.95 259.67
  A 1.38 1.07 40.3 0 0 35.01 259.63
  Q 32.56 260.61 34.48 262.85
  L 32.10 278.83
  A 0.66 0.57 -84.4 0 1 31.51 279.39
  L 19.29 279.27
  A 0.54 0.53 90.0 0 1 18.76 278.73
  L 18.85 259.96
  Q 19.96 256.56 15.88 256.07
  L 20.75 255.21
  Z
  M 26.39 258.67
  C 23.37 257.09 23.38 265.96 23.53 267.01
  C 24.02 270.44 23.25 273.39 23.87 276.74
  A 0.89 0.83 -86.5 0 0 24.43 277.42
  Q 26.40 278.12 26.68 275.94
  Q 27.67 268.19 29.05 262.27
  C 29.41 260.72 29.38 258.80 27.31 258.89
  Q 26.84 258.91 26.39 258.67
  Z"
/>
<path fill="none" stroke-width="1.00" stroke="#f4f4f4" vector-effect="non-scaling-stroke" d="
  M 57.36 261.78
  Q 54.45 262.82 51.75 262.54
  L 50.46 262.49
  A 1.03 0.81 68.5 0 1 49.74 262.07
  Q 49.27 261.44 48.39 261.88
  A 0.98 0.82 -40.1 0 1 47.53 261.88
  Q 44.78 260.29 41.87 259.77
  L 34.70 257.35
  Q 35.95 256.45 37.76 256.76
  Q 48.44 258.61 57.36 261.78
  Z"
/>
<path fill="none" stroke-width="1.00" stroke="#f4f4f4" vector-effect="non-scaling-stroke" d="
  M 27.31 258.89
  C 29.38 258.80 29.41 260.72 29.05 262.27
  Q 27.67 268.19 26.68 275.94
  Q 26.40 278.12 24.43 277.42
  A 0.89 0.83 -86.5 0 1 23.87 276.74
  C 23.25 273.39 24.02 270.44 23.53 267.01
  C 23.38 265.96 23.37 257.09 26.39 258.67
  Q 26.84 258.91 27.31 258.89
  Z"
/>
<path fill="none" stroke-width="1.00" stroke="#f4f4f4" vector-effect="non-scaling-stroke" d="
  M 41.87 259.77
  Q 44.78 260.29 47.53 261.88
  A 0.98 0.82 -40.1 0 0 48.39 261.88
  Q 49.27 261.44 49.74 262.07
  A 1.03 0.81 68.5 0 0 50.46 262.49
  L 51.75 262.54
  Q 43.46 263.30 34.48 262.85
  Q 32.56 260.61 35.01 259.63
  A 1.38 1.07 40.3 0 1 35.95 259.67
  Q 38.85 260.85 41.87 259.77
  Z"
/>
</svg>
