<?xml version="1.0" encoding="UTF-8" standalone="no"?>
<svg xmlns="http://www.w3.org/2000/svg" version="1.2" baseProfile="tiny" viewBox="0 0 450 450">
<path fill="none" stroke-width="1.00" stroke="#f4f4f4" vector-effect="non-scaling-stroke" d="
  M 281.50 99.71
  Q 279.72 98.77 278.66 99.65
  Q 273.16 97.19 267.25 96.96
  Q 263.91 95.80 260.39 95.98
  C 257.73 96.11 255.31 95.00 252.54 95.02
  Q 246.66 95.04 233.75 94.57
  Q 212.54 93.78 187.21 96.25
  Q 179.84 96.97 172.78 99.22
  Q 171.62 99.59 172.67 100.09
  Q 176.40 101.88 180.50 102.29
  L 183.75 102.96
  Q 181.66 104.09 179.25 103.46
  Q 174.62 103.12 170.79 101.16
  A 0.99 0.89 -76.1 0 0 169.48 102.04
  L 169.29 105.50
  C 167.73 98.37 172.88 96.99 178.24 95.97
  Q 188.89 93.93 201.99 93.26
  C 212.45 92.72 277.16 91.37 281.50 99.71
  Z"
/>
<path fill="none" stroke-width="1.00" stroke="#f4f4f4" vector-effect="non-scaling-stroke" d="
  M 267.25 96.96
  Q 266.32 96.90 265.81 97.52
  A 0.57 0.52 38.3 0 0 265.93 98.28
  Q 267.01 99.15 268.51 99.02
  A 0.61 0.60 -10.7 0 1 269.14 99.44
  Q 269.71 101.35 271.50 101.96
  L 262.75 103.71
  L 255.00 104.29
  L 250.79 104.05
  A 1.13 1.07 -15.4 0 1 249.96 103.61
  L 249.16 102.54
  A 1.53 0.89 67.7 0 0 248.43 101.98
  C 238.84 99.31 233.13 97.58 224.97 97.56
  C 220.28 97.55 215.07 99.05 209.98 99.45
  A 1.92 1.67 -61.8 0 0 209.08 99.79
  Q 206.50 101.67 203.27 102.14
  A 1.13 1.13 -75.5 0 0 202.49 102.60
  Q 201.33 104.19 199.50 104.71
  L 197.25 104.54
  L 183.75 102.96
  L 180.50 102.29
  Q 182.62 102.40 182.89 100.44
  A 0.93 0.73 -11.7 0 1 183.41 99.82
  L 187.00 98.20
  A 0.99 0.92 81.7 0 0 187.53 97.43
  Q 187.59 96.82 187.21 96.25
  Q 212.54 93.78 233.75 94.57
  Q 246.66 95.04 252.54 95.02
  C 255.31 95.00 257.73 96.11 260.39 95.98
  Q 263.91 95.80 267.25 96.96
  Z"
/>
<path fill="none" stroke-width="1.00" stroke="#f4f4f4" vector-effect="non-scaling-stroke" d="
  M 187.21 96.25
  Q 187.59 96.82 187.53 97.43
  A 0.99 0.92 81.7 0 1 187.00 98.20
  L 183.41 99.82
  A 0.93 0.73 -11.7 0 0 182.89 100.44
  Q 182.62 102.40 180.50 102.29
  Q 176.40 101.88 172.67 100.09
  Q 171.62 99.59 172.78 99.22
  Q 179.84 96.97 187.21 96.25
  Z"
/>
<path fill="none" stroke-width="1.00" stroke="#f4f4f4" vector-effect="non-scaling-stroke" d="
  M 267.25 96.96
  Q 273.16 97.19 278.66 99.65
  Q 275.44 102.22 271.50 101.96
  Q 269.71 101.35 269.14 99.44
  A 0.61 0.60 -10.7 0 0 268.51 99.02
  Q 267.01 99.15 265.93 98.28
  A 0.57 0.52 38.3 0 1 265.81 97.52
  Q 266.32 96.90 267.25 96.96
  Z"
/>
<path fill="none" stroke-width="1.00" stroke="#f4f4f4" vector-effect="non-scaling-stroke" d="
  M 153.54 334.00
  L 154.04 334.50
  C 154.72 337.70 155.95 339.47 159.42 340.14
  C 162.07 340.64 164.71 341.62 167.23 342.11
  Q 174.56 343.52 181.81 345.27
  Q 185.86 346.25 189.80 346.25
  Q 227.47 346.29 265.13 346.20
  Q 271.12 346.19 276.64 345.14
  Q 292.14 342.18 299.21 339.66
  C 305.27 337.50 305.47 329.85 303.28 324.94
  Q 299.47 316.36 295.80 307.74
  Q 294.51 304.71 290.79 305.00
  L 289.71 303.25
  C 287.98 302.87 287.02 302.07 287.01 300.16
  C 286.99 294.61 288.04 286.06 285.92 280.99
  Q 284.35 277.20 281.93 272.74
  Q 281.28 271.55 280.04 272.75
  C 278.80 268.57 275.88 268.39 274.16 265.30
  A 0.94 0.88 76.0 0 0 273.43 264.83
  Q 266.94 264.37 260.50 265.29
  Q 251.77 261.60 245.50 254.46
  L 243.46 252.00
  Q 244.05 250.11 243.24 248.44
  Q 243.09 248.13 242.58 247.75
  Q 241.86 247.21 241.75 246.21
  C 241.06 242.83 239.12 237.74 240.46 234.50
  Q 239.93 238.51 241.54 242.01
  Q 241.77 242.52 241.76 241.95
  Q 241.74 240.86 241.36 239.85
  C 240.49 237.48 240.52 236.01 241.77 233.97
  A 1.74 1.36 -2.3 0 1 242.50 233.35
  Q 248.30 230.78 252.82 226.33
  C 253.95 225.22 255.07 224.81 256.31 223.81
  C 259.31 221.39 259.58 217.77 264.48 221.32
  C 270.95 226.01 281.35 222.10 282.04 213.79
  C 282.26 211.16 279.97 208.51 283.02 206.02
  A 1.65 1.25 84.7 0 0 283.51 205.23
  Q 283.76 204.27 284.67 203.42
  Q 286.33 201.87 291.30 194.71
  L 302.48 181.45
  Q 302.81 181.06 302.95 180.60
  Q 303.30 179.38 304.16 178.55
  Q 306.04 176.74 306.11 176.65
  Q 311.20 169.96 316.23 163.24
  Q 318.92 159.64 321.05 157.83
  C 322.69 156.45 322.96 154.24 324.45 152.53
  Q 326.82 149.79 328.34 146.44
  Q 328.56 145.98 328.11 146.25
  C 325.15 148.09 324.07 152.04 321.29 154.50
  C 322.65 151.89 323.68 149.57 325.50 146.96
  Q 327.80 143.64 329.00 139.75
  Q 332.65 134.77 333.00 128.54
  Q 337.11 114.77 326.75 105.57
  L 320.79 100.75
  L 316.19 98.56
  Q 319.19 96.87 322.39 98.43
  A 1.43 0.75 79.8 0 1 322.95 99.15
  Q 323.21 99.83 324.00 99.81
  A 1.79 0.82 -14.2 0 1 324.92 99.98
  C 331.36 103.54 335.80 111.29 336.95 118.30
  Q 337.79 123.45 336.00 131.06
  Q 334.24 138.59 331.82 143.31
  C 330.53 145.83 327.26 150.51 325.08 154.34
  Q 323.91 156.40 322.15 158.02
  C 320.36 159.68 319.38 161.42 318.05 163.27
  C 317.59 163.92 316.33 164.68 316.08 165.77
  A 1.75 1.21 83.5 0 1 315.63 166.61
  C 312.90 169.11 310.83 172.76 308.99 175.00
  C 303.63 181.50 297.78 187.92 293.02 194.86
  C 290.94 197.90 288.56 199.89 286.56 203.23
  Q 285.37 205.22 283.75 206.88
  A 1.12 1.07 -27.0 0 0 283.45 207.74
  Q 283.94 212.40 283.35 217.01
  A 1.73 1.63 -22.9 0 1 282.96 217.89
  C 281.47 219.66 280.56 221.76 278.52 222.83
  Q 270.38 227.09 263.05 220.95
  Q 261.04 219.28 259.97 221.24
  Q 258.54 223.87 256.28 225.78
  Q 250.33 230.80 243.46 234.46
  Q 241.30 235.61 241.89 237.98
  Q 243.46 244.21 247.27 250.02
  Q 250.61 255.11 252.51 256.56
  L 260.33 262.50
  A 1.58 0.45 0.8 0 0 261.24 262.77
  Q 262.15 262.88 262.17 263.92
  A 0.53 0.49 -89.5 0 0 262.64 264.44
  Q 267.00 264.53 271.29 264.51
  C 273.61 264.50 276.76 262.80 279.02 264.43
  Q 283.65 267.77 286.80 273.68
  C 288.11 276.12 290.30 283.37 290.25 286.39
  Q 290.13 293.55 290.52 300.69
  A 1.21 1.06 -73.5 0 0 290.91 301.53
  Q 292.25 302.67 294.02 302.73
  A 1.21 0.96 -14.4 0 1 294.85 303.10
  Q 296.60 305.21 298.26 309.74
  Q 299.23 312.41 303.74 321.80
  C 306.19 326.90 306.00 331.88 305.34 337.26
  A 1.43 1.36 72.5 0 1 304.93 338.10
  Q 302.27 340.69 298.98 341.44
  Q 287.63 344.02 276.23 346.52
  Q 271.72 347.51 267.09 347.51
  Q 231.46 347.49 191.62 347.50
  C 189.23 347.50 186.92 346.46 184.20 346.75
  A 1.51 1.37 55.2 0 1 183.30 346.54
  Q 181.34 345.34 178.97 345.74
  A 0.62 0.57 73.2 0 1 178.33 345.36
  C 177.92 344.33 165.46 342.79 163.57 342.13
  Q 161.01 341.26 158.36 340.73
  C 155.85 340.23 154.59 339.23 152.67 337.79
  A 1.24 1.05 19.9 0 1 152.21 336.99
  Q 152.05 335.19 153.54 334.00
  Z"
/>
<path fill="none" stroke-width="1.00" stroke="#f4f4f4" vector-effect="non-scaling-stroke" d="
  M 255.00 104.29
  Q 250.02 104.87 245.00 104.98
  Q 222.24 105.48 199.50 104.71
  Q 201.33 104.19 202.49 102.60
  A 1.13 1.13 -75.5 0 1 203.27 102.14
  Q 206.50 101.67 209.08 99.79
  A 1.92 1.67 -61.8 0 1 209.98 99.45
  C 215.07 99.05 220.28 97.55 224.97 97.56
  C 233.13 97.58 238.84 99.31 248.43 101.98
  A 1.53 0.89 67.7 0 1 249.16 102.54
  L 249.96 103.61
  A 1.13 1.07 -15.4 0 0 250.79 104.05
  L 255.00 104.29
  Z"
/>
<path fill="none" stroke-width="1.00" stroke="#f4f4f4" vector-effect="non-scaling-stroke" d="
  M 149.25 100.29
  Q 155.10 103.66 153.21 110.25
  L 152.25 111.54
  L 148.50 113.29
  L 145.79 113.25
  Q 143.47 111.91 142.50 109.46
  L 142.54 109.25
  Q 142.76 107.20 144.15 104.76
  Q 140.85 102.15 137.00 104.46
  Q 128.95 106.66 127.75 115.04
  L 126.25 117.93
  Q 126.24 117.95 125.61 118.56
  Q 125.40 118.76 125.39 119.02
  A 0.58 0.45 86.6 0 1 125.02 119.56
  Q 122.87 119.99 123.21 122.50
  Q 120.88 107.83 132.94 99.49
  Q 141.20 95.85 149.25 100.29
  Z"
/>
<path fill="none" stroke-width="1.00" stroke="#f4f4f4" vector-effect="non-scaling-stroke" d="
  M 316.19 98.56
  L 320.79 100.75
  L 320.55 101.52
  A 0.98 0.66 35.9 0 0 320.86 102.36
  Q 329.35 110.50 327.76 122.52
  Q 327.65 123.33 328.16 122.69
  Q 329.77 120.64 330.21 117.75
  Q 330.50 121.17 329.71 124.50
  L 327.87 124.48
  A 0.48 0.44 -84.9 0 1 327.45 123.93
  Q 328.21 118.28 323.42 115.45
  A 0.57 0.57 9.7 0 1 323.15 115.07
  Q 322.88 113.71 322.71 115.50
  L 322.46 114.00
  L 321.25 110.96
  L 320.71 109.75
  L 319.75 108.46
  Q 318.43 106.14 315.79 105.50
  Q 313.95 104.34 311.75 104.21
  Q 305.85 102.64 307.24 106.64
  Q 309.35 111.19 305.00 113.29
  C 303.75 114.28 301.97 112.14 302.29 114.25
  Q 300.82 120.65 296.25 125.29
  C 291.41 127.23 295.26 121.71 292.73 123.50
  C 290.67 124.97 282.11 131.08 281.38 129.27
  A 0.79 0.59 -31.9 0 1 281.69 128.47
  C 282.97 127.50 285.76 126.70 285.21 124.75
  L 285.25 124.54
  Q 293.48 120.25 298.53 112.53
  A 0.86 0.86 -51.8 0 0 298.40 111.44
  Q 295.35 108.61 297.28 104.74
  C 300.64 97.99 309.55 97.06 316.19 98.56
  Z"
/>
<path fill="none" stroke-width="1.00" stroke="#f4f4f4" vector-effect="non-scaling-stroke" d="
  M 163.46 123.25
  Q 157.19 119.61 152.96 113.75
  L 153.21 110.25
  Q 155.10 103.66 149.25 100.29
  Q 151.46 100.20 149.84 99.02
  Q 149.38 98.69 149.91 98.62
  C 152.00 98.34 156.33 102.26 157.59 103.53
  Q 158.94 104.90 159.25 107.02
  Q 159.89 111.36 160.17 115.78
  A 1.35 1.23 -71.6 0 0 160.55 116.64
  L 164.58 120.47
  Q 164.86 120.73 165.10 121.29
  Q 165.51 122.27 166.71 122.07
  A 0.84 0.70 -20.4 0 1 167.49 122.34
  Q 168.80 124.10 166.83 124.00
  A 1.55 1.02 58.4 0 1 165.98 123.60
  C 165.55 123.22 163.24 121.58 163.46 123.25
  Z"
/>
<path fill="none" stroke-width="1.00" stroke="#f4f4f4" vector-effect="non-scaling-stroke" d="
  M 281.50 99.71
  L 281.79 100.25
  L 281.72 101.18
  L 267.49 104.54
  A 1.26 1.16 -7.2 0 0 266.52 105.69
  Q 266.49 117.03 265.21 128.50
  Q 263.48 131.10 260.38 130.18
  A 0.71 0.69 -83.2 0 1 259.88 129.53
  C 259.78 126.20 259.73 107.03 257.75 105.71
  L 257.96 105.25
  L 262.57 104.49
  A 1.00 0.51 0.2 0 0 263.20 104.17
  Q 263.44 103.82 262.75 103.71
  L 271.50 101.96
  Q 275.44 102.22 278.66 99.65
  Q 279.72 98.77 281.50 99.71
  Z"
/>
<path fill="none" stroke-width="1.00" stroke="#f4f4f4" vector-effect="non-scaling-stroke" d="
  M 132.94 99.49
  Q 120.88 107.83 123.21 122.50
  L 123.26 125.24
  A 0.91 0.76 78.2 0 1 122.84 126.03
  Q 122.10 126.42 121.54 125.75
  L 120.79 124.50
  Q 119.33 116.59 121.75 110.00
  Q 124.57 102.33 132.94 99.49
  Z"
/>
<path fill="none" stroke-width="1.00" stroke="#f4f4f4" vector-effect="non-scaling-stroke" d="
  M 281.79 100.25
  L 282.35 102.17
  A 0.32 0.29 66.7 0 0 282.79 102.37
  C 284.28 101.48 285.21 103.75 285.20 104.92
  Q 285.10 113.85 285.54 122.83
  A 0.63 0.60 -10.1 0 1 285.08 123.45
  Q 283.30 123.96 285.25 124.54
  L 285.21 124.75
  L 282.31 125.65
  A 0.46 0.38 82.6 0 1 281.81 125.19
  L 281.72 101.18
  L 281.79 100.25
  Z"
/>
<path fill="none" stroke-width="1.00" stroke="#f4f4f4" vector-effect="non-scaling-stroke" d="
  M 320.79 100.75
  L 326.75 105.57
  Q 329.71 111.47 330.21 117.75
  Q 329.77 120.64 328.16 122.69
  Q 327.65 123.33 327.76 122.52
  Q 329.35 110.50 320.86 102.36
  A 0.98 0.66 35.9 0 1 320.55 101.52
  L 320.79 100.75
  Z"
/>
<path fill="none" stroke-width="1.00" stroke="#f4f4f4" vector-effect="non-scaling-stroke" d="
  M 179.25 103.46
  L 178.30 103.51
  A 0.60 0.55 -89.3 0 0 177.78 104.06
  L 177.46 108.93
  A 1.37 0.97 77.4 0 1 177.09 109.81
  L 176.09 110.70
  A 1.09 0.79 -28.6 0 0 175.71 111.50
  L 176.54 120.25
  Q 177.60 142.31 181.68 164.02
  C 183.75 179.41 187.55 191.26 194.70 205.15
  Q 198.43 212.41 201.81 219.87
  Q 196.54 216.22 193.46 211.02
  Q 192.51 209.43 192.14 211.25
  C 190.09 221.31 175.72 221.20 174.96 210.25
  L 175.04 209.50
  L 176.31 206.54
  A 1.01 0.75 43.1 0 0 176.15 205.66
  Q 167.73 193.64 158.46 182.25
  Q 158.14 178.61 160.83 181.45
  Q 166.96 187.94 178.69 204.14
  A 0.75 0.70 -24.3 0 0 179.47 204.40
  L 183.25 203.46
  Q 185.84 203.58 187.70 204.74
  Q 189.55 205.89 188.53 203.97
  Q 179.92 187.80 175.54 170.00
  C 174.11 165.43 173.82 160.44 172.60 155.36
  C 171.54 150.92 171.44 146.29 170.52 141.68
  L 170.21 135.75
  C 170.94 129.44 167.31 129.57 163.36 127.13
  Q 157.52 123.54 152.85 118.60
  A 0.79 0.68 -30.0 0 0 152.05 118.45
  Q 150.69 118.93 149.79 117.75
  L 148.96 115.25
  Q 149.84 112.98 152.25 112.46
  L 152.96 113.75
  Q 157.19 119.61 163.46 123.25
  L 168.47 126.03
  A 0.79 0.73 -77.0 0 0 169.55 125.29
  L 169.29 105.50
  L 169.48 102.04
  A 0.99 0.89 -76.1 0 1 170.79 101.16
  Q 174.62 103.12 179.25 103.46
  Z
  M 172.63 133.38
  Q 173.78 148.50 176.29 162.77
  A 0.29 0.22 85.6 0 0 176.49 163.00
  L 176.66 163.01
  A 0.39 0.28 -86.2 0 0 176.97 162.63
  C 177.14 159.28 174.85 134.33 173.22 133.06
  Q 172.57 132.57 172.63 133.38
  Z
  M 180.94 181.81
  C 185.63 193.60 188.39 200.99 194.27 209.54
  A 0.36 0.32 43.1 0 0 194.85 209.55
  C 195.32 208.68 194.21 207.77 193.89 207.16
  Q 187.11 194.33 181.95 180.73
  A 0.62 0.52 70.2 0 0 181.27 180.34
  Q 180.46 180.60 180.94 181.81
  Z
  M 186.86 206.48
  C 181.68 204.22 175.92 206.43 177.03 212.91
  A 1.32 1.12 -80.4 0 0 177.52 213.73
  C 179.27 214.97 186.79 214.27 188.90 213.69
  A 1.13 1.08 5.1 0 0 189.61 213.12
  Q 190.98 210.33 188.69 208.23
  A 1.28 0.98 -75.9 0 1 188.34 207.42
  Q 188.31 206.77 187.80 206.68
  Q 186.92 206.51 186.86 206.48
  Z"
/>
<path fill="none" stroke-width="1.00" stroke="#f4f4f4" vector-effect="non-scaling-stroke" d="
  M 281.72 101.18
  L 281.81 125.19
  A 0.46 0.38 82.6 0 0 282.31 125.65
  L 285.21 124.75
  C 285.76 126.70 282.97 127.50 281.69 128.47
  A 0.79 0.59 -31.9 0 0 281.38 129.27
  C 282.11 131.08 290.67 124.97 292.73 123.50
  C 295.26 121.71 291.41 127.23 296.25 125.29
  Q 290.48 131.84 282.27 135.03
  A 1.78 1.76 83.1 0 0 281.15 136.47
  C 279.87 146.53 278.86 156.84 276.50 166.71
  Q 272.26 185.75 263.28 203.01
  Q 262.74 204.04 263.95 203.82
  L 267.25 203.21
  L 272.01 203.71
  A 0.88 0.78 19.1 0 0 272.80 203.38
  Q 281.99 190.02 292.68 177.88
  A 1.03 0.86 -63.2 0 1 293.51 177.52
  Q 294.59 177.65 295.04 178.75
  L 274.79 205.10
  A 0.72 0.66 47.5 0 0 274.79 205.91
  Q 276.02 207.73 276.39 210.18
  Q 272.37 204.39 266.31 205.71
  C 262.05 206.63 259.61 211.94 265.75 213.46
  Q 267.85 214.70 270.00 213.71
  Q 273.20 212.21 274.79 215.00
  Q 266.48 222.24 260.29 213.25
  L 260.00 212.46
  Q 259.99 207.95 257.71 211.00
  Q 256.12 211.46 256.43 210.11
  Q 263.68 200.38 268.50 186.80
  Q 269.00 185.38 268.27 184.95
  A 0.56 0.44 -62.8 0 0 267.60 185.26
  L 258.79 204.25
  C 255.80 202.02 257.63 199.71 257.49 197.09
  Q 256.60 181.31 258.06 164.34
  A 1.11 1.11 -70.3 0 1 259.79 163.52
  Q 260.39 163.94 261.44 163.96
  A 0.59 0.56 -85.4 0 0 262.01 163.45
  Q 264.16 146.01 265.21 128.50
  Q 266.49 117.03 266.52 105.69
  A 1.26 1.16 -7.2 0 1 267.49 104.54
  L 281.72 101.18
  Z
  M 278.42 133.62
  C 276.68 132.13 276.46 142.92 276.46 142.94
  Q 275.06 152.44 273.96 162.00
  A 0.57 0.40 -88.1 0 0 274.38 162.64
  C 276.15 162.49 278.57 137.22 278.72 134.50
  A 1.20 0.83 -74.3 0 0 278.42 133.62
  Z"
/>
<path fill="none" stroke-width="1.00" stroke="#f4f4f4" vector-effect="non-scaling-stroke" d="
  M 183.75 102.96
  L 197.25 104.54
  L 196.39 105.31
  Q 195.95 105.70 196.54 105.83
  L 200.28 106.69
  Q 200.34 151.98 200.09 197.24
  C 200.09 198.42 199.34 199.48 198.04 199.00
  C 193.59 188.27 190.00 177.93 188.93 169.13
  Q 188.70 167.22 188.26 165.45
  Q 186.02 156.35 183.79 147.25
  Q 182.74 134.40 183.04 121.52
  Q 183.09 119.57 180.91 119.80
  L 176.54 120.25
  L 175.71 111.50
  A 1.09 0.79 -28.6 0 1 176.09 110.70
  L 177.09 109.81
  A 1.37 0.97 77.4 0 0 177.46 108.93
  L 177.78 104.06
  A 0.60 0.55 -89.3 0 1 178.30 103.51
  L 179.25 103.46
  Q 181.66 104.09 183.75 102.96
  Z
  M 192.78 106.63
  C 194.35 104.65 186.73 104.38 185.73 104.11
  A 0.79 0.78 6.6 0 0 184.74 104.89
  C 185.12 116.17 185.47 129.76 189.52 140.21
  A 0.46 0.39 61.8 0 0 190.15 140.46
  Q 190.56 140.14 190.55 139.50
  Q 190.18 123.41 192.37 107.49
  A 1.90 1.03 -35.9 0 1 192.78 106.63
  Z"
/>
<path fill="none" stroke-width="1.00" stroke="#f4f4f4" vector-effect="non-scaling-stroke" d="
  M 144.15 104.76
  L 137.00 104.46
  Q 140.85 102.15 144.15 104.76
  Z"
/>
<path fill="none" stroke-width="1.00" stroke="#f4f4f4" vector-effect="non-scaling-stroke" d="
  M 262.75 103.71
  Q 263.44 103.82 263.20 104.17
  A 1.00 0.51 0.2 0 1 262.57 104.49
  L 257.96 105.25
  L 245.71 106.25
  L 232.39 107.07
  L 230.50 107.04
  L 225.84 107.02
  L 221.36 107.03
  L 217.75 107.04
  L 213.00 106.79
  L 210.00 106.96
  Q 207.11 106.40 204.25 107.04
  L 200.28 106.69
  L 196.54 105.83
  Q 195.95 105.70 196.39 105.31
  L 197.25 104.54
  L 199.50 104.71
  Q 222.24 105.48 245.00 104.98
  Q 250.02 104.87 255.00 104.29
  L 262.75 103.71
  Z"
/>
<path fill="none" stroke-width="1.00" stroke="#f4f4f4" vector-effect="non-scaling-stroke" d="
  M 185.73 104.11
  C 186.73 104.38 194.35 104.65 192.78 106.63
  A 1.90 1.03 -35.9 0 0 192.37 107.49
  Q 190.18 123.41 190.55 139.50
  Q 190.56 140.14 190.15 140.46
  A 0.46 0.39 61.8 0 1 189.52 140.21
  C 185.47 129.76 185.12 116.17 184.74 104.89
  A 0.79 0.78 6.6 0 1 185.73 104.11
  Z"
/>
<path fill="none" stroke-width="1.00" stroke="#f4f4f4" vector-effect="non-scaling-stroke" d="
  M 311.75 104.21
  Q 308.46 104.03 307.24 106.64
  Q 305.85 102.64 311.75 104.21
  Z"
/>
<path fill="none" stroke-width="1.00" stroke="#f4f4f4" vector-effect="non-scaling-stroke" d="
  M 311.75 104.21
  Q 313.95 104.34 315.79 105.50
  Q 309.59 106.54 309.65 112.68
  A 1.82 1.26 69.5 0 1 309.41 113.62
  Q 308.12 115.63 305.84 116.44
  A 1.46 1.21 1.9 0 0 305.10 117.01
  C 302.87 120.71 301.45 124.49 298.25 127.45
  C 296.55 129.02 291.62 134.31 289.50 134.28
  A 1.80 1.22 20.1 0 0 288.58 134.51
  Q 284.62 137.10 282.66 141.25
  C 281.10 144.58 281.83 149.40 281.00 153.33
  Q 280.91 153.76 281.03 154.30
  Q 281.34 155.77 280.40 156.64
  A 1.12 1.03 -23.6 0 0 280.04 157.45
  Q 280.06 158.69 279.16 159.41
  A 0.80 0.72 -26.4 0 0 278.86 160.17
  Q 279.44 162.76 278.00 164.83
  A 1.26 1.23 58.8 0 0 277.79 165.72
  Q 278.03 167.39 276.50 166.71
  C 278.86 156.84 279.87 146.53 281.15 136.47
  A 1.78 1.76 83.1 0 1 282.27 135.03
  Q 290.48 131.84 296.25 125.29
  Q 300.82 120.65 302.29 114.25
  Q 304.06 114.48 305.00 113.29
  Q 309.35 111.19 307.24 106.64
  Q 308.46 104.03 311.75 104.21
  Z"
/>
<path fill="none" stroke-width="1.00" stroke="#f4f4f4" vector-effect="non-scaling-stroke" d="
  M 137.00 104.46
  L 144.15 104.76
  Q 142.76 107.20 142.54 109.25
  L 142.82 106.04
  Q 142.86 105.50 142.51 105.74
  Q 142.07 106.04 142.14 106.76
  A 0.38 0.38 -0.0 0 1 141.73 107.17
  Q 140.71 107.08 140.24 107.73
  A 1.42 0.81 -67.9 0 1 139.53 108.29
  C 130.39 110.60 129.23 121.44 131.65 129.28
  C 132.09 130.71 133.08 131.81 130.79 132.50
  Q 126.85 124.20 127.75 115.04
  Q 128.95 106.66 137.00 104.46
  Z"
/>
<path fill="none" stroke-width="1.00" stroke="#f4f4f4" vector-effect="non-scaling-stroke" d="
  M 257.96 105.25
  L 257.75 105.71
  L 252.86 106.60
  A 0.71 0.57 86.8 0 0 252.38 107.27
  C 251.96 141.08 252.34 174.93 252.21 208.75
  A 1.86 1.46 34.3 0 0 252.50 209.67
  Q 253.99 211.99 252.54 214.25
  L 247.30 219.50
  Q 245.00 213.14 245.88 206.58
  C 246.66 200.82 246.39 196.07 246.76 190.68
  C 246.92 188.37 246.17 185.85 246.71 183.23
  Q 246.80 182.77 246.67 182.26
  C 246.07 180.05 247.00 177.73 247.00 175.99
  Q 246.97 161.80 246.98 147.61
  C 246.98 145.53 246.47 143.42 246.85 140.56
  C 247.87 132.81 246.65 123.48 246.30 116.25
  Q 246.06 111.25 245.71 106.25
  L 257.96 105.25
  Z"
/>
<path fill="none" stroke-width="1.00" stroke="#f4f4f4" vector-effect="non-scaling-stroke" d="
  M 142.54 109.25
  L 142.50 109.46
  Q 142.29 109.43 142.16 109.31
  A 0.65 0.42 -63.6 0 1 142.09 108.69
  Q 142.49 107.58 141.68 108.26
  A 0.62 0.57 64.8 0 0 141.50 108.83
  Q 141.98 111.34 139.59 111.12
  A 1.51 1.11 23.5 0 0 138.67 111.33
  C 133.39 115.00 132.68 121.51 134.53 127.22
  C 134.96 128.57 135.18 130.81 136.34 132.28
  C 137.78 134.11 137.78 136.41 139.16 138.39
  Q 141.77 142.12 144.12 146.03
  C 147.15 147.95 147.58 150.62 149.86 152.95
  C 153.60 156.78 154.30 160.78 158.23 164.02
  C 160.98 166.29 162.75 170.48 165.47 173.25
  C 168.75 176.60 170.90 180.55 173.90 184.15
  A 1.26 0.81 -10.4 0 0 174.71 184.48
  Q 175.37 184.52 175.74 185.13
  A 0.41 0.35 54.1 0 0 176.32 185.27
  Q 177.76 183.85 176.53 182.11
  A 1.30 1.23 32.1 0 1 176.30 181.22
  Q 176.47 179.81 175.66 178.87
  Q 175.25 178.41 175.17 178.04
  Q 174.87 176.76 175.11 175.41
  A 0.32 0.30 21.4 0 1 175.59 175.22
  C 176.79 176.00 175.55 170.54 175.54 170.00
  Q 179.92 187.80 188.53 203.97
  Q 189.55 205.89 187.70 204.74
  Q 185.84 203.58 183.25 203.46
  L 163.29 177.25
  L 150.75 162.46
  Q 142.22 151.50 134.50 139.96
  L 130.79 132.50
  C 133.08 131.81 132.09 130.71 131.65 129.28
  C 129.23 121.44 130.39 110.60 139.53 108.29
  A 1.42 0.81 -67.9 0 0 140.24 107.73
  Q 140.71 107.08 141.73 107.17
  A 0.38 0.38 -0.1 0 0 142.14 106.76
  Q 142.07 106.04 142.51 105.74
  Q 142.86 105.50 142.82 106.04
  L 142.54 109.25
  Z"
/>
<path fill="none" stroke-width="1.00" stroke="#f4f4f4" vector-effect="non-scaling-stroke" d="
  M 315.79 105.50
  Q 318.43 106.14 319.75 108.46
  Q 317.52 109.00 315.25 108.51
  A 1.56 1.14 30.1 0 0 314.31 108.61
  Q 311.27 110.18 310.90 113.60
  A 1.47 1.29 74.1 0 1 310.50 114.44
  C 308.15 116.70 305.56 118.29 304.27 121.48
  Q 300.38 131.16 291.15 136.14
  C 286.98 138.39 284.65 137.67 284.05 143.76
  Q 282.53 159.17 277.44 179.15
  Q 276.14 182.51 275.78 186.07
  C 275.47 189.20 274.16 191.11 273.00 193.84
  C 272.79 194.32 271.81 195.09 273.00 195.54
  L 267.25 203.21
  L 263.95 203.82
  Q 262.74 204.04 263.28 203.01
  Q 272.26 185.75 276.50 166.71
  Q 278.03 167.39 277.79 165.72
  A 1.26 1.23 58.8 0 1 278.00 164.83
  Q 279.44 162.76 278.86 160.17
  A 0.80 0.72 -26.4 0 1 279.16 159.41
  Q 280.06 158.69 280.04 157.45
  A 1.12 1.03 -23.6 0 1 280.40 156.64
  Q 281.34 155.77 281.03 154.30
  Q 280.91 153.76 281.00 153.33
  C 281.83 149.40 281.10 144.58 282.66 141.25
  Q 284.62 137.10 288.58 134.51
  A 1.80 1.22 20.1 0 1 289.50 134.28
  C 291.62 134.31 296.55 129.02 298.25 127.45
  C 301.45 124.49 302.87 120.71 305.10 117.01
  A 1.46 1.21 1.9 0 1 305.84 116.44
  Q 308.12 115.63 309.41 113.62
  A 1.82 1.26 69.5 0 0 309.65 112.68
  Q 309.59 106.54 315.79 105.50
  Z"
/>
<path fill="none" stroke-width="1.00" stroke="#f4f4f4" vector-effect="non-scaling-stroke" d="
  M 257.75 105.71
  C 259.73 107.03 259.78 126.20 259.88 129.53
  A 0.71 0.69 -83.2 0 0 260.38 130.18
  Q 263.48 131.10 265.21 128.50
  Q 264.16 146.01 262.01 163.45
  A 0.59 0.56 -85.4 0 1 261.44 163.96
  Q 260.39 163.94 259.79 163.52
  A 1.11 1.11 -70.3 0 0 258.06 164.34
  Q 256.60 181.31 257.49 197.09
  C 257.63 199.71 255.80 202.02 258.79 204.25
  Q 256.91 206.85 256.43 210.11
  Q 256.12 211.46 257.71 211.00
  L 253.96 215.75
  Q 252.64 215.57 252.54 214.25
  Q 253.99 211.99 252.50 209.67
  A 1.86 1.46 34.3 0 1 252.21 208.75
  C 252.34 174.93 251.96 141.08 252.38 107.27
  A 0.71 0.57 86.8 0 1 252.86 106.60
  L 257.75 105.71
  Z"
/>
<path fill="none" stroke-width="1.00" stroke="#f4f4f4" vector-effect="non-scaling-stroke" d="
  M 326.75 105.57
  Q 337.11 114.77 333.00 128.54
  Q 332.38 130.04 332.00 131.61
  C 331.26 134.70 329.41 136.35 329.00 139.75
  Q 326.99 144.16 324.01 147.95
  Q 323.83 148.18 323.73 148.63
  L 323.64 149.01
  A 1.59 0.76 -27.0 0 1 323.05 149.78
  Q 321.50 151.00 321.28 153.02
  Q 321.25 153.34 320.90 153.87
  L 318.54 157.50
  L 317.75 158.54
  C 317.20 158.83 316.84 159.01 316.49 159.55
  C 313.69 163.85 309.72 167.28 307.00 172.25
  C 303.13 175.79 299.52 181.37 297.26 184.13
  C 290.33 192.60 284.65 198.75 279.89 206.80
  A 1.45 1.38 57.6 0 0 279.71 207.72
  Q 280.33 212.19 279.46 216.51
  A 1.32 1.29 -12.8 0 1 278.95 217.30
  C 274.53 220.53 271.31 222.72 266.10 219.21
  Q 263.96 217.77 263.22 217.58
  C 260.25 216.80 258.43 217.84 256.47 220.35
  Q 253.26 224.47 248.75 227.25
  Q 251.10 224.28 254.05 221.94
  C 256.17 220.26 257.47 217.70 260.25 216.39
  A 0.69 0.64 74.3 0 0 260.61 215.70
  L 260.29 213.25
  Q 266.48 222.24 274.79 215.00
  Q 277.08 212.74 276.39 210.18
  Q 276.02 207.73 274.79 205.91
  A 0.72 0.66 47.5 0 1 274.79 205.10
  L 295.04 178.75
  Q 307.27 164.38 318.25 149.04
  L 323.54 140.94
  Q 328.23 133.17 329.71 124.50
  Q 330.50 121.17 330.21 117.75
  Q 329.71 111.47 326.75 105.57
  Z"
/>
<path fill="none" stroke-width="1.00" stroke="#f4f4f4" vector-effect="non-scaling-stroke" d="
  M 245.71 106.25
  Q 246.06 111.25 246.30 116.25
  C 246.65 123.48 247.87 132.81 246.85 140.56
  C 246.47 143.42 246.98 145.53 246.98 147.61
  Q 246.97 161.80 247.00 175.99
  C 247.00 177.73 246.07 180.05 246.67 182.26
  Q 246.80 182.77 246.71 183.23
  C 246.17 185.85 246.92 188.37 246.76 190.68
  C 246.39 196.07 246.66 200.82 245.88 206.58
  Q 245.00 213.14 247.30 219.50
  L 242.21 223.75
  Q 237.93 225.93 233.90 225.98
  A 1.44 1.44 2.1 0 1 232.44 224.52
  Q 232.71 197.47 232.25 170.43
  C 232.23 168.70 230.28 166.72 229.98 164.72
  C 229.66 162.47 230.20 159.20 228.93 157.11
  A 1.32 1.27 35.6 0 1 228.76 156.20
  Q 229.56 151.58 228.75 146.71
  A 0.51 0.50 80.1 0 1 229.15 146.13
  Q 232.45 145.54 232.53 142.78
  Q 232.70 136.70 232.39 107.07
  L 245.71 106.25
  Z"
/>
<path fill="none" stroke-width="1.00" stroke="#f4f4f4" vector-effect="non-scaling-stroke" d="
  M 200.28 106.69
  L 204.25 107.04
  Q 204.25 156.77 204.25 206.50
  Q 204.25 207.40 203.22 207.68
  A 0.69 0.67 -21.2 0 1 202.44 207.35
  L 198.04 199.00
  C 199.34 199.48 200.09 198.42 200.09 197.24
  Q 200.34 151.98 200.28 106.69
  Z"
/>
<path fill="none" stroke-width="1.00" stroke="#f4f4f4" vector-effect="non-scaling-stroke" d="
  M 210.00 106.96
  Q 208.33 106.60 207.32 107.62
  A 1.35 1.00 73.4 0 0 207.00 108.50
  Q 207.01 158.93 206.99 209.37
  C 206.98 214.84 208.37 218.12 212.50 221.29
  C 212.83 221.73 217.75 227.99 217.75 224.00
  Q 217.75 165.52 217.75 107.04
  L 221.36 107.03
  Q 221.60 124.99 221.50 142.94
  Q 221.50 143.97 221.05 146.48
  C 220.55 149.34 221.58 153.01 221.60 154.97
  Q 221.90 189.85 221.70 224.58
  Q 221.69 227.15 219.10 226.58
  L 206.04 223.75
  Q 203.21 222.47 201.81 219.87
  Q 198.43 212.41 194.70 205.15
  C 187.55 191.26 183.75 179.41 181.68 164.02
  L 182.96 166.25
  Q 184.08 171.75 186.06 176.99
  C 186.61 178.44 186.34 179.89 187.06 181.42
  C 188.48 184.43 189.24 187.50 191.00 190.36
  A 0.49 0.43 54.4 0 0 191.68 190.52
  Q 192.38 189.90 191.95 188.77
  Q 188.44 179.61 186.46 170.00
  C 186.34 166.07 185.03 162.32 184.86 158.62
  Q 184.61 152.93 183.79 147.25
  Q 186.02 156.35 188.26 165.45
  Q 188.70 167.22 188.93 169.13
  C 190.00 177.93 193.59 188.27 198.04 199.00
  L 202.44 207.35
  A 0.69 0.67 -21.2 0 0 203.22 207.68
  Q 204.25 207.40 204.25 206.50
  Q 204.25 156.77 204.25 107.04
  Q 207.11 106.40 210.00 106.96
  Z"
/>
<path fill="none" stroke-width="1.00" stroke="#f4f4f4" vector-effect="non-scaling-stroke" d="
  M 213.00 106.79
  Q 214.24 109.36 214.24 110.75
  Q 214.26 165.34 214.24 219.94
  Q 214.24 221.38 212.50 221.29
  C 208.37 218.12 206.98 214.84 206.99 209.37
  Q 207.01 158.93 207.00 108.50
  A 1.35 1.00 73.4 0 1 207.32 107.62
  Q 208.33 106.60 210.00 106.96
  L 213.00 106.79
  Z"
/>
<path fill="none" stroke-width="1.00" stroke="#f4f4f4" vector-effect="non-scaling-stroke" d="
  M 213.00 106.79
  L 217.75 107.04
  Q 217.75 165.52 217.75 224.00
  C 217.75 227.99 212.83 221.73 212.50 221.29
  Q 214.24 221.38 214.24 219.94
  Q 214.26 165.34 214.24 110.75
  Q 214.24 109.36 213.00 106.79
  Z"
/>
<path fill="none" stroke-width="1.00" stroke="#f4f4f4" vector-effect="non-scaling-stroke" d="
  M 221.36 107.03
  L 225.84 107.02
  Q 226.32 126.04 225.73 144.91
  Q 222.86 156.38 225.72 167.83
  L 225.97 224.72
  A 1.60 1.54 -17.7 0 1 225.26 226.04
  Q 221.42 228.59 220.75 230.96
  L 215.94 229.74
  Q 210.62 227.32 206.04 223.75
  L 219.10 226.58
  Q 221.69 227.15 221.70 224.58
  Q 221.90 189.85 221.60 154.97
  C 221.58 153.01 220.55 149.34 221.05 146.48
  Q 221.50 143.97 221.50 142.94
  Q 221.60 124.99 221.36 107.03
  Z"
/>
<path fill="none" stroke-width="1.00" stroke="#f4f4f4" vector-effect="non-scaling-stroke" d="
  M 225.84 107.02
  L 230.50 107.04
  L 230.44 143.01
  Q 230.44 145.13 228.62 145.05
  L 225.73 144.91
  Q 226.32 126.04 225.84 107.02
  Z"
/>
<path fill="none" stroke-width="1.00" stroke="#f4f4f4" vector-effect="non-scaling-stroke" d="
  M 230.50 107.04
  L 232.39 107.07
  Q 232.70 136.70 232.53 142.78
  Q 232.45 145.54 229.15 146.13
  A 0.51 0.50 80.1 0 0 228.75 146.71
  Q 229.56 151.58 228.76 156.20
  A 1.32 1.27 35.6 0 0 228.93 157.11
  C 230.20 159.20 229.66 162.47 229.98 164.72
  C 230.28 166.72 232.23 168.70 232.25 170.43
  Q 232.71 197.47 232.44 224.52
  A 1.44 1.44 0.3 0 0 233.90 225.98
  Q 237.93 225.93 242.21 223.75
  Q 242.03 225.21 243.50 225.29
  L 234.50 230.04
  Q 232.21 229.91 230.00 230.71
  Q 232.14 229.01 229.84 227.10
  A 2.38 2.37 -70.3 0 1 228.98 225.27
  Q 229.03 197.38 228.94 170.06
  Q 228.93 167.36 225.72 167.83
  Q 222.86 156.38 225.73 144.91
  L 228.62 145.05
  Q 230.44 145.13 230.44 143.01
  L 230.50 107.04
  Z"
/>
<path fill="none" stroke-width="1.00" stroke="#f4f4f4" vector-effect="non-scaling-stroke" d="
  M 142.50 109.46
  Q 143.47 111.91 145.79 113.25
  L 148.50 114.71
  L 148.96 115.25
  L 149.79 117.75
  C 153.41 126.61 161.48 132.52 170.21 135.75
  L 170.52 141.68
  Q 159.04 137.29 151.60 127.67
  Q 149.12 124.46 148.08 120.54
  A 1.30 1.26 9.1 0 0 147.52 119.79
  Q 145.22 118.37 143.17 116.60
  C 141.76 115.39 141.48 113.88 140.87 112.21
  A 0.63 0.60 75.9 0 0 140.20 111.79
  Q 138.04 112.13 136.90 113.97
  Q 133.68 119.16 135.34 128.55
  A 0.41 0.30 -87.5 0 0 135.50 128.79
  L 136.08 129.09
  A 1.02 0.67 15.2 0 1 136.63 129.71
  C 137.81 136.75 141.60 140.23 144.12 146.03
  Q 141.77 142.12 139.16 138.39
  C 137.78 136.41 137.78 134.11 136.34 132.28
  C 135.18 130.81 134.96 128.57 134.53 127.22
  C 132.68 121.51 133.39 115.00 138.67 111.33
  A 1.51 1.11 23.5 0 1 139.59 111.12
  Q 141.98 111.34 141.50 108.83
  A 0.62 0.57 64.8 0 1 141.68 108.26
  Q 142.49 107.58 142.09 108.69
  A 0.65 0.42 -63.6 0 0 142.16 109.31
  Q 142.29 109.43 142.50 109.46
  Z"
/>
<path fill="none" stroke-width="1.00" stroke="#f4f4f4" vector-effect="non-scaling-stroke" d="
  M 319.75 108.46
  L 320.71 109.75
  Q 319.91 109.68 319.17 110.05
  A 1.22 1.05 -46.4 0 1 318.27 110.14
  Q 312.87 108.24 311.98 114.01
  A 2.82 2.80 -10.9 0 1 310.60 116.03
  Q 306.27 118.53 304.59 123.02
  Q 303.56 125.79 302.59 127.00
  Q 296.67 134.38 288.05 138.59
  Q 285.57 139.80 285.33 142.55
  Q 284.05 157.35 279.96 172.74
  Q 279.87 173.08 279.67 173.26
  A 1.03 0.51 -32.8 0 0 279.26 173.95
  Q 279.40 176.87 277.44 179.15
  Q 282.53 159.17 284.05 143.76
  C 284.65 137.67 286.98 138.39 291.15 136.14
  Q 300.38 131.16 304.27 121.48
  C 305.56 118.29 308.15 116.70 310.50 114.44
  A 1.47 1.29 74.1 0 0 310.90 113.60
  Q 311.27 110.18 314.31 108.61
  A 1.56 1.14 30.1 0 1 315.25 108.51
  Q 317.52 109.00 319.75 108.46
  Z"
/>
<path fill="none" stroke-width="1.00" stroke="#f4f4f4" vector-effect="non-scaling-stroke" d="
  M 320.71 109.75
  L 321.25 110.96
  Q 319.72 109.12 319.49 110.95
  A 0.46 0.37 -77.0 0 1 318.97 111.36
  L 317.09 110.55
  Q 316.38 110.24 316.18 110.24
  Q 313.25 110.23 313.73 113.27
  A 1.68 1.26 60.3 0 1 313.61 114.22
  C 311.32 118.69 306.76 119.27 305.52 123.91
  A 1.71 1.60 -15.7 0 1 305.03 124.72
  Q 303.43 126.21 302.56 128.20
  Q 302.50 128.36 301.98 128.97
  L 298.97 132.58
  Q 298.51 133.14 298.30 133.25
  Q 296.19 134.40 294.27 135.85
  C 290.40 138.77 286.95 139.13 286.33 145.03
  Q 285.45 153.56 284.22 162.04
  C 283.73 165.39 282.35 169.25 281.80 172.97
  Q 281.71 173.52 281.64 172.97
  Q 281.43 171.38 282.04 169.86
  Q 282.12 169.66 282.15 169.48
  Q 282.91 164.14 281.53 169.51
  Q 278.93 179.65 275.72 190.43
  Q 275.48 191.27 274.88 191.91
  Q 273.05 193.91 274.21 193.75
  L 273.00 195.54
  C 271.81 195.09 272.79 194.32 273.00 193.84
  C 274.16 191.11 275.47 189.20 275.78 186.07
  Q 276.14 182.51 277.44 179.15
  Q 279.40 176.87 279.26 173.95
  A 1.03 0.51 -32.8 0 1 279.67 173.26
  Q 279.87 173.08 279.96 172.74
  Q 284.05 157.35 285.33 142.55
  Q 285.57 139.80 288.05 138.59
  Q 296.67 134.38 302.59 127.00
  Q 303.56 125.79 304.59 123.02
  Q 306.27 118.53 310.60 116.03
  A 2.82 2.80 -10.9 0 0 311.98 114.01
  Q 312.87 108.24 318.27 110.14
  A 1.22 1.05 -46.4 0 0 319.17 110.05
  Q 319.91 109.68 320.71 109.75
  Z"
/>
<path fill="none" stroke-width="1.00" stroke="#f4f4f4" vector-effect="non-scaling-stroke" d="
  M 321.25 110.96
  L 322.46 114.00
  Q 322.17 113.66 321.86 113.75
  A 0.60 0.41 71.4 0 0 321.65 114.49
  Q 322.21 115.99 320.93 115.67
  A 1.13 0.83 79.3 0 1 320.27 115.05
  Q 319.47 113.23 317.64 112.20
  A 1.37 1.20 50.4 0 0 316.71 112.05
  Q 314.67 112.55 314.74 114.76
  A 1.28 0.76 76.7 0 1 314.46 115.65
  L 309.30 120.35
  Q 308.83 120.78 308.69 121.10
  Q 303.68 132.24 293.74 137.78
  Q 289.97 139.88 288.13 141.69
  A 1.64 1.41 75.4 0 0 287.71 142.55
  Q 286.40 150.87 285.46 159.25
  Q 285.13 162.23 282.55 172.40
  C 282.13 174.05 282.38 175.98 281.53 177.80
  Q 280.10 180.89 280.00 181.44
  Q 279.56 183.85 279.88 186.34
  L 274.21 193.75
  Q 273.05 193.91 274.88 191.91
  Q 275.48 191.27 275.72 190.43
  Q 278.93 179.65 281.53 169.51
  Q 282.91 164.14 282.15 169.48
  Q 282.12 169.66 282.04 169.86
  Q 281.43 171.38 281.64 172.97
  Q 281.71 173.52 281.80 172.97
  C 282.35 169.25 283.73 165.39 284.22 162.04
  Q 285.45 153.56 286.33 145.03
  C 286.95 139.13 290.40 138.77 294.27 135.85
  Q 296.19 134.40 298.30 133.25
  Q 298.51 133.14 298.97 132.58
  L 301.98 128.97
  Q 302.50 128.36 302.56 128.20
  Q 303.43 126.21 305.03 124.72
  A 1.71 1.60 -15.7 0 0 305.52 123.91
  C 306.76 119.27 311.32 118.69 313.61 114.22
  A 1.68 1.26 60.3 0 0 313.73 113.27
  Q 313.25 110.23 316.18 110.24
  Q 316.38 110.24 317.09 110.55
  L 318.97 111.36
  A 0.46 0.37 -77.0 0 0 319.49 110.95
  Q 319.72 109.12 321.25 110.96
  Z"
/>
<path fill="none" stroke-width="1.00" stroke="#f4f4f4" vector-effect="non-scaling-stroke" d="
  M 153.21 110.25
  L 152.96 113.75
  L 152.25 112.46
  L 152.25 111.54
  L 153.21 110.25
  Z"
/>
<path fill="none" stroke-width="1.00" stroke="#f4f4f4" vector-effect="non-scaling-stroke" d="
  M 152.25 111.54
  L 152.25 112.46
  Q 149.84 112.98 148.96 115.25
  L 148.50 114.71
  L 148.50 113.29
  L 152.25 111.54
  Z"
/>
<path fill="none" stroke-width="1.00" stroke="#f4f4f4" vector-effect="non-scaling-stroke" d="
  M 145.79 113.25
  L 148.50 113.29
  L 148.50 114.71
  L 145.79 113.25
  Z"
/>
<path fill="none" stroke-width="1.00" stroke="#f4f4f4" vector-effect="non-scaling-stroke" d="
  M 305.00 113.29
  Q 304.06 114.48 302.29 114.25
  C 301.97 112.14 303.75 114.28 305.00 113.29
  Z"
/>
<path fill="none" stroke-width="1.00" stroke="#f4f4f4" vector-effect="non-scaling-stroke" d="
  M 329.71 124.50
  Q 328.23 133.17 323.54 140.94
  Q 319.77 141.05 316.26 139.74
  C 321.15 130.71 322.79 124.99 322.71 115.50
  Q 322.88 113.71 323.15 115.07
  A 0.57 0.57 9.7 0 0 323.42 115.45
  Q 328.21 118.28 327.45 123.93
  A 0.48 0.44 -84.9 0 0 327.87 124.48
  L 329.71 124.50
  Z"
/>
<path fill="none" stroke-width="1.00" stroke="#f4f4f4" vector-effect="non-scaling-stroke" d="
  M 127.75 115.04
  Q 126.85 124.20 130.79 132.50
  L 134.50 139.96
  Q 134.06 140.34 134.10 141.03
  Q 134.12 141.46 133.76 141.27
  L 132.18 140.40
  A 0.75 0.69 -51.1 0 0 131.36 140.52
  L 129.08 142.51
  A 0.43 0.37 51.6 0 1 128.49 142.40
  L 126.00 139.04
  L 123.84 134.53
  L 121.71 129.00
  L 121.54 125.75
  Q 122.10 126.42 122.84 126.03
  A 0.91 0.76 78.2 0 0 123.26 125.24
  L 123.21 122.50
  Q 122.87 119.99 125.02 119.56
  A 0.58 0.45 86.6 0 0 125.39 119.02
  Q 125.40 118.76 125.61 118.56
  Q 126.24 117.95 126.25 117.93
  L 127.75 115.04
  Z"
/>
<path fill="none" stroke-width="1.00" stroke="#f4f4f4" vector-effect="non-scaling-stroke" d="
  M 170.21 135.75
  C 161.48 132.52 153.41 126.61 149.79 117.75
  Q 150.69 118.93 152.05 118.45
  A 0.79 0.68 -30.0 0 1 152.85 118.60
  Q 157.52 123.54 163.36 127.13
  C 167.31 129.57 170.94 129.44 170.21 135.75
  Z"
/>
<path fill="none" stroke-width="1.00" stroke="#f4f4f4" vector-effect="non-scaling-stroke" d="
  M 183.79 147.25
  Q 184.61 152.93 184.86 158.62
  C 185.03 162.32 186.34 166.07 186.46 170.00
  L 184.27 165.17
  A 0.71 0.70 72.5 0 0 183.50 164.76
  Q 182.62 164.91 182.96 166.25
  L 181.68 164.02
  Q 177.60 142.31 176.54 120.25
  L 180.91 119.80
  Q 183.09 119.57 183.04 121.52
  Q 182.74 134.40 183.79 147.25
  Z"
/>
<path fill="none" stroke-width="1.00" stroke="#f4f4f4" vector-effect="non-scaling-stroke" d="
  M 120.79 124.50
  L 121.54 125.75
  L 121.71 129.00
  L 120.79 124.50
  Z"
/>
<path fill="none" stroke-width="1.00" stroke="#f4f4f4" vector-effect="non-scaling-stroke" d="
  M 333.00 128.54
  Q 332.65 134.77 329.00 139.75
  C 329.41 136.35 331.26 134.70 332.00 131.61
  Q 332.38 130.04 333.00 128.54
  Z"
/>
<path fill="none" stroke-width="1.00" stroke="#f4f4f4" vector-effect="non-scaling-stroke" d="
  M 172.63 133.38
  Q 172.57 132.57 173.22 133.06
  C 174.85 134.33 177.14 159.28 176.97 162.63
  A 0.39 0.28 -86.2 0 1 176.66 163.01
  L 176.49 163.00
  A 0.29 0.22 85.6 0 1 176.29 162.77
  Q 173.78 148.50 172.63 133.38
  Z"
/>
<path fill="none" stroke-width="1.00" stroke="#f4f4f4" vector-effect="non-scaling-stroke" d="
  M 276.46 142.94
  C 276.46 142.92 276.68 132.13 278.42 133.62
  A 1.20 0.83 -74.3 0 1 278.72 134.50
  C 278.57 137.22 276.15 162.49 274.38 162.64
  A 0.57 0.40 -88.1 0 1 273.96 162.00
  Q 275.06 152.44 276.46 142.94
  Z"
/>
<path fill="none" stroke-width="1.00" stroke="#f4f4f4" vector-effect="non-scaling-stroke" d="
  M 123.84 134.53
  L 126.00 139.04
  Q 131.30 148.38 138.00 156.79
  L 158.46 182.25
  Q 167.73 193.64 176.15 205.66
  A 1.01 0.75 43.1 0 1 176.31 206.54
  L 175.04 209.50
  Q 175.71 207.82 174.46 207.41
  A 1.78 0.91 4.2 0 1 173.65 206.92
  Q 167.65 199.39 161.79 191.79
  Q 160.85 190.57 157.18 186.71
  Q 154.79 184.20 153.05 181.16
  A 1.87 1.27 7.7 0 0 152.35 180.53
  Q 151.11 179.89 150.76 178.56
  A 1.62 1.41 -80.7 0 0 150.27 177.77
  Q 148.48 176.29 146.44 173.06
  Q 145.40 171.42 139.70 165.05
  Q 138.90 164.85 138.93 164.01
  A 1.36 0.92 -73.8 0 0 138.65 163.14
  Q 132.21 156.38 127.73 148.20
  C 127.50 147.78 127.27 146.79 126.70 146.49
  A 0.80 0.76 12.7 0 1 126.26 145.83
  Q 126.22 145.01 125.53 144.77
  A 1.09 0.80 4.9 0 1 124.89 144.21
  Q 124.20 142.13 122.95 140.31
  Q 120.46 136.67 123.84 134.53
  Z"
/>
<path fill="none" stroke-width="1.00" stroke="#f4f4f4" vector-effect="non-scaling-stroke" d="
  M 126.00 139.04
  L 128.49 142.40
  A 0.43 0.37 51.6 0 0 129.08 142.51
  L 131.36 140.52
  A 0.75 0.69 -51.1 0 1 132.18 140.40
  L 133.76 141.27
  Q 134.12 141.46 134.10 141.03
  Q 134.06 140.34 134.50 139.96
  Q 142.22 151.50 150.75 162.46
  C 149.32 163.93 152.38 166.94 152.96 168.00
  C 148.00 168.13 148.15 165.20 145.76 162.51
  Q 144.02 160.56 142.39 158.51
  A 1.89 1.31 70.8 0 0 141.61 157.94
  L 138.00 156.79
  Q 131.30 148.38 126.00 139.04
  Z"
/>
<path fill="none" stroke-width="1.00" stroke="#f4f4f4" vector-effect="non-scaling-stroke" d="
  M 316.26 139.74
  Q 319.77 141.05 323.54 140.94
  L 318.25 149.04
  Q 315.77 147.50 314.63 149.35
  C 312.79 152.34 310.38 155.23 308.28 158.08
  A 0.56 0.50 -52.6 0 1 307.54 158.22
  Q 307.05 157.83 306.83 157.16
  A 0.46 0.43 70.3 0 0 306.25 156.87
  Q 304.85 157.41 303.50 157.21
  L 316.26 139.74
  Z"
/>
<path fill="none" stroke-width="1.00" stroke="#f4f4f4" vector-effect="non-scaling-stroke" d="
  M 329.00 139.75
  Q 327.80 143.64 325.50 146.96
  C 323.68 149.57 322.65 151.89 321.29 154.50
  L 318.54 157.50
  L 320.90 153.87
  Q 321.25 153.34 321.28 153.02
  Q 321.50 151.00 323.05 149.78
  A 1.59 0.76 -27.0 0 0 323.64 149.01
  L 323.73 148.63
  Q 323.83 148.18 324.01 147.95
  Q 326.99 144.16 329.00 139.75
  Z"
/>
<path fill="none" stroke-width="1.00" stroke="#f4f4f4" vector-effect="non-scaling-stroke" d="
  M 291.30 194.71
  Q 292.01 191.94 293.87 190.09
  A 1.51 1.08 77.2 0 0 294.23 189.24
  Q 294.34 188.03 295.47 187.58
  A 1.70 1.14 -4.2 0 0 296.21 187.00
  C 298.86 182.67 302.40 179.13 305.04 174.73
  Q 305.26 174.36 305.75 174.07
  Q 306.77 173.46 307.00 172.25
  Q 313.05 165.93 317.75 158.54
  L 318.54 157.50
  L 321.29 154.50
  C 324.07 152.04 325.15 148.09 328.11 146.25
  Q 328.56 145.98 328.34 146.44
  Q 326.82 149.79 324.45 152.53
  C 322.96 154.24 322.69 156.45 321.05 157.83
  Q 318.92 159.64 316.23 163.24
  Q 311.20 169.96 306.11 176.65
  Q 306.04 176.74 304.16 178.55
  Q 303.30 179.38 302.95 180.60
  Q 302.81 181.06 302.48 181.45
  L 291.30 194.71
  Z"
/>
<path fill="none" stroke-width="1.00" stroke="#f4f4f4" vector-effect="non-scaling-stroke" d="
  M 318.25 149.04
  Q 307.27 164.38 295.04 178.75
  Q 294.59 177.65 293.51 177.52
  A 1.03 0.86 -63.2 0 0 292.68 177.88
  Q 281.99 190.02 272.80 203.38
  A 0.88 0.78 19.1 0 1 272.01 203.71
  L 267.25 203.21
  L 273.00 195.54
  L 274.21 193.75
  L 279.88 186.34
  L 288.96 175.50
  Q 289.45 175.65 289.71 175.99
  A 0.40 0.33 47.4 0 0 290.27 176.07
  L 299.75 165.16
  A 1.68 1.24 75.2 0 0 300.10 164.28
  Q 300.41 161.55 302.05 159.23
  Q 302.56 158.08 303.50 157.21
  Q 304.85 157.41 306.25 156.87
  A 0.46 0.43 70.3 0 1 306.83 157.16
  Q 307.05 157.83 307.54 158.22
  A 0.56 0.50 -52.6 0 0 308.28 158.08
  C 310.38 155.23 312.79 152.34 314.63 149.35
  Q 315.77 147.50 318.25 149.04
  Z"
/>
<path fill="none" stroke-width="1.00" stroke="#f4f4f4" vector-effect="non-scaling-stroke" d="
  M 138.00 156.79
  L 141.61 157.94
  A 1.89 1.31 70.8 0 1 142.39 158.51
  Q 144.02 160.56 145.76 162.51
  C 148.15 165.20 148.00 168.13 152.96 168.00
  L 160.59 176.71
  A 1.33 1.10 -14.9 0 0 161.43 177.10
  L 163.29 177.25
  L 183.25 203.46
  L 179.47 204.40
  A 0.75 0.70 -24.3 0 1 178.69 204.14
  Q 166.96 187.94 160.83 181.45
  Q 158.14 178.61 158.46 182.25
  L 138.00 156.79
  Z"
/>
<path fill="none" stroke-width="1.00" stroke="#f4f4f4" vector-effect="non-scaling-stroke" d="
  M 317.75 158.54
  Q 313.05 165.93 307.00 172.25
  C 309.72 167.28 313.69 163.85 316.49 159.55
  C 316.84 159.01 317.20 158.83 317.75 158.54
  Z"
/>
<path fill="none" stroke-width="1.00" stroke="#f4f4f4" vector-effect="non-scaling-stroke" d="
  M 302.05 159.23
  Q 300.41 161.55 300.10 164.28
  A 1.68 1.24 75.2 0 1 299.75 165.16
  L 290.27 176.07
  A 0.40 0.33 47.4 0 1 289.71 175.99
  Q 289.45 175.65 288.96 175.50
  L 302.05 159.23
  Z"
/>
<path fill="none" stroke-width="1.00" stroke="#f4f4f4" vector-effect="non-scaling-stroke" d="
  M 150.75 162.46
  L 163.29 177.25
  L 161.43 177.10
  A 1.33 1.10 -14.9 0 1 160.59 176.71
  L 152.96 168.00
  C 152.38 166.94 149.32 163.93 150.75 162.46
  Z"
/>
<path fill="none" stroke-width="1.00" stroke="#f4f4f4" vector-effect="non-scaling-stroke" d="
  M 186.46 170.00
  Q 188.44 179.61 191.95 188.77
  Q 192.38 189.90 191.68 190.52
  A 0.49 0.43 54.4 0 1 191.00 190.36
  C 189.24 187.50 188.48 184.43 187.06 181.42
  C 186.34 179.89 186.61 178.44 186.06 176.99
  Q 184.08 171.75 182.96 166.25
  Q 182.62 164.91 183.50 164.76
  A 0.71 0.70 72.5 0 1 184.27 165.17
  L 186.46 170.00
  Z"
/>
<path fill="none" stroke-width="1.00" stroke="#f4f4f4" vector-effect="non-scaling-stroke" d="
  M 225.72 167.83
  Q 228.93 167.36 228.94 170.06
  Q 229.03 197.38 228.98 225.27
  A 2.38 2.37 -70.3 0 0 229.84 227.10
  Q 232.14 229.01 230.00 230.71
  Q 225.42 232.22 220.75 230.96
  Q 221.42 228.59 225.26 226.04
  A 1.60 1.54 -17.7 0 0 225.97 224.72
  L 225.72 167.83
  Z"
/>
<path fill="none" stroke-width="1.00" stroke="#f4f4f4" vector-effect="non-scaling-stroke" d="
  M 307.00 172.25
  Q 306.77 173.46 305.75 174.07
  Q 305.26 174.36 305.04 174.73
  C 302.40 179.13 298.86 182.67 296.21 187.00
  A 1.70 1.14 -4.2 0 1 295.47 187.58
  Q 294.34 188.03 294.23 189.24
  A 1.51 1.08 77.2 0 1 293.87 190.09
  Q 292.01 191.94 291.30 194.71
  Q 286.33 201.87 284.67 203.42
  Q 283.76 204.27 283.51 205.23
  A 1.65 1.25 84.7 0 1 283.02 206.02
  C 279.97 208.51 282.26 211.16 282.04 213.79
  C 281.35 222.10 270.95 226.01 264.48 221.32
  C 259.58 217.77 259.31 221.39 256.31 223.81
  C 255.07 224.81 253.95 225.22 252.82 226.33
  Q 248.30 230.78 242.50 233.35
  A 1.74 1.36 -2.3 0 0 241.77 233.97
  C 240.52 236.01 240.49 237.48 241.36 239.85
  Q 241.74 240.86 241.76 241.95
  Q 241.77 242.52 241.54 242.01
  Q 239.93 238.51 240.46 234.50
  Q 241.31 233.88 241.57 232.91
  A 0.88 0.80 -88.6 0 1 242.15 232.30
  Q 246.04 231.27 249.01 228.54
  Q 249.39 228.19 248.93 228.43
  Q 244.90 230.44 248.75 227.25
  Q 253.26 224.47 256.47 220.35
  C 258.43 217.84 260.25 216.80 263.22 217.58
  Q 263.96 217.77 266.10 219.21
  C 271.31 222.72 274.53 220.53 278.95 217.30
  A 1.32 1.29 -12.8 0 0 279.46 216.51
  Q 280.33 212.19 279.71 207.72
  A 1.45 1.38 57.6 0 1 279.89 206.80
  C 284.65 198.75 290.33 192.60 297.26 184.13
  C 299.52 181.37 303.13 175.79 307.00 172.25
  Z"
/>
<path fill="none" stroke-width="1.00" stroke="#f4f4f4" vector-effect="non-scaling-stroke" d="
  M 180.94 181.81
  Q 180.46 180.60 181.27 180.34
  A 0.62 0.52 70.2 0 1 181.95 180.73
  Q 187.11 194.33 193.89 207.16
  C 194.21 207.77 195.32 208.68 194.85 209.55
  A 0.36 0.32 43.1 0 1 194.27 209.54
  C 188.39 200.99 185.63 193.60 180.94 181.81
  Z"
/>
<path fill="none" stroke-width="1.00" stroke="#f4f4f4" vector-effect="non-scaling-stroke" d="
  M 256.43 210.11
  Q 256.91 206.85 258.79 204.25
  L 267.60 185.26
  A 0.56 0.44 -62.8 0 1 268.27 184.95
  Q 269.00 185.38 268.50 186.80
  Q 263.68 200.38 256.43 210.11
  Z"
/>
<path fill="none" stroke-width="1.00" stroke="#f4f4f4" vector-effect="non-scaling-stroke" d="
  M 276.39 210.18
  Q 277.08 212.74 274.79 215.00
  Q 273.20 212.21 270.00 213.71
  C 274.45 211.32 269.17 208.77 266.69 208.13
  A 1.06 1.00 32.4 0 0 265.80 208.30
  Q 263.04 210.48 265.75 213.46
  C 259.61 211.94 262.05 206.63 266.31 205.71
  Q 272.37 204.39 276.39 210.18
  Z"
/>
<path fill="none" stroke-width="1.00" stroke="#f4f4f4" vector-effect="non-scaling-stroke" d="
  M 187.80 206.68
  Q 188.31 206.77 188.34 207.42
  A 1.28 0.98 -75.9 0 0 188.69 208.23
  Q 190.98 210.33 189.61 213.12
  A 1.13 1.08 5.1 0 1 188.90 213.69
  C 186.79 214.27 179.27 214.97 177.52 213.73
  A 1.32 1.12 -80.4 0 1 177.03 212.91
  C 175.92 206.43 181.68 204.22 186.86 206.48
  Q 186.92 206.51 187.80 206.68
  Z"
/>
<path fill="none" stroke-width="1.00" stroke="#f4f4f4" vector-effect="non-scaling-stroke" d="
  M 270.00 213.71
  Q 267.85 214.70 265.75 213.46
  Q 263.04 210.48 265.80 208.30
  A 1.06 1.00 32.4 0 1 266.69 208.13
  C 269.17 208.77 274.45 211.32 270.00 213.71
  Z"
/>
<path fill="none" stroke-width="1.00" stroke="#f4f4f4" vector-effect="non-scaling-stroke" d="
  M 260.00 212.46
  Q 257.70 212.68 259.78 214.32
  Q 260.68 215.02 259.75 215.27
  C 254.62 216.60 254.88 221.11 250.28 223.57
  C 249.17 224.16 248.44 226.23 246.65 227.15
  Q 243.08 229.01 239.73 231.21
  Q 236.84 233.11 235.58 236.57
  Q 234.12 233.35 234.50 230.04
  L 243.50 225.29
  Q 249.29 221.13 253.96 215.75
  L 257.71 211.00
  Q 259.99 207.95 260.00 212.46
  Z"
/>
<path fill="none" stroke-width="1.00" stroke="#f4f4f4" vector-effect="non-scaling-stroke" d="
  M 174.96 210.25
  C 175.72 221.20 190.09 221.31 192.14 211.25
  Q 192.51 209.43 193.46 211.02
  Q 196.54 216.22 201.81 219.87
  Q 203.21 222.47 206.04 223.75
  Q 210.62 227.32 215.94 229.74
  L 215.22 232.20
  Q 211.18 232.53 208.01 230.22
  Q 205.78 228.59 201.05 224.77
  C 198.92 223.06 197.17 219.41 193.67 222.14
  C 190.06 224.97 185.39 225.57 181.27 223.36
  Q 179.79 222.57 178.20 221.97
  A 1.66 1.62 82.6 0 1 177.44 221.37
  C 176.01 219.24 172.25 217.11 174.62 214.08
  A 1.10 1.06 -32.3 0 0 174.83 213.22
  Q 174.55 211.78 174.96 210.25
  Z"
/>
<path fill="none" stroke-width="1.00" stroke="#f4f4f4" vector-effect="non-scaling-stroke" d="
  M 260.00 212.46
  L 260.29 213.25
  L 260.61 215.70
  A 0.69 0.64 74.3 0 1 260.25 216.39
  C 257.47 217.70 256.17 220.26 254.05 221.94
  Q 251.10 224.28 248.75 227.25
  Q 246.89 227.77 245.71 229.25
  A 2.01 1.62 -75.8 0 1 244.94 229.83
  C 240.54 231.52 236.71 234.08 238.56 239.49
  C 238.97 240.68 239.82 241.07 238.97 242.63
  Q 238.75 243.02 239.20 243.01
  Q 240.65 242.96 239.73 244.35
  A 0.39 0.38 -63.1 0 0 239.91 244.92
  Q 241.00 245.36 241.75 246.21
  Q 241.86 247.21 242.58 247.75
  Q 243.09 248.13 243.24 248.44
  Q 244.05 250.11 243.46 252.00
  Q 237.99 244.95 235.58 236.57
  Q 236.84 233.11 239.73 231.21
  Q 243.08 229.01 246.65 227.15
  C 248.44 226.23 249.17 224.16 250.28 223.57
  C 254.88 221.11 254.62 216.60 259.75 215.27
  Q 260.68 215.02 259.78 214.32
  Q 257.70 212.68 260.00 212.46
  Z"
/>
<path fill="none" stroke-width="1.00" stroke="#f4f4f4" vector-effect="non-scaling-stroke" d="
  M 252.54 214.25
  Q 252.64 215.57 253.96 215.75
  Q 249.29 221.13 243.50 225.29
  Q 242.03 225.21 242.21 223.75
  L 247.30 219.50
  L 252.54 214.25
  Z"
/>
<path fill="none" stroke-width="1.00" stroke="#f4f4f4" vector-effect="non-scaling-stroke" d="
  M 248.75 227.25
  Q 244.90 230.44 248.93 228.43
  Q 249.39 228.19 249.01 228.54
  Q 246.04 231.27 242.15 232.30
  A 0.88 0.80 -88.6 0 0 241.57 232.91
  Q 241.31 233.88 240.46 234.50
  C 239.12 237.74 241.06 242.83 241.75 246.21
  Q 241.00 245.36 239.91 244.92
  A 0.39 0.38 -63.1 0 1 239.73 244.35
  Q 240.65 242.96 239.20 243.01
  Q 238.75 243.02 238.97 242.63
  C 239.82 241.07 238.97 240.68 238.56 239.49
  C 236.71 234.08 240.54 231.52 244.94 229.83
  A 2.01 1.62 -75.8 0 0 245.71 229.25
  Q 246.89 227.77 248.75 227.25
  Z"
/>
<path fill="none" stroke-width="1.00" stroke="#f4f4f4" vector-effect="non-scaling-stroke" d="
  M 234.50 230.04
  Q 234.12 233.35 235.58 236.57
  Q 237.99 244.95 243.46 252.00
  L 245.50 254.46
  Q 242.71 253.18 242.72 256.43
  Q 242.74 261.56 242.79 266.70
  Q 242.82 269.25 245.31 269.25
  L 248.96 269.25
  L 248.50 271.21
  Q 236.59 272.79 224.46 272.17
  Q 226.28 269.26 230.00 269.96
  C 234.78 270.79 235.13 267.74 234.99 263.90
  Q 234.67 254.97 235.73 246.67
  A 2.49 2.47 20.1 0 0 234.61 244.27
  Q 230.60 241.69 226.96 240.18
  C 223.07 238.58 220.00 236.07 215.93 234.71
  A 0.69 0.64 -80.9 0 1 215.49 234.05
  Q 215.50 233.31 215.25 232.71
  L 215.22 232.20
  L 215.94 229.74
  L 220.75 230.96
  Q 225.42 232.22 230.00 230.71
  Q 232.21 229.91 234.50 230.04
  Z"
/>
<path fill="none" stroke-width="1.00" stroke="#f4f4f4" vector-effect="non-scaling-stroke" d="
  M 215.25 232.71
  Q 215.50 233.31 215.49 234.05
  A 0.69 0.64 -80.9 0 0 215.93 234.71
  C 220.00 236.07 223.07 238.58 226.96 240.18
  Q 230.60 241.69 234.61 244.27
  A 2.49 2.47 20.1 0 1 235.73 246.67
  Q 234.67 254.97 234.99 263.90
  C 235.13 267.74 234.78 270.79 230.00 269.96
  Q 231.09 269.78 231.88 269.05
  A 1.23 1.01 71.6 0 0 232.21 268.19
  Q 232.03 258.75 232.01 249.28
  C 232.00 245.69 230.21 244.08 226.79 244.00
  L 222.70 242.04
  L 222.25 241.96
  L 218.50 239.46
  L 215.47 237.68
  A 0.54 0.46 -61.8 0 0 214.78 237.95
  L 213.54 240.50
  L 212.79 241.25
  L 215.25 232.71
  Z"
/>
<path fill="none" stroke-width="1.00" stroke="#f4f4f4" vector-effect="non-scaling-stroke" d="
  M 218.50 239.46
  Q 217.30 239.78 217.28 240.82
  Q 217.16 246.22 217.27 267.32
  C 217.28 269.00 217.73 271.74 220.16 270.09
  A 1.89 1.40 -55.4 0 1 221.07 269.78
  L 224.21 269.73
  Q 226.77 269.69 226.77 267.14
  L 226.79 244.00
  C 230.21 244.08 232.00 245.69 232.01 249.28
  Q 232.03 258.75 232.21 268.19
  A 1.23 1.01 71.6 0 1 231.88 269.05
  Q 231.09 269.78 230.00 269.96
  Q 226.28 269.26 224.46 272.17
  L 210.00 271.96
  Q 209.91 271.56 210.03 271.22
  A 0.88 0.62 5.5 0 1 210.78 270.79
  Q 212.69 270.74 214.26 269.72
  A 0.93 0.92 -17.2 0 0 214.68 268.93
  L 214.49 240.56
  A 0.34 0.32 75.9 0 0 214.01 240.25
  L 213.54 240.50
  L 214.78 237.95
  A 0.54 0.46 -61.8 0 1 215.47 237.68
  L 218.50 239.46
  Z"
/>
<path fill="none" stroke-width="1.00" stroke="#f4f4f4" vector-effect="non-scaling-stroke" d="
  M 218.50 239.46
  L 222.25 241.96
  Q 220.76 242.07 220.76 243.76
  C 220.75 245.83 220.21 253.20 220.94 254.69
  C 221.87 256.59 222.28 253.75 222.29 253.19
  Q 222.36 247.63 222.70 242.04
  L 226.79 244.00
  L 226.77 267.14
  Q 226.77 269.69 224.21 269.73
  L 221.07 269.78
  A 1.89 1.40 -55.4 0 0 220.16 270.09
  C 217.73 271.74 217.28 269.00 217.27 267.32
  Q 217.16 246.22 217.28 240.82
  Q 217.30 239.78 218.50 239.46
  Z"
/>
<path fill="none" stroke-width="1.00" stroke="#f4f4f4" vector-effect="non-scaling-stroke" d="
  M 210.00 271.96
  L 208.75 271.96
  C 209.82 269.99 208.09 269.27 206.43 269.29
  C 204.23 269.31 189.31 268.40 188.96 266.00
  L 190.00 265.04
  C 199.46 262.15 208.86 249.84 212.79 241.25
  L 213.54 240.50
  L 214.01 240.25
  A 0.34 0.32 75.9 0 1 214.49 240.56
  L 214.68 268.93
  A 0.93 0.92 -17.2 0 1 214.26 269.72
  Q 212.69 270.74 210.78 270.79
  A 0.88 0.62 5.5 0 0 210.03 271.22
  Q 209.91 271.56 210.00 271.96
  Z"
/>
<path fill="none" stroke-width="1.00" stroke="#f4f4f4" vector-effect="non-scaling-stroke" d="
  M 222.25 241.96
  L 222.70 242.04
  Q 222.36 247.63 222.29 253.19
  C 222.28 253.75 221.87 256.59 220.94 254.69
  C 220.21 253.20 220.75 245.83 220.76 243.76
  Q 220.76 242.07 222.25 241.96
  Z"
/>
<path fill="none" stroke-width="1.00" stroke="#f4f4f4" vector-effect="non-scaling-stroke" d="
  M 245.50 254.46
  Q 251.77 261.60 260.50 265.29
  Q 261.29 265.68 260.71 266.50
  Q 255.02 268.59 248.96 269.25
  L 245.31 269.25
  Q 242.82 269.25 242.79 266.70
  Q 242.74 261.56 242.72 256.43
  Q 242.71 253.18 245.50 254.46
  Z"
/>
<path fill="none" stroke-width="1.00" stroke="#f4f4f4" vector-effect="non-scaling-stroke" d="
  M 190.00 265.04
  L 188.96 266.00
  Q 188.40 266.43 188.02 266.50
  Q 184.17 266.63 180.92 268.74
  A 1.57 1.35 27.4 0 1 180.00 268.96
  C 176.01 268.67 175.18 272.49 173.98 275.29
  Q 172.70 279.28 169.00 280.33
  C 171.14 273.90 172.91 269.83 178.34 265.26
  A 1.50 1.01 -56.1 0 1 179.22 264.90
  L 190.00 265.04
  Z"
/>
<path fill="none" stroke-width="1.00" stroke="#f4f4f4" vector-effect="non-scaling-stroke" d="
  M 280.04 272.75
  L 283.20 279.59
  Q 279.44 279.53 278.46 276.00
  Q 277.51 272.30 275.11 269.36
  A 1.03 0.98 -19.4 0 0 274.28 268.99
  C 269.92 269.20 266.58 267.17 262.54 266.33
  A 0.49 0.48 -78.9 0 0 261.97 266.72
  Q 261.75 267.93 261.00 268.71
  L 260.71 266.50
  Q 261.29 265.68 260.50 265.29
  Q 266.94 264.37 273.43 264.83
  A 0.94 0.88 76.0 0 1 274.16 265.30
  C 275.88 268.39 278.80 268.57 280.04 272.75
  Z"
/>
<path fill="none" stroke-width="1.00" stroke="#f4f4f4" vector-effect="non-scaling-stroke" d="
  M 188.96 266.00
  C 189.31 268.40 204.23 269.31 206.43 269.29
  C 208.09 269.27 209.82 269.99 208.75 271.96
  Q 199.49 271.64 189.50 269.25
  Q 187.64 268.81 188.02 266.50
  Q 188.40 266.43 188.96 266.00
  Z"
/>
<path fill="none" stroke-width="1.00" stroke="#f4f4f4" vector-effect="non-scaling-stroke" d="
  M 188.02 266.50
  Q 187.64 268.81 189.50 269.25
  Q 199.49 271.64 208.75 271.96
  L 210.00 271.96
  L 224.46 272.17
  Q 236.59 272.79 248.50 271.21
  Q 254.99 271.06 261.00 268.71
  Q 261.75 267.93 261.97 266.72
  A 0.49 0.48 -78.9 0 1 262.54 266.33
  C 266.58 267.17 269.92 269.20 274.28 268.99
  A 1.03 0.98 -19.4 0 1 275.11 269.36
  Q 277.51 272.30 278.46 276.00
  C 274.90 274.30 266.78 274.70 262.92 274.94
  C 255.55 275.41 247.88 275.57 240.50 275.66
  Q 214.89 275.99 196.02 275.23
  C 194.68 275.17 193.32 274.41 192.32 274.40
  Q 183.15 274.27 173.98 275.29
  C 175.18 272.49 176.01 268.67 180.00 268.96
  A 1.57 1.35 27.4 0 0 180.92 268.74
  Q 184.17 266.63 188.02 266.50
  Z"
/>
<path fill="none" stroke-width="1.00" stroke="#f4f4f4" vector-effect="non-scaling-stroke" d="
  M 260.71 266.50
  L 261.00 268.71
  Q 254.99 271.06 248.50 271.21
  L 248.96 269.25
  Q 255.02 268.59 260.71 266.50
  Z"
/>
<path fill="none" stroke-width="1.00" stroke="#f4f4f4" vector-effect="non-scaling-stroke" d="
  M 289.71 303.25
  L 285.75 303.04
  L 283.94 302.91
  A 0.66 0.51 -88.8 0 1 283.47 302.27
  L 283.20 279.59
  L 280.04 272.75
  Q 281.28 271.55 281.93 272.74
  Q 284.35 277.20 285.92 280.99
  C 288.04 286.06 286.99 294.61 287.01 300.16
  C 287.02 302.07 287.98 302.87 289.71 303.25
  Z"
/>
<path fill="none" stroke-width="1.00" stroke="#f4f4f4" vector-effect="non-scaling-stroke" d="
  M 278.46 276.00
  Q 279.44 279.53 283.20 279.59
  L 283.47 302.27
  A 0.66 0.51 -88.8 0 0 283.94 302.91
  L 285.75 303.04
  Q 282.94 302.81 283.74 304.57
  A 0.72 0.63 -15.7 0 0 284.47 304.92
  C 288.19 304.41 288.58 308.85 289.96 312.00
  Q 288.99 311.76 288.47 310.91
  A 0.47 0.45 58.0 0 0 287.83 310.75
  Q 286.54 311.56 285.27 310.97
  A 1.24 1.17 13.1 0 0 283.51 311.99
  L 283.58 320.76
  A 1.91 1.68 80.6 0 1 282.50 322.50
  Q 280.04 323.44 279.04 321.89
  C 277.81 319.98 278.48 309.76 278.52 307.01
  C 278.60 300.00 277.56 291.49 278.06 283.74
  Q 278.24 281.00 275.50 281.23
  Q 271.73 281.54 269.81 278.70
  A 1.84 1.12 73.7 0 0 269.11 278.06
  Q 266.92 277.10 265.92 278.90
  A 1.65 1.64 15.1 0 1 264.45 279.74
  C 258.37 279.63 252.28 280.03 246.23 279.70
  C 241.60 279.45 235.96 279.97 232.32 279.93
  C 225.61 279.86 218.86 280.29 212.23 280.04
  C 204.35 279.75 195.75 280.57 188.04 279.51
  A 1.27 1.20 72.6 0 1 187.24 279.06
  Q 184.10 275.32 179.42 277.84
  A 0.36 0.33 51.0 0 0 179.39 278.40
  Q 180.18 279.12 179.74 280.12
  A 0.66 0.58 33.7 0 0 179.93 280.83
  L 180.90 281.65
  A 0.19 0.19 28.4 0 0 181.21 281.56
  Q 181.28 281.32 181.42 281.20
  A 0.55 0.38 62.5 0 1 182.09 281.55
  C 183.87 285.96 181.93 288.54 181.79 292.48
  Q 181.59 298.33 181.75 304.20
  Q 181.76 304.61 182.04 305.11
  Q 182.52 305.97 182.17 306.80
  Q 181.94 307.33 181.95 307.73
  L 182.26 323.98
  A 1.02 0.92 -88.5 0 1 181.27 325.02
  L 178.25 324.79
  L 169.31 322.34
  A 0.74 0.65 -83.8 0 1 168.83 321.66
  Q 168.67 314.41 168.48 307.15
  C 168.44 305.52 167.71 304.49 165.97 305.11
  A 1.32 1.08 -82.0 0 0 165.29 305.74
  Q 160.98 314.17 158.34 323.14
  A 0.44 0.44 15.1 0 0 158.66 323.69
  C 168.41 326.22 179.59 329.95 189.63 330.08
  Q 226.06 330.54 262.47 330.11
  Q 266.69 330.06 270.89 329.01
  Q 281.92 326.24 293.06 323.75
  A 0.91 0.91 80.0 0 0 293.76 322.74
  Q 293.54 321.07 292.50 319.46
  L 292.29 318.25
  L 293.10 318.52
  A 0.76 0.60 -59.6 0 0 293.86 318.22
  L 294.88 316.86
  A 0.67 0.66 -43.4 0 0 294.91 316.09
  Q 293.95 314.65 294.04 312.75
  L 299.40 325.04
  A 1.90 1.54 -58.1 0 1 299.52 325.99
  L 298.53 333.75
  A 0.74 0.68 88.1 0 1 297.99 334.38
  L 284.50 337.29
  Q 283.29 337.35 283.02 336.27
  A 0.66 0.58 82.9 0 0 282.45 335.77
  C 273.22 335.63 263.43 336.23 254.85 336.10
  Q 228.37 335.70 212.19 336.12
  Q 189.15 336.71 180.19 335.65
  C 178.14 335.41 170.47 334.83 169.82 336.76
  A 0.49 0.46 -72.5 0 1 169.24 337.09
  Q 167.36 336.49 165.50 336.71
  L 156.00 334.79
  L 154.04 334.50
  L 153.54 334.00
  C 152.90 330.23 152.12 326.64 153.69 322.92
  Q 157.77 313.26 162.03 303.55
  A 0.93 0.92 11.6 0 1 162.88 303.00
  L 168.16 302.98
  A 0.78 0.74 89.6 0 0 168.89 302.20
  L 169.00 280.33
  Q 172.70 279.28 173.98 275.29
  Q 183.15 274.27 192.32 274.40
  C 193.32 274.41 194.68 275.17 196.02 275.23
  Q 214.89 275.99 240.50 275.66
  C 247.88 275.57 255.55 275.41 262.92 274.94
  C 266.78 274.70 274.90 274.30 278.46 276.00
  Z"
/>
<path fill="none" stroke-width="1.00" stroke="#f4f4f4" vector-effect="non-scaling-stroke" d="
  M 289.96 312.00
  L 292.29 318.25
  L 292.50 319.46
  Q 290.50 317.92 288.43 319.08
  A 1.22 1.13 -50.3 0 1 287.53 319.20
  Q 283.80 318.12 283.82 322.09
  A 0.70 0.68 80.7 0 1 283.36 322.75
  Q 278.73 324.26 274.48 324.01
  Q 272.20 323.87 270.25 325.04
  Q 266.73 327.15 266.08 321.14
  Q 265.90 319.48 264.12 318.90
  L 260.50 317.71
  Q 262.14 314.99 261.79 311.75
  Q 262.03 307.89 264.27 307.42
  Q 266.49 306.96 266.51 304.67
  L 266.67 282.80
  A 0.76 0.75 -89.6 0 0 265.92 282.03
  Q 254.52 282.04 242.94 282.13
  C 237.63 282.17 230.27 282.90 223.92 282.64
  Q 211.54 282.14 210.18 282.14
  Q 201.79 282.17 193.40 282.20
  C 190.60 282.21 186.86 280.07 185.17 284.21
  Q 185.09 284.39 185.10 285.18
  L 185.14 289.02
  Q 185.15 289.85 185.19 289.99
  C 186.95 295.68 185.47 300.53 186.47 305.38
  A 0.59 0.51 4.5 0 0 186.88 305.79
  L 187.19 305.87
  A 1.04 0.85 84.7 0 1 187.82 306.51
  Q 188.53 308.56 190.46 309.50
  L 190.56 316.18
  A 1.12 1.10 -69.8 0 0 190.94 317.02
  L 195.75 321.21
  Q 195.53 321.42 195.28 321.48
  A 1.15 0.59 48.5 0 1 194.43 321.15
  Q 191.35 318.50 187.48 320.27
  Q 186.60 320.67 186.89 321.14
  A 0.75 0.46 53.1 0 1 186.96 321.89
  L 186.41 322.58
  A 0.99 0.97 58.2 0 0 186.22 323.42
  Q 186.53 324.76 185.82 325.91
  A 0.78 0.71 -67.3 0 1 185.03 326.28
  L 178.25 324.79
  L 181.27 325.02
  A 1.02 0.92 -88.5 0 0 182.26 323.98
  L 181.95 307.73
  Q 181.94 307.33 182.17 306.80
  Q 182.52 305.97 182.04 305.11
  Q 181.76 304.61 181.75 304.20
  Q 181.59 298.33 181.79 292.48
  C 181.93 288.54 183.87 285.96 182.09 281.55
  A 0.55 0.38 62.5 0 0 181.42 281.20
  Q 181.28 281.32 181.21 281.56
  A 0.19 0.19 28.4 0 1 180.90 281.65
  L 179.93 280.83
  A 0.66 0.58 33.7 0 1 179.74 280.12
  Q 180.18 279.12 179.39 278.40
  A 0.36 0.33 51.0 0 1 179.42 277.84
  Q 184.10 275.32 187.24 279.06
  A 1.27 1.20 72.6 0 0 188.04 279.51
  C 195.75 280.57 204.35 279.75 212.23 280.04
  C 218.86 280.29 225.61 279.86 232.32 279.93
  C 235.96 279.97 241.60 279.45 246.23 279.70
  C 252.28 280.03 258.37 279.63 264.45 279.74
  A 1.65 1.64 15.1 0 0 265.92 278.90
  Q 266.92 277.10 269.11 278.06
  A 1.84 1.12 73.7 0 1 269.81 278.70
  Q 271.73 281.54 275.50 281.23
  Q 278.24 281.00 278.06 283.74
  C 277.56 291.49 278.60 300.00 278.52 307.01
  C 278.48 309.76 277.81 319.98 279.04 321.89
  Q 280.04 323.44 282.50 322.50
  A 1.91 1.68 80.6 0 0 283.58 320.76
  L 283.51 311.99
  A 1.24 1.17 13.1 0 1 285.27 310.97
  Q 286.54 311.56 287.83 310.75
  A 0.47 0.45 58.0 0 1 288.47 310.91
  Q 288.99 311.76 289.96 312.00
  Z"
/>
<path fill="none" stroke-width="1.00" stroke="#f4f4f4" vector-effect="non-scaling-stroke" d="
  M 261.79 311.75
  L 261.56 291.49
  A 1.17 0.99 -73.7 0 0 261.19 290.66
  L 256.34 286.58
  A 1.37 1.36 -24.7 0 0 255.46 286.26
  L 239.50 286.29
  L 219.00 286.29
  L 205.00 286.29
  L 196.75 286.26
  A 1.44 1.16 19.6 0 0 195.86 286.57
  L 190.86 290.95
  A 1.21 1.00 72.8 0 0 190.51 291.80
  L 190.46 309.50
  Q 188.53 308.56 187.82 306.51
  A 1.04 0.85 84.7 0 0 187.19 305.87
  L 186.88 305.79
  A 0.59 0.51 4.5 0 1 186.47 305.38
  C 185.47 300.53 186.95 295.68 185.19 289.99
  Q 185.15 289.85 185.14 289.02
  L 185.10 285.18
  Q 185.09 284.39 185.17 284.21
  C 186.86 280.07 190.60 282.21 193.40 282.20
  Q 201.79 282.17 210.18 282.14
  Q 211.54 282.14 223.92 282.64
  C 230.27 282.90 237.63 282.17 242.94 282.13
  Q 254.52 282.04 265.92 282.03
  A 0.76 0.75 -89.6 0 1 266.67 282.80
  L 266.51 304.67
  Q 266.49 306.96 264.27 307.42
  Q 262.03 307.89 261.79 311.75
  Z"
/>
<path fill="none" stroke-width="1.00" stroke="#f4f4f4" vector-effect="non-scaling-stroke" d="
  M 205.00 286.29
  L 204.86 287.45
  A 0.47 0.44 -86.5 0 0 205.29 287.97
  L 212.43 287.87
  A 1.53 0.75 -12.0 0 1 213.35 288.10
  Q 214.28 288.85 213.00 289.71
  C 207.70 289.78 195.03 287.32 193.82 294.56
  Q 192.96 299.74 193.27 315.20
  A 1.17 0.90 -76.2 0 0 193.64 316.04
  L 197.37 318.99
  A 1.62 0.95 -14.6 0 0 198.29 319.25
  L 207.96 319.25
  L 217.54 319.62
  A 0.71 0.63 81.1 0 1 218.15 320.12
  L 218.36 320.79
  A 0.77 0.59 -4.1 0 0 219.03 321.23
  L 223.50 321.46
  Q 210.59 321.84 197.69 321.59
  Q 196.67 321.57 195.75 321.21
  L 190.94 317.02
  A 1.12 1.10 -69.8 0 1 190.56 316.18
  L 190.46 309.50
  L 190.51 291.80
  A 1.21 1.00 72.8 0 1 190.86 290.95
  L 195.86 286.57
  A 1.44 1.16 19.6 0 1 196.75 286.26
  L 205.00 286.29
  Z"
/>
<path fill="none" stroke-width="1.00" stroke="#f4f4f4" vector-effect="non-scaling-stroke" d="
  M 205.00 286.29
  L 219.00 286.29
  Q 218.04 286.43 217.97 287.32
  A 0.56 0.49 3.7 0 0 218.50 287.85
  Q 228.77 288.45 239.00 287.88
  A 1.32 1.00 13.5 0 0 239.86 287.50
  Q 240.55 286.71 239.50 286.29
  L 255.46 286.26
  A 1.37 1.36 -24.7 0 1 256.34 286.58
  L 261.19 290.66
  A 1.17 0.99 -73.7 0 1 261.56 291.49
  L 261.79 311.75
  Q 262.14 314.99 260.50 317.71
  Q 257.55 321.29 254.25 321.75
  Q 250.61 322.26 230.50 321.46
  Q 236.59 321.15 242.57 320.01
  C 248.06 318.97 258.39 322.77 259.03 313.59
  Q 259.47 307.37 258.24 301.20
  L 258.29 293.74
  A 1.55 1.10 -71.2 0 0 258.02 292.83
  C 254.24 288.19 250.95 289.82 245.75 289.79
  L 234.25 289.79
  L 230.15 290.15
  L 213.00 289.71
  Q 214.28 288.85 213.35 288.10
  A 1.53 0.75 -12.0 0 0 212.43 287.87
  L 205.29 287.97
  A 0.47 0.44 -86.5 0 1 204.86 287.45
  L 205.00 286.29
  Z"
/>
<path fill="none" stroke-width="1.00" stroke="#f4f4f4" vector-effect="non-scaling-stroke" d="
  M 219.00 286.29
  L 239.50 286.29
  Q 240.55 286.71 239.86 287.50
  A 1.32 1.00 13.5 0 1 239.00 287.88
  Q 228.77 288.45 218.50 287.85
  A 0.56 0.49 3.7 0 1 217.97 287.32
  Q 218.04 286.43 219.00 286.29
  Z"
/>
<path fill="none" stroke-width="1.00" stroke="#f4f4f4" vector-effect="non-scaling-stroke" d="
  M 213.00 289.71
  L 230.15 290.15
  Q 228.31 294.61 224.88 297.96
  Q 220.64 302.11 219.99 302.88
  Q 214.35 309.57 208.61 316.16
  A 1.41 0.37 -85.5 0 0 208.31 317.02
  L 207.96 319.25
  L 198.29 319.25
  A 1.62 0.95 -14.6 0 1 197.37 318.99
  L 193.64 316.04
  A 1.17 0.90 -76.2 0 1 193.27 315.20
  Q 192.96 299.74 193.82 294.56
  C 195.03 287.32 207.70 289.78 213.00 289.71
  Z
  M 201.0611 303.1552
  A 2.35 2.08 -5.0 0 0 198.5387 301.2879
  A 2.35 2.08 -5.0 0 0 196.3789 303.5648
  A 2.35 2.08 -5.0 0 0 198.9013 305.4321
  A 2.35 2.08 -5.0 0 0 201.0611 303.1552
  Z"
/>
<path fill="none" stroke-width="1.00" stroke="#f4f4f4" vector-effect="non-scaling-stroke" d="
  M 245.75 289.79
  C 247.77 290.24 247.04 291.80 246.06 292.79
  Q 243.82 295.03 242.26 297.81
  A 1.37 1.30 3.8 0 1 241.55 298.40
  C 239.33 299.23 238.87 301.45 237.84 302.67
  Q 233.37 307.92 229.34 313.47
  C 228.29 314.91 225.64 315.85 227.50 318.46
  L 217.06 317.91
  Q 214.84 317.79 216.20 316.22
  C 220.29 311.48 225.04 306.68 228.56 301.53
  C 229.93 299.53 232.81 298.74 233.03 296.05
  A 1.96 1.22 76.9 0 1 233.34 295.14
  Q 234.31 293.84 235.75 293.16
  A 1.57 1.16 -6.0 0 0 236.44 292.53
  Q 237.86 289.64 234.25 289.79
  L 245.75 289.79
  Z"
/>
<path fill="none" stroke-width="1.00" stroke="#f4f4f4" vector-effect="non-scaling-stroke" d="
  M 258.24 301.20
  Q 257.48 306.68 257.77 312.18
  C 258.22 320.53 245.73 317.87 240.81 318.20
  C 236.35 318.49 231.95 318.23 227.50 318.46
  C 225.64 315.85 228.29 314.91 229.34 313.47
  Q 233.37 307.92 237.84 302.67
  C 238.87 301.45 239.33 299.23 241.55 298.40
  A 1.37 1.30 3.8 0 0 242.26 297.81
  Q 243.82 295.03 246.06 292.79
  C 247.04 291.80 247.77 290.24 245.75 289.79
  C 250.95 289.82 254.24 288.19 258.02 292.83
  A 1.55 1.10 -71.2 0 1 258.29 293.74
  L 258.24 301.20
  Z
  M 255.5529 303.5296
  A 1.59 1.41 5.4 0 0 254.1027 301.9763
  A 1.59 1.41 5.4 0 0 252.3871 303.2304
  A 1.59 1.41 5.4 0 0 253.8373 304.7837
  A 1.59 1.41 5.4 0 0 255.5529 303.5296
  Z"
/>
<path fill="none" stroke-width="1.00" stroke="#f4f4f4" vector-effect="non-scaling-stroke" d="
  M 234.25 289.79
  Q 237.86 289.64 236.44 292.53
  A 1.57 1.16 -6.0 0 1 235.75 293.16
  Q 234.31 293.84 233.34 295.14
  A 1.96 1.22 76.9 0 0 233.03 296.05
  C 232.81 298.74 229.93 299.53 228.56 301.53
  C 225.04 306.68 220.29 311.48 216.20 316.22
  Q 214.84 317.79 217.06 317.91
  L 227.50 318.46
  C 231.95 318.23 236.35 318.49 240.81 318.20
  C 245.73 317.87 258.22 320.53 257.77 312.18
  Q 257.48 306.68 258.24 301.20
  Q 259.47 307.37 259.03 313.59
  C 258.39 322.77 248.06 318.97 242.57 320.01
  Q 236.59 321.15 230.50 321.46
  L 223.50 321.46
  L 219.03 321.23
  A 0.77 0.59 -4.1 0 1 218.36 320.79
  L 218.15 320.12
  A 0.71 0.63 81.1 0 0 217.54 319.62
  L 207.96 319.25
  L 208.31 317.02
  A 1.41 0.37 -85.5 0 1 208.61 316.16
  Q 214.35 309.57 219.99 302.88
  Q 220.64 302.11 224.88 297.96
  Q 228.31 294.61 230.15 290.15
  L 234.25 289.79
  Z"
/>
<path fill="none" stroke-width="1.00" stroke="#f4f4f4" vector-effect="non-scaling-stroke" d="
  M 201.0611 303.1552
  A 2.35 2.08 -5.0 0 1 198.9013 305.4321
  A 2.35 2.08 -5.0 0 1 196.3789 303.5648
  A 2.35 2.08 -5.0 0 1 198.5387 301.2879
  A 2.35 2.08 -5.0 0 1 201.0611 303.1552
  Z
  M 199.11 301.99
  Q 198.31 301.73 197.94 302.30
  A 0.56 0.47 30.9 0 0 198.18 303.01
  Q 199.86 303.93 199.68 302.68
  A 0.87 0.83 -85.8 0 0 199.11 301.99
  Z"
/>
<path fill="none" stroke-width="1.00" stroke="#f4f4f4" vector-effect="non-scaling-stroke" d="
  M 199.68 302.68
  Q 199.86 303.93 198.18 303.01
  A 0.56 0.47 30.9 0 1 197.94 302.30
  Q 198.31 301.73 199.11 301.99
  A 0.87 0.83 -85.8 0 1 199.68 302.68
  Z"
/>
<ellipse fill="none" stroke-width="1.00" stroke="#f4f4f4" vector-effect="non-scaling-stroke" cx="0.00" cy="0.00" transform="translate(253.97,303.38) rotate(5.4)" rx="1.59" ry="1.41"/>
<path fill="none" stroke-width="1.00" stroke="#f4f4f4" vector-effect="non-scaling-stroke" d="
  M 285.75 303.04
  L 289.71 303.25
  L 290.79 305.00
  Q 291.11 306.93 292.29 308.50
  L 294.04 312.75
  Q 293.95 314.65 294.91 316.09
  A 0.67 0.66 -43.4 0 1 294.88 316.86
  L 293.86 318.22
  A 0.76 0.60 -59.6 0 1 293.10 318.52
  L 292.29 318.25
  L 289.96 312.00
  C 288.58 308.85 288.19 304.41 284.47 304.92
  A 0.72 0.63 -15.7 0 1 283.74 304.57
  Q 282.94 302.81 285.75 303.04
  Z"
/>
<path fill="none" stroke-width="1.00" stroke="#f4f4f4" vector-effect="non-scaling-stroke" d="
  M 154.04 334.50
  L 156.00 334.79
  L 157.06 336.77
  A 1.48 1.48 87.4 0 0 157.75 337.40
  C 162.20 339.28 166.40 339.72 171.06 340.70
  Q 176.77 341.90 182.44 343.25
  Q 186.58 344.24 190.66 344.25
  Q 231.18 344.32 271.69 344.16
  Q 275.79 344.14 279.78 343.13
  Q 289.65 340.63 299.55 338.19
  A 1.54 1.43 11.1 0 0 300.36 337.69
  Q 303.54 333.76 302.77 329.75
  Q 301.45 322.90 296.58 311.28
  Q 296.47 311.02 296.35 311.26
  L 296.23 311.50
  Q 296.04 311.89 295.86 311.50
  L 294.61 308.76
  A 1.26 0.97 81.9 0 0 293.94 308.11
  Q 293.13 307.86 292.29 308.50
  Q 291.11 306.93 290.79 305.00
  Q 294.51 304.71 295.80 307.74
  Q 299.47 316.36 303.28 324.94
  C 305.47 329.85 305.27 337.50 299.21 339.66
  Q 292.14 342.18 276.64 345.14
  Q 271.12 346.19 265.13 346.20
  Q 227.47 346.29 189.80 346.25
  Q 185.86 346.25 181.81 345.27
  Q 174.56 343.52 167.23 342.11
  C 164.71 341.62 162.07 340.64 159.42 340.14
  C 155.95 339.47 154.72 337.70 154.04 334.50
  Z"
/>
<path fill="none" stroke-width="1.00" stroke="#f4f4f4" vector-effect="non-scaling-stroke" d="
  M 178.25 324.79
  L 185.03 326.28
  A 0.78 0.71 -67.3 0 0 185.82 325.91
  Q 186.53 324.76 186.22 323.42
  A 0.99 0.97 58.2 0 1 186.41 322.58
  L 186.96 321.89
  A 0.75 0.46 53.1 0 0 186.89 321.14
  Q 186.60 320.67 187.48 320.27
  Q 191.35 318.50 194.43 321.15
  A 1.15 0.59 48.5 0 0 195.28 321.48
  Q 195.53 321.42 195.75 321.21
  Q 196.67 321.57 197.69 321.59
  Q 210.59 321.84 223.50 321.46
  L 230.50 321.46
  Q 250.61 322.26 254.25 321.75
  Q 257.55 321.29 260.50 317.71
  L 264.12 318.90
  Q 265.90 319.48 266.08 321.14
  Q 266.73 327.15 270.25 325.04
  Q 272.20 323.87 274.48 324.01
  Q 278.73 324.26 283.36 322.75
  A 0.70 0.68 80.7 0 0 283.82 322.09
  Q 283.80 318.12 287.53 319.20
  A 1.22 1.13 -50.3 0 0 288.43 319.08
  Q 290.50 317.92 292.50 319.46
  Q 293.54 321.07 293.76 322.74
  A 0.91 0.91 80.0 0 1 293.06 323.75
  Q 281.92 326.24 270.89 329.01
  Q 266.69 330.06 262.47 330.11
  Q 226.06 330.54 189.63 330.08
  C 179.59 329.95 168.41 326.22 158.66 323.69
  A 0.44 0.44 15.1 0 1 158.34 323.14
  Q 160.98 314.17 165.29 305.74
  A 1.32 1.08 -82.0 0 1 165.97 305.11
  C 167.71 304.49 168.44 305.52 168.48 307.15
  Q 168.67 314.41 168.83 321.66
  A 0.74 0.65 -83.8 0 0 169.31 322.34
  L 178.25 324.79
  Z"
/>
<path fill="none" stroke-width="1.00" stroke="#f4f4f4" vector-effect="non-scaling-stroke" d="
  M 156.00 334.79
  L 165.50 336.71
  C 174.15 339.54 181.75 340.95 191.40 340.96
  Q 226.76 341.00 262.13 340.96
  C 270.43 340.94 276.99 339.67 284.50 337.29
  L 297.99 334.38
  A 0.74 0.68 88.1 0 0 298.53 333.75
  L 299.52 325.99
  A 1.90 1.54 -58.1 0 0 299.40 325.04
  L 294.04 312.75
  L 292.29 308.50
  Q 293.13 307.86 293.94 308.11
  A 1.26 0.97 81.9 0 1 294.61 308.76
  L 295.86 311.50
  Q 296.04 311.89 296.23 311.50
  L 296.35 311.26
  Q 296.47 311.02 296.58 311.28
  Q 301.45 322.90 302.77 329.75
  Q 303.54 333.76 300.36 337.69
  A 1.54 1.43 11.1 0 1 299.55 338.19
  Q 289.65 340.63 279.78 343.13
  Q 275.79 344.14 271.69 344.16
  Q 231.18 344.32 190.66 344.25
  Q 186.58 344.24 182.44 343.25
  Q 176.77 341.90 171.06 340.70
  C 166.40 339.72 162.20 339.28 157.75 337.40
  A 1.48 1.48 86.1 0 1 157.06 336.77
  L 156.00 334.79
  Z"
/>
<path fill="none" stroke-width="1.00" stroke="#f4f4f4" vector-effect="non-scaling-stroke" d="
  M 284.50 337.29
  C 276.99 339.67 270.43 340.94 262.13 340.96
  Q 226.76 341.00 191.40 340.96
  C 181.75 340.95 174.15 339.54 165.50 336.71
  Q 167.36 336.49 169.24 337.09
  A 0.49 0.46 -72.5 0 0 169.82 336.76
  C 170.47 334.83 178.14 335.41 180.19 335.65
  Q 189.15 336.71 212.19 336.12
  Q 228.37 335.70 254.85 336.10
  C 263.43 336.23 273.22 335.63 282.45 335.77
  A 0.66 0.58 82.9 0 1 283.02 336.27
  Q 283.29 337.35 284.50 337.29
  Z"
/>
</svg>
