<?xml version="1.0" encoding="UTF-8" standalone="no"?>
<svg xmlns="http://www.w3.org/2000/svg" version="1.2" baseProfile="tiny" viewBox="0 0 200 200">
<path fill="#F4F4F4" d="
  M 14.43 79.54
  Q 9.63 79.20 10.54 74.21
  A 0.91 0.87 27.7 0 0 10.27 73.40
  C 6.32 69.65 6.94 57.51 12.17 53.81
  A 0.71 0.60 64.4 0 0 12.37 53.06
  L 11.09 49.26
  A 0.70 0.61 79.5 0 0 10.49 48.78
  C 3.88 48.75 6.60 38.96 7.50 35.24
  Q 8.36 31.66 12.07 31.61
  A 0.82 0.78 11.8 0 0 12.78 31.17
  Q 14.24 28.11 17.53 27.59
  A 1.26 1.24 13.9 0 0 18.32 27.12
  Q 20.90 23.84 25.05 23.05
  A 1.23 1.13 -31.3 0 1 25.96 23.23
  Q 27.73 24.46 28.28 26.63
  A 0.61 0.59 81.6 0 0 28.88 27.09
  Q 39.56 26.69 50.14 26.62
  C 53.59 26.60 56.18 28.87 59.57 28.97
  Q 84.66 29.76 127.06 29.57
  A 1.68 1.40 -59.6 0 0 127.95 29.25
  C 129.87 27.83 131.99 28.74 133.66 28.71
  Q 143.08 28.54 152.50 28.31
  A 0.83 0.79 -78.4 0 0 153.20 27.82
  C 155.10 23.53 158.15 25.92 161.04 25.42
  C 163.99 24.91 164.94 22.64 167.39 22.35
  C 171.12 21.90 171.52 25.63 172.46 28.16
  A 1.11 0.96 2.1 0 0 173.13 28.78
  C 178.35 30.49 178.78 36.64 179.73 41.24
  A 1.23 1.23 75.5 0 0 181.31 42.17
  C 184.07 41.29 185.99 42.58 187.29 45.11
  C 190.00 50.37 193.49 57.45 193.20 62.86
  A 1.04 0.62 -22.1 0 1 192.69 63.53
  L 191.31 64.37
  A 0.88 0.57 72.6 0 0 191.08 65.20
  C 191.54 67.59 190.50 69.04 188.03 69.42
  C 180.02 70.67 169.29 75.93 172.76 86.11
  Q 173.47 88.17 176.56 91.29
  C 182.64 97.39 186.91 103.63 189.40 112.17
  C 192.38 122.38 194.73 134.87 193.18 145.38
  C 192.82 147.82 191.77 148.83 189.67 149.77
  A 1.00 0.96 -7.0 0 0 189.11 150.46
  C 187.51 157.74 182.84 157.73 176.54 157.31
  A 0.55 0.55 6.3 0 0 175.96 157.77
  C 174.80 165.66 172.64 177.73 162.19 177.54
  C 150.13 177.33 143.16 173.92 131.42 167.29
  Q 115.90 158.51 98.76 153.21
  Q 96.46 152.50 94.06 152.53
  C 90.58 152.57 76.25 153.77 75.83 148.52
  A 1.55 1.54 -7.7 0 1 77.09 146.88
  Q 95.34 143.51 110.44 149.56
  Q 121.73 154.08 140.28 164.99
  C 147.01 168.95 161.06 173.78 167.32 166.60
  Q 170.43 163.03 169.79 157.51
  A 0.56 0.55 86.0 0 0 169.23 157.02
  C 166.30 157.07 161.43 157.78 159.96 154.59
  A 0.65 0.62 72.3 0 0 159.28 154.22
  Q 151.57 155.40 150.18 148.54
  C 149.54 145.40 152.03 143.62 151.25 140.32
  Q 148.89 130.30 146.14 120.40
  C 143.97 112.61 144.44 103.71 140.05 96.92
  Q 138.41 94.41 135.54 95.28
  C 130.29 96.88 126.00 97.49 120.30 96.15
  C 110.83 93.92 100.72 94.72 91.06 95.11
  Q 88.56 95.21 86.77 93.64
  A 0.84 0.75 -62.3 0 1 86.56 92.81
  Q 87.46 89.82 87.16 86.82
  Q 86.91 84.31 84.53 83.46
  C 78.64 81.37 79.54 85.61 77.15 88.32
  C 73.10 92.94 67.96 96.17 61.59 95.94
  Q 48.80 95.50 36.04 95.89
  C 26.80 96.17 14.26 91.41 14.90 80.07
  A 0.50 0.50 -85.0 0 0 14.43 79.54
  Z
  M 167.69 28.49
  Q 171.43 28.79 168.61 25.22
  A 1.17 0.99 68.3 0 0 167.79 24.78
  Q 166.33 24.74 165.76 26.22
  A 0.93 0.67 -78.0 0 1 165.12 26.80
  L 157.16 27.49
  A 0.86 0.33 -1.0 0 0 156.47 27.77
  L 156.29 28.17
  A 0.47 0.34 6.8 0 0 156.80 28.64
  C 160.39 28.50 164.11 28.19 167.69 28.49
  Z
  M 22.60 26.97
  Q 23.83 27.68 25.29 27.14
  A 0.70 0.66 -12.6 0 0 25.75 26.46
  C 25.59 24.76 23.25 25.71 22.54 26.33
  A 0.40 0.40 39.7 0 0 22.60 26.97
  Z
  M 85.44 49.56
  Q 96.49 49.36 102.24 48.52
  A 0.63 0.58 -4.1 0 0 102.77 47.95
  L 102.87 32.35
  A 0.54 0.50 0.6 0 0 102.34 31.85
  Q 81.99 31.67 61.64 31.05
  Q 57.65 30.92 53.07 29.98
  C 43.42 28.00 33.45 29.95 23.54 29.56
  C 14.05 29.18 13.34 33.21 13.20 41.78
  Q 13.13 45.57 13.79 49.39
  A 0.67 0.66 -2.3 0 0 14.38 49.93
  C 37.81 51.98 61.94 49.98 85.44 49.56
  Z
  M 130.70 31.61
  C 135.18 32.46 139.61 31.66 145.76 32.04
  C 154.18 32.57 162.68 31.34 171.21 31.67
  Q 171.82 31.69 171.51 31.22
  C 170.40 29.57 161.26 30.48 159.72 30.49
  C 157.42 30.51 132.21 29.56 130.56 31.15
  Q 130.17 31.51 130.70 31.61
  Z
  M 105.58 48.99
  L 119.91 50.01
  A 0.41 0.38 83.5 0 0 120.30 49.49
  L 115.50 32.37
  A 0.72 0.61 80.6 0 0 114.89 31.85
  L 106.10 31.86
  A 0.95 0.88 -89.7 0 0 105.22 32.80
  L 105.09 48.43
  A 0.56 0.52 -88.4 0 0 105.58 48.99
  Z
  M 119.8371 31.8011
  A 0.26 0.26 0.0 0 0 119.5180 31.6184
  L 118.0319 32.0221
  A 0.26 0.26 0.0 0 0 117.8491 32.3412
  L 122.6629 50.0589
  A 0.26 0.26 0.0 0 0 122.9820 50.2416
  L 124.4681 49.8379
  A 0.26 0.26 0.0 0 0 124.6509 49.5188
  L 119.8371 31.8011
  Z
  M 124.5330 32.1667
  A 0.42 0.42 0.0 0 0 124.0181 31.8706
  L 122.8209 32.1937
  A 0.42 0.42 0.0 0 0 122.5248 32.7086
  L 127.1670 49.9133
  A 0.42 0.42 0.0 0 0 127.6819 50.2094
  L 128.8791 49.8863
  A 0.42 0.42 0.0 0 0 129.1752 49.3714
  L 124.5330 32.1667
  Z
  M 129.4228 33.3140
  A 0.26 0.26 0.0 0 0 129.1047 33.1296
  L 127.5972 33.5307
  A 0.26 0.26 0.0 0 0 127.4128 33.8489
  L 131.7172 50.0260
  A 0.26 0.26 0.0 0 0 132.0353 50.2104
  L 133.5428 49.8093
  A 0.26 0.26 0.0 0 0 133.7272 49.4911
  L 129.4228 33.3140
  Z
  M 134.4797 34.3583
  A 0.99 0.99 0.0 0 0 133.2612 33.6689
  L 132.8372 33.7865
  A 0.99 0.99 0.0 0 0 132.1477 35.0050
  L 136.1403 49.4017
  A 0.99 0.99 0.0 0 0 137.3588 50.0911
  L 137.7828 49.9735
  A 0.99 0.99 0.0 0 0 138.4723 48.7550
  L 134.4797 34.3583
  Z
  M 138.7354 33.8498
  A 0.27 0.27 0.0 0 0 138.4064 33.6560
  L 137.1672 33.9765
  A 0.27 0.27 0.0 0 0 136.9734 34.3055
  L 141.0246 49.9702
  A 0.27 0.27 0.0 0 0 141.3536 50.1640
  L 142.5928 49.8435
  A 0.27 0.27 0.0 0 0 142.7866 49.5145
  L 138.7354 33.8498
  Z
  M 174.68 33.95
  L 150.97 34.21
  A 0.42 0.42 -7.6 0 0 150.57 34.73
  L 154.53 49.43
  A 0.71 0.65 -6.5 0 0 155.19 49.91
  L 177.34 49.97
  A 1.21 1.20 -5.0 0 0 178.53 48.56
  L 176.22 35.23
  A 1.55 1.55 84.7 0 0 174.68 33.95
  Z
  M 143.2872 34.0004
  A 0.26 0.26 0.0 0 0 142.9681 33.8176
  L 141.4048 34.2424
  A 0.26 0.26 0.0 0 0 141.2221 34.5615
  L 145.4328 50.0596
  A 0.26 0.26 0.0 0 0 145.7519 50.2424
  L 147.3152 49.8176
  A 0.26 0.26 0.0 0 0 147.4979 49.4985
  L 143.2872 34.0004
  Z
  M 147.8842 34.1781
  A 0.36 0.36 0.0 0 0 147.4425 33.9251
  L 146.0914 34.2921
  A 0.36 0.36 0.0 0 0 145.8384 34.7339
  L 149.9758 49.9619
  A 0.36 0.36 0.0 0 0 150.4175 50.2149
  L 151.7686 49.8479
  A 0.36 0.36 0.0 0 0 152.0216 49.4061
  L 147.8842 34.1781
  Z
  M 10.22 35.06
  C 9.04 36.76 7.18 48.00 10.65 46.31
  A 0.79 0.66 75.0 0 0 11.01 45.54
  Q 10.34 40.38 11.23 35.25
  A 0.51 0.33 -71.7 0 0 11.12 34.82
  Q 11.02 34.74 10.89 34.71
  A 0.78 0.55 -62.7 0 0 10.22 35.06
  Z
  M 180.67 51.95
  C 182.49 57.07 185.94 58.97 190.01 61.98
  Q 191.36 62.97 190.98 61.34
  C 190.08 57.49 186.83 44.50 181.89 44.33
  A 0.94 0.93 -5.4 0 0 180.94 45.47
  Q 181.61 48.34 180.69 51.00
  A 1.60 1.34 -48.8 0 0 180.67 51.95
  Z
  M 97.26 51.64
  C 95.86 55.38 106.20 55.86 108.28 56.03
  A 1.32 1.15 24.4 0 0 109.18 55.76
  Q 110.63 54.58 111.35 52.58
  A 0.48 0.48 14.1 0 0 110.97 51.95
  Q 104.54 50.97 97.96 51.16
  A 0.79 0.73 8.1 0 0 97.26 51.64
  Z
  M 107.32 58.42
  C 104.26 57.96 94.90 57.16 94.96 52.81
  A 1.01 0.98 -90.0 0 0 93.96 51.78
  L 78.91 52.10
  A 0.60 0.56 1.0 0 0 78.32 52.63
  L 78.23 54.46
  A 1.48 1.13 72.6 0 1 77.92 55.31
  Q 77.18 56.15 77.40 57.24
  A 0.60 0.54 -8.1 0 0 78.04 57.67
  Q 81.36 57.29 84.81 57.21
  C 90.77 57.07 88.80 61.79 89.00 65.33
  Q 89.19 68.45 89.65 71.25
  Q 89.96 73.13 91.85 73.23
  C 95.07 73.39 96.30 72.60 98.21 69.86
  C 101.89 64.59 108.73 63.96 114.45 64.70
  A 0.46 0.44 -2.0 0 0 114.97 64.17
  L 113.06 55.79
  Q 112.71 54.25 112.08 55.74
  Q 110.72 58.93 107.32 58.42
  Z
  M 70.50 54.35
  C 72.13 54.30 73.56 54.80 75.21 54.96
  A 0.67 0.61 10.9 0 0 75.90 54.54
  Q 76.24 53.53 75.88 52.47
  A 0.72 0.66 -9.9 0 0 75.19 52.03
  L 33.05 53.07
  A 0.72 0.68 7.1 0 0 32.38 53.56
  Q 32.01 54.78 32.33 56.06
  A 0.68 0.64 -4.9 0 0 32.96 56.56
  Q 37.72 56.76 42.40 56.27
  Q 43.68 56.14 47.47 54.95
  Q 50.23 54.08 53.27 54.22
  Q 61.86 54.63 70.50 54.35
  Z
  M 138.97 52.44
  L 114.67 52.23
  A 0.35 0.35 80.9 0 0 114.34 52.69
  Q 116.12 58.00 116.85 63.71
  A 0.71 0.70 87.5 0 0 117.51 64.32
  Q 130.29 65.09 142.03 63.34
  A 0.45 0.44 -11.4 0 0 142.41 62.79
  L 139.63 52.93
  A 0.71 0.68 -7.2 0 0 138.97 52.44
  Z
  M 29.80 53.54
  A 0.56 0.53 1.2 0 0 29.27 53.02
  L 14.99 52.26
  A 0.51 0.47 86.9 0 0 14.51 52.84
  L 15.05 56.45
  A 1.28 1.14 84.1 0 0 16.25 57.55
  L 28.47 56.98
  A 0.92 0.76 8.7 0 0 29.21 56.54
  Q 29.86 55.22 29.80 53.54
  Z
  M 145.11 64.98
  Q 144.03 69.01 146.44 72.73
  A 1.02 0.95 -14.4 0 0 147.23 73.16
  L 171.00 73.92
  A 0.37 0.37 -6.5 0 0 171.37 73.46
  L 166.37 53.28
  A 1.07 1.07 -6.9 0 0 165.33 52.47
  L 142.42 52.40
  A 0.47 0.46 -8.0 0 0 141.97 52.99
  L 145.13 64.03
  A 1.98 1.28 -55.9 0 1 145.11 64.98
  Z
  M 168.59 52.81
  C 168.06 54.78 176.74 54.81 177.79 54.77
  A 1.30 0.98 13.8 0 0 178.66 54.40
  Q 179.30 53.65 178.58 52.82
  A 1.25 0.87 -13.0 0 0 177.73 52.48
  L 169.28 52.39
  A 0.73 0.57 6.5 0 0 168.59 52.81
  Z
  M 12.49 56.62
  C 9.32 57.58 10.10 67.72 10.72 70.10
  A 0.37 0.36 -13.8 0 0 11.16 70.36
  Q 20.80 68.12 25.64 60.52
  Q 26.67 58.91 24.78 59.17
  C 21.84 59.57 12.75 61.92 12.94 57.03
  A 0.40 0.35 83.5 0 0 12.49 56.62
  Z
  M 49.32 58.18
  C 56.14 57.73 62.92 58.51 69.76 58.13
  Q 73.90 57.89 73.72 61.69
  A 1.08 0.79 -74.6 0 0 74.04 62.53
  C 74.98 63.27 75.32 62.08 75.28 61.39
  Q 74.99 56.36 69.42 56.62
  Q 64.84 56.83 49.50 56.75
  C 47.33 56.74 46.69 58.35 49.32 58.18
  Z
  M 177.22 57.03
  C 174.92 57.01 172.61 56.63 170.28 56.55
  A 0.48 0.46 0.6 0 0 169.78 57.02
  Q 169.82 58.86 170.71 60.42
  A 1.22 1.21 -24.9 0 0 172.19 60.96
  Q 175.15 59.86 177.48 57.69
  Q 178.17 57.04 177.22 57.03
  Z
  M 180.76 57.87
  A 0.25 0.25 39.4 0 0 180.43 57.90
  Q 176.78 61.81 171.58 63.57
  A 0.54 0.54 -18.4 0 0 171.24 64.25
  L 173.94 72.10
  A 0.43 0.42 -27.1 0 0 174.59 72.30
  Q 180.63 68.01 187.51 67.27
  Q 190.07 66.99 188.50 65.01
  Q 185.50 61.23 180.76 57.87
  Z
  M 28.70 60.92
  Q 24.55 66.54 18.58 70.11
  A 0.46 0.46 -41.2 0 0 18.53 70.86
  Q 24.62 75.83 31.54 79.72
  C 34.69 81.50 36.32 80.79 39.20 79.21
  C 46.05 75.44 49.99 67.92 46.19 60.58
  Q 45.37 58.98 43.60 58.99
  L 32.38 59.04
  Q 30.09 59.05 28.70 60.92
  Z
  M 86.7147 60.4038
  A 0.83 0.83 0.0 0 0 85.8818 59.5767
  L 78.2419 59.6034
  A 0.83 0.83 0.0 0 0 77.4148 60.4363
  L 77.4453 69.1762
  A 0.83 0.83 0.0 0 0 78.2782 70.0033
  L 85.9181 69.9766
  A 0.83 0.83 0.0 0 0 86.7452 69.1437
  L 86.7147 60.4038
  Z
  M 71.1459 61.3428
  A 0.70 0.70 0.0 0 0 70.4569 60.6319
  L 49.8595 60.3084
  A 0.70 0.70 0.0 0 0 49.1486 60.9973
  L 49.1341 61.9172
  A 0.70 0.70 0.0 0 0 49.8231 62.6281
  L 70.4205 62.9516
  A 0.70 0.70 0.0 0 0 71.1314 62.2627
  L 71.1459 61.3428
  Z
  M 70.9671 65.7231
  A 0.50 0.50 0.0 0 0 70.4706 65.2196
  L 50.5311 65.0804
  A 0.50 0.50 0.0 0 0 50.0276 65.5769
  L 50.0129 67.6769
  A 0.50 0.50 0.0 0 0 50.5094 68.1804
  L 70.4489 68.3196
  A 0.50 0.50 0.0 0 0 70.9524 67.8231
  L 70.9671 65.7231
  Z
  M 75.10 67.46
  C 75.06 66.73 75.89 64.01 74.07 65.17
  A 1.01 0.88 77.6 0 0 73.64 65.96
  Q 73.32 72.88 73.84 79.84
  C 73.96 81.39 76.11 83.78 75.83 79.49
  Q 75.45 73.48 75.10 67.46
  Z
  M 95.29 75.78
  L 89.53 75.29
  A 1.21 1.12 -14.4 0 1 88.71 74.85
  Q 87.98 73.88 87.69 72.63
  A 0.53 0.53 79.4 0 0 87.10 72.22
  Q 82.69 72.86 78.28 72.20
  A 0.70 0.67 89.9 0 0 77.52 72.99
  L 78.50 79.69
  A 0.61 0.57 85.8 0 0 79.06 80.20
  Q 88.77 80.52 98.45 79.66
  A 1.55 1.55 -89.1 0 0 99.85 78.30
  C 100.67 71.68 107.29 69.30 113.01 69.47
  Q 134.82 70.09 139.00 70.07
  Q 145.05 70.03 140.91 66.86
  A 1.46 1.33 -25.4 0 0 140.00 66.58
  Q 125.93 67.25 111.80 67.00
  C 106.10 66.90 100.98 68.57 98.75 73.70
  Q 97.75 75.99 95.29 75.78
  Z
  M 56.09 86.55
  C 69.20 86.64 72.46 85.23 71.03 71.04
  A 0.57 0.55 87.1 0 0 70.48 70.53
  L 49.88 70.58
  A 0.78 0.75 -78.3 0 0 49.20 71.05
  Q 45.57 79.83 35.73 82.95
  C 32.34 84.02 31.99 83.11 28.81 81.16
  Q 23.16 77.70 18.25 73.26
  Q 17.62 72.69 17.63 73.55
  L 17.72 83.47
  Q 17.75 85.86 19.96 86.35
  Q 22.83 86.97 25.25 86.90
  Q 40.66 86.44 56.09 86.55
  Z
  M 13.42 76.89
  C 17.16 77.94 15.96 70.37 13.27 72.16
  A 1.07 0.75 -22.8 0 0 12.79 72.93
  L 12.87 76.26
  A 0.75 0.64 8.5 0 0 13.42 76.89
  Z
  M 133.05 74.98
  C 134.04 81.38 122.71 78.83 127.98 72.84
  A 0.36 0.35 -58.3 0 0 127.86 72.27
  Q 126.03 71.54 123.96 71.96
  A 0.40 0.40 71.9 0 0 123.68 72.52
  Q 126.80 79.57 123.42 86.46
  A 0.34 0.34 -74.4 0 0 123.69 86.95
  C 127.52 87.24 133.39 87.37 134.70 83.70
  Q 136.13 79.70 134.15 74.64
  A 0.95 0.65 82.2 0 0 133.68 74.12
  Q 133.46 74.05 133.28 74.12
  A 0.89 0.45 78.1 0 0 133.05 74.98
  Z
  M 103.01 83.35
  C 107.24 87.70 112.76 88.30 118.07 87.53
  Q 120.70 87.16 121.69 84.69
  Q 124.27 78.30 120.96 72.47
  A 0.92 0.87 -12.8 0 0 120.21 72.03
  C 113.20 71.74 101.65 70.60 101.96 80.87
  A 3.73 3.69 22.3 0 0 103.01 83.35
  Z
  M 137.92 72.46
  C 133.62 71.41 136.33 73.85 136.73 75.01
  Q 138.54 80.20 136.42 85.30
  A 1.41 1.22 -45.9 0 0 136.37 86.23
  Q 137.71 90.24 141.97 89.81
  A 0.44 0.41 79.8 0 0 142.32 89.27
  L 138.28 72.85
  A 0.55 0.47 88.0 0 0 137.92 72.46
  Z
  M 143.69 97.59
  Q 143.45 97.53 143.53 97.76
  C 146.35 105.86 147.62 115.87 149.26 122.39
  Q 151.54 131.49 153.93 140.57
  C 154.75 143.67 149.31 152.43 157.76 151.28
  Q 159.68 151.03 160.03 149.02
  L 160.85 144.47
  A 1.91 1.02 -33.5 0 1 161.31 143.62
  Q 162.31 142.49 162.01 141.25
  C 159.50 130.59 155.16 117.30 152.63 105.08
  C 150.38 94.23 148.14 83.49 144.08 73.13
  A 1.43 1.14 86.7 0 0 143.44 72.42
  Q 142.14 71.86 140.93 72.47
  A 0.70 0.65 71.9 0 0 140.59 73.21
  Q 142.69 83.39 146.05 93.19
  Q 146.60 94.80 146.04 96.42
  Q 145.46 98.04 143.69 97.59
  Z
  M 129.68 76.44
  Q 130.98 76.01 130.69 75.21
  A 0.74 0.69 -12.9 0 0 129.93 74.77
  Q 128.88 74.87 129.27 76.22
  A 0.32 0.32 72.9 0 0 129.68 76.44
  Z
  M 148.20 75.67
  A 0.53 0.52 81.8 0 0 147.69 76.37
  C 150.80 85.60 152.59 94.91 154.79 104.35
  C 157.51 116.01 161.54 129.25 164.42 141.87
  A 0.80 0.80 -6.0 0 0 165.19 142.49
  C 173.42 142.58 181.61 142.41 189.89 142.63
  A 1.37 1.36 0.0 0 0 191.30 141.23
  C 190.89 126.58 189.51 112.10 180.97 99.86
  C 177.94 95.52 172.45 91.91 170.62 87.18
  C 169.26 83.66 170.31 80.32 170.89 77.04
  A 0.45 0.45 -83.8 0 0 170.47 76.51
  L 148.20 75.67
  Z
  M 141.50 92.25
  Q 137.38 92.57 134.86 88.56
  A 0.68 0.64 65.5 0 0 134.13 88.26
  C 127.48 90.05 119.93 89.73 113.03 90.07
  Q 103.68 90.53 99.88 82.53
  A 0.73 0.72 -14.4 0 0 99.18 82.12
  L 89.52 82.81
  A 0.44 0.43 -6.9 0 0 89.11 83.32
  Q 89.92 87.73 89.26 91.70
  A 0.93 0.92 2.7 0 0 90.24 92.77
  Q 100.52 92.05 110.82 92.23
  C 114.67 92.29 117.70 93.19 121.33 94.17
  C 128.94 96.21 134.84 89.77 143.09 94.34
  A 0.33 0.31 17.2 0 0 143.58 94.10
  Q 143.73 92.08 141.50 92.25
  Z
  M 52.82 88.72
  Q 39.41 88.31 26.00 89.34
  Q 25.76 89.36 25.50 89.33
  Q 21.69 88.89 25.29 89.94
  Q 25.50 90.01 25.74 90.01
  Q 44.55 90.00 63.37 89.99
  C 67.73 89.99 70.87 87.59 73.70 84.64
  A 0.94 0.79 -33.4 0 0 73.95 83.80
  Q 73.68 82.88 72.91 83.71
  C 66.89 90.19 62.82 89.03 52.82 88.72
  Z
  M 74.31 87.81
  Q 75.05 87.00 74.33 87.09
  A 1.06 0.72 -63.8 0 0 73.73 87.43
  Q 69.37 92.19 62.00 92.19
  Q 46.55 92.19 31.08 92.17
  C 29.15 92.16 31.46 93.15 31.60 93.16
  Q 47.40 94.04 63.16 93.12
  C 68.37 92.81 71.01 91.48 74.31 87.81
  Z
  M 163.13 145.76
  L 161.68 151.12
  A 0.30 0.28 -87.0 0 0 162.00 151.50
  Q 175.27 149.40 188.50 147.32
  Q 190.02 147.08 190.10 145.31
  A 0.50 0.47 1.6 0 0 189.60 144.81
  L 164.32 144.78
  A 1.32 1.21 -81.9 0 0 163.13 145.76
  Z
  M 81.09 148.38
  C 76.87 148.86 81.13 150.18 81.92 150.10
  C 94.30 148.83 103.16 152.01 114.62 156.00
  C 130.64 161.58 141.07 174.61 158.95 175.23
  C 169.95 175.61 173.15 167.37 173.66 157.81
  A 0.92 0.76 -75.7 0 0 173.28 157.01
  Q 172.70 156.66 172.41 157.15
  A 2.93 2.90 -29.3 0 0 171.99 158.62
  Q 171.90 165.19 168.77 168.60
  C 163.32 174.53 149.91 172.19 143.43 169.06
  C 122.26 158.84 106.79 145.45 81.09 148.38
  Z
  M 163.36 154.21
  C 163.25 155.19 178.23 155.00 179.89 155.03
  C 183.46 155.09 185.80 154.14 186.61 150.58
  A 0.35 0.34 0.9 0 0 186.20 150.17
  L 163.97 153.65
  A 0.74 0.61 -2.9 0 0 163.36 154.21
  Z"
/>
<path fill="#F4F4F4" d="
  M 40.47 46.98
  A 1.23 1.22 88.2 0 1 39.77 46.32
  C 38.57 43.62 36.88 35.87 41.23 34.72
  Q 41.53 34.64 44.80 34.55
  Q 78.94 33.62 88.50 33.82
  C 93.35 33.92 94.99 38.17 94.83 42.23
  C 94.67 46.38 90.59 47.20 86.93 47.24
  Q 66.47 47.44 46.00 47.96
  Q 43.25 48.02 40.47 46.98
  Z
  M 48.38 36.65
  C 46.26 36.71 44.10 36.26 41.72 37.29
  A 1.00 0.99 83.6 0 0 41.16 38.00
  Q 40.51 41.29 41.60 44.54
  A 0.98 0.95 -0.9 0 0 42.25 45.15
  C 49.34 47.14 58.03 45.03 65.72 45.37
  Q 76.02 45.82 86.29 45.23
  C 89.68 45.03 93.41 43.55 91.95 39.49
  Q 91.15 37.24 88.83 36.70
  C 85.59 35.93 83.09 36.23 79.99 36.23
  Q 64.18 36.22 48.38 36.65
  Z"
/>
<path fill="#F4F4F4" d="
  M 135.49 56.83
  Q 136.72 57.72 136.22 58.97
  A 0.85 0.72 7.0 0 1 135.50 59.44
  Q 128.66 59.73 122.03 59.80
  Q 119.14 59.83 120.14 57.69
  A 0.78 0.78 -51.5 0 0 120.05 56.87
  C 118.52 54.92 120.33 54.48 121.83 54.48
  C 122.89 54.49 137.57 53.53 135.41 56.20
  A 0.44 0.44 -52.5 0 0 135.49 56.83
  Z
  M 132.0995 57.1536
  A 0.43 0.43 0.0 0 0 131.6650 56.7281
  L 121.7456 56.8320
  A 0.43 0.43 0.0 0 0 121.3201 57.2664
  L 121.3205 57.3064
  A 0.43 0.43 0.0 0 0 121.7550 57.7319
  L 131.6744 57.6280
  A 0.43 0.43 0.0 0 0 132.0999 57.1936
  L 132.0995 57.1536
  Z"
/>
<path fill="#F4F4F4" d="
  M 40.8691 71.1973
  A 6.51 6.23 45.3 0 1 31.8617 70.9521
  A 6.51 6.23 45.3 0 1 31.7109 61.9427
  A 6.51 6.23 45.3 0 1 40.7183 62.1879
  A 6.51 6.23 45.3 0 1 40.8691 71.1973
  Z
  M 37.26 62.55
  Q 34.68 61.88 32.99 64.16
  C 28.52 70.21 42.36 74.51 39.79 65.04
  Q 39.25 63.06 37.26 62.55
  Z"
/>
<path fill="#F4F4F4" d="
  M 133.16 82.64
  A 3.00 3.00 0.0 0 1 130.16 85.64
  A 3.00 3.00 0.0 0 1 127.16 82.64
  A 3.00 3.00 0.0 0 1 130.16 79.64
  A 3.00 3.00 0.0 0 1 133.16 82.64
  Z
  M 129.53 82.56
  Q 129.58 83.41 130.46 83.30
  A 0.59 0.59 84.8 0 0 130.97 82.68
  Q 130.92 81.85 130.06 81.95
  A 0.60 0.58 -5.2 0 0 129.53 82.56
  Z"
/>
</svg>
