<?xml version="1.0" encoding="UTF-8" standalone="no"?>
<svg xmlns="http://www.w3.org/2000/svg" version="1.2" baseProfile="tiny" viewBox="0 0 980 980">
<path fill="none" stroke-width="1.00" stroke="#f4f4f4" vector-effect="non-scaling-stroke" d="
  M 0.00 0.00
  L 980.00 0.00
  L 980.00 980.00
  L 0.00 980.00
  L 0.00 0.00
  Z"
/>
<path fill="none" stroke-width="1.00" stroke="#f4f4f4" vector-effect="non-scaling-stroke" d="
  M 410.54 323.95
  L 418.99 287.76
  L 420.39 284.15
  L 422.45 281.59
  L 422.45 281.59
  L 426.40 279.50
  L 432.29 278.77
  L 487.00 278.57
  L 548.23 278.82
  L 553.36 279.44
  L 557.19 281.34
  L 557.19 281.34
  L 557.19 281.34
  L 559.65 284.35
  L 561.27 288.76
  L 569.57 323.80
  L 570.17 324.29
  L 720.21 324.50
  L 729.65 324.86
  L 736.15 325.89
  L 741.34 327.71
  L 746.19 330.22
  L 750.66 333.35
  L 754.68 337.03
  L 758.19 341.20
  L 761.12 345.78
  L 763.42 350.70
  L 765.02 355.89
  L 765.92 363.45
  L 766.23 375.81
  L 766.27 582.43
  L 766.27 623.75
  L 765.96 629.07
  L 765.07 634.19
  L 761.63 643.63
  L 759.06 648.01
  L 756.01 652.01
  L 752.49 655.59
  L 748.55 658.71
  L 748.55 658.71
  L 748.55 658.71
  L 748.55 658.71
  L 748.55 658.71
  L 743.17 661.85
  L 737.26 664.16
  L 731.19 665.51
  L 724.75 665.98
  L 600.74 666.00
  L 598.91 666.57
  L 583.73 676.15
  L 568.00 684.19
  L 551.53 690.79
  L 534.69 695.79
  L 517.49 699.21
  L 500.12 701.01
  L 482.69 701.18
  L 465.30 699.71
  L 465.30 699.71
  L 465.30 699.71
  L 465.30 699.71
  L 465.30 699.71
  L 454.11 697.89
  L 443.00 695.37
  L 432.02 692.17
  L 421.19 688.27
  L 410.59 683.71
  L 400.19 678.46
  L 390.29 672.68
  L 380.63 666.25
  L 379.73 665.96
  L 260.49 665.98
  L 250.64 665.60
  L 243.80 664.50
  L 238.68 662.71
  L 233.87 660.24
  L 229.43 657.16
  L 225.43 653.54
  L 221.92 649.43
  L 218.97 644.90
  L 216.64 640.02
  L 215.00 634.84
  L 214.08 627.44
  L 213.77 615.46
  L 213.75 491.73
  L 213.77 368.00
  L 214.60 358.62
  L 217.06 349.96
  L 221.09 342.22
  L 226.66 335.59
  L 226.66 335.59
  L 230.66 332.26
  L 235.18 329.45
  L 239.90 327.29
  L 245.07 325.65
  L 250.65 324.77
  L 258.01 324.51
  L 278.34 324.44
  L 295.09 324.36
  L 409.94 324.44
  L 410.54 323.95
  Z"
/>
<path fill="none" stroke-width="1.00" stroke="#f4f4f4" vector-effect="non-scaling-stroke" d="
  M 559.81 337.19
  L 723.57 337.40
  L 729.70 337.92
  L 735.35 339.43
  L 740.42 341.91
  L 744.79 345.35
  L 744.79 345.35
  L 748.96 350.66
  L 751.83 357.26
  L 752.92 363.45
  L 753.27 372.37
  L 753.21 409.83
  L 752.71 410.33
  L 627.41 410.49
  L 627.11 410.59
  L 627.20 410.91
  L 635.28 422.85
  L 636.06 423.26
  L 752.73 423.29
  L 753.23 423.79
  L 753.27 618.78
  L 752.92 627.11
  L 751.87 633.03
  L 748.91 639.93
  L 744.73 645.22
  L 744.73 645.22
  L 740.13 648.68
  L 734.79 651.07
  L 728.41 652.57
  L 721.43 653.08
  L 662.26 653.05
  L 595.77 653.22
  L 594.87 653.52
  L 578.40 664.22
  L 561.19 672.98
  L 543.11 679.88
  L 524.59 684.74
  L 505.71 687.56
  L 486.71 688.31
  L 467.73 686.98
  L 448.95 683.56
  L 448.95 683.56
  L 448.95 683.56
  L 448.95 683.56
  L 432.22 678.63
  L 415.89 671.96
  L 400.38 663.70
  L 385.50 653.75
  L 384.30 653.35
  L 315.45 653.03
  L 254.75 652.89
  L 250.24 652.53
  L 246.03 651.55
  L 241.90 649.87
  L 238.18 647.58
  L 238.18 647.58
  L 238.18 647.58
  L 238.18 647.58
  L 233.39 643.06
  L 229.80 637.44
  L 227.55 630.94
  L 226.76 623.75
  L 226.74 534.88
  L 226.77 423.79
  L 227.28 423.29
  L 343.99 423.26
  L 344.77 422.85
  L 352.92 410.92
  L 353.00 410.62
  L 352.69 410.51
  L 248.83 410.51
  L 243.68 410.43
  L 227.85 410.60
  L 227.08 410.34
  L 226.74 409.62
  L 226.74 409.58
  L 226.73 371.90
  L 227.07 363.25
  L 228.13 357.25
  L 230.29 351.95
  L 233.34 347.40
  L 233.34 347.40
  L 233.34 347.40
  L 236.30 344.39
  L 239.78 341.82
  L 243.79 339.69
  L 248.32 338.00
  L 259.75 337.33
  L 420.18 337.23
  L 420.79 336.74
  L 431.21 291.94
  L 431.77 291.50
  L 547.98 291.50
  L 548.81 292.16
  L 559.20 336.69
  L 559.81 337.19
  Z"
/>
<path fill="none" stroke-width="1.00" stroke="#f4f4f4" vector-effect="non-scaling-stroke" d="
  M 683.06 298.45
  L 688.60 298.75
  L 691.09 299.71
  L 691.93 302.30
  L 691.92 314.54
  L 691.18 317.00
  L 688.70 318.43
  L 681.01 318.61
  L 678.43 318.50
  L 650.74 318.50
  L 648.39 317.75
  L 647.35 315.51
  L 646.95 308.72
  L 647.40 301.33
  L 648.23 299.44
  L 650.43 298.73
  L 654.97 298.74
  L 656.50 298.21
  L 656.75 296.41
  L 656.50 294.38
  L 656.88 293.08
  L 656.88 293.08
  L 657.91 292.47
  L 659.77 292.27
  L 668.82 292.24
  L 680.45 292.29
  L 681.92 292.79
  L 682.49 294.40
  L 682.54 297.94
  L 683.06 298.45
  Z"
/>
<rect fill="none" stroke-width="1.00" stroke="#f4f4f4" vector-effect="non-scaling-stroke" x="-22.43" y="-9.94" transform="translate(311.04,308.56) rotate(-0.1)" width="44.86" height="19.88" rx="4.04"/>
<rect fill="none" stroke-width="1.00" stroke="#f4f4f4" vector-effect="non-scaling-stroke" x="456.51" y="298.75" width="66.98" height="29.74" rx="6.39"/>
<path fill="none" stroke-width="1.00" stroke="#f4f4f4" vector-effect="non-scaling-stroke" d="
  M 655.42 513.69
  L 654.62 529.90
  L 652.24 545.96
  L 648.30 561.71
  L 642.83 576.99
  L 635.89 591.67
  L 627.54 605.59
  L 617.87 618.63
  L 606.97 630.66
  L 594.94 641.56
  L 581.90 651.23
  L 567.98 659.58
  L 553.30 666.52
  L 538.02 671.99
  L 522.27 675.93
  L 506.21 678.31
  L 490.00 679.11
  L 473.79 678.31
  L 457.73 675.93
  L 441.98 671.99
  L 426.70 666.52
  L 412.02 659.58
  L 398.10 651.23
  L 385.06 641.56
  L 373.03 630.66
  L 362.13 618.63
  L 352.46 605.59
  L 344.11 591.67
  L 337.17 576.99
  L 331.70 561.71
  L 327.76 545.96
  L 325.38 529.90
  L 324.58 513.69
  L 325.38 497.48
  L 327.76 481.42
  L 331.70 465.67
  L 337.17 450.39
  L 344.11 435.71
  L 352.46 421.79
  L 362.13 408.75
  L 373.03 396.72
  L 385.06 385.82
  L 398.10 376.15
  L 412.02 367.80
  L 426.70 360.86
  L 441.98 355.39
  L 457.73 351.45
  L 473.79 349.07
  L 490.00 348.27
  L 506.21 349.07
  L 522.27 351.45
  L 538.02 355.39
  L 553.30 360.86
  L 567.98 367.80
  L 581.90 376.15
  L 594.94 385.82
  L 606.97 396.72
  L 617.87 408.75
  L 627.54 421.79
  L 635.89 435.71
  L 642.83 450.39
  L 648.30 465.67
  L 652.24 481.42
  L 654.62 497.48
  L 655.42 513.69
  Z"
/>
<circle fill="none" stroke-width="1.00" stroke="#f4f4f4" vector-effect="non-scaling-stroke" cx="333.72" cy="376.07" r="15.32"/>
<rect fill="none" stroke-width="1.00" stroke="#f4f4f4" vector-effect="non-scaling-stroke" x="632.24" y="361.74" width="82.24" height="36.74" rx="7.78"/>
<path fill="none" stroke-width="1.00" stroke="#f4f4f4" vector-effect="non-scaling-stroke" d="
  M 630.08 513.67
  L 629.41 527.40
  L 627.39 541.00
  L 624.05 554.33
  L 619.42 567.28
  L 613.54 579.70
  L 606.47 591.49
  L 598.28 602.54
  L 589.05 612.72
  L 578.87 621.95
  L 567.82 630.14
  L 556.03 637.21
  L 543.61 643.09
  L 530.66 647.72
  L 517.33 651.06
  L 503.73 653.08
  L 490.00 653.75
  L 476.27 653.08
  L 462.67 651.06
  L 449.34 647.72
  L 436.39 643.09
  L 423.97 637.21
  L 412.18 630.14
  L 401.13 621.95
  L 390.95 612.72
  L 381.72 602.54
  L 373.53 591.49
  L 366.46 579.70
  L 360.58 567.28
  L 355.95 554.33
  L 352.61 541.00
  L 350.59 527.40
  L 349.92 513.67
  L 350.59 499.94
  L 352.61 486.34
  L 355.95 473.01
  L 360.58 460.06
  L 366.46 447.64
  L 373.53 435.85
  L 381.72 424.80
  L 390.95 414.62
  L 401.13 405.39
  L 412.18 397.20
  L 423.97 390.13
  L 436.39 384.25
  L 449.34 379.62
  L 462.67 376.28
  L 476.27 374.26
  L 490.00 373.59
  L 503.73 374.26
  L 517.33 376.28
  L 530.66 379.62
  L 543.61 384.25
  L 556.03 390.13
  L 567.82 397.20
  L 578.87 405.39
  L 589.05 414.62
  L 598.28 424.80
  L 606.47 435.85
  L 613.54 447.64
  L 619.42 460.06
  L 624.05 473.01
  L 627.39 486.34
  L 629.41 499.94
  L 630.08 513.67
  Z"
/>
<path fill="none" stroke-width="1.00" stroke="#f4f4f4" vector-effect="non-scaling-stroke" d="
  M 606.08 513.69
  L 605.52 525.07
  L 603.85 536.34
  L 601.08 547.39
  L 597.24 558.11
  L 592.37 568.41
  L 586.52 578.18
  L 579.73 587.33
  L 572.08 595.77
  L 563.64 603.42
  L 554.49 610.21
  L 544.72 616.06
  L 534.42 620.93
  L 523.70 624.77
  L 512.65 627.54
  L 501.38 629.21
  L 490.00 629.77
  L 478.62 629.21
  L 467.35 627.54
  L 456.30 624.77
  L 445.58 620.93
  L 435.28 616.06
  L 425.51 610.21
  L 416.36 603.42
  L 407.92 595.77
  L 400.27 587.33
  L 393.48 578.18
  L 387.63 568.41
  L 382.76 558.11
  L 378.92 547.39
  L 376.15 536.34
  L 374.48 525.07
  L 373.92 513.69
  L 374.48 502.31
  L 376.15 491.04
  L 378.92 479.99
  L 382.76 469.27
  L 387.63 458.97
  L 393.48 449.20
  L 400.27 440.05
  L 407.92 431.61
  L 416.36 423.96
  L 425.51 417.17
  L 435.28 411.32
  L 445.58 406.45
  L 456.30 402.61
  L 467.35 399.84
  L 478.62 398.17
  L 490.00 397.61
  L 501.38 398.17
  L 512.65 399.84
  L 523.70 402.61
  L 534.42 406.45
  L 544.72 411.32
  L 554.49 417.17
  L 563.64 423.96
  L 572.08 431.61
  L 579.73 440.05
  L 586.52 449.20
  L 592.37 458.97
  L 597.24 469.27
  L 601.08 479.99
  L 603.85 491.04
  L 605.52 502.31
  L 606.08 513.69
  Z"
/>
<circle fill="none" stroke-width="1.00" stroke="#f4f4f4" vector-effect="non-scaling-stroke" cx="529.97" cy="460.95" r="33.58"/>
<path fill="none" stroke-width="1.00" stroke="#f4f4f4" vector-effect="non-scaling-stroke" d="
  M 452.64 570.87
  L 444.77 564.89
  L 438.12 558.28
  L 432.43 550.82
  L 427.98 542.90
  L 427.98 542.90
  L 427.98 542.90
  L 427.98 542.90
  L 425.54 536.97
  L 423.70 530.90
  L 422.42 524.45
  L 421.78 517.93
  L 421.77 511.33
  L 422.37 504.78
  L 423.58 498.31
  L 425.38 491.99
  L 427.75 485.86
  L 430.67 479.96
  L 434.13 474.36
  L 438.11 469.11
  L 442.54 464.29
  L 447.44 459.91
  L 452.56 456.17
  L 458.07 452.92
  L 458.07 452.92
  L 458.07 452.92
  L 458.07 452.92
  L 458.07 452.92
  L 458.07 452.92
  L 466.46 449.24
  L 475.58 446.71
  L 484.96 445.47
  L 494.94 445.48
  L 495.38 445.99
  L 495.38 446.01
  L 494.62 448.48
  L 494.23 449.18
  L 493.46 449.58
  L 485.89 449.75
  L 478.55 450.71
  L 471.20 452.53
  L 464.20 455.14
  L 457.61 458.50
  L 451.48 462.57
  L 445.88 467.30
  L 440.84 472.66
  L 440.84 472.66
  L 440.84 472.66
  L 440.84 472.66
  L 440.84 472.66
  L 436.12 479.12
  L 432.20 486.20
  L 429.25 493.58
  L 427.17 501.46
  L 426.21 508.12
  L 426.21 508.12
  L 426.09 517.69
  L 427.39 527.04
  L 430.15 536.32
  L 434.24 545.05
  L 439.59 553.09
  L 446.10 560.26
  L 453.43 566.24
  L 461.68 571.12
  L 466.49 573.25
  L 478.05 576.59
  L 489.72 577.72
  L 499.89 576.94
  L 509.75 574.58
  L 519.10 570.69
  L 527.77 565.33
  L 527.77 565.33
  L 527.77 565.33
  L 536.22 557.90
  L 543.38 548.89
  L 548.96 538.63
  L 552.49 527.90
  L 552.49 527.90
  L 553.78 519.57
  L 553.92 510.98
  L 552.91 502.13
  L 550.76 493.02
  L 550.97 492.18
  L 553.73 490.06
  L 553.78 490.03
  L 554.33 490.30
  L 556.72 498.75
  L 558.12 507.05
  L 558.51 515.22
  L 557.90 523.25
  L 557.90 523.25
  L 555.24 534.62
  L 550.49 545.70
  L 546.38 552.47
  L 541.62 558.60
  L 541.62 558.60
  L 534.53 565.61
  L 526.60 571.44
  L 517.72 576.17
  L 508.28 579.55
  L 498.46 581.53
  L 488.43 582.07
  L 478.66 581.16
  L 469.00 578.80
  L 469.00 578.80
  L 469.00 578.80
  L 460.66 575.44
  L 452.64 570.87
  Z"
/>
<circle fill="none" stroke-width="1.00" stroke="#f4f4f4" vector-effect="non-scaling-stroke" cx="490.02" cy="513.67" r="12.85"/>
<circle fill="none" stroke-width="1.00" stroke="#f4f4f4" vector-effect="non-scaling-stroke" cx="431.50" cy="585.76" r="7.50"/>
</svg>
